<?xml version="1.0" encoding="utf-8"?>
<!-- Generator: Adobe Illustrator 27.5.0, SVG Export Plug-In . SVG Version: 6.00 Build 0)  -->
<svg version="1.1" xmlns="http://www.w3.org/2000/svg" xmlns:xlink="http://www.w3.org/1999/xlink" x="0px" y="0px"
	 viewBox="0 0 750 500" style="enable-background:new 0 0 750 500;" xml:space="preserve">
<g id="BACKGROUND">
	<g>
		<g>
			<g>
				<path style="fill:#FFFFFF;" d="M254.34,461.551c0-0.943,0.385-1.858,1.043-2.531c0.672-0.656,1.586-1.041,2.529-1.041
					c0.943,0,1.872,0.385,2.529,1.041c1.33,1.331,1.33,3.732,0,5.061c-0.672,0.656-1.586,1.044-2.529,1.044
					c-0.943,0-1.857-0.388-2.529-1.044C254.725,463.407,254.34,462.494,254.34,461.551z"/>
			</g>
			<g>
				<path style="fill:#FFFFFF;" d="M114.109,457.978c1.986,0,3.587,1.599,3.587,3.572l0,0c0,1.971-1.601,3.573-3.587,3.573l0,0
					c-1.972,0-3.573-1.602-3.573-3.573l0,0C110.536,459.577,112.137,457.978,114.109,457.978z M134.66,457.978
					c1.972,0,3.573,1.599,3.573,3.572l0,0c0,1.971-1.601,3.573-3.573,3.573l0,0c-1.972,0-3.573-1.602-3.573-3.573l0,0
					C131.087,459.577,132.688,457.978,134.66,457.978z M155.198,457.978c1.972,0,3.573,1.599,3.573,3.572l0,0
					c0,1.971-1.601,3.573-3.573,3.573l0,0c-1.972,0-3.573-1.602-3.573-3.573l0,0C151.624,459.577,153.226,457.978,155.198,457.978z
					 M175.749,457.978c1.972,0,3.573,1.599,3.573,3.572l0,0c0,1.971-1.601,3.573-3.573,3.573l0,0c-1.972,0-3.573-1.602-3.573-3.573
					l0,0C172.176,459.577,173.777,457.978,175.749,457.978z M196.287,457.978c1.972,0,3.573,1.599,3.573,3.572l0,0
					c0,1.971-1.601,3.573-3.573,3.573l0,0c-1.972,0-3.573-1.602-3.573-3.573l0,0C192.713,459.577,194.314,457.978,196.287,457.978z
					 M216.824,457.978c1.972,0,3.572,1.599,3.572,3.572l0,0c0,1.971-1.601,3.573-3.572,3.573l0,0c-1.959,0-3.573-1.602-3.573-3.573
					l0,0C213.251,459.577,214.865,457.978,216.824,457.978z M237.375,457.978c1.973,0,3.573,1.599,3.573,3.572l0,0
					c0,1.971-1.6,3.573-3.573,3.573l0,0c-1.973,0-3.572-1.602-3.572-3.573l0,0C233.803,459.577,235.402,457.978,237.375,457.978z"/>
			</g>
		</g>
		<g>
			<g>
				<path style="fill:#FFFFFF;" d="M93.572,443.329c1.972,0,3.573,1.6,3.573,3.573l0,0c0,1.971-1.601,3.572-3.573,3.572l0,0
					c-1.972,0-3.573-1.602-3.573-3.572l0,0C89.998,444.929,91.6,443.329,93.572,443.329z M114.123,443.329
					c1.972,0,3.573,1.6,3.573,3.573l0,0c0,1.971-1.601,3.572-3.573,3.572l0,0c-1.972,0-3.573-1.602-3.573-3.572l0,0
					C110.55,444.929,112.151,443.329,114.123,443.329z M134.66,443.329c1.972,0,3.573,1.6,3.573,3.573l0,0
					c0,1.971-1.601,3.572-3.573,3.572l0,0c-1.972,0-3.573-1.602-3.573-3.572l0,0C131.087,444.929,132.688,443.329,134.66,443.329z
					 M155.198,443.329c1.972,0,3.573,1.6,3.573,3.573l0,0c0,1.971-1.601,3.572-3.573,3.572l0,0c-1.972,0-3.573-1.602-3.573-3.572
					l0,0C151.624,444.929,153.226,443.329,155.198,443.329z M175.749,443.329c1.972,0,3.573,1.6,3.573,3.573l0,0
					c0,1.971-1.601,3.572-3.573,3.572l0,0c-1.972,0-3.573-1.602-3.573-3.572l0,0C172.176,444.929,173.777,443.329,175.749,443.329z
					 M196.287,443.329c1.972,0,3.573,1.6,3.573,3.573l0,0c0,1.971-1.601,3.572-3.573,3.572l0,0c-1.972,0-3.573-1.602-3.573-3.572
					l0,0C192.713,444.929,194.314,443.329,196.287,443.329z M216.824,443.329c1.972,0,3.572,1.6,3.572,3.573l0,0
					c0,1.971-1.601,3.572-3.572,3.572l0,0c-1.973,0-3.573-1.602-3.573-3.572l0,0C213.251,444.929,214.852,443.329,216.824,443.329z
					 M237.375,443.329c1.973,0,3.573,1.6,3.573,3.573l0,0c0,1.971-1.6,3.572-3.573,3.572l0,0c-1.973,0-3.572-1.602-3.572-3.572l0,0
					C233.803,444.929,235.402,443.329,237.375,443.329z"/>
			</g>
		</g>
		<g>
			<g>
				<path style="fill:#FFFFFF;" d="M73.034,428.68c1.972,0,3.573,1.6,3.573,3.573l0,0c0,1.971-1.601,3.573-3.573,3.573l0,0
					c-1.972,0-3.573-1.603-3.573-3.573l0,0C69.461,430.279,71.062,428.68,73.034,428.68z M93.572,428.68
					c1.972,0,3.573,1.6,3.573,3.573l0,0c0,1.971-1.601,3.573-3.573,3.573l0,0c-1.972,0-3.573-1.603-3.573-3.573l0,0
					C89.998,430.279,91.6,428.68,93.572,428.68z M114.123,428.68c1.972,0,3.559,1.6,3.559,3.573l0,0
					c0,1.971-1.586,3.573-3.559,3.573l0,0c-1.972,0-3.573-1.603-3.573-3.573l0,0C110.55,430.279,112.151,428.68,114.123,428.68z
					 M134.66,428.68c1.972,0,3.573,1.6,3.573,3.573l0,0c0,1.971-1.601,3.573-3.573,3.573l0,0c-1.972,0-3.573-1.603-3.573-3.573l0,0
					C131.087,430.279,132.688,428.68,134.66,428.68z M155.198,428.68c1.972,0,3.573,1.6,3.573,3.573l0,0
					c0,1.971-1.601,3.573-3.573,3.573l0,0c-1.972,0-3.573-1.603-3.573-3.573l0,0C151.624,430.279,153.226,428.68,155.198,428.68z
					 M175.749,428.68c1.972,0,3.573,1.6,3.573,3.573l0,0c0,1.971-1.601,3.573-3.573,3.573l0,0c-1.972,0-3.573-1.603-3.573-3.573l0,0
					C172.176,430.279,173.777,428.68,175.749,428.68z M196.287,428.68c1.972,0,3.573,1.6,3.573,3.573l0,0
					c0,1.971-1.601,3.573-3.573,3.573l0,0c-1.972,0-3.573-1.603-3.573-3.573l0,0C192.713,430.279,194.314,428.68,196.287,428.68z
					 M216.824,428.68c1.985,0,3.572,1.6,3.572,3.573l0,0c0,1.971-1.587,3.573-3.572,3.573l0,0c-1.973,0-3.573-1.603-3.573-3.573l0,0
					C213.251,430.279,214.852,428.68,216.824,428.68z"/>
			</g>
		</g>
		<g>
			<g>
				<path style="fill:#FFFFFF;" d="M73.034,414.031c1.972,0,3.573,1.6,3.573,3.572l0,0c0,1.971-1.601,3.573-3.573,3.573l0,0
					c-1.972,0-3.573-1.603-3.573-3.573l0,0C69.461,415.631,71.062,414.031,73.034,414.031z M93.572,414.031
					c1.972,0,3.573,1.6,3.573,3.572l0,0c0,1.971-1.601,3.573-3.573,3.573l0,0c-1.972,0-3.573-1.603-3.573-3.573l0,0
					C89.998,415.631,91.6,414.031,93.572,414.031z M114.123,414.031c1.972,0,3.559,1.6,3.559,3.572l0,0
					c0,1.971-1.586,3.573-3.559,3.573l0,0c-1.972,0-3.573-1.603-3.573-3.573l0,0C110.55,415.631,112.151,414.031,114.123,414.031z
					 M134.66,414.031c1.972,0,3.573,1.6,3.573,3.572l0,0c0,1.971-1.601,3.573-3.573,3.573l0,0c-1.972,0-3.573-1.603-3.573-3.573l0,0
					C131.087,415.631,132.688,414.031,134.66,414.031z M155.198,414.031c1.972,0,3.573,1.6,3.573,3.572l0,0
					c0,1.971-1.601,3.573-3.573,3.573l0,0c-1.972,0-3.573-1.603-3.573-3.573l0,0C151.624,415.631,153.226,414.031,155.198,414.031z
					 M175.749,414.031c1.972,0,3.573,1.6,3.573,3.572l0,0c0,1.971-1.601,3.573-3.573,3.573l0,0c-1.972,0-3.573-1.603-3.573-3.573
					l0,0C172.176,415.631,173.777,414.031,175.749,414.031z M196.287,414.031c1.972,0,3.573,1.6,3.573,3.572l0,0
					c0,1.971-1.601,3.573-3.573,3.573l0,0c-1.972,0-3.573-1.603-3.573-3.573l0,0C192.713,415.631,194.314,414.031,196.287,414.031z"
					/>
			</g>
			<g>
				<path style="fill:#FFFFFF;" d="M48.91,417.603c0-0.943,0.387-1.858,1.058-2.531c0.657-0.656,1.587-1.041,2.515-1.041
					c0.943,0,1.873,0.385,2.53,1.041c1.329,1.331,1.329,3.732,0,5.061c-0.657,0.656-1.587,1.044-2.53,1.044
					c-0.928,0-1.858-0.388-2.515-1.044C49.296,419.46,48.91,418.548,48.91,417.603z"/>
			</g>
		</g>
		<g>
			<g>
				<path style="fill:#FFFFFF;" d="M73.034,399.382c1.972,0,3.573,1.6,3.573,3.573l0,0c0,1.971-1.601,3.573-3.573,3.573l0,0
					c-1.972,0-3.573-1.602-3.573-3.573l0,0C69.461,400.981,71.062,399.382,73.034,399.382z M93.572,399.382
					c1.972,0,3.573,1.6,3.573,3.573l0,0c0,1.971-1.601,3.573-3.573,3.573l0,0c-1.972,0-3.573-1.602-3.573-3.573l0,0
					C89.998,400.981,91.6,399.382,93.572,399.382z M114.123,399.382c1.972,0,3.559,1.6,3.559,3.573l0,0
					c0,1.971-1.586,3.573-3.559,3.573l0,0c-1.972,0-3.573-1.602-3.573-3.573l0,0C110.55,400.981,112.151,399.382,114.123,399.382z
					 M134.66,399.382c1.972,0,3.573,1.6,3.573,3.573l0,0c0,1.971-1.601,3.573-3.573,3.573l0,0c-1.972,0-3.573-1.602-3.573-3.573l0,0
					C131.087,400.981,132.688,399.382,134.66,399.382z M155.198,399.382c1.972,0,3.573,1.6,3.573,3.573l0,0
					c0,1.971-1.601,3.573-3.573,3.573l0,0c-1.972,0-3.573-1.602-3.573-3.573l0,0C151.624,400.981,153.226,399.382,155.198,399.382z
					 M175.749,399.382c1.972,0,3.573,1.6,3.573,3.573l0,0c0,1.971-1.601,3.573-3.573,3.573l0,0c-1.972,0-3.573-1.602-3.573-3.573
					l0,0C172.176,400.981,173.777,399.382,175.749,399.382z"/>
			</g>
			<g>
				<path style="fill:#FFFFFF;" d="M48.91,402.955c0-0.943,0.387-1.859,1.058-2.532c0.657-0.655,1.587-1.041,2.515-1.041
					c0.943,0,1.873,0.386,2.53,1.041c1.329,1.332,1.329,3.732,0,5.061c-0.657,0.655-1.587,1.044-2.53,1.044
					c-0.928,0-1.858-0.389-2.515-1.044C49.296,404.811,48.91,403.898,48.91,402.955z"/>
			</g>
		</g>
	</g>
	<g>
		<g>
			<g>
				<path style="fill:#FFFFFF;" d="M636.354,223.586c1.986,0,3.587,1.599,3.587,3.572l0,0c0,1.971-1.601,3.573-3.587,3.573l0,0
					c-1.972,0-3.573-1.602-3.573-3.573l0,0C632.781,225.185,634.383,223.586,636.354,223.586z M656.906,223.586
					c1.972,0,3.572,1.599,3.572,3.572l0,0c0,1.971-1.601,3.573-3.572,3.573l0,0c-1.973,0-3.573-1.602-3.573-3.573l0,0
					C653.333,225.185,654.934,223.586,656.906,223.586z M677.443,223.586c1.973,0,3.572,1.599,3.572,3.572l0,0
					c0,1.971-1.6,3.573-3.572,3.573l0,0c-1.973,0-3.573-1.602-3.573-3.573l0,0C673.87,225.185,675.471,223.586,677.443,223.586z
					 M697.994,223.586c1.973,0,3.573,1.599,3.573,3.572l0,0c0,1.971-1.601,3.573-3.573,3.573l0,0c-1.972,0-3.572-1.602-3.572-3.573
					l0,0C694.422,225.185,696.022,223.586,697.994,223.586z M718.532,223.586c1.972,0,3.573,1.599,3.573,3.572l0,0
					c0,1.971-1.602,3.573-3.573,3.573l0,0c-1.972,0-3.573-1.602-3.573-3.573l0,0C714.959,225.185,716.56,223.586,718.532,223.586z
					 M739.07,223.586c1.971,0,3.572,1.599,3.572,3.572l0,0c0,1.971-1.602,3.573-3.572,3.573l0,0c-1.959,0-3.574-1.602-3.574-3.573
					l0,0C735.496,225.185,737.111,223.586,739.07,223.586z"/>
			</g>
		</g>
		<g>
			<g>
				<path style="fill:#FFFFFF;" d="M615.817,208.936c1.972,0,3.573,1.6,3.573,3.573l0,0c0,1.971-1.602,3.572-3.573,3.572l0,0
					c-1.972,0-3.573-1.602-3.573-3.572l0,0C612.244,210.536,613.846,208.936,615.817,208.936z M636.369,208.936
					c1.972,0,3.572,1.6,3.572,3.573l0,0c0,1.971-1.601,3.572-3.572,3.572l0,0c-1.973,0-3.574-1.602-3.574-3.572l0,0
					C632.795,210.536,634.396,208.936,636.369,208.936z M656.906,208.936c1.972,0,3.572,1.6,3.572,3.573l0,0
					c0,1.971-1.601,3.572-3.572,3.572l0,0c-1.973,0-3.573-1.602-3.573-3.572l0,0C653.333,210.536,654.934,208.936,656.906,208.936z
					 M677.443,208.936c1.973,0,3.572,1.6,3.572,3.573l0,0c0,1.971-1.6,3.572-3.572,3.572l0,0c-1.973,0-3.573-1.602-3.573-3.572l0,0
					C673.87,210.536,675.471,208.936,677.443,208.936z M697.994,208.936c1.973,0,3.573,1.6,3.573,3.573l0,0
					c0,1.971-1.601,3.572-3.573,3.572l0,0c-1.972,0-3.572-1.602-3.572-3.572l0,0C694.422,210.536,696.022,208.936,697.994,208.936z
					 M718.532,208.936c1.972,0,3.573,1.6,3.573,3.573l0,0c0,1.971-1.602,3.572-3.573,3.572l0,0c-1.972,0-3.573-1.602-3.573-3.572
					l0,0C714.959,210.536,716.56,208.936,718.532,208.936z M739.07,208.936c1.971,0,3.572,1.6,3.572,3.573l0,0
					c0,1.971-1.602,3.572-3.572,3.572l0,0c-1.973,0-3.574-1.602-3.574-3.572l0,0C735.496,210.536,737.098,208.936,739.07,208.936z"
					/>
			</g>
		</g>
		<g>
			<g>
				<path style="fill:#FFFFFF;" d="M595.279,194.287c1.973,0,3.573,1.6,3.573,3.573l0,0c0,1.971-1.6,3.573-3.573,3.573l0,0
					c-1.972,0-3.572-1.602-3.572-3.573l0,0C591.707,195.887,593.308,194.287,595.279,194.287z M615.817,194.287
					c1.972,0,3.573,1.6,3.573,3.573l0,0c0,1.971-1.602,3.573-3.573,3.573l0,0c-1.972,0-3.573-1.602-3.573-3.573l0,0
					C612.244,195.887,613.846,194.287,615.817,194.287z M636.369,194.287c1.972,0,3.559,1.6,3.559,3.573l0,0
					c0,1.971-1.587,3.573-3.559,3.573l0,0c-1.973,0-3.574-1.602-3.574-3.573l0,0C632.795,195.887,634.396,194.287,636.369,194.287z
					 M656.906,194.287c1.972,0,3.572,1.6,3.572,3.573l0,0c0,1.971-1.601,3.573-3.572,3.573l0,0c-1.973,0-3.573-1.602-3.573-3.573
					l0,0C653.333,195.887,654.934,194.287,656.906,194.287z M677.443,194.287c1.973,0,3.572,1.6,3.572,3.573l0,0
					c0,1.971-1.6,3.573-3.572,3.573l0,0c-1.973,0-3.573-1.602-3.573-3.573l0,0C673.87,195.887,675.471,194.287,677.443,194.287z
					 M697.994,194.287c1.973,0,3.573,1.6,3.573,3.573l0,0c0,1.971-1.601,3.573-3.573,3.573l0,0c-1.972,0-3.572-1.602-3.572-3.573
					l0,0C694.422,195.887,696.022,194.287,697.994,194.287z M718.532,194.287c1.972,0,3.573,1.6,3.573,3.573l0,0
					c0,1.971-1.602,3.573-3.573,3.573l0,0c-1.972,0-3.573-1.602-3.573-3.573l0,0C714.959,195.887,716.56,194.287,718.532,194.287z
					 M739.07,194.287c1.984,0,3.572,1.6,3.572,3.573l0,0c0,1.971-1.588,3.573-3.572,3.573l0,0c-1.973,0-3.574-1.602-3.574-3.573l0,0
					C735.496,195.887,737.098,194.287,739.07,194.287z"/>
			</g>
		</g>
		<g>
			<g>
				<path style="fill:#FFFFFF;" d="M595.279,179.639c1.973,0,3.573,1.6,3.573,3.572l0,0c0,1.971-1.6,3.573-3.573,3.573l0,0
					c-1.972,0-3.572-1.603-3.572-3.573l0,0C591.707,181.238,593.308,179.639,595.279,179.639z M615.817,179.639
					c1.972,0,3.573,1.6,3.573,3.572l0,0c0,1.971-1.602,3.573-3.573,3.573l0,0c-1.972,0-3.573-1.603-3.573-3.573l0,0
					C612.244,181.238,613.846,179.639,615.817,179.639z M636.369,179.639c1.972,0,3.559,1.6,3.559,3.572l0,0
					c0,1.971-1.587,3.573-3.559,3.573l0,0c-1.973,0-3.574-1.603-3.574-3.573l0,0C632.795,181.238,634.396,179.639,636.369,179.639z
					 M656.906,179.639c1.972,0,3.572,1.6,3.572,3.572l0,0c0,1.971-1.601,3.573-3.572,3.573l0,0c-1.973,0-3.573-1.603-3.573-3.573
					l0,0C653.333,181.238,654.934,179.639,656.906,179.639z M677.443,179.639c1.973,0,3.572,1.6,3.572,3.572l0,0
					c0,1.971-1.6,3.573-3.572,3.573l0,0c-1.973,0-3.573-1.603-3.573-3.573l0,0C673.87,181.238,675.471,179.639,677.443,179.639z
					 M697.994,179.639c1.973,0,3.573,1.6,3.573,3.572l0,0c0,1.971-1.601,3.573-3.573,3.573l0,0c-1.972,0-3.572-1.603-3.572-3.573
					l0,0C694.422,181.238,696.022,179.639,697.994,179.639z M718.532,179.639c1.972,0,3.573,1.6,3.573,3.572l0,0
					c0,1.971-1.602,3.573-3.573,3.573l0,0c-1.972,0-3.573-1.603-3.573-3.573l0,0C714.959,181.238,716.56,179.639,718.532,179.639z"
					/>
			</g>
			<g>
				<path style="fill:#FFFFFF;" d="M571.155,183.211c0-0.943,0.387-1.858,1.058-2.531c0.658-0.656,1.588-1.041,2.516-1.041
					c0.943,0,1.873,0.385,2.53,1.041c1.329,1.331,1.329,3.732,0,5.061c-0.657,0.656-1.587,1.044-2.53,1.044
					c-0.928,0-1.857-0.388-2.516-1.044C571.542,185.067,571.155,184.155,571.155,183.211z"/>
			</g>
		</g>
		<g>
			<g>
				<path style="fill:#FFFFFF;" d="M595.279,164.989c1.973,0,3.573,1.6,3.573,3.573l0,0c0,1.971-1.6,3.573-3.573,3.573l0,0
					c-1.972,0-3.572-1.602-3.572-3.573l0,0C591.707,166.589,593.308,164.989,595.279,164.989z M615.817,164.989
					c1.972,0,3.573,1.6,3.573,3.573l0,0c0,1.971-1.602,3.573-3.573,3.573l0,0c-1.972,0-3.573-1.602-3.573-3.573l0,0
					C612.244,166.589,613.846,164.989,615.817,164.989z M636.369,164.989c1.972,0,3.559,1.6,3.559,3.573l0,0
					c0,1.971-1.587,3.573-3.559,3.573l0,0c-1.973,0-3.574-1.602-3.574-3.573l0,0C632.795,166.589,634.396,164.989,636.369,164.989z
					 M656.906,164.989c1.972,0,3.572,1.6,3.572,3.573l0,0c0,1.971-1.601,3.573-3.572,3.573l0,0c-1.973,0-3.573-1.602-3.573-3.573
					l0,0C653.333,166.589,654.934,164.989,656.906,164.989z M677.443,164.989c1.973,0,3.572,1.6,3.572,3.573l0,0
					c0,1.971-1.6,3.573-3.572,3.573l0,0c-1.973,0-3.573-1.602-3.573-3.573l0,0C673.87,166.589,675.471,164.989,677.443,164.989z
					 M697.994,164.989c1.973,0,3.573,1.6,3.573,3.573l0,0c0,1.971-1.601,3.573-3.573,3.573l0,0c-1.972,0-3.572-1.602-3.572-3.573
					l0,0C694.422,166.589,696.022,164.989,697.994,164.989z"/>
			</g>
			<g>
				<path style="fill:#FFFFFF;" d="M571.155,168.563c0-0.943,0.387-1.859,1.058-2.532c0.658-0.655,1.588-1.041,2.516-1.041
					c0.943,0,1.873,0.386,2.53,1.041c1.329,1.332,1.329,3.732,0,5.061c-0.657,0.655-1.587,1.044-2.53,1.044
					c-0.928,0-1.857-0.389-2.516-1.044C571.542,170.419,571.155,169.506,571.155,168.563z"/>
			</g>
		</g>
	</g>
	<radialGradient id="SVGID_1_" cx="132.0128" cy="326.496" r="1088.4966" gradientUnits="userSpaceOnUse">
		<stop  offset="0" style="stop-color:#E2E7E7"/>
		<stop  offset="0.0264" style="stop-color:#E4E9E9"/>
		<stop  offset="0.2775" style="stop-color:#F3F5F5"/>
		<stop  offset="0.5698" style="stop-color:#FCFDFD"/>
		<stop  offset="1" style="stop-color:#FFFFFF"/>
	</radialGradient>
	<rect style="fill:url(#SVGID_1_);" width="750" height="500"/>
</g>
<g id="OBJECTS">
	<g>
		<defs>
			<rect id="SVGID_00000110464554305789951210000000307486691757163406_" x="-0.001" width="750" height="500"/>
		</defs>
		<clipPath id="SVGID_00000034068651968387543480000001119027646372731523_">
			<use xlink:href="#SVGID_00000110464554305789951210000000307486691757163406_"  style="overflow:visible;"/>
		</clipPath>
		<g style="clip-path:url(#SVGID_00000034068651968387543480000001119027646372731523_);">
			<g>
				<g>
					<g>
						<path style="fill:#CED6DB;" d="M-23.311,397.358c-106.573,0-193.276-86.703-193.276-193.277
							c0-106.573,86.703-193.277,193.276-193.277c106.572,0,193.276,86.704,193.276,193.277
							C169.965,310.655,83.261,397.358-23.311,397.358z M-23.311,15.49c-103.99,0-188.59,84.602-188.59,188.592
							c0,103.99,84.6,188.589,188.59,188.589c103.989,0,188.593-84.6,188.593-188.589C165.282,100.091,80.678,15.49-23.311,15.49z"
							/>
					</g>
					<g>
						<path style="fill:#CED6DB;" d="M-23.311,423.714c-121.106,0-219.632-98.527-219.632-219.632
							c0-121.105,98.525-219.631,219.632-219.631c121.105,0,219.634,98.525,219.634,219.631
							C196.323,325.186,97.794,423.714-23.311,423.714z M-23.311,2.018c-111.417,0-202.063,90.646-202.063,202.063
							c0,111.417,90.645,202.062,202.063,202.062c111.417,0,202.062-90.645,202.062-202.062
							C178.751,92.665,88.105,2.018-23.311,2.018z"/>
					</g>
					<g>
						<path style="fill:#CED6DB;" d="M-23.311,463.772c-143.194,0-259.691-116.498-259.691-259.691
							c0-143.194,116.497-259.691,259.691-259.691c143.192,0,259.69,116.497,259.69,259.691
							C236.379,347.274,119.881,463.772-23.311,463.772z M-23.311-53.975c-142.294,0-258.056,115.763-258.056,258.056
							c0,142.292,115.762,258.056,258.056,258.056c142.292,0,258.056-115.764,258.056-258.056
							C234.745,61.789,118.98-53.975-23.311-53.975z"/>
					</g>
					<g>
						<path style="fill:#CED6DB;" d="M-23.311,388.749c-101.825,0-184.667-82.842-184.667-184.667
							c0-101.827,82.842-184.668,184.667-184.668c101.825,0,184.667,82.841,184.667,184.668
							C161.356,305.907,78.514,388.749-23.311,388.749z M-23.311,21.048c-100.924,0-183.032,82.109-183.032,183.033
							c0,100.923,82.107,183.033,183.032,183.033c100.923,0,183.032-82.109,183.032-183.033
							C159.721,103.158,77.612,21.048-23.311,21.048z"/>
					</g>
					
						<ellipse transform="matrix(0.1121 -0.9937 0.9937 0.1121 -223.4921 158.0365)" style="fill:#CED6DB;" cx="-23.311" cy="204.082" rx="155.43" ry="155.432"/>
					<path style="fill:#DFE6EA;" d="M-163.216,204.694c0-77.269,62.638-139.903,139.905-139.903
						c77.268,0,139.907,62.635,139.907,139.903c0,77.269-62.64,139.905-139.907,139.905
						C-100.578,344.599-163.216,281.963-163.216,204.694z"/>
					
						<ellipse transform="matrix(0.0368 -0.9993 0.9993 0.0368 -226.3962 173.2738)" style="fill:#CED6DB;" cx="-23.311" cy="204.081" rx="108.441" ry="108.44"/>
					<path style="fill:#EFF2F4;" d="M-120.92,204.509c0-53.909,43.702-97.607,97.609-97.607c53.909,0,97.608,43.698,97.608,97.607
						c0,53.907-43.7,97.609-97.608,97.609C-77.218,302.118-120.92,258.416-120.92,204.509z"/>
					<g>
						<g>
							<g>
								<path style="fill:#CED6DB;" d="M-16.5-54.792c0,3.761-3.049,6.81-6.811,6.81c-3.762,0-6.813-3.049-6.813-6.81
									c0-3.762,3.05-6.811,6.813-6.811C-19.55-61.603-16.5-58.554-16.5-54.792z"/>
							</g>
							<g>
								<path style="fill:#CED6DB;" d="M-16.5,462.954c0,3.764-3.049,6.813-6.811,6.813c-3.762,0-6.813-3.049-6.813-6.813
									c0-3.762,3.05-6.811,6.813-6.811C-19.55,456.144-16.5,459.192-16.5,462.954z"/>
							</g>
							<g>
								<path style="fill:#CED6DB;" d="M-282.184,210.893c-3.762,0-6.811-3.051-6.811-6.812c0-3.762,3.049-6.811,6.811-6.811
									c3.761,0,6.811,3.05,6.811,6.811C-275.374,207.842-278.423,210.893-282.184,210.893z"/>
							</g>
						</g>
						<g>
							<g>
								<path style="fill:#CED6DB;" d="M164.556,25.846c-2.66,2.66-6.971,2.658-9.631,0c-2.66-2.66-2.66-6.973,0-9.632
									c2.66-2.66,6.971-2.66,9.631,0C167.216,18.874,167.216,23.186,164.556,25.846z"/>
							</g>
							<g>
								<path style="fill:#CED6DB;" d="M-201.546,391.948c-2.659,2.66-6.974,2.66-9.631,0c-2.661-2.658-2.661-6.971,0-9.631
									c2.658-2.66,6.972-2.66,9.631,0C-198.887,384.978-198.887,389.29-201.546,391.948z"/>
							</g>
							<g>
								<path style="fill:#CED6DB;" d="M154.925,391.948c-2.66-2.658-2.66-6.971,0-9.631c2.66-2.66,6.971-2.66,9.631,0
									c2.66,2.66,2.66,6.973,0,9.631C161.896,394.608,157.585,394.608,154.925,391.948z"/>
							</g>
							<g>
								<path style="fill:#CED6DB;" d="M-211.177,25.846c-2.661-2.66-2.661-6.973,0-9.632c2.658-2.66,6.972-2.66,9.631,0
									c2.659,2.659,2.662,6.972,0,9.632C-204.205,28.504-208.52,28.504-211.177,25.846z"/>
							</g>
						</g>
					</g>
				</g>
				<g>
					<g>
						<g>
							<rect x="-25.311" y="-43.788" style="fill:#CED6DB;" width="4" height="16.894"/>
						</g>
						<g>
							<rect x="-25.311" y="435.058" style="fill:#CED6DB;" width="4" height="16.893"/>
						</g>
					</g>
					<g>
						<g>
							
								<rect x="-33.667" y="-43.641" transform="matrix(0.9994 -0.0349 0.0349 0.9994 1.2105 -1.1281)" style="fill:#CED6DB;" width="4" height="16.892"/>
						</g>
						<g>
							
								<rect x="-16.955" y="434.911" transform="matrix(0.9994 -0.0347 0.0347 0.9994 -15.4122 -0.2519)" style="fill:#CED6DB;" width="4.001" height="16.893"/>
						</g>
					</g>
					<g>
						<g>
							
								<rect x="-42.011" y="-43.206" transform="matrix(0.9976 -0.0697 0.0697 0.9976 2.3258 -2.8739)" style="fill:#CED6DB;" width="4" height="16.894"/>
						</g>
						<g>
							
								<rect x="-8.609" y="434.472" transform="matrix(0.9976 -0.0697 0.0697 0.9976 -30.9035 0.6174)" style="fill:#CED6DB;" width="4" height="16.897"/>
						</g>
					</g>
					<g>
						<g>
							
								<rect x="-50.337" y="-42.477" transform="matrix(0.9945 -0.1044 0.1044 0.9945 3.2888 -5.2325)" style="fill:#CED6DB;" width="4" height="16.893"/>
						</g>
						<g>
							
								<rect x="-0.285" y="433.744" transform="matrix(0.9945 -0.1045 0.1045 0.9945 -46.2136 2.6019)" style="fill:#CED6DB;" width="4" height="16.895"/>
						</g>
					</g>
					<g>
						<g>
							
								<rect x="-58.632" y="-41.457" transform="matrix(0.9903 -0.139 0.139 0.9903 4.0391 -8.1929)" style="fill:#CED6DB;" width="4" height="16.892"/>
						</g>
						<g>
							
								<rect x="8.011" y="432.726" transform="matrix(0.9903 -0.1391 0.1391 0.9903 -61.2908 5.6849)" style="fill:#CED6DB;" width="4" height="16.893"/>
						</g>
					</g>
					<g>
						<g>
							
								<rect x="-66.886" y="-40.149" transform="matrix(0.9848 -0.1736 0.1736 0.9848 4.5184 -11.7452)" style="fill:#CED6DB;" width="4" height="16.891"/>
						</g>
						<g>
							
								<rect x="16.265" y="431.421" transform="matrix(0.9848 -0.1735 0.1735 0.9848 -76.057 9.8437)" style="fill:#CED6DB;" width="4" height="16.893"/>
						</g>
					</g>
					<g>
						<g>
							
								<rect x="-75.088" y="-38.556" transform="matrix(0.9781 -0.2079 0.2079 0.9781 4.6633 -15.8567)" style="fill:#CED6DB;" width="4" height="16.895"/>
						</g>
						<g>
							
								<rect x="24.471" y="429.824" transform="matrix(0.9781 -0.2081 0.2081 0.9781 -90.632 15.1053)" style="fill:#CED6DB;" width="4" height="16.895"/>
						</g>
					</g>
					<g>
						<g>
							
								<rect x="-83.232" y="-36.675" transform="matrix(0.9703 -0.242 0.242 0.9703 4.4166 -20.4953)" style="fill:#CED6DB;" width="4" height="16.894"/>
						</g>
						<g>
							
								<rect x="32.612" y="427.945" transform="matrix(0.9703 -0.242 0.242 0.9703 -104.5628 21.3422)" style="fill:#CED6DB;" width="4" height="16.893"/>
						</g>
					</g>
					<g>
						<g>
							
								<rect x="-91.304" y="-34.514" transform="matrix(0.9613 -0.2756 0.2756 0.9613 3.7256 -25.6189)" style="fill:#CED6DB;" width="3.999" height="16.893"/>
						</g>
						<g>
							
								<rect x="40.686" y="425.782" transform="matrix(0.9612 -0.2758 0.2758 0.9612 -118.1141 28.6179)" style="fill:#CED6DB;" width="4" height="16.896"/>
						</g>
					</g>
					<g>
						<g>
							
								<rect x="-99.295" y="-32.071" transform="matrix(0.9511 -0.309 0.309 0.9511 2.5382 -31.2206)" style="fill:#CED6DB;" width="4.001" height="16.895"/>
						</g>
						<g>
							
								<rect x="48.676" y="423.338" transform="matrix(0.951 -0.309 0.309 0.951 -130.9578 36.7968)" style="fill:#CED6DB;" width="4" height="16.893"/>
						</g>
					</g>
					<g>
						<g>
							
								<rect x="-107.197" y="-29.35" transform="matrix(0.9397 -0.3419 0.3419 0.9397 0.8066 -37.2307)" style="fill:#CED6DB;" width="4" height="16.894"/>
						</g>
						<g>
							
								<rect x="56.577" y="420.617" transform="matrix(0.9397 -0.3421 0.3421 0.9397 -143.2538 45.9301)" style="fill:#CED6DB;" width="4" height="16.894"/>
						</g>
					</g>
					<g>
						<g>
							
								<rect x="-114.999" y="-26.355" transform="matrix(0.9272 -0.3746 0.3746 0.9272 -1.5181 -43.6274)" style="fill:#CED6DB;" width="4" height="16.893"/>
						</g>
						<g>
							
								<rect x="64.38" y="417.623" transform="matrix(0.9271 -0.3747 0.3747 0.9271 -154.8267 55.9218)" style="fill:#CED6DB;" width="4" height="16.896"/>
						</g>
					</g>
					<g>
						<g>
							
								<rect x="-122.692" y="-23.088" transform="matrix(0.9135 -0.4067 0.4067 0.9135 -4.4795 -50.3563)" style="fill:#CED6DB;" width="4" height="16.894"/>
						</g>
						<g>
							
								<rect x="72.074" y="414.358" transform="matrix(0.9136 -0.4067 0.4067 0.9136 -165.5621 66.6792)" style="fill:#CED6DB;" width="4" height="16.896"/>
						</g>
					</g>
					<g>
						<g>
							
								<rect x="-130.266" y="-19.559" transform="matrix(0.8988 -0.4385 0.4385 0.8988 -8.1145 -57.3633)" style="fill:#CED6DB;" width="4" height="16.895"/>
						</g>
						<g>
							
								<rect x="79.648" y="410.825" transform="matrix(0.8987 -0.4385 0.4385 0.8987 -175.582 78.2614)" style="fill:#CED6DB;" width="4" height="16.894"/>
						</g>
					</g>
					<g>
						<g>
							
								<rect x="-137.712" y="-15.764" transform="matrix(0.8829 -0.4695 0.4695 0.8829 -12.4523 -64.5736)" style="fill:#CED6DB;" width="4" height="16.894"/>
						</g>
						<g>
							
								<rect x="87.093" y="407.029" transform="matrix(0.8829 -0.4696 0.4696 0.8829 -184.685 90.5089)" style="fill:#CED6DB;" width="4" height="16.897"/>
						</g>
					</g>
					<g>
						<g>
							
								<rect x="-145.02" y="-11.713" transform="matrix(0.866 -0.5001 0.5001 0.866 -17.5361 -71.9627)" style="fill:#CED6DB;" width="4" height="16.893"/>
						</g>
						<g>
							
								<rect x="94.401" y="402.978" transform="matrix(0.866 -0.5 0.5 0.866 -192.8147 103.3367)" style="fill:#CED6DB;" width="4" height="16.897"/>
						</g>
					</g>
					<g>
						<g>
							
								<rect x="-152.185" y="-7.409" transform="matrix(0.848 -0.53 0.53 0.848 -23.3749 -79.4337)" style="fill:#CED6DB;" width="4" height="16.896"/>
						</g>
						<g>
							
								<rect x="101.566" y="398.673" transform="matrix(0.848 -0.53 0.53 0.848 -200.0254 116.7653)" style="fill:#CED6DB;" width="3.999" height="16.901"/>
						</g>
					</g>
					<g>
						<g>
							
								<rect x="-159.194" y="-2.857" transform="matrix(0.8291 -0.5591 0.5591 0.8291 -29.9891 -86.931)" style="fill:#CED6DB;" width="4" height="16.894"/>
						</g>
						<g>
							
								<rect x="108.575" y="394.122" transform="matrix(0.829 -0.5592 0.5592 0.829 -206.2279 130.6776)" style="fill:#CED6DB;" width="4" height="16.897"/>
						</g>
					</g>
					<g>
						<g>
							
								<rect x="-166.039" y="1.936" transform="matrix(0.8089 -0.5879 0.5879 0.8089 -37.4487 -94.4577)" style="fill:#CED6DB;" width="4" height="16.893"/>
						</g>
						<g>
							
								<rect x="115.42" y="389.329" transform="matrix(0.809 -0.5878 0.5878 0.809 -211.3817 144.9854)" style="fill:#CED6DB;" width="4" height="16.897"/>
						</g>
					</g>
					<g>
						<g>
							
								<rect x="-172.714" y="6.964" transform="matrix(0.788 -0.6157 0.6157 0.788 -45.6856 -101.8429)" style="fill:#CED6DB;" width="4" height="16.895"/>
						</g>
						<g>
							
								<rect x="122.093" y="384.3" transform="matrix(0.788 -0.6157 0.6157 0.788 -215.5144 159.6877)" style="fill:#CED6DB;" width="4" height="16.897"/>
						</g>
					</g>
					<g>
						<g>
							
								<rect x="-179.208" y="12.224" transform="matrix(0.7661 -0.6427 0.6427 0.7661 -54.7355 -109.0619)" style="fill:#CED6DB;" width="4" height="16.893"/>
						</g>
						<g>
							
								<rect x="128.588" y="379.038" transform="matrix(0.7659 -0.6429 0.6429 0.7659 -218.5547 174.6521)" style="fill:#CED6DB;" width="4" height="16.899"/>
						</g>
					</g>
					<g>
						<g>
							
								<rect x="-185.516" y="17.708" transform="matrix(0.7431 -0.6691 0.6691 0.7431 -64.6373 -116.0775)" style="fill:#CED6DB;" width="4" height="16.894"/>
						</g>
						<g>
							
								<rect x="134.896" y="373.556" transform="matrix(0.7431 -0.6692 0.6692 0.7431 -220.4696 189.7611)" style="fill:#CED6DB;" width="4.001" height="16.898"/>
						</g>
					</g>
					<g>
						<g>
							
								<rect x="-191.628" y="23.406" transform="matrix(0.7191 -0.6949 0.6949 0.7191 -75.3922 -122.819)" style="fill:#CED6DB;" width="4" height="16.894"/>
						</g>
						<g>
							
								<rect x="141.008" y="367.857" transform="matrix(0.7193 -0.6947 0.6947 0.7193 -221.2882 205.0012)" style="fill:#CED6DB;" width="4" height="16.896"/>
						</g>
					</g>
					<g>
						<g>
							
								<rect x="-197.537" y="29.316" transform="matrix(0.6947 -0.7193 0.7193 0.6947 -86.8668 -129.1243)" style="fill:#CED6DB;" width="4" height="16.896"/>
						</g>
						<g>
							
								<rect x="146.919" y="361.95" transform="matrix(0.6946 -0.7194 0.7194 0.6946 -220.9886 220.268)" style="fill:#CED6DB;" width="4" height="16.892"/>
						</g>
					</g>
					<g>
						<g>
							
								<rect x="-203.235" y="35.426" transform="matrix(0.6691 -0.7432 0.7432 0.6691 -99.194 -135.0341)" style="fill:#CED6DB;" width="4" height="16.897"/>
						</g>
						<g>
							
								<rect x="152.619" y="355.837" transform="matrix(0.6691 -0.7431 0.7431 0.6691 -219.5547 235.4252)" style="fill:#CED6DB;" width="4" height="16.897"/>
						</g>
					</g>
					<g>
						<g>
							
								<rect x="-208.72" y="41.734" transform="matrix(0.6428 -0.766 0.766 0.6428 -112.2852 -140.432)" style="fill:#CED6DB;" width="4" height="16.894"/>
						</g>
						<g>
							
								<rect x="158.1" y="349.527" transform="matrix(0.6426 -0.7662 0.7662 0.6426 -217.0673 250.6257)" style="fill:#CED6DB;" width="4" height="16.9"/>
						</g>
					</g>
					<g>
						<g>
							
								<rect x="-213.98" y="48.229" transform="matrix(0.6158 -0.7879 0.7879 0.6158 -126.1108 -145.2493)" style="fill:#CED6DB;" width="4" height="16.895"/>
						</g>
						<g>
							
								<rect x="163.359" y="343.03" transform="matrix(0.6156 -0.7881 0.7881 0.6156 -213.4226 265.4181)" style="fill:#CED6DB;" width="4" height="16.901"/>
						</g>
					</g>
					<g>
						<g>
							
								<rect x="-219.008" y="54.903" transform="matrix(0.5877 -0.8091 0.8091 0.5877 -140.7384 -149.4608)" style="fill:#CED6DB;" width="4" height="16.897"/>
						</g>
						<g>
							
								<rect x="168.387" y="336.357" transform="matrix(0.5876 -0.8091 0.8091 0.5876 -208.7332 280.0654)" style="fill:#CED6DB;" width="4" height="16.898"/>
						</g>
					</g>
					<g>
						<g>
							
								<rect x="-223.802" y="61.749" transform="matrix(0.5591 -0.8291 0.8291 0.5591 -156.0051 -152.95)" style="fill:#CED6DB;" width="4" height="16.895"/>
						</g>
						<g>
							
								<rect x="173.181" y="329.512" transform="matrix(0.559 -0.8291 0.8291 0.559 -202.9685 294.2766)" style="fill:#CED6DB;" width="4" height="16.896"/>
						</g>
					</g>
					<g>
						<g>
							
								<rect x="-228.353" y="68.758" transform="matrix(0.5299 -0.8481 0.8481 0.5299 -171.884 -155.6671)" style="fill:#CED6DB;" width="4" height="16.894"/>
						</g>
						<g>
							
								<rect x="177.734" y="322.505" transform="matrix(0.5297 -0.8482 0.8482 0.5297 -196.1804 308.0755)" style="fill:#CED6DB;" width="4" height="16.897"/>
						</g>
					</g>
					<g>
						<g>
							
								<rect x="-232.658" y="75.923" transform="matrix(0.5 -0.866 0.866 0.5 -188.4027 -157.5715)" style="fill:#CED6DB;" width="4.001" height="16.893"/>
						</g>
						<g>
							
								<rect x="182.036" y="315.342" transform="matrix(0.4998 -0.8661 0.8661 0.4998 -188.3927 321.3481)" style="fill:#CED6DB;" width="4" height="16.896"/>
						</g>
					</g>
					<g>
						<g>
							
								<rect x="-236.709" y="83.232" transform="matrix(0.4695 -0.8829 0.8829 0.4695 -205.4687 -158.5979)" style="fill:#CED6DB;" width="4" height="16.893"/>
						</g>
						<g>
							
								<rect x="186.087" y="308.031" transform="matrix(0.4695 -0.8829 0.8829 0.4695 -179.6508 333.9413)" style="fill:#CED6DB;" width="4" height="16.896"/>
						</g>
					</g>
					<g>
						<g>
							
								<rect x="-240.503" y="90.678" transform="matrix(0.4383 -0.8988 0.8988 0.4383 -223.0722 -158.6955)" style="fill:#CED6DB;" width="4" height="16.892"/>
						</g>
						<g>
							
								<rect x="189.882" y="300.587" transform="matrix(0.4383 -0.8988 0.8988 0.4383 -169.9878 346.062)" style="fill:#CED6DB;" width="4" height="16.894"/>
						</g>
					</g>
					<g>
						<g>
							
								<rect x="-244.034" y="98.252" transform="matrix(0.4067 -0.9135 0.9135 0.4067 -241.0643 -157.8088)" style="fill:#CED6DB;" width="4" height="16.893"/>
						</g>
						<g>
							
								<rect x="193.416" y="293.012" transform="matrix(0.4066 -0.9136 0.9136 0.4066 -159.4539 357.4311)" style="fill:#CED6DB;" width="4" height="16.895"/>
						</g>
					</g>
					<g>
						<g>
							
								<rect x="-247.3" y="105.945" transform="matrix(0.3746 -0.9272 0.9272 0.3746 -259.469 -155.8995)" style="fill:#CED6DB;" width="4" height="16.89"/>
						</g>
						<g>
							
								<rect x="196.679" y="285.318" transform="matrix(0.3747 -0.9271 0.9271 0.3747 -148.1294 367.8989)" style="fill:#CED6DB;" width="4" height="16.896"/>
						</g>
					</g>
					<g>
						<g>
							
								<rect x="-250.296" y="113.746" transform="matrix(0.342 -0.9397 0.9397 0.342 -278.2146 -152.9191)" style="fill:#CED6DB;" width="4.001" height="16.892"/>
						</g>
						<g>
							
								<rect x="199.675" y="277.517" transform="matrix(0.342 -0.9397 0.9397 0.342 -136.014 377.6953)" style="fill:#CED6DB;" width="4" height="16.895"/>
						</g>
					</g>
					<g>
						<g>
							
								<rect x="-253.016" y="121.648" transform="matrix(0.309 -0.9511 0.9511 0.309 -297.1717 -148.8374)" style="fill:#CED6DB;" width="4.001" height="16.894"/>
						</g>
						<g>
							
								<rect x="202.395" y="269.615" transform="matrix(0.309 -0.9511 0.9511 0.309 -123.2162 386.5414)" style="fill:#CED6DB;" width="4.001" height="16.897"/>
						</g>
					</g>
					<g>
						<g>
							
								<rect x="-255.46" y="129.639" transform="matrix(0.2757 -0.9613 0.9613 0.2757 -316.3249 -143.6182)" style="fill:#CED6DB;" width="4.001" height="16.894"/>
						</g>
						<g>
							
								<rect x="204.837" y="261.624" transform="matrix(0.2756 -0.9613 0.9613 0.2756 -109.7783 394.4686)" style="fill:#CED6DB;" width="4.001" height="16.895"/>
						</g>
					</g>
					<g>
						<g>
							
								<rect x="-257.621" y="137.713" transform="matrix(0.2419 -0.9703 0.9703 0.2419 -335.6099 -137.225)" style="fill:#CED6DB;" width="4" height="16.892"/>
						</g>
						<g>
							
								<rect x="207.003" y="253.553" transform="matrix(0.242 -0.9703 0.9703 0.242 -95.7855 401.3927)" style="fill:#CED6DB;" width="4" height="16.894"/>
						</g>
					</g>
					<g>
						<g>
							
								<rect x="-259.501" y="145.855" transform="matrix(0.2079 -0.9782 0.9782 0.2079 -354.9009 -129.6516)" style="fill:#CED6DB;" width="3.999" height="16.892"/>
						</g>
						<g>
							
								<rect x="208.883" y="245.409" transform="matrix(0.208 -0.9781 0.9781 0.208 -81.282 407.3293)" style="fill:#CED6DB;" width="3.999" height="16.894"/>
						</g>
					</g>
					<g>
						<g>
							
								<rect x="-261.096" y="154.059" transform="matrix(0.1736 -0.9848 0.9848 0.1736 -374.1522 -120.8684)" style="fill:#CED6DB;" width="4" height="16.892"/>
						</g>
						<g>
							
								<rect x="210.476" y="237.202" transform="matrix(0.1736 -0.9848 0.9848 0.1736 -66.3292 412.2581)" style="fill:#CED6DB;" width="4" height="16.897"/>
						</g>
					</g>
					<g>
						<g>
							
								<rect x="-262.404" y="162.312" transform="matrix(0.1391 -0.9903 0.9903 0.1391 -393.2815 -110.8654)" style="fill:#CED6DB;" width="4" height="16.892"/>
						</g>
						<g>
							
								<rect x="211.783" y="228.95" transform="matrix(0.1392 -0.9903 0.9903 0.1392 -51.0574 416.061)" style="fill:#CED6DB;" width="4" height="16.897"/>
						</g>
					</g>
					<g>
						<g>
							
								<rect x="-263.422" y="170.607" transform="matrix(0.1044 -0.9945 0.9945 0.1044 -412.1989 -99.6365)" style="fill:#CED6DB;" width="4" height="16.89"/>
						</g>
						<g>
							
								<rect x="212.802" y="220.655" transform="matrix(0.1046 -0.9945 0.9945 0.1046 -35.5053 418.7711)" style="fill:#CED6DB;" width="4" height="16.895"/>
						</g>
					</g>
					<g>
						<g>
							
								<rect x="-264.151" y="178.934" transform="matrix(0.0698 -0.9976 0.9976 0.0698 -430.7791 -87.2088)" style="fill:#CED6DB;" width="4" height="16.891"/>
						</g>
						<g>
							
								<rect x="213.531" y="212.332" transform="matrix(0.0697 -0.9976 0.9976 0.0697 -19.7354 420.3951)" style="fill:#CED6DB;" width="4" height="16.895"/>
						</g>
					</g>
					<g>
						<g>
							
								<rect x="-264.588" y="187.278" transform="matrix(0.0349 -0.9994 0.9994 0.0349 -449.0375 -73.528)" style="fill:#CED6DB;" width="4" height="16.892"/>
						</g>
						<g>
							
								<rect x="213.968" y="203.983" transform="matrix(0.0348 -0.9994 0.9994 0.0348 -3.8492 420.8788)" style="fill:#CED6DB;" width="4" height="16.898"/>
						</g>
					</g>
					<g>
						<g>
							<rect x="-271.178" y="202.08" style="fill:#CED6DB;" width="16.89" height="4"/>
						</g>
						<g>
							<rect x="207.665" y="202.077" style="fill:#CED6DB;" width="16.896" height="4"/>
						</g>
					</g>
					<g>
						<g>
							
								<rect x="-271.033" y="210.435" transform="matrix(0.9994 -0.0349 0.0349 0.9994 -7.5731 -9.0339)" style="fill:#CED6DB;" width="16.892" height="4"/>
						</g>
						<g>
							
								<rect x="207.516" y="193.72" transform="matrix(0.9994 -0.0349 0.0349 0.9994 -6.6984 7.6556)" style="fill:#CED6DB;" width="16.9" height="4"/>
						</g>
					</g>
					<g>
						<g>
							
								<rect x="-270.596" y="218.781" transform="matrix(0.9976 -0.0698 0.0698 0.9976 -16.056 -17.766)" style="fill:#CED6DB;" width="16.891" height="4"/>
						</g>
						<g>
							
								<rect x="207.08" y="185.374" transform="matrix(0.9975 -0.0701 0.0701 0.9975 -12.6003 15.5637)" style="fill:#CED6DB;" width="16.898" height="4"/>
						</g>
					</g>
					<g>
						<g>
							
								<rect x="-269.867" y="227.104" transform="matrix(0.9945 -0.1047 0.1047 0.9945 -25.4335 -26.1204)" style="fill:#CED6DB;" width="16.89" height="4"/>
						</g>
						<g>
							
								<rect x="206.351" y="177.049" transform="matrix(0.9945 -0.1047 0.1047 0.9945 -17.5673 23.4759)" style="fill:#CED6DB;" width="16.898" height="4.001"/>
						</g>
					</g>
					<g>
						<g>
							
								<rect x="-268.85" y="235.4" transform="matrix(0.9902 -0.1394 0.1394 0.9902 -35.6365 -33.9828)" style="fill:#CED6DB;" width="16.891" height="4"/>
						</g>
						<g>
							
								<rect x="205.332" y="168.755" transform="matrix(0.9903 -0.1392 0.1392 0.9903 -21.6851 31.4163)" style="fill:#CED6DB;" width="16.9" height="4"/>
						</g>
					</g>
					<g>
						<g>
							
								<rect x="-267.542" y="243.654" transform="matrix(0.9848 -0.1738 0.1738 0.9848 -46.6477 -41.2996)" style="fill:#CED6DB;" width="16.892" height="4"/>
						</g>
						<g>
							
								<rect x="204.025" y="160.5" transform="matrix(0.9848 -0.1738 0.1738 0.9848 -25.01 39.4029)" style="fill:#CED6DB;" width="16.896" height="4"/>
						</g>
					</g>
					<g>
						<g>
							
								<rect x="-265.948" y="251.858" transform="matrix(0.9781 -0.2083 0.2083 0.9781 -58.5147 -48.0612)" style="fill:#CED6DB;" width="16.892" height="4"/>
						</g>
						<g>
							
								<rect x="202.431" y="152.298" transform="matrix(0.9781 -0.208 0.208 0.9781 -27.4841 47.2429)" style="fill:#CED6DB;" width="16.898" height="4"/>
						</g>
					</g>
					<g>
						<g>
							
								<rect x="-264.068" y="260" transform="matrix(0.9703 -0.242 0.242 0.9703 -70.9907 -54.0664)" style="fill:#CED6DB;" width="16.889" height="4"/>
						</g>
						<g>
							
								<rect x="200.553" y="144.154" transform="matrix(0.9703 -0.242 0.242 0.9703 -29.1538 54.9139)" style="fill:#CED6DB;" width="16.897" height="4"/>
						</g>
					</g>
					<g>
						<g>
							
								<rect x="-261.906" y="268.073" transform="matrix(0.9613 -0.2756 0.2756 0.9613 -84.2501 -59.3955)" style="fill:#CED6DB;" width="16.891" height="4.001"/>
						</g>
						<g>
							
								<rect x="198.386" y="136.082" transform="matrix(0.9613 -0.2756 0.2756 0.9613 -30.0439 62.3472)" style="fill:#CED6DB;" width="16.899" height="4.001"/>
						</g>
					</g>
					<g>
						<g>
							
								<rect x="-259.463" y="276.065" transform="matrix(0.9511 -0.309 0.309 0.9511 -98.219 -63.9621)" style="fill:#CED6DB;" width="16.891" height="4.001"/>
						</g>
						<g>
							
								<rect x="195.944" y="128.09" transform="matrix(0.951 -0.3091 0.3091 0.951 -30.199 69.5377)" style="fill:#CED6DB;" width="16.896" height="4"/>
						</g>
					</g>
					<g>
						<g>
							
								<rect x="-256.742" y="283.966" transform="matrix(0.9397 -0.3421 0.3421 0.9397 -112.8111 -67.6883)" style="fill:#CED6DB;" width="16.891" height="3.999"/>
						</g>
						<g>
							
								<rect x="193.224" y="120.19" transform="matrix(0.9397 -0.3421 0.3421 0.9397 -29.6342 76.3704)" style="fill:#CED6DB;" width="16.896" height="3.999"/>
						</g>
					</g>
					<g>
						<g>
							
								<rect x="-253.745" y="291.769" transform="matrix(0.9271 -0.3747 0.3747 0.9271 -127.9491 -70.5128)" style="fill:#CED6DB;" width="16.889" height="4"/>
						</g>
						<g>
							
								<rect x="190.228" y="112.387" transform="matrix(0.9271 -0.3747 0.3747 0.9271 -28.3878 82.7865)" style="fill:#CED6DB;" width="16.896" height="4"/>
						</g>
					</g>
					<g>
						<g>
							
								<rect x="-250.481" y="299.463" transform="matrix(0.9135 -0.4067 0.4067 0.9135 -143.5412 -72.382)" style="fill:#CED6DB;" width="16.89" height="4"/>
						</g>
						<g>
							
								<rect x="186.964" y="104.694" transform="matrix(0.9135 -0.4067 0.4067 0.9135 -26.502 88.7059)" style="fill:#CED6DB;" width="16.898" height="4"/>
						</g>
					</g>
					<g>
						<g>
							
								<rect x="-246.949" y="307.036" transform="matrix(0.8988 -0.4384 0.4384 0.8988 -159.6243 -73.2798)" style="fill:#CED6DB;" width="16.89" height="4.001"/>
						</g>
						<g>
							
								<rect x="183.432" y="97.121" transform="matrix(0.8988 -0.4384 0.4384 0.8988 -24.0329 94.1535)" style="fill:#CED6DB;" width="16.895" height="4.001"/>
						</g>
					</g>
					<g>
						<g>
							
								<rect x="-243.156" y="314.484" transform="matrix(0.8829 -0.4695 0.4695 0.8829 -176.0856 -73.1498)" style="fill:#CED6DB;" width="16.889" height="4"/>
						</g>
						<g>
							
								<rect x="179.636" y="89.674" transform="matrix(0.8829 -0.4695 0.4695 0.8829 -21.0215 99.05)" style="fill:#CED6DB;" width="16.899" height="4"/>
						</g>
					</g>
					<g>
						<g>
							
								<rect x="-239.105" y="321.793" transform="matrix(0.866 -0.5001 0.5001 0.866 -192.858 -71.9555)" style="fill:#CED6DB;" width="16.891" height="3.999"/>
						</g>
						<g>
							
								<rect x="175.584" y="82.365" transform="matrix(0.8661 -0.4999 0.4999 0.8661 -17.5287 103.3004)" style="fill:#CED6DB;" width="16.899" height="4.001"/>
						</g>
					</g>
					<g>
						<g>
							
								<rect x="-234.8" y="328.956" transform="matrix(0.848 -0.53 0.53 0.848 -209.8032 -69.6619)" style="fill:#CED6DB;" width="16.889" height="4.001"/>
						</g>
						<g>
							
								<rect x="171.281" y="75.201" transform="matrix(0.848 -0.5299 0.5299 0.848 -13.5992 106.9805)" style="fill:#CED6DB;" width="16.9" height="4.001"/>
						</g>
					</g>
					<g>
						<g>
							
								<rect x="-230.25" y="335.966" transform="matrix(0.829 -0.5593 0.5593 0.829 -226.9385 -66.2516)" style="fill:#CED6DB;" width="16.891" height="4.001"/>
						</g>
						<g>
							
								<rect x="166.729" y="68.193" transform="matrix(0.829 -0.5593 0.5593 0.829 -9.2998 109.9725)" style="fill:#CED6DB;" width="16.899" height="4.001"/>
						</g>
					</g>
					<g>
						<g>
							
								<rect x="-225.458" y="342.811" transform="matrix(0.809 -0.5878 0.5878 0.809 -244.1361 -61.7013)" style="fill:#CED6DB;" width="16.895" height="4"/>
						</g>
						<g>
							
								<rect x="161.933" y="61.347" transform="matrix(0.809 -0.5878 0.5878 0.809 -4.6913 112.2573)" style="fill:#CED6DB;" width="16.9" height="4"/>
						</g>
					</g>
					<g>
						<g>
							
								<rect x="-220.426" y="349.484" transform="matrix(0.788 -0.6157 0.6157 0.788 -261.3373 -55.9969)" style="fill:#CED6DB;" width="16.892" height="4"/>
						</g>
						<g>
							
								<rect x="156.904" y="54.672" transform="matrix(0.788 -0.6156 0.6156 0.788 0.1608 113.8118)" style="fill:#CED6DB;" width="16.899" height="4"/>
						</g>
					</g>
					<g>
						<g>
							
								<rect x="-215.167" y="355.979" transform="matrix(0.766 -0.6428 0.6428 0.766 -278.4655 -49.127)" style="fill:#CED6DB;" width="16.891" height="4"/>
						</g>
						<g>
							
								<rect x="151.645" y="48.178" transform="matrix(0.766 -0.6428 0.6428 0.766 5.2009 114.645)" style="fill:#CED6DB;" width="16.899" height="4"/>
						</g>
					</g>
					<g>
						<g>
							
								<rect x="-209.683" y="362.287" transform="matrix(0.7431 -0.6692 0.6692 0.7431 -295.4575 -41.0829)" style="fill:#CED6DB;" width="16.89" height="4"/>
						</g>
						<g>
							
								<rect x="146.163" y="41.872" transform="matrix(0.7431 -0.6692 0.6692 0.7431 10.3589 114.7288)" style="fill:#CED6DB;" width="16.898" height="4"/>
						</g>
					</g>
					<g>
						<g>
							
								<rect x="-203.985" y="368.398" transform="matrix(0.7192 -0.6948 0.6948 0.7192 -312.2538 -31.8557)" style="fill:#CED6DB;" width="16.891" height="4"/>
						</g>
						<g>
							
								<rect x="140.464" y="35.759" transform="matrix(0.7193 -0.6947 0.6947 0.7193 15.5657 114.0431)" style="fill:#CED6DB;" width="16.896" height="3.999"/>
						</g>
					</g>
					<g>
						<g>
							
								<rect x="-198.076" y="374.308" transform="matrix(0.6948 -0.7192 0.7192 0.6948 -328.5157 -21.534)" style="fill:#CED6DB;" width="16.892" height="4"/>
						</g>
						<g>
							
								<rect x="134.554" y="29.85" transform="matrix(0.6944 -0.7196 0.7196 0.6944 20.7809 112.6332)" style="fill:#CED6DB;" width="16.897" height="3.999"/>
						</g>
					</g>
					<g>
						<g>
							
								<rect x="-191.963" y="380.009" transform="matrix(0.669 -0.7432 0.7432 0.669 -344.6686 -9.9601)" style="fill:#CED6DB;" width="16.892" height="4"/>
						</g>
						<g>
							
								<rect x="128.443" y="24.149" transform="matrix(0.6689 -0.7434 0.7434 0.6689 25.8872 110.4173)" style="fill:#CED6DB;" width="16.896" height="4"/>
						</g>
					</g>
					<g>
						<g>
							
								<rect x="-185.654" y="385.492" transform="matrix(0.6426 -0.7662 0.7662 0.6426 -360.2139 2.7034)" style="fill:#CED6DB;" width="16.891" height="4"/>
						</g>
						<g>
							
								<rect x="122.134" y="18.668" transform="matrix(0.6426 -0.7662 0.7662 0.6426 30.8321 107.437)" style="fill:#CED6DB;" width="16.899" height="4"/>
						</g>
					</g>
					<g>
						<g>
							
								<rect x="-179.161" y="390.752" transform="matrix(0.6157 -0.788 0.788 0.6157 -375.1085 16.4264)" style="fill:#CED6DB;" width="16.893" height="4"/>
						</g>
						<g>
							
								<rect x="115.638" y="13.409" transform="matrix(0.6157 -0.788 0.788 0.6157 35.5477 103.7038)" style="fill:#CED6DB;" width="16.899" height="4"/>
						</g>
					</g>
					<g>
						<g>
							
								<rect x="-172.486" y="395.78" transform="matrix(0.5878 -0.809 0.809 0.5878 -389.4097 31.2455)" style="fill:#CED6DB;" width="16.89" height="4"/>
						</g>
						<g>
							
								<rect x="108.965" y="8.379" transform="matrix(0.5878 -0.809 0.809 0.5878 39.9995 99.2649)" style="fill:#CED6DB;" width="16.898" height="4"/>
						</g>
					</g>
					<g>
						<g>
							
								<rect x="-165.641" y="400.573" transform="matrix(0.5591 -0.8291 0.8291 0.5591 -403.0883 47.1689)" style="fill:#CED6DB;" width="16.891" height="4"/>
						</g>
						<g>
							
								<rect x="102.118" y="3.587" transform="matrix(0.5591 -0.8291 0.8291 0.5591 44.1183 94.1361)" style="fill:#CED6DB;" width="16.898" height="4"/>
						</g>
					</g>
					<g>
						<g>
							
								<rect x="-158.633" y="405.126" transform="matrix(0.5298 -0.8481 0.8481 0.5298 -415.9229 64.0631)" style="fill:#CED6DB;" width="16.892" height="4"/>
						</g>
						<g>
							
								<rect x="95.111" y="-0.964" transform="matrix(0.5298 -0.8481 0.8481 0.5298 47.8181 88.3204)" style="fill:#CED6DB;" width="16.898" height="4"/>
						</g>
					</g>
					<g>
						<g>
							
								<rect x="-151.468" y="409.429" transform="matrix(0.5 -0.866 0.866 0.5 -427.8105 81.8463)" style="fill:#CED6DB;" width="16.891" height="4"/>
						</g>
						<g>
							
								<rect x="87.949" y="-5.271" transform="matrix(0.4999 -0.8661 0.8661 0.4999 51.038 81.8505)" style="fill:#CED6DB;" width="16.896" height="4.001"/>
						</g>
					</g>
					<g>
						<g>
							
								<rect x="-144.159" y="413.48" transform="matrix(0.4693 -0.8831 0.8831 0.4693 -438.9243 100.6699)" style="fill:#CED6DB;" width="16.891" height="4"/>
						</g>
						<g>
							
								<rect x="80.639" y="-9.32" transform="matrix(0.4692 -0.8831 0.8831 0.4692 53.7495 74.7855)" style="fill:#CED6DB;" width="16.897" height="4"/>
						</g>
					</g>
					<g>
						<g>
							
								<rect x="-136.712" y="417.276" transform="matrix(0.4385 -0.8987 0.8987 0.4385 -448.8379 120.1437)" style="fill:#CED6DB;" width="16.887" height="4"/>
						</g>
						<g>
							
								<rect x="73.192" y="-13.114" transform="matrix(0.4384 -0.8988 0.8988 0.4384 55.8385 67.1352)" style="fill:#CED6DB;" width="16.897" height="4.001"/>
						</g>
					</g>
					<g>
						<g>
							
								<rect x="-129.139" y="420.808" transform="matrix(0.4067 -0.9136 0.9136 0.4067 -457.8633 140.5851)" style="fill:#CED6DB;" width="16.891" height="4"/>
						</g>
						<g>
							
								<rect x="65.619" y="-16.646" transform="matrix(0.4067 -0.9136 0.9136 0.4067 57.3227 58.9761)" style="fill:#CED6DB;" width="16.897" height="4"/>
						</g>
					</g>
					<g>
						<g>
							
								<rect x="-121.446" y="424.073" transform="matrix(0.3745 -0.9272 0.9272 0.3745 -465.7507 161.7348)" style="fill:#CED6DB;" width="16.891" height="4"/>
						</g>
						<g>
							
								<rect x="57.924" y="-19.912" transform="matrix(0.3745 -0.9272 0.9272 0.3745 58.1239 50.3397)" style="fill:#CED6DB;" width="16.899" height="4"/>
						</g>
					</g>
					<g>
						<g>
							
								<rect x="-113.644" y="427.069" transform="matrix(0.3418 -0.9398 0.9398 0.3418 -472.4603 183.5376)" style="fill:#CED6DB;" width="16.89" height="4"/>
						</g>
						<g>
							
								<rect x="50.123" y="-22.906" transform="matrix(0.3418 -0.9398 0.9398 0.3418 58.1974 41.2844)" style="fill:#CED6DB;" width="16.899" height="4"/>
						</g>
					</g>
					<g>
						<g>
							
								<rect x="-105.742" y="429.788" transform="matrix(0.3091 -0.951 0.951 0.3091 -477.8756 205.8076)" style="fill:#CED6DB;" width="16.89" height="4.001"/>
						</g>
						<g>
							
								<rect x="42.223" y="-25.626" transform="matrix(0.3086 -0.9512 0.9512 0.3086 57.5067 31.8622)" style="fill:#CED6DB;" width="16.896" height="4"/>
						</g>
					</g>
					<g>
						<g>
							
								<rect x="-97.751" y="432.232" transform="matrix(0.2754 -0.9613 0.9613 0.2754 -482.1568 228.8029)" style="fill:#CED6DB;" width="16.89" height="4"/>
						</g>
						<g>
							
								<rect x="34.228" y="-28.07" transform="matrix(0.2754 -0.9613 0.9613 0.2754 55.9854 22.1368)" style="fill:#CED6DB;" width="16.899" height="3.999"/>
						</g>
					</g>
					<g>
						<g>
							
								<rect x="-89.68" y="434.395" transform="matrix(0.2417 -0.9703 0.9703 0.2417 -485.0497 252.0805)" style="fill:#CED6DB;" width="16.892" height="3.999"/>
						</g>
						<g>
							
								<rect x="26.156" y="-30.231" transform="matrix(0.2417 -0.9703 0.9703 0.2417 53.6343 12.1719)" style="fill:#CED6DB;" width="16.899" height="4"/>
						</g>
					</g>
					<g>
						<g>
							
								<rect x="-81.536" y="436.274" transform="matrix(0.208 -0.9781 0.9781 0.208 -486.5811 275.6344)" style="fill:#CED6DB;" width="16.892" height="4.001"/>
						</g>
						<g>
							
								<rect x="18.012" y="-32.111" transform="matrix(0.208 -0.9781 0.9781 0.208 50.4109 2.0344)" style="fill:#CED6DB;" width="16.898" height="4.001"/>
						</g>
					</g>
					<g>
						<g>
							
								<rect x="-73.332" y="437.869" transform="matrix(0.1733 -0.9849 0.9849 0.1733 -486.8527 299.7242)" style="fill:#CED6DB;" width="16.889" height="4"/>
						</g>
						<g>
							
								<rect x="9.81" y="-33.707" transform="matrix(0.1733 -0.9849 0.9849 0.1733 46.3203 -8.229)" style="fill:#CED6DB;" width="16.897" height="4"/>
						</g>
					</g>
					<g>
						<g>
							
								<rect x="-65.077" y="439.176" transform="matrix(0.1392 -0.9903 0.9903 0.1392 -485.6327 323.6916)" style="fill:#CED6DB;" width="16.889" height="4"/>
						</g>
						<g>
							
								<rect x="1.557" y="-35.013" transform="matrix(0.1392 -0.9903 0.9903 0.1392 41.3053 -18.5109)" style="fill:#CED6DB;" width="16.896" height="4"/>
						</g>
					</g>
					<g>
						<g>
							
								<rect x="-56.783" y="440.195" transform="matrix(0.1045 -0.9945 0.9945 0.1045 -483.0614 347.9177)" style="fill:#CED6DB;" width="16.891" height="4"/>
						</g>
						<g>
							
								<rect x="-6.737" y="-36.032" transform="matrix(0.1045 -0.9945 0.9945 0.1045 35.3779 -28.7749)" style="fill:#CED6DB;" width="16.896" height="4"/>
						</g>
					</g>
					<g>
						<g>
							
								<rect x="-48.458" y="440.923" transform="matrix(0.0698 -0.9976 0.9976 0.0698 -479.0603 372.0807)" style="fill:#CED6DB;" width="16.891" height="4"/>
						</g>
						<g>
							
								<rect x="-15.064" y="-36.759" transform="matrix(0.0693 -0.9976 0.9976 0.0693 28.519 -38.9488)" style="fill:#CED6DB;" width="16.898" height="4"/>
						</g>
					</g>
					<g>
						<g>
							
								<rect x="-40.112" y="441.36" transform="matrix(0.0347 -0.9994 0.9994 0.0347 -473.6626 396.3411)" style="fill:#CED6DB;" width="16.891" height="4.001"/>
						</g>
						<g>
							
								<rect x="-23.411" y="-37.198" transform="matrix(0.0347 -0.9994 0.9994 0.0347 20.7339 -48.9298)" style="fill:#CED6DB;" width="16.899" height="4"/>
						</g>
					</g>
				</g>
			</g>
			<g>
				<g>
					<polygon style="fill:#B0B5B7;" points="685.632,295.754 679.378,295.754 669.943,285.965 676.196,285.965 					"/>
					<polygon style="fill:#B0B5B7;" points="697.415,295.754 691.163,295.754 681.727,285.965 687.98,285.965 					"/>
					<polygon style="fill:#B0B5B7;" points="709.2,295.754 702.948,295.754 693.513,285.965 699.765,285.965 					"/>
					<polygon style="fill:#B0B5B7;" points="720.985,295.754 714.731,295.754 705.296,285.965 711.55,285.965 					"/>
					<polygon style="fill:#B0B5B7;" points="732.769,295.754 726.517,295.754 717.081,285.965 723.333,285.965 					"/>
					<polygon style="fill:#B0B5B7;" points="744.554,295.754 738.302,295.754 728.866,285.965 735.118,285.965 					"/>
					<polygon style="fill:#B0B5B7;" points="756.339,295.754 750.085,295.754 740.651,285.965 746.901,285.965 					"/>
					<polygon style="fill:#B0B5B7;" points="768.122,295.754 761.87,295.754 752.435,285.965 758.686,285.965 					"/>
				</g>
				<g>
					<g>
						<g>
							<g>
								<g>
									<path style="fill:#CED6DB;" d="M769.333,195.218H552.012L495.793,139h-124.5l-59.5-59.5H228.5c-0.276,0-0.5-0.224-0.5-0.5
										s0.224-0.5,0.5-0.5h83.707l59.5,59.5h124.5l56.219,56.218h216.907c0.276,0,0.5,0.224,0.5,0.5
										C769.833,194.994,769.609,195.218,769.333,195.218z"/>
								</g>
								<g>
									<path style="fill:#B0B5B7;" d="M326.875,142.21H79.334c-0.276,0-0.5-0.224-0.5-0.5c0-0.276,0.224-0.5,0.5-0.5H326.46
										l70.712-70.71h91.136l52.566,52.566h54.919L730.93-12.07c0.195-0.195,0.512-0.195,0.707,0c0.195,0.195,0.195,0.512,0,0.707
										l-135.43,135.429H540.46L487.894,71.5h-90.308L326.875,142.21z"/>
								</g>
								<g>
									<path style="fill:#B0B5B7;" d="M769.333,302.06H580.286l-143.2-143.2h-94.645l-60.355-60.356H109c-0.552,0-1-0.448-1-1
										c0-0.552,0.448-1,1-1h173.914l60.355,60.356h94.645l143.2,143.2h188.219c0.553,0,1,0.447,1,1
										C770.333,301.612,769.886,302.06,769.333,302.06z"/>
								</g>
								<g>
									<path style="fill:#B0B5B7;" d="M580.78,273.172H421.793L307.621,159H147c-0.276,0-0.5-0.224-0.5-0.5
										c0-0.276,0.224-0.5,0.5-0.5h161.035l114.172,114.172h158.159l110.98-110.98h102.365c0.276,0,0.5,0.224,0.5,0.5
										c0,0.276-0.224,0.5-0.5,0.5H691.761L580.78,273.172z"/>
								</g>
								<g>
									<path style="fill:#CED6DB;" d="M243.54,120.834H183.5c-0.276,0-0.5-0.224-0.5-0.5c0-0.276,0.224-0.5,0.5-0.5h59.626l63-63
										h106.747l43.5,43.5H560.46L675.396-14.603c0.195-0.195,0.512-0.195,0.707,0c0.195,0.195,0.195,0.512,0,0.707
										l-115.229,115.23H455.96l-43.5-43.5H306.54L243.54,120.834z"/>
								</g>
								<g>
									<path style="fill:#B0B5B7;" d="M608.207,330.475H534.82L413.168,208.822H259.979l-36.187-36.187H74
										c-0.276,0-0.5-0.224-0.5-0.5c0-0.276,0.224-0.5,0.5-0.5h150.207l36.187,36.187h153.188l121.652,121.652h72.559
										l75.987-75.987h85.553c0.276,0,0.5,0.224,0.5,0.5s-0.224,0.5-0.5,0.5h-85.139L608.207,330.475z"/>
								</g>
								<g>
									<path style="fill:#B0B5B7;" d="M229.748,62h-78.747c-0.552,0-1-0.448-1-1s0.448-1,1-1h77.919l44.666-44.667h170.667
										l33.665-33.666c0.391-0.391,1.023-0.391,1.414,0c0.391,0.391,0.391,1.023,0,1.414l-34.251,34.251H274.414L229.748,62z"/>
								</g>
							</g>
							<g>
								<path style="fill:#B0B5B7;" d="M-13.333,236.837c-0.256,0-0.512-0.098-0.707-0.293c-0.391-0.391-0.391-1.023,0-1.414
									l54.095-54.095h170.781l47.079,47.078h85.253c0.552,0,1,0.448,1,1c0,0.552-0.448,1-1,1h-86.082l-47.079-47.078H40.883
									l-53.509,53.509C-12.821,236.74-13.077,236.837-13.333,236.837z"/>
							</g>
							<g>
								<path style="fill:#B0B5B7;" d="M198.5,79.5h-73.707L84.21,38.917h-97.543c-0.276,0-0.5-0.224-0.5-0.5s0.224-0.5,0.5-0.5
									h97.957L125.207,78.5H198.5c0.276,0,0.5,0.224,0.5,0.5S198.776,79.5,198.5,79.5z"/>
							</g>
							<g>
								<path style="fill:#B0B5B7;" d="M151.001,120.834H96.793L43.876,67.917H-22c-0.276,0-0.5-0.224-0.5-0.5s0.224-0.5,0.5-0.5
									h66.29l52.917,52.917h53.794c0.276,0,0.5,0.224,0.5,0.5C151.501,120.61,151.277,120.834,151.001,120.834z"/>
							</g>
							<g>
								<path style="fill:#B0B5B7;" d="M79.887,142.12c-0.128,0-0.256-0.049-0.354-0.146L33.201,95.641H-22
									c-0.276,0-0.5-0.224-0.5-0.5c0-0.276,0.224-0.5,0.5-0.5h55.615l46.625,46.625c0.195,0.195,0.195,0.512,0,0.707
									C80.143,142.071,80.015,142.12,79.887,142.12z"/>
							</g>
							<g>
								<path style="fill:#B0B5B7;" d="M633.195,159.5H563.25c-0.553,0-1-0.448-1-1s0.447-1,1-1h69.117l59.025-59.026h30.713
									c0.553,0,1,0.448,1,1c0,0.552-0.447,1-1,1h-29.885L633.195,159.5z"/>
							</g>
							<g>
								<g>
									<path style="fill:#CED6DB;" d="M608,337.058c-3.905,0-7.083-3.178-7.083-7.083s3.178-7.083,7.083-7.083
										c3.905,0,7.083,3.178,7.083,7.083S611.905,337.058,608,337.058z M608,323.892c-3.354,0-6.083,2.728-6.083,6.083
										c0,3.354,2.729,6.083,6.083,6.083s6.083-2.728,6.083-6.083C614.083,326.62,611.354,323.892,608,323.892z"/>
								</g>
								<g>
									<circle style="fill:#CED6DB;" cx="608" cy="329.975" r="4.612"/>
								</g>
							</g>
							<g>
								<g>
									<path style="fill:#CED6DB;" d="M552.043,201.801c-3.905,0-7.083-3.177-7.083-7.083c0-3.906,3.178-7.083,7.083-7.083
										c3.905,0,7.083,3.177,7.083,7.083C559.126,198.624,555.948,201.801,552.043,201.801z M552.043,188.635
										c-3.355,0-6.083,2.729-6.083,6.083c0,3.354,2.728,6.083,6.083,6.083c3.354,0,6.083-2.729,6.083-6.083
										C558.126,191.364,555.398,188.635,552.043,188.635z"/>
								</g>
								<g>
									<circle style="fill:#CED6DB;" cx="552.043" cy="194.718" r="4.612"/>
								</g>
							</g>
							<g>
								<g>
									<path style="fill:#CED6DB;" d="M556.084,165.583c-3.905,0-7.083-3.177-7.083-7.083s3.178-7.083,7.083-7.083
										c3.905,0,7.083,3.177,7.083,7.083S559.989,165.583,556.084,165.583z M556.084,152.417c-3.354,0-6.083,2.729-6.083,6.083
										s2.729,6.083,6.083,6.083s6.083-2.729,6.083-6.083S559.438,152.417,556.084,152.417z"/>
								</g>
								<g>
									<circle style="fill:#CED6DB;" cx="556.084" cy="158.5" r="4.612"/>
								</g>
								<g>
									<path style="fill:#CED6DB;" d="M482.269,158.5c0,2.547-2.065,4.612-4.612,4.612c-2.547,0-4.612-2.065-4.612-4.612
										s2.066-4.612,4.612-4.612C480.203,153.888,482.269,155.953,482.269,158.5z"/>
								</g>
								<g>
									<circle style="fill:#CED6DB;" cx="720.322" cy="231.809" r="4.612"/>
								</g>
							</g>
							<g>
								<g>
									<path style="fill:#CED6DB;" d="M426.084,78.663c-3.905,0-7.083-3.177-7.083-7.083c0-3.906,3.178-7.083,7.083-7.083
										c3.905,0,7.083,3.177,7.083,7.083C433.167,75.486,429.989,78.663,426.084,78.663z M426.084,65.497
										c-3.355,0-6.083,2.729-6.083,6.083c0,3.354,2.728,6.083,6.083,6.083c3.354,0,6.083-2.729,6.083-6.083
										C432.167,68.226,429.439,65.497,426.084,65.497z"/>
								</g>
								<g>
									<circle style="fill:#CED6DB;" cx="426.084" cy="71.58" r="4.612"/>
								</g>
							</g>
							<g>
								<g>
									<path style="fill:#B0B5B7;" d="M350.334,236.337c-3.906,0-7.083-3.177-7.083-7.083c0-3.906,3.177-7.083,7.083-7.083
										c3.906,0,7.083,3.177,7.083,7.083C357.417,233.16,354.24,236.337,350.334,236.337z M350.334,223.171
										c-3.354,0-6.083,2.729-6.083,6.083c0,3.354,2.729,6.083,6.083,6.083c3.354,0,6.083-2.729,6.083-6.083
										C356.417,225.9,353.688,223.171,350.334,223.171z"/>
								</g>
								<g>
									<circle style="fill:#B0B5B7;" cx="350.334" cy="229.254" r="4.612"/>
								</g>
							</g>
							<g>
								<g>
									<path style="fill:#CED6DB;" d="M221.917,86.083c-3.906,0-7.083-3.177-7.083-7.083s3.177-7.083,7.083-7.083
										S229,75.094,229,79S225.823,86.083,221.917,86.083z M221.917,72.917c-3.354,0-6.083,2.729-6.083,6.083
										s2.729,6.083,6.083,6.083S228,82.354,228,79S225.271,72.917,221.917,72.917z"/>
								</g>
								<g>
									<circle style="fill:#CED6DB;" cx="221.917" cy="79" r="4.612"/>
								</g>
							</g>
							<g>
								<g>
									<path style="fill:#B0B5B7;" d="M145.844,65.975c-2.743,0-4.975-2.232-4.975-4.975s2.232-4.975,4.975-4.975
										c2.743,0,4.975,2.232,4.975,4.975S148.587,65.975,145.844,65.975z M145.844,57.025c-2.192,0-3.975,1.783-3.975,3.975
										s1.783,3.975,3.975,3.975c2.192,0,3.975-1.783,3.975-3.975S148.036,57.025,145.844,57.025z"/>
								</g>
								<g>
									<path style="fill:#B0B5B7;" d="M148.98,61c0,1.731-1.404,3.135-3.135,3.135c-1.731,0-3.135-1.404-3.135-3.135
										s1.404-3.135,3.135-3.135C147.576,57.865,148.98,59.269,148.98,61z"/>
								</g>
							</g>
							<g>
								<g>
									<path style="fill:#B0B5B7;" d="M44.083,72.392c-2.743,0-4.975-2.232-4.975-4.975s2.232-4.975,4.975-4.975
										s4.975,2.232,4.975,4.975S46.826,72.392,44.083,72.392z M44.083,63.442c-2.192,0-3.975,1.783-3.975,3.975
										s1.783,3.975,3.975,3.975s3.975-1.783,3.975-3.975S46.275,63.442,44.083,63.442z"/>
								</g>
								<g>
									<path style="fill:#B0B5B7;" d="M47.218,67.417c0,1.731-1.404,3.135-3.135,3.135c-1.731,0-3.135-1.404-3.135-3.135
										c0-1.731,1.404-3.135,3.135-3.135C45.814,64.282,47.218,65.686,47.218,67.417z"/>
								</g>
							</g>
							<g>
								<g>
									<path style="fill:#B0B5B7;" d="M142.245,163.475c-2.743,0-4.975-2.232-4.975-4.975s2.232-4.975,4.975-4.975
										c2.743,0,4.975,2.232,4.975,4.975S144.988,163.475,142.245,163.475z M142.245,154.525c-2.192,0-3.975,1.783-3.975,3.975
										s1.783,3.975,3.975,3.975s3.975-1.783,3.975-3.975S144.436,154.525,142.245,154.525z"/>
								</g>
								<g>
									<path style="fill:#B0B5B7;" d="M145.38,158.5c0,1.731-1.404,3.135-3.135,3.135c-1.731,0-3.135-1.404-3.135-3.135
										s1.404-3.135,3.135-3.135C143.976,155.365,145.38,156.769,145.38,158.5z"/>
								</g>
							</g>
							<g>
								<g>
									<path style="fill:#B0B5B7;" d="M69.525,177.111c-2.743,0-4.975-2.232-4.975-4.975c0-2.743,2.232-4.975,4.975-4.975
										c2.743,0,4.975,2.232,4.975,4.975C74.5,174.879,72.268,177.111,69.525,177.111z M69.525,168.161
										c-2.192,0-3.975,1.783-3.975,3.975c0,2.192,1.783,3.975,3.975,3.975c2.192,0,3.975-1.783,3.975-3.975
										C73.5,169.944,71.717,168.161,69.525,168.161z"/>
								</g>
								<g>
									<path style="fill:#B0B5B7;" d="M72.66,172.136c0,1.732-1.404,3.135-3.135,3.135s-3.135-1.404-3.135-3.135
										c0-1.731,1.404-3.135,3.135-3.135S72.66,170.404,72.66,172.136z"/>
								</g>
							</g>
							<g>
								<circle style="fill:#CED6DB;" cx="284.667" cy="79" r="5.583"/>
							</g>
							<g>
								
									<ellipse transform="matrix(0.0453 -0.999 0.999 0.0453 585.0446 811.4011)" style="fill:#CED6DB;" cx="717.043" cy="99.608" rx="5.583" ry="5.583"/>
							</g>
							<g>
								<path style="fill:#CED6DB;" d="M663.989,194.718c0,3.083-2.5,5.583-5.583,5.583c-3.083,0-5.583-2.5-5.583-5.583
									c0-3.083,2.5-5.583,5.583-5.583C661.489,189.135,663.989,191.635,663.989,194.718z"/>
							</g>
							<g>
								<path style="fill:#CED6DB;" d="M640.313,301.06c0,2.019-1.637,3.655-3.656,3.655c-2.019,0-3.656-1.637-3.656-3.655
									c0-2.02,1.638-3.657,3.656-3.657C638.676,297.403,640.313,299.041,640.313,301.06z"/>
							</g>
							<g>
								<path style="fill:#CED6DB;" d="M481.313,272.673c0,2.018-1.637,3.655-3.656,3.655c-2.019,0-3.656-1.637-3.656-3.655
									c0-2.02,1.638-3.657,3.656-3.657C479.676,269.016,481.313,270.653,481.313,272.673z"/>
							</g>
							<g>
								<circle style="fill:#CED6DB;" cx="518.043" cy="100.942" r="5.583"/>
							</g>
							<g>
								<path style="fill:#CED6DB;" d="M581.375,102.031c0,2.174-1.762,3.936-3.935,3.936c-2.174,0-3.936-1.762-3.936-3.936
									s1.762-3.936,3.936-3.936C579.613,98.095,581.375,99.857,581.375,102.031z"/>
							</g>
							<g>
								<path style="fill:#B0B5B7;" d="M595.438,109.046c0,2.3-1.866,4.165-4.165,4.165c-2.299,0-4.165-1.865-4.165-4.165
									s1.866-4.165,4.165-4.165C593.571,104.881,595.438,106.746,595.438,109.046z"/>
							</g>
							<g>
								<circle style="fill:#B0B5B7;" cx="358" cy="208.374" r="7.333"/>
							</g>
							<g>
								<circle style="fill:#CED6DB;" cx="552.139" cy="272.672" r="7.333"/>
							</g>
							<g>
								<path style="fill:#CED6DB;" d="M330,141.71c0,1.887-1.53,3.417-3.417,3.417c-1.887,0-3.417-1.53-3.417-3.417
									c0-1.887,1.53-3.417,3.417-3.417C328.47,138.294,330,139.824,330,141.71z"/>
							</g>
							<g>
								<path style="fill:#B0B5B7;" d="M213.542,182.036c0,1.887-1.53,3.417-3.417,3.417s-3.417-1.53-3.417-3.417
									c0-1.887,1.53-3.417,3.417-3.417S213.542,180.149,213.542,182.036z"/>
							</g>
							<g>
								<g>
									<path style="fill:#CED6DB;" d="M350.697,125.295c-4.182,0-7.585-3.402-7.585-7.584c0-4.182,3.402-7.584,7.585-7.584
										c4.182,0,7.584,3.402,7.584,7.584C358.282,121.893,354.879,125.295,350.697,125.295z M350.697,111.126
										c-3.631,0-6.585,2.954-6.585,6.584c0,3.631,2.954,6.584,6.585,6.584c3.631,0,6.584-2.954,6.584-6.584
										C357.282,114.08,354.328,111.126,350.697,111.126z"/>
								</g>
								<g>
									<path style="fill:#CED6DB;" d="M355.594,117.71c0,2.704-2.193,4.896-4.897,4.896s-4.896-2.193-4.896-4.896
										c0-2.704,2.193-4.896,4.896-4.896S355.594,115.007,355.594,117.71z"/>
								</g>
							</g>
							<g>
								<circle style="fill:#B0B5B7;" cx="183.5" cy="120.334" r="5.583"/>
							</g>
							<g>
								<circle style="fill:#B0B5B7;" cx="151.001" cy="120.334" r="5.583"/>
							</g>
							<g>
								<circle style="fill:#B0B5B7;" cx="79.887" cy="141.62" r="5.583"/>
							</g>
							<g>
								<path style="fill:#B0B5B7;" d="M38.281,95.141c0,3.083-2.5,5.583-5.583,5.583c-3.083,0-5.583-2.5-5.583-5.583
									c0-3.083,2.5-5.583,5.583-5.583C35.781,89.558,38.281,92.058,38.281,95.141z"/>
							</g>
							<g>
								<circle style="fill:#CED6DB;" cx="266.25" cy="97.504" r="2.167"/>
							</g>
							<g>
								<circle style="fill:#CED6DB;" cx="311.917" cy="79" r="3.833"/>
							</g>
							<g>
								<circle style="fill:#B0B5B7;" cx="201.417" cy="79" r="3.833"/>
							</g>
							<g>
								<circle style="fill:#B0B5B7;" cx="109" cy="97.504" r="3.833"/>
							</g>
						</g>
						<g>
							<g>
								<path style="fill:#CED6DB;" d="M529.334,38.917h-314c-0.276,0-0.5-0.224-0.5-0.5s0.224-0.5,0.5-0.5h314
									c0.276,0,0.5,0.224,0.5,0.5S529.61,38.917,529.334,38.917z"/>
							</g>
							<g>
								<circle style="fill:#CED6DB;" cx="212.5" cy="38.417" r="3.833"/>
							</g>
							<g>
								<circle style="fill:#CED6DB;" cx="529.334" cy="38.417" r="3.834"/>
							</g>
						</g>
						<g>
							<path style="fill:#CED6DB;" d="M578.256,101.442c-0.128,0-0.256-0.049-0.354-0.146c-0.195-0.195-0.195-0.512,0-0.707
								L694.39-15.899c0.195-0.195,0.512-0.195,0.707,0c0.195,0.195,0.195,0.512,0,0.707L578.609,101.295
								C578.512,101.393,578.384,101.442,578.256,101.442z"/>
						</g>
						<g>
							<path style="fill:#B0B5B7;" d="M592.74,107.927c-0.128,0-0.256-0.049-0.353-0.146c-0.195-0.195-0.195-0.512,0-0.707
								L708.874-9.415c0.195-0.195,0.512-0.195,0.707,0c0.195,0.195,0.195,0.512,0,0.707L593.094,107.78
								C592.996,107.878,592.868,107.927,592.74,107.927z"/>
						</g>
						<g>
							<path style="fill:#CED6DB;" d="M718.532,232.309H550.758l-73.455-73.456c-0.195-0.195-0.195-0.512,0-0.707
								c0.195-0.195,0.512-0.195,0.707,0l73.162,73.163h167.36c0.276,0,0.5,0.224,0.5,0.5
								C719.032,232.085,718.809,232.309,718.532,232.309z"/>
						</g>
					</g>
					<g>
						<g>
							<polygon style="fill:#CED6DB;" points="360.59,172.9 354.337,172.9 344.902,163.112 351.154,163.112 							"/>
						</g>
						<g>
							<polygon style="fill:#CED6DB;" points="372.374,172.9 366.122,172.9 356.686,163.112 362.939,163.112 							"/>
						</g>
						<g>
							<polygon style="fill:#CED6DB;" points="384.159,172.9 377.906,172.9 368.471,163.112 374.723,163.112 							"/>
						</g>
						<g>
							<polygon style="fill:#CED6DB;" points="395.943,172.9 389.69,172.9 380.255,163.112 386.508,163.112 							"/>
						</g>
						<g>
							<polygon style="fill:#CED6DB;" points="407.728,172.9 401.476,172.9 392.039,163.112 398.292,163.112 							"/>
						</g>
						<g>
							<polygon style="fill:#CED6DB;" points="419.513,172.9 413.26,172.9 403.824,163.112 410.076,163.112 							"/>
						</g>
						<g>
							<polygon style="fill:#CED6DB;" points="431.297,172.9 425.044,172.9 415.609,163.112 421.86,163.112 							"/>
						</g>
						<g>
							<polygon style="fill:#CED6DB;" points="443.081,172.9 436.828,172.9 427.394,163.112 433.646,163.112 							"/>
						</g>
					</g>
					<g>
						<g>
							<polygon style="fill:#CED6DB;" points="246.136,262.98 234.539,262.98 217.041,244.827 228.636,244.827 							"/>
						</g>
						<g>
							<polygon style="fill:#CED6DB;" points="267.991,262.98 256.395,262.98 238.895,244.827 250.492,244.827 							"/>
						</g>
						<g>
							<polygon style="fill:#CED6DB;" points="289.848,262.98 278.251,262.98 260.751,244.827 272.348,244.827 							"/>
						</g>
						<g>
							<polygon style="fill:#CED6DB;" points="311.703,262.98 300.106,262.98 282.607,244.827 294.204,244.827 							"/>
						</g>
						<g>
							<polygon style="fill:#CED6DB;" points="333.558,262.98 321.963,262.98 304.462,244.827 316.059,244.827 							"/>
						</g>
						<g>
							<polygon style="fill:#CED6DB;" points="355.415,262.98 343.818,262.98 326.318,244.827 337.914,244.827 							"/>
						</g>
						<g>
							<polygon style="fill:#CED6DB;" points="377.271,262.98 365.673,262.98 348.176,244.827 359.769,244.827 							"/>
						</g>
						<g>
							<polygon style="fill:#CED6DB;" points="399.125,262.98 387.528,262.98 370.031,244.827 381.626,244.827 							"/>
						</g>
					</g>
					<g>
						<g>
							<polygon style="fill:#CED6DB;" points="617.835,14.333 629.432,14.333 646.93,-3.82 635.334,-3.82 							"/>
						</g>
						<g>
							<polygon style="fill:#CED6DB;" points="595.98,14.333 607.576,14.333 625.075,-3.82 613.479,-3.82 							"/>
						</g>
						<g>
							<polygon style="fill:#CED6DB;" points="574.123,14.333 585.72,14.333 603.219,-3.82 591.623,-3.82 							"/>
						</g>
						<g>
							<polygon style="fill:#CED6DB;" points="552.268,14.333 563.864,14.333 581.363,-3.82 569.768,-3.82 							"/>
						</g>
						<g>
							<polygon style="fill:#CED6DB;" points="530.413,14.333 542.008,14.333 559.509,-3.82 547.912,-3.82 							"/>
						</g>
						<g>
							<polygon style="fill:#CED6DB;" points="508.556,14.333 520.152,14.333 537.652,-3.82 526.057,-3.82 							"/>
						</g>
						<g>
							<polygon style="fill:#CED6DB;" points="486.7,14.333 498.298,14.333 515.795,-3.82 504.202,-3.82 							"/>
						</g>
						<g>
							<polygon style="fill:#CED6DB;" points="464.846,14.333 476.442,14.333 493.939,-3.82 482.345,-3.82 							"/>
						</g>
					</g>
				</g>
				<g>
					<g>
						<polygon style="fill:#B0B5B7;" points="44.605,213.936 51.71,213.936 61.655,204.633 50.521,194.218 43.417,194.218 
							54.551,204.633 						"/>
					</g>
					<g>
						<polygon style="fill:#B0B5B7;" points="55.699,213.936 62.804,213.936 72.748,204.633 61.614,194.218 54.509,194.218 
							65.644,204.633 						"/>
					</g>
					<g>
						<polygon style="fill:#B0B5B7;" points="66.791,213.936 73.896,213.936 83.841,204.633 72.707,194.218 65.602,194.218 
							76.736,204.633 						"/>
					</g>
					<g>
						<polygon style="fill:#B0B5B7;" points="77.884,213.936 84.989,213.936 94.934,204.633 83.8,194.218 76.695,194.218 
							87.829,204.633 						"/>
					</g>
					<g>
						<polygon style="fill:#B0B5B7;" points="88.977,213.936 96.082,213.936 106.026,204.633 94.893,194.218 87.788,194.218 
							98.922,204.633 						"/>
					</g>
					<g>
						<polygon style="fill:#B0B5B7;" points="100.07,213.936 107.175,213.936 117.119,204.633 105.985,194.218 98.881,194.218 
							110.015,204.633 						"/>
					</g>
					<g>
						<polygon style="fill:#B0B5B7;" points="111.163,213.936 118.268,213.936 128.212,204.633 117.078,194.218 109.974,194.218 
							121.107,204.633 						"/>
					</g>
					<g>
						<polygon style="fill:#B0B5B7;" points="122.255,213.936 129.36,213.936 139.305,204.633 128.171,194.218 121.066,194.218 
							132.2,204.633 						"/>
					</g>
					<g>
						<polygon style="fill:#B0B5B7;" points="133.348,213.936 140.453,213.936 150.398,204.633 139.264,194.218 132.159,194.218 
							143.293,204.633 						"/>
					</g>
					<g>
						<polygon style="fill:#B0B5B7;" points="144.441,213.936 151.546,213.936 161.491,204.633 150.356,194.218 143.252,194.218 
							154.386,204.633 						"/>
					</g>
					<g>
						<polygon style="fill:#B0B5B7;" points="155.534,213.936 162.639,213.936 172.583,204.633 161.449,194.218 154.345,194.218 
							165.479,204.633 						"/>
					</g>
				</g>
				<g>
					<g>
						<polygon style="fill:#CED6DB;" points="486.244,64.19 492.13,64.19 500.365,56.485 491.145,47.86 485.26,47.86 
							494.481,56.485 						"/>
					</g>
					<g>
						<polygon style="fill:#CED6DB;" points="495.433,64.19 501.317,64.19 509.553,56.485 500.332,47.86 494.447,47.86 
							503.669,56.485 						"/>
					</g>
					<g>
						<polygon style="fill:#CED6DB;" points="504.619,64.19 510.504,64.19 518.74,56.485 509.52,47.86 503.634,47.86 
							512.856,56.485 						"/>
					</g>
					<g>
						<polygon style="fill:#CED6DB;" points="513.808,64.19 519.691,64.19 527.928,56.485 518.707,47.86 512.822,47.86 
							522.044,56.485 						"/>
					</g>
					<g>
						<polygon style="fill:#CED6DB;" points="522.994,64.19 528.879,64.19 537.115,56.485 527.894,47.86 522.01,47.86 
							531.231,56.485 						"/>
					</g>
					<g>
						<polygon style="fill:#CED6DB;" points="532.183,64.19 538.066,64.19 546.303,56.485 537.081,47.86 531.197,47.86 
							540.419,56.485 						"/>
					</g>
					<g>
						<polygon style="fill:#CED6DB;" points="541.369,64.19 547.254,64.19 555.49,56.485 546.269,47.86 540.385,47.86 
							549.606,56.485 						"/>
					</g>
					<g>
						<polygon style="fill:#CED6DB;" points="550.558,64.19 556.441,64.19 564.678,56.485 555.456,47.86 549.572,47.86 
							558.793,56.485 						"/>
					</g>
					<g>
						<polygon style="fill:#CED6DB;" points="559.744,64.19 565.629,64.19 573.866,56.485 564.644,47.86 558.76,47.86 
							567.98,56.485 						"/>
					</g>
					<g>
						<polygon style="fill:#CED6DB;" points="568.932,64.19 574.816,64.19 583.053,56.485 573.831,47.86 567.947,47.86 
							577.168,56.485 						"/>
					</g>
					<g>
						<polygon style="fill:#CED6DB;" points="578.118,64.19 584.004,64.19 592.24,56.485 583.019,47.86 577.135,47.86 
							586.355,56.485 						"/>
					</g>
				</g>
			</g>
		</g>
	</g>
</g>
</svg>
