<?xml version="1.0" encoding="utf-8"?>
<!-- Generator: Adobe Illustrator 27.5.0, SVG Export Plug-In . SVG Version: 6.00 Build 0)  -->
<svg version="1.1" xmlns="http://www.w3.org/2000/svg" xmlns:xlink="http://www.w3.org/1999/xlink" x="0px" y="0px"
	 viewBox="0 0 750 500" style="enable-background:new 0 0 750 500;" xml:space="preserve">
<g id="BACKGROUND">
	<rect style="fill:#F1F2F2;" width="750" height="500"/>
</g>
<g id="OBJECTS">
	<g>
		<g>
			<defs>
				<rect id="SVGID_1_" width="750" height="500"/>
			</defs>
			<clipPath id="SVGID_00000146495526951525367660000018014921025475666088_">
				<use xlink:href="#SVGID_1_"  style="overflow:visible;"/>
			</clipPath>
			<g style="clip-path:url(#SVGID_00000146495526951525367660000018014921025475666088_);">
				<path style="fill:#D1D3D4;" d="M375-107.143V249.99L196.401-59.327C248.917-89.746,309.918-107.143,375-107.143z"/>
				<path style="fill:#D1D3D4;" d="M375.043,250L779,483.244C738.08,554.044,679.044,613.08,608.244,654L375,250H375.043z"/>
				<circle style="fill:#E6E7E8;" cx="375" cy="250" r="245.607"/>
				<circle style="fill:none;stroke:#D1D3D4;stroke-miterlimit:10;" cx="375" cy="250" r="211.857"/>
				<line style="fill:none;stroke:#939598;stroke-miterlimit:10;" x1="215.935" y1="250" x2="0" y2="250"/>
				<g>
					<path style="fill:#F1F2F2;" d="M375,475.5v-26c110.005,0,199.5-89.495,199.5-199.5h26c0,60.233-23.456,116.861-66.047,159.452
						C491.861,452.044,435.233,475.5,375,475.5z"/>
				</g>
				<line style="fill:none;stroke:#939598;stroke-miterlimit:10;" x1="533.5" y1="250" x2="750" y2="250"/>
				<path style="fill:#939598;" d="M375,90.935V56.857c-106.67,0-193.143,86.473-193.143,193.143h34.078
					C215.935,162.151,287.151,90.935,375,90.935z"/>
				<line style="fill:none;stroke:#414042;stroke-miterlimit:10;" x1="375" y1="-88.821" x2="375" y2="92.043"/>
				<circle style="fill:#F1F2F2;" cx="375" cy="250" r="175.857"/>
				<circle style="fill:none;stroke:#FFFFFF;stroke-miterlimit:10;" cx="375" cy="250" r="158.5"/>
				<circle style="fill:none;stroke:#FFFFFF;stroke-miterlimit:10;" cx="375" cy="250" r="322.964"/>
				<circle style="fill:none;stroke:#FFFFFF;stroke-miterlimit:10;" cx="375" cy="250" r="322.964"/>
				<circle style="fill:none;stroke:#D1D3D4;stroke-miterlimit:10;" cx="375" cy="250" r="286.232"/>
				<circle style="opacity:0.5;fill:#E6E7E8;" cx="375" cy="250" r="145"/>
				<g>
					<path style="fill:#D1D3D4;" d="M263.553,153.375l3.776,3.277c8.917-10.276,19.229-19.213,30.65-26.565l-2.706-4.204
						C283.453,133.491,272.781,142.741,263.553,153.375z"/>
					<path style="fill:#D1D3D4;" d="M333.3,391.522c13.432,3.952,27.409,5.963,41.542,5.977l0.005-5
						c-13.657-0.014-27.161-1.957-40.136-5.774L333.3,391.522z"/>
					<path style="fill:#D1D3D4;" d="M267.23,343.233l-3.78,3.273c9.217,10.645,19.88,19.905,31.691,27.525l2.711-4.201
						C286.439,362.468,276.136,353.52,267.23,343.233z"/>
					<path style="fill:#D1D3D4;" d="M228.993,228.935l4.949,0.708c1.926-13.462,5.769-26.55,11.424-38.9l-4.546-2.082
						C234.965,201.448,230.986,214.998,228.993,228.935z"/>
					<path style="fill:#D1D3D4;" d="M228.97,270.902c1.978,13.941,5.943,27.497,11.784,40.292l4.549-2.076
						c-5.642-12.358-9.472-25.452-11.382-38.919L228.97,270.902z"/>
					<path style="fill:#D1D3D4;" d="M482.87,156.882c8.904,10.305,16.269,21.791,21.891,34.14l4.551-2.071
						c-5.82-12.783-13.443-24.672-22.659-35.337L482.87,156.882z"/>
					<path style="fill:#D1D3D4;" d="M521.052,229.255l-4.951,0.697c0.928,6.595,1.399,13.34,1.399,20.048
						c0,6.865-0.493,13.765-1.465,20.509l4.949,0.713c1.006-6.979,1.516-14.119,1.516-21.222
						C522.5,243.06,522.013,236.08,521.052,229.255z"/>
					<path style="fill:#D1D3D4;" d="M482.57,343.464l3.773,3.281c9.249-10.636,16.91-22.5,22.771-35.262l-4.544-2.086
						C498.908,321.726,491.506,333.188,482.57,343.464z"/>
					<path style="fill:#D1D3D4;" d="M415.435,113.318c13.014,3.844,25.409,9.541,36.842,16.934l2.715-4.198
						c-11.835-7.653-24.667-13.552-38.141-17.531L415.435,113.318z"/>
					<path style="fill:#D1D3D4;" d="M333.454,108.433l1.406,4.798c12.978-3.803,26.483-5.731,40.128-5.731l0.323,0.001v-5L375,102.5
						C360.867,102.5,346.889,104.496,333.454,108.433z"/>
					<path style="fill:#D1D3D4;" d="M414.994,386.813l1.4,4.799c13.488-3.936,26.34-9.794,38.2-17.409l-2.702-4.207
						C440.436,377.352,428.022,383.01,414.994,386.813z"/>
				</g>
				<circle style="fill:#FFFFFF;" cx="375" cy="250" r="137.286"/>
				
					<radialGradient id="SVGID_00000013901955114479110240000015845516083841672860_" cx="382.7144" cy="255.7858" r="160.9104" gradientUnits="userSpaceOnUse">
					<stop  offset="0.6358" style="stop-color:#FFFFFF"/>
					<stop  offset="0.7077" style="stop-color:#FCFCFC"/>
					<stop  offset="0.7615" style="stop-color:#F3F2F3"/>
					<stop  offset="0.8095" style="stop-color:#E2E2E3"/>
					<stop  offset="0.854" style="stop-color:#CCCBCC"/>
					<stop  offset="0.8963" style="stop-color:#AEAEAF"/>
					<stop  offset="0.9367" style="stop-color:#8A8A8B"/>
					<stop  offset="0.9751" style="stop-color:#616061"/>
					<stop  offset="1" style="stop-color:#414042"/>
				</radialGradient>
				<circle style="fill:url(#SVGID_00000013901955114479110240000015845516083841672860_);" cx="375" cy="250" r="137.286"/>
				<path style="fill:#E6E7E8;" d="M453.296,385.613c-23.033,13.327-49.772,20.958-78.296,20.958v35.679
					c35.024,0,67.857-9.37,96.138-25.734L453.296,385.613z"/>
				<path style="fill:#939598;" d="M431.519,424.457l-4.631-14.268c33.635-10.918,63.563-32.591,84.271-61.027l12.126,8.831
					C500.729,388.966,468.139,412.57,431.519,424.457z"/>
				<path style="opacity:0.5;fill:#FFFFFF;" d="M427.348,89.972l-0.191-0.062c-17.58-5.717-35.734-8.507-53.998-8.305
					c-16.996,0.188-33.842,2.962-50.072,8.242l-4.641-14.264c17.677-5.752,36.029-8.772,54.546-8.978
					c19.899-0.221,39.67,2.816,58.764,9.027l0.255,0.083L427.348,89.972z"/>
				<g>
					<g>
						<path style="fill:#F1F2F2;" d="M245.351,142.383l-11.334-9.419c-0.534,0.606-0.988,1.274-1.498,1.904
							c-0.508,0.63-1.014,1.257-1.52,1.886l11.578,9.117c0.466-0.578,0.931-1.154,1.399-1.734
							C244.444,143.557,244.857,142.938,245.351,142.383z"/>
					</g>
					<g>
						<path style="fill:#F1F2F2;" d="M240.372,148.673l-11.767-8.871c-0.504,0.631-0.932,1.316-1.408,1.971
							c-0.478,0.654-0.952,1.305-1.428,1.956l11.997,8.558c0.438-0.6,0.875-1.198,1.314-1.799
							C239.518,149.886,239.907,149.252,240.372,148.673z"/>
					</g>
					<g>
						<path style="fill:#F1F2F2;" d="M235.698,155.192l-12.175-8.303c-0.472,0.655-0.874,1.355-1.315,2.034
							c-0.446,0.676-0.889,1.349-1.333,2.023l12.39,7.978c0.409-0.62,0.816-1.238,1.226-1.86
							C234.896,156.439,235.262,155.793,235.698,155.192z"/>
					</g>
					<g>
						<path style="fill:#F1F2F2;" d="M231.34,161.925l-12.556-7.715c-0.439,0.678-0.816,1.39-1.221,2.092
							c-0.412,0.697-0.823,1.39-1.234,2.085l12.755,7.38c0.378-0.639,0.756-1.276,1.135-1.917
							C230.591,163.205,230.933,162.547,231.34,161.925z"/>
					</g>
					<g>
						<path style="fill:#F1F2F2;" d="M227.307,168.857l-12.909-7.108c-0.405,0.699-0.758,1.423-1.123,2.146
							c-0.378,0.716-0.754,1.429-1.132,2.143l13.093,6.763c0.347-0.657,0.693-1.311,1.041-1.97
							C226.611,170.166,226.933,169.499,227.307,168.857z"/>
					</g>
					<g>
						<path style="fill:#F1F2F2;" d="M223.611,175.973l-13.234-6.484c-0.369,0.718-0.701,1.452-1.024,2.195
							c-0.343,0.734-0.684,1.464-1.026,2.195l13.401,6.13c0.314-0.673,0.628-1.343,0.943-2.018
							C222.967,177.309,223.269,176.633,223.611,175.973z"/>
					</g>
					<g>
						<path style="fill:#F1F2F2;" d="M220.259,183.257l-13.529-5.843c-0.327,0.738-0.64,1.481-0.924,2.24
							c-0.307,0.75-0.612,1.496-0.917,2.243l13.679,5.481c0.281-0.687,0.561-1.372,0.843-2.061
							C219.671,184.618,219.957,183.936,220.259,183.257z"/>
					</g>
					<g>
						<path style="fill:#F1F2F2;" d="M217.261,190.693l-13.793-5.188c-0.282,0.757-0.578,1.506-0.823,2.279
							c-0.269,0.764-0.537,1.524-0.806,2.286l13.926,4.819c0.247-0.7,0.493-1.398,0.74-2.1
							C216.728,192.076,217.001,191.388,217.261,190.693z"/>
					</g>
					<g>
						<path style="fill:#F1F2F2;" d="M214.623,198.263l-14.026-4.521c-0.237,0.772-0.513,1.53-0.721,2.313
							c-0.231,0.776-0.461,1.549-0.692,2.322l14.141,4.146c0.212-0.712,0.423-1.421,0.635-2.134
							C214.149,199.668,214.405,198.973,214.623,198.263z"/>
					</g>
					<g>
						<path style="fill:#F1F2F2;" d="M212.351,205.951l-14.227-3.843c-0.207,0.78-0.413,1.559-0.621,2.342
							c-0.192,0.787-0.383,1.569-0.575,2.354l14.324,3.463c0.176-0.721,0.351-1.44,0.528-2.163
							C211.971,207.384,212.161,206.669,212.351,205.951z"/>
					</g>
					<g>
						<path style="fill:#F1F2F2;" d="M210.451,213.74l-14.394-3.157c-0.171,0.789-0.343,1.576-0.515,2.368
							c-0.155,0.795-0.309,1.586-0.463,2.378l14.473,2.773c0.142-0.729,0.283-1.455,0.425-2.186
							C210.136,215.188,210.293,214.465,210.451,213.74z"/>
					</g>
					<g>
						<path style="fill:#F1F2F2;" d="M208.926,221.611l-14.529-2.465c-0.132,0.797-0.263,1.591-0.395,2.39
							c-0.159,0.795-0.239,1.597-0.364,2.395l14.589,2.079c0.115-0.734,0.187-1.472,0.336-2.202
							C208.684,223.073,208.805,222.343,208.926,221.611z"/>
					</g>
					<g>
						<path style="fill:#F1F2F2;" d="M207.778,229.546l-14.63-1.77c-0.092,0.802-0.183,1.602-0.275,2.407
							c-0.116,0.802-0.204,1.602-0.268,2.407l14.671,1.384c0.057-0.741,0.14-1.476,0.249-2.214
							C207.609,231.02,207.693,230.284,207.778,229.546z"/>
					</g>
					<g>
						<path style="fill:#F1F2F2;" d="M207.007,237.529l-14.697-1.076c-0.051,0.805-0.102,1.609-0.153,2.417
							c-0.052,0.808-0.163,1.608-0.176,2.415l14.72,0.69c0.01-0.744,0.118-1.479,0.166-2.222
							C206.913,239.01,206.96,238.271,207.007,237.529z"/>
					</g>
				</g>
				<line style="fill:none;stroke:#D1D3D4;stroke-miterlimit:10;" x1="-54.737" y1="1.892" x2="191.288" y2="143.934"/>
				<path style="fill:#939598;" d="M484.081,61.081l-7.563,13.098c30.78,17.841,56.467,43.53,74.307,74.31l13.098-7.562
					c-9.44-16.289-21.056-31.459-34.724-45.127C515.534,82.135,500.367,70.52,484.081,61.081z"/>
				<line style="fill:none;stroke:#FFFFFF;stroke-miterlimit:10;" x1="512.271" y1="170.746" x2="785.863" y2="12.788"/>
				<line style="fill:none;stroke:#FFFFFF;stroke-miterlimit:10;" x1="-35.863" y1="487.212" x2="237.966" y2="329.117"/>
				<line style="fill:none;stroke:#FFFFFF;stroke-miterlimit:10;" x1="197.857" y1="556.821" x2="295.752" y2="387.263"/>
				<path style="fill:none;stroke:#D1D3D4;stroke-miterlimit:10;" d="M79.786,544.214l153.318-152.818
					c39.045,39.046,90.721,58.568,141.896,58.568v-43.393"/>
				<rect x="607.428" y="241.369" style="fill:#939598;" width="26.357" height="17.262"/>
				<rect x="641.75" y="241.369" style="fill:#FFFFFF;" width="13.179" height="17.262"/>
				<rect x="74.339" y="241.369" style="fill:#939598;" width="13.179" height="17.262"/>
				<rect x="661.232" y="241.369" style="fill:#D1D3D4;" width="6.589" height="17.262"/>
				<rect x="131.393" y="241.369" style="fill:none;stroke:#939598;stroke-miterlimit:10;" width="6.589" height="17.262"/>
				<g>
					<polygon style="fill:#808285;" points="622.376,290.697 607.428,282.067 607.428,299.327 					"/>
					<polygon style="fill:#808285;" points="638.045,290.697 623.098,282.067 623.098,299.327 					"/>
					<polygon style="fill:#808285;" points="653.714,290.697 638.767,282.067 638.767,299.327 					"/>
				</g>
				<g>
					<polygon style="fill:#808285;" points="69.198,73.274 77.828,88.221 86.457,73.274 					"/>
					<polygon style="fill:#808285;" points="55.628,65.439 64.258,80.386 72.887,65.439 					"/>
					<polygon style="fill:none;stroke:#808285;stroke-miterlimit:10;" points="42.058,57.605 50.688,72.552 59.317,57.605 					"/>
				</g>
				<line style="fill:none;stroke:#D1D3D4;stroke-miterlimit:10;" x1="375" y1="408.5" x2="375" y2="597.75"/>
				<path style="fill:none;stroke:#D1D3D4;stroke-miterlimit:10;" d="M650.027,170.475L860.154,49.159L791.51-69.735L581.318,51.619
					C613.072,84.636,636.974,125.253,650.027,170.475z"/>
				<path style="fill:#939598;" d="M643.09,69.858L773.208-5.266l-5.823-10.086l-131.013,75.64
					C638.663,63.439,640.912,66.622,643.09,69.858z"/>
				<g>
					
						<rect x="23.389" y="391.365" transform="matrix(0.866 -0.5 0.5 0.866 -198.0851 67.4052)" style="fill:#939598;" width="6.697" height="23.938"/>
					
						<rect x="33.012" y="385.809" transform="matrix(0.866 -0.5 0.5 0.866 -194.0167 71.4715)" style="fill:#939598;" width="6.697" height="23.938"/>
					
						<rect x="42.635" y="380.253" transform="matrix(0.866 -0.5 0.5 0.866 -189.9508 75.5396)" style="fill:#D1D3D4;" width="6.697" height="23.938"/>
					
						<rect x="52.258" y="374.697" transform="matrix(0.866 -0.5 0.5 0.866 -185.8836 79.6067)" style="fill:#FFFFFF;" width="6.697" height="23.938"/>
				</g>
				<g>
					<g>
						<path style="fill:#939598;" d="M170.686,290.422c-0.342-1.917-2.202-3.192-4.154-2.849c-1.952,0.343-3.246,2.239-2.889,4.234
							c0.32,2.003,2.337,3.246,4.252,2.829C169.853,294.211,170.99,292.347,170.686,290.422z"/>
					</g>
					<g>
						<path style="fill:#939598;" d="M174.864,307.596c-0.532-1.873-2.517-2.979-4.432-2.47c-1.916,0.509-3.021,2.502-2.467,4.452
							c0.554,1.95,2.539,3.056,4.432,2.47C174.291,311.462,175.396,309.469,174.864,307.596z"/>
					</g>
					<g>
						<path style="fill:#939598;" d="M180.454,324.361c-0.721-1.809-2.803-2.737-4.645-2.075c-1.889,0.679-2.81,2.756-2.06,4.639
							c0.743,1.886,2.835,2.81,4.672,2.065C180.259,328.245,181.169,326.172,180.454,324.361z"/>
					</g>
					<g>
						<path style="fill:#939598;" d="M187.428,340.604c-0.833-1.76-2.92-2.538-4.729-1.707c-1.794,0.824-2.6,3.003-1.733,4.834
							c0.923,1.805,3.104,2.538,4.871,1.639C187.604,344.47,188.316,342.337,187.428,340.604z"/>
					</g>
					<g>
						<path style="fill:#D1D3D4;" d="M195.828,356.159c-0.97-1.688-3.155-2.264-4.88-1.286s-2.303,3.195-1.293,4.952
							c0.984,1.773,3.254,2.297,4.939,1.25C196.277,360.029,196.772,357.864,195.828,356.159z"/>
					</g>
					<g>
						<path style="fill:#D1D3D4;" d="M205.506,370.951c-1.129-1.587-3.37-1.965-5.005-0.845c-1.635,1.12-2.009,3.368-0.835,5.019
							c1.175,1.652,3.416,2.03,5.005,0.845C206.261,374.785,206.635,372.538,205.506,370.951z"/>
					</g>
					<g>
						<path style="fill:#D1D3D4;" d="M216.379,384.888c-1.273-1.474-3.561-1.641-5.076-0.404c-1.555,1.271-1.715,3.523-0.39,5.057
							c1.327,1.532,3.605,1.708,5.089,0.393C217.485,388.619,217.655,386.36,216.379,384.888z"/>
					</g>
					<g>
						<path style="fill:#FFFFFF;" d="M228.372,397.878c-1.404-1.35-3.603-1.418-5.04-0.025c-1.41,1.366-1.474,3.717-0.014,5.122
							c1.466,1.399,3.764,1.369,5.131-0.066C229.817,401.474,229.783,399.221,228.372,397.878z"/>
					</g>
					<g>
						<path style="fill:#FFFFFF;" d="M241.448,409.779c-1.472-1.276-3.721-1.098-5.023,0.397c-1.302,1.495-1.116,3.782,0.416,5.108
							c1.508,1.356,3.864,1.048,5.088-0.476C243.189,413.241,242.896,411.084,241.448,409.779z"/>
					</g>
				</g>
			</g>
			<g style="clip-path:url(#SVGID_00000146495526951525367660000018014921025475666088_);">
				<text transform="matrix(1 0 0 1 321.5723 247.3164)"><tspan x="0" y="0" style="fill:#414042; font-family:'Lato-Regular'; font-size:15.6222px; letter-spacing:7;">DIGITAL</tspan><tspan x="-36.892" y="18.747" style="fill:#414042; font-family:'Lato-Regular'; font-size:15.6222px; letter-spacing:7;">BACKGROUND</tspan></text>
			</g>
		</g>
	</g>
</g>
</svg>
