<svg width="143" height="148" viewBox="0 0 143 148" fill="none" xmlns="http://www.w3.org/2000/svg">
<path d="M0.0102108 5.28458C0.0102108 3.88302 0.548142 2.53887 1.50566 1.54782C2.46319 0.556765 3.76186 0 5.116 0H9.58868C17.0125 0 21.2809 4.99921 23.7521 9.98786C25.4371 13.4017 26.6522 17.5659 27.6632 21.1806H132.791C134.369 21.1811 135.926 21.56 137.338 22.2877C138.751 23.0153 139.981 24.0718 140.933 25.3744C141.885 26.6769 142.532 28.19 142.824 29.795C143.116 31.3999 143.044 33.053 142.615 34.6246L127.338 90.3769C126.123 94.8002 123.548 98.6927 120.002 101.464C116.456 104.235 112.134 105.734 107.691 105.734H55.8267C51.3467 105.735 46.9904 104.212 43.429 101.399C39.8677 98.5858 37.2989 94.6386 36.1184 90.1655L29.5625 65.2751C29.5249 65.1636 29.4909 65.0508 29.4604 64.9369L18.9323 27.9766L17.9111 24.4148C16.89 20.7578 15.9913 17.5237 14.6434 14.8074C13.0198 11.531 11.5289 10.5797 9.57847 10.5797H5.10579C3.75165 10.5797 2.45297 10.023 1.49545 9.03191C0.537929 8.04086 0 6.69671 0 5.29515L0.0102108 5.28458ZM39.3044 62.0833L45.9726 87.407C46.5637 89.6425 47.8486 91.615 49.6291 93.0206C51.4097 94.4262 53.5874 95.187 55.8267 95.1859H107.702C109.922 95.1835 112.081 94.4322 113.852 93.0457C115.623 91.6591 116.909 89.713 117.515 87.5021L132.791 31.7498H30.6756L39.3044 62.0833ZM71.5219 132.146C71.5219 136.351 69.9082 140.383 67.0356 143.357C64.163 146.33 60.267 148 56.2046 148C52.1421 148 48.2461 146.33 45.3735 143.357C42.501 140.383 40.8872 136.351 40.8872 132.146C40.8872 127.942 42.501 123.909 45.3735 120.936C48.2461 117.963 52.1421 116.292 56.2046 116.292C60.267 116.292 64.163 117.963 67.0356 120.936C69.9082 123.909 71.5219 127.942 71.5219 132.146ZM61.3104 132.146C61.3104 130.745 60.7724 129.401 59.8149 128.409C58.8574 127.418 57.5587 126.862 56.2046 126.862C54.8504 126.862 53.5517 127.418 52.5942 128.409C51.6367 129.401 51.0988 130.745 51.0988 132.146C51.0988 133.548 51.6367 134.892 52.5942 135.883C53.5517 136.874 54.8504 137.431 56.2046 137.431C57.5587 137.431 58.8574 136.874 59.8149 135.883C60.7724 134.892 61.3104 133.548 61.3104 132.146ZM122.58 132.146C122.58 136.351 120.966 140.383 118.094 143.357C115.221 146.33 111.325 148 107.262 148C103.2 148 99.304 146.33 96.4315 143.357C93.5589 140.383 91.9451 136.351 91.9451 132.146C91.9451 127.942 93.5589 123.909 96.4315 120.936C99.304 117.963 103.2 116.292 107.262 116.292C111.325 116.292 115.221 117.963 118.094 120.936C120.966 123.909 122.58 127.942 122.58 132.146ZM112.368 132.146C112.368 130.745 111.83 129.401 110.873 128.409C109.915 127.418 108.617 126.862 107.262 126.862C105.908 126.862 104.61 127.418 103.652 128.409C102.695 129.401 102.157 130.745 102.157 132.146C102.157 133.548 102.695 134.892 103.652 135.883C104.61 136.874 105.908 137.431 107.262 137.431C108.617 137.431 109.915 136.874 110.873 135.883C111.83 134.892 112.368 133.548 112.368 132.146Z" fill="white"/>
</svg>
