<svg width="107" height="111" viewBox="0 0 107 111" fill="none" xmlns="http://www.w3.org/2000/svg">
<path d="M0.00764028 3.96344C0.00764028 2.91227 0.410148 1.90415 1.12662 1.16086C1.84308 0.417574 2.81482 0 3.82806 0H7.17474C12.7296 0 15.9235 3.74941 17.7726 7.49089C19.0333 10.0513 19.9426 13.1745 20.699 15.8855H99.3614C100.542 15.8858 101.707 16.17 102.764 16.7157C103.821 17.2615 104.741 18.0539 105.453 19.0308C106.166 20.0077 106.65 21.1425 106.868 22.3462C107.087 23.5499 107.033 24.7898 106.712 25.9684L95.2812 67.7827C94.372 71.1002 92.4447 74.0195 89.7917 76.098C87.1388 78.1766 83.9048 79.3009 80.5803 79.3004H41.7725C38.4202 79.3016 35.1606 78.1592 32.4958 76.0493C29.8311 73.9394 27.9089 70.979 27.0256 67.6242L22.1202 48.9564C22.0921 48.8727 22.0666 48.7881 22.0438 48.7027L14.1661 20.9824L13.402 18.3111C12.6379 15.5684 11.9655 13.1428 10.957 11.1055C9.74206 8.64822 8.6265 7.9348 7.1671 7.9348H3.82042C2.80718 7.9348 1.83544 7.51722 1.11897 6.77393C0.402506 6.03065 0 5.02253 0 3.97136L0.00764028 3.96344ZM29.4096 46.5624L34.399 65.5552C34.8414 67.2319 35.8028 68.7112 37.1351 69.7654C38.4674 70.8196 40.0968 71.3902 41.7725 71.3894H80.5879C82.2493 71.3877 83.865 70.8242 85.19 69.7843C86.515 68.7444 87.4772 67.2847 87.9307 65.6266L99.3614 23.8123H22.9531L29.4096 46.5624ZM53.5164 99.1097C53.5164 102.263 52.3089 105.288 50.1595 107.517C48.0101 109.747 45.0949 111 42.0552 111C39.0154 111 36.1002 109.747 33.9508 107.517C31.8014 105.288 30.5939 102.263 30.5939 99.1097C30.5939 95.9562 31.8014 92.9318 33.9508 90.702C36.1002 88.4721 39.0154 87.2194 42.0552 87.2194C45.0949 87.2194 48.0101 88.4721 50.1595 90.702C52.3089 92.9318 53.5164 95.9562 53.5164 99.1097ZM45.8756 99.1097C45.8756 98.0585 45.4731 97.0504 44.7566 96.3071C44.0401 95.5638 43.0684 95.1462 42.0552 95.1462C41.0419 95.1462 40.0702 95.5638 39.3537 96.3071C38.6372 97.0504 38.2347 98.0585 38.2347 99.1097C38.2347 100.161 38.6372 101.169 39.3537 101.912C40.0702 102.656 41.0419 103.073 42.0552 103.073C43.0684 103.073 44.0401 102.656 44.7566 101.912C45.4731 101.169 45.8756 100.161 45.8756 99.1097ZM91.7206 99.1097C91.7206 102.263 90.5131 105.288 88.3637 107.517C86.2143 109.747 83.2991 111 80.2593 111C77.2196 111 74.3044 109.747 72.155 107.517C70.0056 105.288 68.7981 102.263 68.7981 99.1097C68.7981 95.9562 70.0056 92.9318 72.155 90.702C74.3044 88.4721 77.2196 87.2194 80.2593 87.2194C83.2991 87.2194 86.2143 88.4721 88.3637 90.702C90.5131 92.9318 91.7206 95.9562 91.7206 99.1097ZM84.0798 99.1097C84.0798 98.0585 83.6773 97.0504 82.9608 96.3071C82.2443 95.5638 81.2726 95.1462 80.2593 95.1462C79.2461 95.1462 78.2744 95.5638 77.5579 96.3071C76.8414 97.0504 76.4389 98.0585 76.4389 99.1097C76.4389 100.161 76.8414 101.169 77.5579 101.912C78.2744 102.656 79.2461 103.073 80.2593 103.073C81.2726 103.073 82.2443 102.656 82.9608 101.912C83.6773 101.169 84.0798 100.161 84.0798 99.1097Z" fill="white"/>
</svg>
