<svg width="150" height="150" viewBox="0 0 150 150" fill="none" xmlns="http://www.w3.org/2000/svg">
<path d="M105.75 13H43.25C25.9911 13 12 26.9911 12 44.25V106.75C12 124.009 25.9911 138 43.25 138H105.75C123.009 138 137 124.009 137 106.75V44.25C137 26.9911 123.009 13 105.75 13Z" stroke="white" stroke-width="12.5" stroke-linecap="round" stroke-linejoin="round"/>
<g clip-path="url(#clip0_13_23)">
<path d="M101.938 18.8293V37.0745H92.3012C88.7819 37.0745 86.4084 37.9038 85.1807 39.5625C83.953 41.2212 83.3392 43.7091 83.3392 47.0264V60.0883H101.325L98.9306 80.5451H83.3392V133H64.5559V80.5451H48.9032V60.0883H64.5559V45.0222C64.5559 36.4525 66.6839 29.8064 70.9398 25.0838C75.1957 20.3613 80.8634 18 87.943 18C93.9585 18 98.6237 18.2764 101.938 18.8293Z" fill="white"/>
</g>
<defs>
<clipPath id="clip0_13_23">
<rect width="55" height="115" fill="white" transform="translate(47 18)"/>
</clipPath>
</defs>
</svg>
