<svg width="150" height="150" viewBox="0 0 150 150" fill="none" xmlns="http://www.w3.org/2000/svg">
<path d="M56.25 31.2501C54.5924 31.2501 53.0027 31.9085 51.8306 33.0806C50.6585 34.2527 50 35.8425 50 37.5001C50 39.1577 50.6585 40.7474 51.8306 41.9195C53.0027 43.0916 54.5924 43.7501 56.25 43.7501C57.9076 43.7501 59.4973 43.0916 60.6694 41.9195C61.8415 40.7474 62.5 39.1577 62.5 37.5001C62.5 35.8425 61.8415 34.2527 60.6694 33.0806C59.4973 31.9085 57.9076 31.2501 56.25 31.2501ZM38.5625 31.2501C39.8538 27.5905 42.2484 24.4215 45.4162 22.18C48.5841 19.9385 52.3693 18.7347 56.25 18.7347C60.1307 18.7347 63.9159 19.9385 67.0838 22.18C70.2516 24.4215 72.6462 27.5905 73.9375 31.2501H118.75C120.408 31.2501 121.997 31.9085 123.169 33.0806C124.342 34.2527 125 35.8425 125 37.5001C125 39.1577 124.342 40.7474 123.169 41.9195C121.997 43.0916 120.408 43.7501 118.75 43.7501H73.9375C72.6462 47.4096 70.2516 50.5786 67.0838 52.8201C63.9159 55.0617 60.1307 56.2654 56.25 56.2654C52.3693 56.2654 48.5841 55.0617 45.4162 52.8201C42.2484 50.5786 39.8538 47.4096 38.5625 43.7501H31.25C29.5924 43.7501 28.0027 43.0916 26.8306 41.9195C25.6585 40.7474 25 39.1577 25 37.5001C25 35.8425 25.6585 34.2527 26.8306 33.0806C28.0027 31.9085 29.5924 31.2501 31.25 31.2501H38.5625ZM93.75 68.7501C92.0924 68.7501 90.5027 69.4085 89.3306 70.5806C88.1585 71.7527 87.5 73.3425 87.5 75.0001C87.5 76.6577 88.1585 78.2474 89.3306 79.4195C90.5027 80.5916 92.0924 81.2501 93.75 81.2501C95.4076 81.2501 96.9973 80.5916 98.1694 79.4195C99.3415 78.2474 100 76.6577 100 75.0001C100 73.3425 99.3415 71.7527 98.1694 70.5806C96.9973 69.4085 95.4076 68.7501 93.75 68.7501ZM76.0625 68.7501C77.3538 65.0905 79.7484 61.9215 82.9162 59.68C86.0841 57.4385 89.8693 56.2347 93.75 56.2347C97.6307 56.2347 101.416 57.4385 104.584 59.68C107.752 61.9215 110.146 65.0905 111.437 68.7501H118.75C120.408 68.7501 121.997 69.4085 123.169 70.5806C124.342 71.7527 125 73.3425 125 75.0001C125 76.6577 124.342 78.2474 123.169 79.4195C121.997 80.5916 120.408 81.2501 118.75 81.2501H111.437C110.146 84.9096 107.752 88.0786 104.584 90.3201C101.416 92.5616 97.6307 93.7654 93.75 93.7654C89.8693 93.7654 86.0841 92.5616 82.9162 90.3201C79.7484 88.0786 77.3538 84.9096 76.0625 81.2501H31.25C29.5924 81.2501 28.0027 80.5916 26.8306 79.4195C25.6585 78.2474 25 76.6577 25 75.0001C25 73.3425 25.6585 71.7527 26.8306 70.5806C28.0027 69.4085 29.5924 68.7501 31.25 68.7501H76.0625ZM56.25 106.25C54.5924 106.25 53.0027 106.909 51.8306 108.081C50.6585 109.253 50 110.842 50 112.5C50 114.158 50.6585 115.747 51.8306 116.919C53.0027 118.092 54.5924 118.75 56.25 118.75C57.9076 118.75 59.4973 118.092 60.6694 116.919C61.8415 115.747 62.5 114.158 62.5 112.5C62.5 110.842 61.8415 109.253 60.6694 108.081C59.4973 106.909 57.9076 106.25 56.25 106.25ZM38.5625 106.25C39.8538 102.59 42.2484 99.4215 45.4162 97.18C48.5841 94.9385 52.3693 93.7347 56.25 93.7347C60.1307 93.7347 63.9159 94.9385 67.0838 97.18C70.2516 99.4215 72.6462 102.59 73.9375 106.25H118.75C120.408 106.25 121.997 106.909 123.169 108.081C124.342 109.253 125 110.842 125 112.5C125 114.158 124.342 115.747 123.169 116.919C121.997 118.092 120.408 118.75 118.75 118.75H73.9375C72.6462 122.41 70.2516 125.579 67.0838 127.82C63.9159 130.062 60.1307 131.265 56.25 131.265C52.3693 131.265 48.5841 130.062 45.4162 127.82C42.2484 125.579 39.8538 122.41 38.5625 118.75H31.25C29.5924 118.75 28.0027 118.092 26.8306 116.919C25.6585 115.747 25 114.158 25 112.5C25 110.842 25.6585 109.253 26.8306 108.081C28.0027 106.909 29.5924 106.25 31.25 106.25H38.5625Z" fill="black"/>
</svg>
