<svg width="75" height="75" viewBox="0 0 75 75" fill="none" xmlns="http://www.w3.org/2000/svg">
<g clip-path="url(#clip0_11_23)">
<path d="M55.0406 48.4875C59.5795 42.2938 61.6124 34.6148 60.7327 26.9866C59.8529 19.3585 56.1254 12.3438 50.2958 7.3459C44.4662 2.34805 36.9644 -0.264376 29.2914 0.0312799C21.6184 0.326935 14.3399 3.50887 8.91219 8.94049C3.48446 14.3721 0.307734 21.6528 0.0175692 29.3261C-0.272596 36.9993 2.3452 44.4992 7.34722 50.3252C12.3492 56.1512 19.3666 59.8737 26.9954 60.748C34.6242 61.6223 42.3018 59.5839 48.4922 55.0406H48.4875C48.6281 55.2281 48.7781 55.4062 48.9469 55.5797L66.9937 73.6265C67.8727 74.5061 69.065 75.0005 70.3085 75.0009C71.5519 75.0014 72.7447 74.5078 73.6242 73.6289C74.5038 72.7499 74.9982 71.5576 74.9986 70.3141C74.999 69.0707 74.5055 67.878 73.6266 66.9984L55.5797 48.9515C55.4121 48.7819 55.2319 48.6299 55.0406 48.4875ZM56.25 30.4687C56.25 33.8544 55.5831 37.2069 54.2875 40.3348C52.9919 43.4627 51.0929 46.3048 48.6988 48.6988C46.3048 51.0928 43.4627 52.9919 40.3348 54.2875C37.2069 55.5831 33.8544 56.25 30.4687 56.25C27.0831 56.25 23.7306 55.5831 20.6027 54.2875C17.4748 52.9919 14.6327 51.0928 12.2387 48.6988C9.84464 46.3048 7.94561 43.4627 6.64998 40.3348C5.35435 37.2069 4.6875 33.8544 4.6875 30.4687C4.6875 23.6311 7.40373 17.0736 12.2387 12.2386C17.0736 7.40372 23.6311 4.68748 30.4687 4.68748C37.3064 4.68748 43.8639 7.40372 48.6988 12.2386C53.5338 17.0736 56.25 23.6311 56.25 30.4687Z" fill="white"/>
</g>
<defs>
<clipPath id="clip0_11_23">
<rect width="75" height="75" fill="white"/>
</clipPath>
</defs>
</svg>
