<svg width="169" height="145" viewBox="0 0 169 145" fill="none" xmlns="http://www.w3.org/2000/svg">
<g filter="url(#filter0_d_4_24)">
<path d="M148.746 66.607C148.746 66.607 149.061 66.4106 149.66 66.1693C149.962 66.0652 150.333 65.9173 150.777 65.8369C151.218 65.7186 151.728 65.6795 152.293 65.6216C152.856 65.6322 153.48 65.6133 154.128 65.7493C154.794 65.812 155.44 66.0924 156.133 66.3242C156.771 66.6578 157.493 66.9488 158.078 67.4386C158.383 67.668 158.71 67.8845 159.004 68.1353L159.835 68.9409C160.427 69.4614 160.876 70.0729 161.383 70.6478C161.914 71.2133 162.28 71.8509 162.638 72.4731C162.988 73.1012 163.283 73.7294 163.449 74.361C163.644 74.9833 163.803 75.5771 163.931 76.1283C164.064 76.6784 164.08 77.2083 164.13 77.6661C164.164 78.1287 164.181 78.532 164.18 78.868C164.185 79.5364 164.136 79.9255 164.136 79.9255L163.864 80.0048C163.864 80.0048 163.594 79.7079 163.212 79.1767C163.017 78.9118 162.8 78.5876 162.564 78.2138C162.323 77.8436 162.105 77.4059 161.809 76.9635C161.519 76.5199 161.227 76.0349 160.943 75.5168C160.793 75.2624 160.672 74.9821 160.515 74.7195C160.344 74.4651 160.206 74.1883 160.049 73.9151C159.755 73.3603 159.527 72.7298 159.191 72.1726C158.871 71.6036 158.583 70.9708 158.148 70.4822L157.538 69.6991C157.32 69.4566 157.076 69.2484 156.848 69.0201C156.405 68.5351 155.872 68.2193 155.383 67.8372C154.852 67.558 154.339 67.2292 153.8 67.0695C153.276 66.8424 152.744 66.7584 152.25 66.6472C151.753 66.6046 151.285 66.5443 150.871 66.5738C150.453 66.5691 150.095 66.6342 149.791 66.6614C149.192 66.7572 148.863 66.8696 148.863 66.8696L148.746 66.607Z" fill="#1E1E1E"/>
<path d="M75.2967 12.2562C75.2967 12.2562 97.9637 -15.3202 111.187 12.2562C111.187 12.2562 128.187 8.12184 134.799 24.9383C134.799 24.9383 152.743 24.4581 151.799 33.1064C150.855 41.7548 145.26 48.9991 151.835 49.7005C158.411 50.4032 163.133 49.0393 164.077 51.1626C165.021 53.286 165.021 93.4286 160.299 101.224C155.576 109.02 145.188 115.747 133.855 116.707C133.855 116.707 117.798 154.184 71.5192 127.278C71.5192 127.278 1.62884 135.033 12.0183 85.9915C12.0183 85.9915 -12.538 47.1253 24.297 29.5458C61.1298 11.9652 53.5737 6.7804 75.2967 12.2562Z" fill="#FF0084"/>
<path d="M84.1607 24.8678C84.1607 24.8678 84.3653 24.41 84.8083 23.6588C85.042 23.2933 85.3106 22.8319 85.6791 22.3529C86.0268 21.8537 86.4604 21.3249 86.9418 20.75C87.4359 20.1905 87.9823 19.5848 88.6043 18.9922C89.2264 18.3971 89.9042 17.7915 90.6553 17.2261C91.3784 16.6168 92.2016 16.1035 93.0282 15.5569C93.8665 15.0317 94.7617 14.5775 95.6465 14.0948C96.5592 13.6808 97.4661 13.2301 98.3834 12.848C99.3089 12.5003 100.226 12.1347 101.14 11.9005C102.063 11.7124 102.962 11.5527 103.819 11.4581C104.677 11.38 105.494 11.3883 106.244 11.3907C107.742 11.3576 109.158 11.6332 110.017 11.7893C110.877 11.9608 111.532 12.1111 111.532 12.1111V12.3997C111.532 12.3997 110.876 12.5866 110.045 12.8232C109.63 12.945 109.041 13.0728 108.471 13.2053C108.186 13.2857 107.837 13.3165 107.521 13.4123C107.204 13.5046 106.853 13.6027 106.507 13.6844C106.163 13.7707 105.793 13.8606 105.422 13.9529C105.052 14.0381 104.658 14.0937 104.272 14.2096C103.501 14.4497 102.681 14.6449 101.828 14.8223C100.981 15.0152 100.113 15.2446 99.2077 15.4162C98.3125 15.622 97.4393 15.9497 96.5394 16.2146C95.6826 16.579 94.8047 16.9173 93.9781 17.3266C93.1677 17.7643 92.3295 18.1405 91.5912 18.6278C91.2168 18.862 90.832 19.0726 90.482 19.3175C90.1321 19.5635 89.7903 19.8048 89.4577 20.0402C88.7939 20.5146 88.1974 21.0114 87.6521 21.4763C87.1196 21.9566 86.6325 22.4025 86.2349 22.8319C85.8175 23.2448 85.4989 23.6446 85.2117 23.9569C84.6699 24.6063 84.4049 25.0097 84.4049 25.0097L84.1607 24.8678Z" fill="#1E1E1E"/>
<path d="M90.2274 18.4674C90.2274 18.4674 90.482 18.549 90.9285 18.6921C91.1552 18.7643 91.418 18.8495 91.7365 18.9748C91.7528 18.9748 91.9249 19.0801 91.9725 19.2256C92.0214 19.3806 92.0353 19.4823 91.9586 19.5486C91.9016 19.6397 91.697 19.7509 91.5482 19.7248C91.4819 19.7213 91.4087 19.6953 91.3924 19.6893L91.361 19.6799C91.2761 19.655 91.1878 19.629 91.0982 19.603C90.9227 19.5486 90.7378 19.493 90.5448 19.4338C89.0055 18.9701 86.9906 18.284 84.9978 17.5447C84.0049 17.1697 82.9446 16.939 82.0389 16.5321C81.1401 16.1074 80.367 15.5716 79.7275 15.0582C79.0939 14.5341 78.587 14.0503 78.2579 13.6552C77.9242 13.272 77.7545 13.0058 77.7545 13.0058L77.8743 12.7444C77.8743 12.7444 78.1835 12.7053 78.6869 12.7184C79.195 12.7207 79.8856 12.8035 80.6867 12.9597C81.4831 13.1276 82.3842 13.3843 83.2817 13.8078C84.1712 14.2502 85.0269 14.9245 85.95 15.4509C86.8662 15.9939 87.7893 16.5203 88.6369 17.0514C89.4926 17.566 90.2797 18.0723 90.9564 18.4958C91.125 18.601 91.2866 18.7016 91.4412 18.7962C91.5168 18.8424 91.5912 18.8873 91.6621 18.9311L91.6889 18.9476C91.6889 18.9476 91.64 18.9299 91.5935 18.9335C91.4842 18.9216 91.3191 19.0458 91.3017 19.1511C91.2982 19.2469 91.2296 19.3037 91.2552 19.4433C91.268 19.5663 91.4063 19.6491 91.3866 19.6302C91.1238 19.4457 90.8936 19.2836 90.7053 19.1511C90.3216 18.8826 90.1018 18.7288 90.1018 18.7288L90.2274 18.4674Z" fill="#1E1E1E"/>
<path d="M46.2874 18.69C45.3887 19.8351 44.6132 21.0949 43.9388 22.3961C43.2668 23.6997 42.7064 25.0636 42.303 26.4725C41.8984 27.879 41.6472 29.334 41.6182 30.7926C41.5763 32.2511 41.7786 33.7085 42.1902 35.0984L42.2181 35.1931L42.1763 35.2948C40.7543 38.8164 39.844 42.5816 39.3173 46.3622C38.7941 50.15 38.7185 54.0004 39.1522 57.7869C39.5742 61.5759 40.5683 65.2855 42.06 68.7669C43.547 72.2814 45.3689 75.6338 47.5337 78.7378C49.6998 81.8359 52.2308 84.669 55.1154 87.0573C57.9941 89.4504 61.2286 91.3892 64.6875 92.7424C68.144 94.1016 71.8133 94.8717 75.5141 95.0977C75.9768 95.1296 76.4395 95.1556 76.9034 95.1592C77.3441 95.1627 77.8952 95.2018 78.1963 95.1592C78.3637 95.1426 78.4963 95.0906 78.5091 95.0775C78.5067 95.0503 78.4207 95.2065 78.4439 95.1828C78.4614 95.1024 78.2998 94.6718 78.0824 94.3406C77.1522 92.8998 75.7629 91.5394 74.4258 90.2394C71.6924 87.6393 68.7742 85.193 65.8466 82.7633L56.9907 75.5202C55.5153 74.3042 54.0423 73.0822 52.5913 71.8035C51.8658 71.1599 51.1473 70.5129 50.4415 69.7818C50.2578 69.589 50.1044 69.427 49.8962 69.1774L49.4451 68.6084C49.1208 68.1754 48.8324 67.7507 48.5639 67.319C46.4316 63.8305 45.3979 59.8405 45.091 55.847C44.8015 51.8427 45.3166 47.796 46.492 43.9834C47.078 42.0753 47.8221 40.2205 48.6976 38.439C48.908 37.9883 49.1475 37.5542 49.3789 37.1153L49.5533 36.7865L49.6672 36.5818L49.7602 36.428L50.1323 35.8117C50.352 35.4143 50.702 34.9577 51.0066 34.5259C51.3124 34.0764 51.6716 33.7156 52.003 33.3087C53.3981 31.7531 55.1758 30.5028 57.1186 29.6984C59.0754 28.9141 61.1658 28.5829 63.2086 28.6113C65.2537 28.642 67.2534 28.9957 69.1741 29.5458C71.1111 30.1112 72.9109 30.8198 74.7595 31.8253L73.0806 31.9944L74.8211 30.5122C75.4304 30.0509 76.0256 29.5718 76.6465 29.1258C77.2848 28.7023 77.894 28.2363 78.5625 27.8554C79.2206 27.4603 79.8763 27.0604 80.5681 26.7198C81.2424 26.3495 81.9493 26.0372 82.6551 25.7261C83.3631 25.4197 84.0909 25.1536 84.8222 24.9028C85.5605 24.6686 86.3 24.4403 87.0592 24.2735C87.8091 24.0771 88.5811 23.9635 89.3473 23.844L90.5053 23.7068L91.6691 23.637C92.4457 23.6146 93.2247 23.6075 94.0002 23.6631C94.7757 23.7033 95.5512 23.7873 96.3174 23.915C97.0847 24.0321 97.8474 24.1895 98.5961 24.3965C99.3484 24.5893 100.087 24.8342 100.813 25.1027C101.541 25.37 102.254 25.6788 102.954 26.0135C103.654 26.3507 104.335 26.7245 105.004 27.1279C105.681 27.5466 106.295 27.9488 106.985 28.5095L105.848 28.2386C108.925 27.5561 112.108 27.0983 115.362 27.3526C116.982 27.4756 118.622 27.7962 120.187 28.4101C121.754 29.0111 123.23 29.9551 124.435 31.1758C125.643 32.3954 126.564 33.8753 127.185 35.4344C127.805 36.997 128.159 38.6271 128.341 40.2501C128.523 41.8754 128.531 43.4996 128.423 45.1048C128.369 45.908 128.282 46.7077 128.169 47.5026C128.053 48.3034 127.918 49.0747 127.723 49.8956L126.44 49.0274L127.809 47.9923C128.243 47.6221 128.688 47.2625 129.113 46.8816C129.521 46.4841 129.961 46.1138 130.346 45.6939C130.739 45.281 131.139 44.8718 131.496 44.427C131.875 43.9988 132.213 43.541 132.553 43.082C132.891 42.623 133.202 42.1439 133.506 41.6601C133.797 41.1692 134.085 40.6747 134.329 40.1566C134.596 39.6503 134.803 39.1145 135.016 38.5833C135.221 38.0475 135.398 37.5009 135.549 36.9462C135.692 36.3902 135.827 35.8283 135.915 35.2581C136.013 34.6903 136.083 34.1142 136.116 33.537C136.16 32.9597 136.171 32.3789 136.15 31.7981C136.115 30.6376 135.976 29.476 135.736 28.3333C135.491 27.1953 135.156 26.0585 134.674 25.0057L134.923 24.8673C135.493 25.9296 135.9 27.0533 136.228 28.2079C136.554 29.3624 136.754 30.5548 136.851 31.7578C136.902 32.3588 136.922 32.9644 136.907 33.5701C136.902 34.1757 136.858 34.7814 136.786 35.3835C136.723 35.988 136.611 36.5854 136.489 37.1816C136.359 37.7766 136.201 38.3633 136.014 38.9429C135.258 41.2567 134.077 43.4345 132.564 45.3248C132.2 45.811 131.796 46.2581 131.395 46.7112C131 47.1714 130.556 47.5771 130.138 48.0136C129.704 48.4312 129.251 48.8251 128.806 49.2332L127.412 50.3724L125.67 51.7966L126.13 49.5041C126.271 48.8003 126.381 48.0266 126.461 47.279C126.542 46.5243 126.597 45.7672 126.62 45.0102C126.667 43.4972 126.604 41.9842 126.386 40.5103C125.957 37.5755 124.867 34.7435 122.868 32.813C120.884 30.86 118.068 29.9799 115.198 29.8308C112.31 29.6641 109.345 30.1384 106.449 30.8493L105.85 30.996L105.312 30.5785C104.85 30.2212 104.23 29.8166 103.649 29.4795C103.053 29.1365 102.439 28.8159 101.81 28.5296C101.18 28.2445 100.54 27.9831 99.8879 27.7595C99.2368 27.5348 98.5764 27.3301 97.9067 27.1752C97.2393 27.0107 96.5662 26.87 95.8872 26.7718C95.2105 26.663 94.5269 26.5932 93.8421 26.5624C93.1584 26.5163 92.4725 26.5281 91.7877 26.5518L90.7622 26.618L89.7414 26.7458C89.0647 26.8581 88.3846 26.9587 87.7184 27.1397C87.0464 27.2899 86.3883 27.4993 85.7314 27.711C85.0792 27.9405 84.4293 28.1807 83.7945 28.461C83.1608 28.7461 82.5248 29.0288 81.9145 29.3719C81.2901 29.6818 80.6937 30.0532 80.0938 30.4176C79.488 30.7689 78.923 31.1983 78.3312 31.5792C77.7545 31.985 77.1987 32.4262 76.6302 32.8473L74.9944 34.216L74.2107 34.8725L73.3155 34.3863C70.2554 32.7231 66.6291 31.5544 63.1597 31.4656C61.4158 31.4171 59.6974 31.6738 58.1127 32.2795C56.5431 32.91 55.1096 33.8741 53.9306 35.1481C53.6574 35.4805 53.3307 35.794 53.0959 36.1382C52.8459 36.4884 52.5913 36.7782 52.3378 37.2159L51.9576 37.8263L51.8623 37.9788L51.839 38.0167C51.8832 37.9422 51.839 38.0179 51.8437 38.0108L51.8018 38.0865L51.6344 38.3917C51.4123 38.7986 51.181 39.202 50.9798 39.6184C50.1381 41.2698 49.4219 42.985 48.8522 44.7476C47.7105 48.2691 47.1849 51.9977 47.3989 55.6873C47.6174 59.3603 48.5604 63.0498 50.4078 66.1467C50.6415 66.5323 50.8891 66.9026 51.1333 67.2397L51.5681 67.8004C51.6658 67.9199 51.8344 68.1104 51.9797 68.2641C52.5948 68.9147 53.2877 69.5559 53.983 70.1864C55.3828 71.4462 56.8326 72.6776 58.2871 73.9031L67.0686 81.2456C69.9857 83.7203 72.8935 86.2103 75.6675 88.9062C77.0395 90.2855 78.4207 91.6127 79.5647 93.4084C79.8217 93.8946 80.1507 94.3489 80.1682 95.2455C80.1844 95.7069 79.8414 96.3291 79.4287 96.5526C79.0357 96.7928 78.6951 96.8496 78.394 96.8874C77.751 96.9478 77.3534 96.8862 76.8476 96.8815C76.3651 96.872 75.8826 96.8401 75.4001 96.8011C71.5448 96.5207 67.715 95.6702 64.1189 94.2069C60.5205 92.7495 57.1686 90.6865 54.2097 88.1669C51.2519 85.6425 48.6871 82.6757 46.5118 79.4617C44.3388 76.2442 42.5285 72.7829 41.0741 69.1951C39.5917 65.5884 38.6302 61.7628 38.257 57.8839C37.8721 54.0063 38.0093 50.0885 38.5976 46.2522C39.1941 42.416 40.1602 38.6472 41.6728 35.0594L41.66 35.2569C41.2519 33.8007 41.0659 32.2807 41.1322 30.7748C41.1845 29.2678 41.467 27.7785 41.9019 26.3471C42.3367 24.9146 42.9273 23.5365 43.6284 22.2258C44.3341 20.9151 45.1305 19.66 46.0688 18.502L46.2874 18.69Z" fill="#1E1E1E"/>
<path d="M12.1438 85.9265C12.1438 85.9265 12.338 86.2388 12.7891 86.7167C13.0077 86.958 13.3018 87.2254 13.6297 87.5341C13.982 87.8227 14.3645 88.1552 14.8272 88.4674C15.2656 88.8046 15.7992 89.0979 16.3294 89.4351C16.9037 89.7178 17.456 90.0833 18.0978 90.3518C18.7198 90.6511 19.3709 90.9362 20.0487 91.1965C20.7114 91.4827 21.4113 91.7146 22.1101 91.9429C23.5099 92.3995 24.9656 92.6633 26.3014 92.9933C26.9653 93.1767 27.5908 93.4073 28.1966 93.6084C28.8023 93.8072 29.3708 94.0189 29.8929 94.2401C30.4195 94.4578 30.9032 94.6565 31.3311 94.8328C31.7601 95.0209 32.1333 95.1971 32.4402 95.358C33.0541 95.6727 33.4029 95.9045 33.4029 95.9045L33.361 96.1896C33.361 96.1896 32.9646 96.2913 32.2763 96.3777C31.931 96.4238 31.5148 96.4617 31.0357 96.4912C30.5591 96.509 30.0149 96.5516 29.4359 96.4983C28.8523 96.4676 28.2221 96.4096 27.5606 96.3209C26.8909 96.2677 26.2096 96.0737 25.505 95.8856C24.8039 95.6821 24.0959 95.416 23.3971 95.0765C22.6961 94.7488 21.9729 94.4637 21.2788 94.0887C20.5719 93.7516 19.8697 93.4144 19.2023 93.0193C18.521 92.6609 17.8827 92.241 17.2746 91.8246C16.6549 91.4342 16.105 90.9622 15.5713 90.5565C15.0691 90.0951 14.5784 89.693 14.1773 89.2517C13.7564 88.8389 13.4135 88.4142 13.1054 88.0499C12.8159 87.6642 12.5659 87.3295 12.3938 87.0278C12.0357 86.4411 11.895 86.0578 11.895 86.0578L12.1438 85.9265Z" fill="#1E1E1E"/>
<path d="M68.9614 127.346C73.8061 126.054 78.637 124.709 83.4062 123.197L86.9732 122.044C88.1579 121.652 89.3368 121.242 90.5041 120.813C91.6749 120.39 92.8248 119.93 93.9642 119.453L95.6361 118.69C96.1825 118.424 96.6964 118.126 97.2266 117.848L97.5184 117.695L97.8521 117.722C98.5683 117.78 99.3263 117.804 100.066 117.841C100.808 117.882 101.56 117.87 102.306 117.887C103.799 117.927 105.3 117.87 106.795 117.835C108.29 117.821 109.787 117.674 111.281 117.625L113.522 117.539C114.269 117.494 115.016 117.443 115.764 117.416C116.511 117.387 117.259 117.345 118.009 117.332C118.759 117.317 119.509 117.299 120.255 117.235C121.75 117.131 123.251 117.067 124.755 116.996C125.507 116.969 126.263 116.958 127.011 116.881L129.268 116.731C130.777 116.65 132.291 116.57 133.824 116.567L133.876 116.851C132.422 117.321 130.949 117.715 129.473 118.108L127.25 118.669C126.508 118.859 125.757 118.983 125.008 119.124C123.506 119.382 122.001 119.646 120.491 119.872C118.982 120.11 117.46 120.222 115.939 120.362C115.179 120.434 114.417 120.48 113.656 120.533C112.894 120.585 112.129 120.566 111.367 120.585L109.076 120.586C108.314 120.588 107.55 120.56 106.786 120.518C105.259 120.434 103.735 120.411 102.209 120.275C100.678 120.17 99.1717 120.045 97.6149 119.852L98.2404 119.726C97.6451 120.003 97.0522 120.304 96.4557 120.558L94.6606 121.267C93.4596 121.697 92.2562 122.108 91.0459 122.475C89.8368 122.849 88.6253 123.202 87.4091 123.534C86.1953 123.871 84.9769 124.191 83.7549 124.486C78.8648 125.671 73.9608 126.74 69.0195 127.627L68.9614 127.346Z" fill="#1E1E1E"/>
<path d="M75.6676 108.974C75.6676 108.974 75.7083 109.066 75.7989 109.224C75.9059 109.357 76.0617 109.55 76.2605 109.797C76.5081 110.013 76.8093 110.275 77.1546 110.576C77.5092 110.859 77.9835 111.108 78.4533 111.413C78.6986 111.553 78.9253 111.732 79.2078 111.856C79.4892 111.981 79.781 112.109 80.0798 112.242C80.6809 112.499 81.2866 112.805 81.9389 113.074C82.6155 113.299 83.3143 113.533 84.0247 113.77C84.7374 113.999 85.4268 114.292 86.1709 114.472C86.9185 114.639 87.6591 114.82 88.3962 114.967C89.1322 115.116 89.8484 115.281 90.5285 115.483C91.1959 115.723 91.8772 115.87 92.4922 116.108C93.1166 116.318 93.7014 116.541 94.2374 116.77C96.386 117.653 97.7637 118.645 97.7637 118.645L97.7079 118.928C97.7079 118.928 96.0755 119.205 93.7107 119.013C93.1178 118.974 92.4806 118.907 91.8109 118.808C91.1389 118.718 90.4344 118.618 89.731 118.374C89.0276 118.139 88.3137 117.853 87.5975 117.543C86.8813 117.232 86.1465 116.946 85.4187 116.646C84.6839 116.367 83.9793 115.963 83.2736 115.635C82.5772 115.284 81.8912 114.939 81.2273 114.604C80.5867 114.212 79.9798 113.802 79.4101 113.42C79.1264 113.229 78.8509 113.042 78.5846 112.861C78.3184 112.681 78.0952 112.439 77.8638 112.245C77.4185 111.829 76.986 111.494 76.6581 111.122C76.3524 110.73 76.0849 110.389 75.8652 110.109C75.685 109.777 75.5629 109.512 75.478 109.339C75.4269 109.162 75.4001 109.067 75.4001 109.067L75.6676 108.974Z" fill="#1E1E1E"/>
<path d="M77.8847 96.1732C77.8847 96.1732 77.8243 96.2146 77.7301 96.3246C77.6394 96.4287 77.5371 96.6168 77.6289 96.7481C77.6975 96.8948 77.9882 97.0781 78.3382 97.2153C78.6951 97.3561 79.1334 97.4732 79.6229 97.5655C81.5866 97.9369 84.313 98.0765 87.0278 98.1936C88.3869 98.2551 89.7624 98.1309 91.0355 98.2102C92.3074 98.3084 93.4863 98.5438 94.499 98.7922C95.5093 99.0583 96.3522 99.3221 96.9405 99.5682C97.5288 99.8024 97.8637 99.9893 97.8637 99.9893L97.8509 100.277C97.8509 100.277 96.4511 100.859 94.3641 101.102C93.3212 101.233 92.1051 101.304 90.8111 101.204C89.5182 101.085 88.1591 100.719 86.7894 100.487C85.421 100.237 84.0526 99.9798 82.7795 99.6486C81.5052 99.334 80.3251 98.9613 79.3322 98.5497C78.8358 98.3462 78.3858 98.1274 77.9998 97.8754C77.6278 97.6199 77.2592 97.3514 77.1499 96.8948C77.0988 96.6736 77.1627 96.4535 77.2511 96.3305C77.3383 96.2027 77.4278 96.1223 77.5034 96.0679C77.6499 95.9602 77.7464 95.9236 77.7464 95.9236L77.8847 96.1732Z" fill="#1E1E1E"/>
<path d="M70.3728 85.1955C70.3728 85.1955 73.6573 84.9554 79.3718 84.2338C82.2284 83.8683 85.6919 83.3809 89.6391 82.6806C93.5828 81.9732 98.023 81.0742 102.749 79.7044C105.107 79.0123 107.54 78.1997 109.941 77.122C111.14 76.5838 112.329 75.9734 113.451 75.2435C114.576 74.5125 115.619 73.6691 116.43 72.6021L116.781 72.1644C116.917 72.0106 117.003 71.8864 117.245 71.677C117.293 71.6439 117.316 71.6143 117.454 71.5493C117.378 71.2003 118.631 71.8131 118.432 72.1514C118.439 72.3608 118.408 72.4045 118.4 72.4577L118.36 72.5808C118.311 72.7109 118.268 72.8043 118.224 72.8966C118.136 73.08 118.046 73.2468 117.955 73.4124C117.592 74.0713 117.21 74.7006 116.818 75.3323C116.032 76.5909 115.209 77.8389 114.363 79.0904C112.668 81.5911 110.873 84.0989 108.982 86.6032C105.181 91.5892 101.081 96.6368 96.1976 101.156C94.9675 102.276 93.6805 103.355 92.2853 104.333C90.8959 105.298 89.3659 106.205 87.6428 106.721C84.5281 107.695 81.3703 108.756 78.1324 109.592C74.8967 110.437 71.5808 111.07 68.2254 111.354C64.8712 111.615 61.4809 111.55 58.1673 111.034C51.5205 110.036 45.3108 107.267 40.0893 103.609C34.8702 99.9076 30.516 95.5 26.8897 90.9433C25.0667 88.6 23.5122 86.175 22.2996 83.6246C21.0963 81.0789 20.2905 78.4114 19.9685 75.7747C19.6336 73.1367 19.8592 70.5414 20.487 68.2181C21.1079 65.8878 22.1019 63.8283 23.2251 62.0551C25.4922 58.4992 28.2093 56.0565 30.5312 54.2726C32.8704 52.4923 34.8551 51.3295 36.2363 50.6055C37.6198 49.8828 38.393 49.5681 38.393 49.5681L38.5116 49.8307C38.5116 49.8307 37.7814 50.2081 36.4851 51.0456C35.1957 51.8902 33.3111 53.1583 31.1636 55.0652C30.0894 56.0151 28.9604 57.1329 27.8338 58.4306C26.706 59.7235 25.5806 61.2069 24.6168 62.9198C23.6518 64.628 22.8426 66.5668 22.3915 68.6913C21.9403 70.8135 21.8566 73.1143 22.2229 75.4553C22.953 80.1527 25.5143 84.8974 29.0093 89.1607C29.4208 89.6894 29.9301 90.2442 30.3905 90.7907C30.8672 91.3089 31.3462 91.8294 31.8275 92.3546C32.7797 93.437 33.8366 94.433 34.8713 95.4728C36.9897 97.4991 39.2929 99.406 41.76 101.139C46.6583 104.655 52.4029 107.28 58.5871 108.368C61.6762 108.916 64.8607 109.046 68.0499 108.865C71.2413 108.66 74.434 108.129 77.5929 107.366C80.7542 106.605 83.8735 105.615 87.0452 104.679C88.4881 104.277 89.8426 103.514 91.1564 102.633C92.4655 101.747 93.713 100.738 94.9141 99.6769C99.7042 95.3888 103.858 90.4524 107.694 85.5788C109.604 83.1301 111.425 80.6708 113.142 78.221C114 76.9955 114.834 75.7723 115.624 74.5492C116.02 73.9388 116.409 73.326 116.76 72.7204L117.003 72.2768L117.088 72.0958C117.092 72.0875 117.096 72.0757 117.092 72.0899C117.096 72.0993 117.074 72.0981 117.081 72.2626C116.893 72.5429 118.081 73.1415 117.967 72.8197C118.065 72.7736 118.053 72.7724 118.065 72.7653C118.032 72.7878 117.887 72.9404 117.788 73.0563L117.459 73.449C116.508 74.6462 115.307 75.5665 114.102 76.3105C112.89 77.0617 111.64 77.6674 110.391 78.1961C107.894 79.2525 105.407 80.0214 103.006 80.6696C98.1974 81.9507 93.7212 82.7551 89.7472 83.3797C85.771 83.9972 82.29 84.41 79.4206 84.714C73.6806 85.3126 70.3856 85.4818 70.3856 85.4818L70.3728 85.1955Z" fill="#1E1E1E"/>
<path d="M126.786 49.6852C126.786 49.6852 126.81 49.0913 126.852 48.0539C126.879 47.5334 126.915 46.9029 126.985 46.1766C127.023 45.8123 127.059 45.4266 127.125 45.0102C127.159 44.8009 127.194 44.5903 127.264 44.3419C127.293 44.2662 127.29 44.2295 127.348 44.1207C127.386 44.0603 127.378 44.0461 127.459 43.9503C127.609 43.838 127.711 43.6854 128.089 43.8261C128.161 43.8592 128.234 43.9243 128.26 43.9539L128.298 44.0083C128.323 44.0462 128.346 44.0864 128.366 44.1266C128.411 44.2224 128.402 44.2236 128.42 44.278C128.45 44.3691 128.459 44.4318 128.472 44.498C128.623 45.4929 128.61 46.4357 128.603 47.4825C128.59 48.5188 128.511 49.6035 128.413 50.725C128.211 52.9666 127.875 55.349 127.385 57.716C127.151 58.9025 126.865 60.0795 126.567 61.2424C126.268 62.4052 125.909 63.5396 125.467 64.6066C125.013 65.6665 124.498 66.6684 123.911 67.5627C123.338 68.4653 122.719 69.2744 122.081 69.9653C120.813 71.3587 119.492 72.259 118.505 72.7085C118.015 72.9403 117.618 73.0858 117.338 73.158C117.063 73.2325 116.915 73.2727 116.915 73.2727L116.786 73.016C116.786 73.016 117.238 72.6103 117.911 71.8698C118.248 71.5019 118.627 71.0299 119.033 70.4857C119.435 69.9333 119.848 69.2874 120.274 68.5718C120.691 67.8502 121.112 67.0505 121.527 66.1846C121.926 65.3093 122.347 64.3866 122.759 63.4118C123.186 62.4442 123.623 61.4316 124.05 60.3859C124.477 59.3402 124.843 58.2448 125.189 57.14C125.861 54.9243 126.394 52.6496 126.786 50.4978C126.986 49.4214 127.132 48.3745 127.268 47.382C127.393 46.4037 127.501 45.4172 127.473 44.6447L127.465 44.5406C127.465 44.5406 127.455 44.4874 127.472 44.5359C127.479 44.5524 127.49 44.569 127.502 44.582L127.523 44.6009C127.539 44.6222 127.597 44.6838 127.659 44.711C127.986 44.8068 128.047 44.7098 128.154 44.6258C128.2 44.569 128.172 44.6069 128.181 44.5915C128.181 44.5725 128.155 44.6435 128.143 44.6648C128.079 44.8186 128.019 45.0126 127.968 45.1971C127.864 45.5709 127.783 45.9436 127.707 46.2913C127.568 46.9952 127.448 47.6091 127.35 48.1142C127.169 49.1339 127.067 49.7159 127.067 49.7159L126.786 49.6852Z" fill="#1E1E1E"/>
<path d="M135.235 39.1702C135.235 39.1702 135.542 38.8673 136.164 38.3693C136.788 37.8749 137.727 37.1663 139.067 36.492C139.738 36.1608 140.513 35.8414 141.413 35.6498C142.305 35.4676 143.348 35.3966 144.401 35.7385C145.451 36.0721 146.44 36.8138 147.175 37.7932C147.918 38.7727 148.445 39.9497 148.845 41.1989C149.246 42.4421 149.528 43.8049 149.756 45.151C149.995 46.5114 150.241 47.9167 150.495 49.3623C150.964 52.2652 151.374 55.3798 151.305 58.6695C151.246 61.9474 150.55 65.411 149.031 68.5576C147.533 71.7172 145.351 74.5054 142.976 77.0179L141.149 78.8585C140.524 79.45 139.87 80.0036 139.233 80.5761C137.973 81.7461 136.613 82.7527 135.307 83.8209C132.684 85.8934 130.07 87.818 127.553 89.7355C125.009 91.6105 122.514 93.4109 120.01 94.9712C119.386 95.3627 118.769 95.7495 118.132 96.0973C117.503 96.4546 116.89 96.813 116.249 97.1135C115.614 97.4222 114.995 97.7309 114.352 97.9711C113.72 98.229 113.103 98.488 112.472 98.6725C109.982 99.4959 107.628 99.8874 105.572 100.097C103.512 100.325 101.721 99.9395 100.247 99.9761C98.7741 100.031 97.6195 99.5763 96.8301 99.5763C96.0418 99.5763 95.621 99.5763 95.621 99.5763L95.5977 99.7585C95.5977 99.7585 96.0116 99.9182 96.7871 99.7774C97.5626 99.6449 98.6985 99.568 100.145 99.3196C101.586 99.0558 103.337 98.8098 105.307 98.3744C107.285 97.9675 109.46 97.3938 111.695 96.477C113.928 95.5532 116.191 94.2295 118.525 92.6124C120.85 90.9824 123.284 89.1748 125.822 87.2963C128.376 85.4451 131.05 83.5406 133.74 81.6372C135.048 80.6625 136.422 79.7374 137.666 78.6574C138.298 78.1299 138.951 77.6188 139.57 77.0735L141.375 75.3831C143.708 73.0669 145.824 70.5213 147.287 67.668C148.768 64.8267 149.506 61.6978 149.663 58.5997C149.835 55.4969 149.509 52.4461 149.173 49.5563C148.981 48.1072 148.794 46.6983 148.612 45.3356C148.437 43.9575 148.226 42.6976 147.896 41.4946C147.569 40.3022 147.123 39.1962 146.499 38.2983C145.879 37.4005 145.066 36.7428 144.177 36.4139C143.286 36.0804 142.351 36.0957 141.518 36.2294C140.678 36.369 139.925 36.6411 139.266 36.9321C137.948 37.5259 136.994 38.1812 136.363 38.639C135.73 39.1027 135.422 39.3819 135.422 39.3819L135.235 39.1702Z" fill="#1E1E1E"/>
<path d="M84.4258 106.634C84.4258 106.634 84.4316 106.919 84.6537 107.426C84.8711 107.921 85.3466 108.601 86.2093 109.129C87.065 109.662 88.273 110.019 89.6926 110.135C91.1122 110.264 92.7434 110.161 94.4955 109.861C96.2453 109.589 98.1695 109.148 100.175 108.703C102.185 108.238 104.302 107.745 106.478 107.177C110.828 106.047 115.432 104.684 119.896 103.013C122.117 102.158 124.312 101.238 126.349 100.158C128.355 99.0678 130.334 97.8967 131.667 96.476C132.007 96.1353 132.286 95.7769 132.499 95.4279C132.802 94.9465 133.102 94.4698 133.4 93.9978C133.764 93.5128 134.123 92.997 134.486 92.5617C134.855 92.1394 135.213 91.7017 135.585 91.3208C137.05 89.7381 138.483 88.425 139.611 87.1226C140.74 85.8226 141.547 84.5261 141.95 83.2296C142.211 82.5955 142.246 81.9473 142.368 81.3547C142.371 80.7525 142.449 80.1859 142.4 79.6725C142.356 79.1532 142.316 78.6895 142.283 78.2873C142.205 77.8851 142.14 77.5421 142.086 77.2653C141.983 76.701 141.927 76.4006 141.927 76.4006L142.192 76.2988C142.192 76.2988 142.32 76.5816 142.558 77.1103C142.676 77.38 142.82 77.7112 142.991 78.1028C143.112 78.5168 143.25 78.9924 143.406 79.5247C143.555 80.0641 143.598 80.6934 143.702 81.3759C143.678 82.0632 143.741 82.8321 143.559 83.6306C143.3 85.2429 142.515 86.983 141.393 88.548C140.29 90.1355 138.919 91.6106 137.637 93.1709C136.992 93.9599 136.397 94.7738 135.864 95.5557C135.591 96.0123 135.3 96.5281 135.022 96.9646C134.658 97.5773 134.23 98.112 133.773 98.5804C131.901 100.419 129.727 101.573 127.497 102.595C125.259 103.594 122.958 104.443 120.635 105.195C115.993 106.7 111.285 107.865 106.849 108.808C104.629 109.275 102.481 109.701 100.431 110.043C98.3729 110.375 96.4569 110.703 94.6245 110.883C92.8038 111.088 91.1029 111.099 89.6089 110.878C88.1184 110.672 86.8325 110.212 85.9326 109.558C85.021 108.913 84.542 108.121 84.3397 107.561C84.2386 107.277 84.1898 107.051 84.1665 106.895C84.1456 106.73 84.1444 106.655 84.1444 106.655L84.4258 106.634Z" fill="#1E1E1E"/>
<path d="M86.5743 68.677C84.4618 69.5606 82.3051 70.3129 80.1182 70.9789C77.8917 71.6508 75.6326 72.2222 73.3399 72.6386C71.0483 73.0585 68.723 73.3389 66.3756 73.3472C65.2025 73.3732 64.0271 73.2809 62.854 73.1461C61.6867 72.971 60.5136 72.7533 59.3846 72.3464C58.2464 71.9785 57.1535 71.432 56.149 70.7435C55.1212 70.0775 54.2736 69.162 53.5039 68.2026C53.1819 67.6845 52.7959 67.1735 52.532 66.6411C52.2471 66.1348 51.9727 65.6061 51.7076 65.0548C51.1891 63.9642 50.7159 62.8463 50.4322 61.6125C50.2811 61.0021 50.2148 60.3444 50.2439 59.6678C50.2683 58.9912 50.4834 58.2672 50.8752 57.6627C51.696 56.4325 52.9528 55.8931 54.0364 55.4353C55.1456 54.9881 56.2385 54.6403 57.2058 54.1518C58.1836 53.6786 58.9951 53.041 59.5032 52.2118L59.416 52.8802C59.137 51.9113 58.9451 50.9898 58.7893 50.0293C58.6359 49.0759 58.5324 48.1106 58.4894 47.1382C58.4126 45.197 58.5475 43.1932 59.2125 41.2638C59.5439 40.3033 60.0113 39.37 60.6356 38.536C61.2518 37.6961 62.0448 36.9769 62.9237 36.4339C63.7992 35.8839 64.7537 35.4793 65.7245 35.2404C66.6942 34.9671 67.6778 34.8677 68.6533 34.7979L71.4262 34.6927C72.3575 34.6749 73.2876 34.6418 74.2224 34.6524C75.1536 34.6418 76.0965 34.682 77.0406 34.7211L78.4683 34.837L79.9112 35.0404C80.8785 35.2392 81.8633 35.4698 82.8155 35.9241C83.7805 36.3287 84.6653 36.9911 85.4163 37.7233C86.1756 38.465 86.7522 39.3073 87.2894 40.1389C87.8126 40.9775 88.2672 41.8245 88.7078 42.6691L86.4499 42.8064C87.0929 41.0568 87.8335 39.4468 88.7287 37.8416C89.6344 36.2553 90.6576 34.6938 92.1179 33.3465C92.8527 32.6829 93.7188 32.0689 94.7861 31.6975C95.8488 31.3213 97.1335 31.3261 98.2113 31.7164C99.8216 32.3067 101.43 32.7799 103.107 33.35C104.767 33.9214 106.453 34.5282 108.082 35.3646C109.706 36.195 111.314 37.2111 112.693 38.6176C113.378 39.3226 113.998 40.1235 114.494 41.0178C114.987 41.9156 115.327 42.9081 115.519 43.9136C115.907 45.947 115.589 47.9592 115.048 49.7691L114.948 50.1121L114.827 50.454L114.607 51.0715L114.166 52.3064C113.823 53.1439 113.487 53.9992 113.125 54.8225C112.384 56.4538 111.577 58.0531 110.67 59.5909C110.23 60.3669 109.763 61.1275 109.268 61.8704C108.798 62.6275 108.267 63.3455 107.751 64.0718C106.68 65.4961 105.549 66.8765 104.299 68.1517C103.074 69.4447 101.724 70.6335 100.247 71.6638C98.774 72.6705 97.1312 73.5979 95.2419 73.818L94.5955 73.883L93.8735 73.8676C93.3863 73.8807 92.948 73.7446 92.4899 73.6796C91.5958 73.4418 90.7552 73.0632 89.9937 72.57C88.5323 71.5716 87.3882 70.2136 86.5743 68.677ZM86.7592 68.4321C87.6975 69.8587 88.9671 71.0759 90.3971 71.8945C91.1261 72.2837 91.9004 72.551 92.6887 72.693C93.084 72.7107 93.4944 72.8042 93.8711 72.7533L94.4408 72.7261L95.0733 72.6078C96.6057 72.2802 98.0474 71.4225 99.3484 70.3946C100.653 69.3631 101.859 68.1719 102.948 66.8754C104.059 65.599 105.06 64.2185 106.001 62.8014C106.935 61.3795 107.833 59.9292 108.61 58.4103C109.42 56.9104 110.109 55.3489 110.773 53.7827C111.091 52.9985 111.374 52.2177 111.674 51.4299L112.079 50.1831L112.282 49.5597L112.372 49.2805L112.447 48.9907C112.869 47.4529 113.022 45.8902 112.73 44.4696C112.463 43.0429 111.721 41.7689 110.652 40.7043C109.586 39.6349 108.229 38.7702 106.775 38.0498C105.32 37.327 103.771 36.7025 102.175 36.1406C100.595 35.5775 98.8996 35.0499 97.2777 34.4289C96.7324 34.2372 96.2081 34.2136 95.6337 34.3863C95.0617 34.5685 94.4653 34.9399 93.9049 35.4249C92.7782 36.4044 91.8086 37.7612 90.9622 39.1795C90.1216 40.6002 89.3647 42.1569 88.7671 43.6758L87.7335 46.3007L86.5092 43.813C86.107 42.9944 85.6954 42.1877 85.2501 41.4342C84.7967 40.6936 84.3258 39.9792 83.7654 39.4102C83.2027 38.8436 82.5969 38.3503 81.8621 38.0261C81.1541 37.663 80.3344 37.4536 79.5054 37.2643L78.2184 37.0585L76.8965 36.926C76.0024 36.874 75.1083 36.8172 74.1991 36.8101C73.2946 36.7817 72.3842 36.7971 71.4762 36.7971L68.7323 36.8491C67.0163 36.9166 65.3071 37.2419 63.9189 38.0971C62.5017 38.911 61.4983 40.2926 60.9147 41.8896C60.324 43.4913 60.1531 45.2917 60.1938 47.0803C60.2159 47.9769 60.2961 48.8795 60.424 49.775C60.5496 50.6634 60.7275 51.5801 60.9507 52.4117L61.0507 52.7843L60.8635 53.0801C60.1217 54.2524 58.9858 55.0544 57.8708 55.5666C56.7489 56.1024 55.6165 56.4337 54.5678 56.837C53.5318 57.2345 52.5482 57.7124 52.0413 58.4648C51.5158 59.197 51.5018 60.2723 51.7216 61.3345C51.9367 62.4039 52.3541 63.4768 52.818 64.5154C53.0482 65.0288 53.3016 65.5481 53.5795 66.0722C53.826 66.5997 54.1492 67.0291 54.4282 67.5165C55.1003 68.3895 55.8339 69.2353 56.7547 69.8622C57.6523 70.5105 58.6452 71.0428 59.7043 71.4142C60.7507 71.8235 61.8622 72.0589 62.9772 72.2553C64.1003 72.4126 65.2351 72.5321 66.3791 72.5357C68.6649 72.5865 70.9611 72.3701 73.2341 72.0116C75.5094 71.6579 77.7638 71.1481 79.9926 70.5365C82.2191 69.9202 84.4269 69.214 86.579 68.3706L86.6871 68.328L86.7592 68.4321Z" fill="#1E1E1E"/>
<path d="M86.6639 68.6418C83.827 69.264 80.9099 69.4462 78.0021 69.2403C77.2755 69.1871 76.55 69.1019 75.8268 68.9896C75.1036 68.8772 74.3863 68.7246 73.6713 68.5542C72.9597 68.3662 72.254 68.1568 71.5587 67.9036C70.8681 67.6422 70.1775 67.3678 69.516 67.0247C68.8416 66.7089 68.2022 66.3162 67.5732 65.9128C67.2662 65.6987 66.9512 65.4928 66.6489 65.2693L65.7711 64.5583C65.2142 64.052 64.6445 63.5493 64.1608 62.9649C63.6399 62.4113 63.2016 61.7926 62.7505 61.1811C62.3494 60.5399 61.9064 59.9141 61.5774 59.2304L61.0565 58.2167L60.6159 57.1686C60.2985 56.4766 60.102 55.7443 59.852 55.0287C59.6276 54.3059 59.4672 53.5677 59.2719 52.8355L59.1591 52.4108L59.4649 52.043C59.9253 51.4905 60.3554 51.0233 60.8321 50.5608C61.2925 50.0899 61.789 49.6653 62.2738 49.2252C62.7819 48.8171 63.2749 48.3865 63.8015 48.0033C64.334 47.6295 64.8421 47.2142 65.399 46.8783C65.9536 46.5388 66.4826 46.1496 67.0604 45.8515C67.6336 45.5428 68.1929 45.2045 68.7788 44.9217L70.5496 44.0913L72.3749 43.3887C72.9783 43.1343 73.6131 42.9853 74.2375 42.7937C74.8641 42.6127 75.485 42.3997 76.1279 42.2897L78.0463 41.8911C78.6893 41.7823 79.3403 41.7207 79.9891 41.6474C80.639 41.5788 81.2889 41.4924 81.9412 41.5043L83.8991 41.4711C84.5537 41.4309 85.2001 41.5362 85.8489 41.5812L87.7951 41.7574L88.3951 41.8118L88.752 42.3051C89.1938 42.9155 89.4531 43.4005 89.7368 43.9588C90.0088 44.5018 90.2507 45.0507 90.4588 45.6102C90.668 46.1697 90.8518 46.7364 90.9936 47.3113C91.1657 47.8791 91.268 48.4611 91.3796 49.0395C91.5098 49.6156 91.5505 50.2023 91.6226 50.7843C91.7109 51.3651 91.6993 51.9519 91.7144 52.5339L91.7307 53.4069L91.6772 54.2763C91.6261 54.8536 91.6365 55.4356 91.5307 56.0034L91.2564 57.7068C91.1529 58.2699 90.9889 58.8199 90.8587 59.3747C90.7227 59.9283 90.5913 60.482 90.382 61.0107L89.8147 62.61C89.6496 63.1506 89.367 63.6451 89.1415 64.1573L88.4276 65.6774C87.8893 66.6568 87.3289 67.6197 86.7569 68.5661L86.7197 68.6276L86.6639 68.6418ZM86.5313 68.3685C86.8766 67.3382 87.2487 66.3292 87.6103 65.3249L88.0532 63.7468C88.1858 63.2181 88.3776 62.7094 88.473 62.1747L88.8101 60.5896C88.9392 60.0667 88.9962 59.5309 89.0729 59.0009C89.1392 58.4698 89.2392 57.9434 89.2787 57.4123L89.367 55.8212C89.424 55.2936 89.3659 54.7649 89.3717 54.2397L89.3589 53.4518L89.2787 52.6711C89.2264 52.1518 89.1845 51.6313 89.0822 51.1226C88.988 50.6128 88.9287 50.0959 88.7834 49.6014C88.6578 49.1022 88.5427 48.5995 88.3648 48.1204C88.2172 47.6295 88.0277 47.1587 87.83 46.6926C87.6417 46.2253 87.4219 45.7699 87.1871 45.337C86.9673 44.9158 86.6674 44.4509 86.4627 44.1729L87.4196 44.7206L85.621 44.5716C85.0211 44.5432 84.4235 44.4237 83.8235 44.4438L82.0226 44.4225C81.4203 44.3918 80.8239 44.4569 80.2263 44.503C79.6299 44.5598 79.0264 44.5669 78.4312 44.639L76.65 44.9123C76.0501 44.9797 75.4722 45.1489 74.8851 45.2837C74.3026 45.4351 73.7073 45.5451 73.1423 45.7569L71.425 46.3306L69.7508 47.0285C69.1939 47.2651 68.6649 47.5644 68.1196 47.8294C67.5685 48.0849 67.0663 48.4315 66.5361 48.7272C66.0024 49.0194 65.5188 49.3908 65.006 49.7197C64.5003 50.058 64.0283 50.4425 63.5388 50.8044C63.0749 51.196 62.5959 51.5745 62.1564 51.9921C61.7088 52.3907 61.2693 52.8426 60.9031 53.2472L61.0961 52.4558C61.2542 53.1431 61.3774 53.8434 61.5623 54.5224C61.7716 55.1931 61.9273 55.8875 62.1982 56.5345L62.5691 57.5211L63.0144 58.471C63.2935 59.1157 63.6795 59.6989 64.0248 60.3045C64.4189 60.8782 64.7991 61.465 65.2583 61.9878C65.6827 62.5414 66.1873 63.0229 66.6744 63.5197L67.4523 64.2176C67.722 64.4388 68.0045 64.6423 68.2801 64.8576C68.8463 65.2622 69.4253 65.6608 70.0438 65.9885C70.6484 66.3422 71.289 66.6344 71.9319 66.9159C72.5795 67.1903 73.2446 67.4246 73.9178 67.6398C74.5956 67.8374 75.2792 68.0207 75.9733 68.1651C76.6674 68.3082 77.3673 68.4277 78.0731 68.5152C80.8669 68.8594 83.7375 68.8275 86.5313 68.3685Z" fill="#1E1E1E"/>
<path d="M86.5244 68.4098C86.5244 68.4098 86.7941 68.0076 87.2661 67.3049C87.4952 66.9489 87.8033 66.5337 88.1125 66.0368C88.4241 65.5436 88.7753 64.9876 89.1589 64.3807C89.5124 63.7538 89.9147 63.089 90.303 62.3674C90.6715 61.6352 91.0994 60.8887 91.4494 60.0749C91.8354 59.2788 92.1551 58.4259 92.4748 57.5718C92.7771 56.7106 93.0364 55.827 93.2061 54.9422C93.3631 54.055 93.4503 53.169 93.3933 52.3303C93.3224 51.4951 93.2131 50.7037 92.9852 49.9963C92.7876 49.2783 92.5144 48.6242 92.2039 48.0031C91.8668 47.3998 91.4691 46.8521 91.0564 46.3589C90.2228 45.3747 89.3101 44.6531 88.6567 44.1491C87.9951 43.6499 87.5777 43.3814 87.5777 43.3814L87.6428 43.1011C87.6428 43.1011 88.1614 43.0443 89.0438 43.1933C89.4868 43.2643 90.0181 43.3921 90.6123 43.6133C91.2017 43.8392 91.8714 44.1385 92.5329 44.6081C93.2015 45.0647 93.8793 45.6668 94.4734 46.4393C95.0722 47.2058 95.5419 48.1604 95.8302 49.192C96.1232 50.2306 96.1418 51.339 96.0488 52.406C95.9418 53.4765 95.7209 54.5175 95.4059 55.5088C95.1094 56.506 94.7245 57.4535 94.3037 58.3537C93.8747 59.2492 93.4142 60.1045 92.9131 60.8876C91.9551 62.4857 90.8866 63.8319 89.9809 64.9793C89.031 66.1019 88.2521 67.0281 87.6568 67.6267C87.0766 68.2406 86.7453 68.592 86.7453 68.592L86.5244 68.4098Z" fill="#1E1E1E"/>
</g>
<defs>
<filter id="filter0_d_4_24" x="0" y="0" width="168.57" height="145" filterUnits="userSpaceOnUse" color-interpolation-filters="sRGB">
<feFlood flood-opacity="0" result="BackgroundImageFix"/>
<feColorMatrix in="SourceAlpha" type="matrix" values="0 0 0 0 0 0 0 0 0 0 0 0 0 0 0 0 0 0 127 0" result="hardAlpha"/>
<feOffset dy="4"/>
<feGaussianBlur stdDeviation="2"/>
<feComposite in2="hardAlpha" operator="out"/>
<feColorMatrix type="matrix" values="0 0 0 0 0 0 0 0 0 0 0 0 0 0 0 0 0 0 0.25 0"/>
<feBlend mode="normal" in2="BackgroundImageFix" result="effect1_dropShadow_4_24"/>
<feBlend mode="normal" in="SourceGraphic" in2="effect1_dropShadow_4_24" result="shape"/>
</filter>
</defs>
</svg>
