<svg width="150" height="150" viewBox="0 0 150 150" fill="none" xmlns="http://www.w3.org/2000/svg">
<path d="M106.25 12.5H43.75C26.4911 12.5 12.5 26.4911 12.5 43.75V106.25C12.5 123.509 26.4911 137.5 43.75 137.5H106.25C123.509 137.5 137.5 123.509 137.5 106.25V43.75C137.5 26.4911 123.509 12.5 106.25 12.5Z" stroke="white" stroke-width="12.5" stroke-linecap="round" stroke-linejoin="round"/>
<path d="M109.375 40.625H109.438M100 71.0625C100.771 76.264 99.8829 81.5764 97.461 86.2438C95.0391 90.9113 91.2072 94.6963 86.5102 97.0605C81.8132 99.4246 76.4903 100.247 71.2987 99.4121C66.107 98.5767 61.311 96.1255 57.5927 92.4073C53.8745 88.689 51.4233 83.893 50.5879 78.7013C49.7525 73.5097 50.5754 68.1868 52.9395 63.4898C55.3037 58.7928 59.0887 54.9609 63.7562 52.539C68.4236 50.1171 73.736 49.2287 78.9375 50C84.2433 50.7868 89.1553 53.2591 92.9481 57.0519C96.7409 60.8447 99.2132 65.7567 100 71.0625Z" stroke="white" stroke-width="12.5" stroke-linecap="round" stroke-linejoin="round"/>
</svg>
