<svg width="155" height="45" viewBox="0 0 155 45" fill="none" xmlns="http://www.w3.org/2000/svg">
<path d="M13.82 15.5H24.005V19H17.67V25.825H22.64V29.325H17.67V40H13.82V15.5ZM25.8513 15.5H29.7013V36.5H36.0363V40H25.8513V15.5ZM43.3108 40.35C41.4208 40.35 39.9742 39.8133 38.9708 38.74C37.9675 37.6667 37.4658 36.15 37.4658 34.19V21.31C37.4658 19.35 37.9675 17.8333 38.9708 16.76C39.9742 15.6867 41.4208 15.15 43.3108 15.15C45.2008 15.15 46.6475 15.6867 47.6508 16.76C48.6542 17.8333 49.1558 19.35 49.1558 21.31V34.19C49.1558 36.15 48.6542 37.6667 47.6508 38.74C46.6475 39.8133 45.2008 40.35 43.3108 40.35ZM43.3108 36.85C44.6408 36.85 45.3058 36.045 45.3058 34.435V21.065C45.3058 19.455 44.6408 18.65 43.3108 18.65C41.9808 18.65 41.3158 19.455 41.3158 21.065V34.435C41.3158 36.045 41.9808 36.85 43.3108 36.85ZM51.7595 15.5H57.4645C59.4478 15.5 60.8945 15.9667 61.8045 16.9C62.7145 17.81 63.1695 19.2217 63.1695 21.135V22.64C63.1695 25.1833 62.3295 26.7933 60.6495 27.47V27.54C61.5828 27.82 62.2362 28.3917 62.6095 29.255C63.0062 30.1183 63.2045 31.2733 63.2045 32.72V37.025C63.2045 37.725 63.2278 38.2967 63.2745 38.74C63.3212 39.16 63.4378 39.58 63.6245 40H59.7045C59.5645 39.6033 59.4712 39.23 59.4245 38.88C59.3778 38.53 59.3545 37.9 59.3545 36.99V32.51C59.3545 31.39 59.1678 30.6083 58.7945 30.165C58.4445 29.7217 57.8262 29.5 56.9395 29.5H55.6095V40H51.7595V15.5ZM57.0095 26C57.7795 26 58.3512 25.8017 58.7245 25.405C59.1212 25.0083 59.3195 24.3433 59.3195 23.41V21.52C59.3195 20.6333 59.1562 19.9917 58.8295 19.595C58.5262 19.1983 58.0362 19 57.3595 19H55.6095V26H57.0095ZM71.4812 15.5H77.2912C79.2745 15.5 80.7212 15.9667 81.6312 16.9C82.5412 17.81 82.9962 19.2217 82.9962 21.135V22.115C82.9962 23.375 82.7862 24.4017 82.3662 25.195C81.9695 25.9883 81.3512 26.56 80.5112 26.91V26.98C82.4245 27.6333 83.3812 29.3367 83.3812 32.09V34.19C83.3812 36.08 82.8795 37.5267 81.8762 38.53C80.8962 39.51 79.4495 40 77.5362 40H71.4812V15.5ZM76.8362 25.475C77.6062 25.475 78.1778 25.2767 78.5512 24.88C78.9478 24.4833 79.1462 23.8183 79.1462 22.885V21.52C79.1462 20.6333 78.9828 19.9917 78.6562 19.595C78.3528 19.1983 77.8628 19 77.1862 19H75.3312V25.475H76.8362ZM77.5362 36.5C78.2128 36.5 78.7145 36.325 79.0412 35.975C79.3678 35.6017 79.5312 34.9717 79.5312 34.085V31.95C79.5312 30.83 79.3328 30.06 78.9362 29.64C78.5628 29.1967 77.9328 28.975 77.0462 28.975H75.3312V36.5H77.5362ZM85.6316 15.5H96.1316V19H89.4816V25.475H94.7666V28.975H89.4816V36.5H96.1316V40H85.6316V15.5ZM98.3464 15.5H102.196V36.5H108.531V40H98.3464V15.5ZM110.378 15.5H114.228V36.5H120.563V40H110.378V15.5ZM125.521 15.5H130.736L134.726 40H130.876L130.176 35.135V35.205H125.801L125.101 40H121.531L125.521 15.5ZM129.721 31.88L128.006 19.77H127.936L126.256 31.88H129.721Z" fill="white"/>
<g filter="url(#filter0_d_10_67)">
<path d="M18.6909 11.376C18.6909 11.376 18.713 11.3464 18.7596 11.3029C18.7838 11.2826 18.8127 11.2558 18.8508 11.2331C18.8872 11.2068 18.9328 11.1859 18.9828 11.1613C19.0351 11.1435 19.0919 11.1207 19.1564 11.1122C19.22 11.096 19.2894 11.1015 19.3615 11.1008C19.432 11.1119 19.5088 11.116 19.5801 11.1439C19.6163 11.156 19.654 11.1661 19.69 11.1806L19.7951 11.231C19.868 11.2617 19.931 11.3061 19.998 11.345C20.067 11.3821 20.1233 11.4318 20.1782 11.4803C20.2327 11.5296 20.282 11.5807 20.3197 11.6366C20.3597 11.6905 20.3954 11.7428 20.4266 11.7921C20.4583 11.8411 20.4786 11.8921 20.4994 11.9349C20.5188 11.9787 20.5347 12.0173 20.5465 12.05C20.5705 12.1148 20.5798 12.1543 20.5798 12.1543L20.5575 12.1711C20.5575 12.1711 20.5222 12.1513 20.4682 12.1125C20.4409 12.0933 20.4094 12.069 20.3744 12.0406C20.3392 12.0127 20.3036 11.9775 20.2607 11.9444C20.2182 11.9111 20.1742 11.8737 20.1297 11.8329C20.1069 11.8132 20.0859 11.79 20.0621 11.7697C20.0374 11.7508 20.0148 11.7285 19.9907 11.7072C19.944 11.6632 19.9007 11.6095 19.85 11.5667C19.8005 11.5221 19.7515 11.4702 19.6942 11.4374L19.6102 11.3817C19.5816 11.3654 19.5518 11.3534 19.5227 11.3389C19.4647 11.3066 19.4044 11.2938 19.3459 11.273C19.2871 11.2637 19.2282 11.2489 19.1729 11.2515C19.1165 11.247 19.0646 11.2567 19.0151 11.2624C18.9678 11.275 18.9226 11.2848 18.8855 11.3015C18.8468 11.3151 18.8161 11.3335 18.7891 11.3463C18.7373 11.3757 18.711 11.3976 18.711 11.3976L18.6909 11.376Z" fill="#FF0084"/>
<path d="M10.0018 8.5572C10.0018 8.5572 11.1147 5.1173 13.3083 7.35376C13.3083 7.35376 14.7282 6.38195 15.9322 7.79445C15.9322 7.79445 17.5683 7.14608 17.7872 8.01817C18.0062 8.89027 17.747 9.78185 18.3775 9.62956C19.0082 9.47734 19.3949 9.18648 19.557 9.36117C19.7191 9.53586 21.1389 13.4369 20.9797 14.3528C20.8203 15.2687 20.1012 16.2708 19.0911 16.7441C19.0911 16.7441 18.9374 20.9244 13.7222 19.8616C13.7222 19.8616 7.55771 22.9587 6.78024 17.8445C6.78024 17.8445 3.14324 14.891 5.91495 11.9475C8.6864 9.00396 7.80689 8.75347 10.0018 8.5572Z" fill="white"/>
<path d="M11.2645 9.48549C11.2645 9.48549 11.2672 9.43414 11.2814 9.34629C11.29 9.30293 11.2984 9.2491 11.3155 9.19018C11.3298 9.13001 11.3511 9.06409 11.3751 8.99208C11.4008 8.92114 11.4297 8.84396 11.4661 8.76551C11.5023 8.68683 11.5434 8.60524 11.5926 8.52511C11.6376 8.44166 11.6953 8.36416 11.7521 8.28333C11.8108 8.20419 11.8772 8.13002 11.9416 8.05345C12.0111 7.98262 12.0787 7.90841 12.1497 7.84052C12.2226 7.77569 12.2942 7.70941 12.3701 7.65601C12.4485 7.60677 12.5257 7.56112 12.6013 7.52319C12.6775 7.48683 12.7531 7.46023 12.8223 7.43532C12.9591 7.38188 13.0993 7.36118 13.184 7.34755C13.2693 7.33537 13.3349 7.32802 13.3349 7.32802L13.3451 7.35607C13.3451 7.35607 13.2913 7.39622 13.2231 7.44708C13.1892 7.47284 13.1395 7.50498 13.0916 7.537C13.0682 7.55437 13.0372 7.56905 13.0114 7.58897C12.9855 7.60854 12.9567 7.62985 12.9276 7.6494C12.899 7.66934 12.8681 7.69047 12.8372 7.71187C12.8062 7.73255 12.7718 7.75117 12.7403 7.77537C12.6778 7.82456 12.6091 7.87105 12.5369 7.91687C12.4656 7.96403 12.3938 8.01541 12.3164 8.06245C12.2413 8.11247 12.1724 8.17359 12.0989 8.22951C12.0328 8.29365 11.9639 8.35597 11.9022 8.42346C11.8431 8.49316 11.7791 8.55783 11.7284 8.62995C11.7022 8.66526 11.6741 8.69863 11.6506 8.73416C11.627 8.7698 11.6041 8.80471 11.5818 8.83874C11.5374 8.9071 11.5 8.97538 11.4662 9.03884C11.4341 9.10337 11.405 9.16304 11.3836 9.2181C11.3597 9.27222 11.3445 9.32176 11.3291 9.36173C11.3022 9.44301 11.292 9.4911 11.292 9.4911L11.2645 9.48549Z" fill="#FF0084"/>
<path d="M11.5971 8.65999C11.5971 8.65999 11.6234 8.65939 11.6696 8.65833C11.693 8.65774 11.7203 8.6572 11.754 8.65871C11.7555 8.65816 11.7751 8.66262 11.7847 8.67516C11.7946 8.68859 11.7995 8.698 11.7948 8.70702C11.7928 8.71778 11.7779 8.73544 11.7632 8.73791C11.757 8.73978 11.7493 8.73971 11.7476 8.73968L11.7444 8.73981C11.7357 8.74025 11.7266 8.74068 11.7175 8.74115C11.6994 8.74175 11.6804 8.74255 11.6605 8.74327C11.5023 8.74982 11.2924 8.75071 11.0826 8.74569C10.9779 8.74254 10.8721 8.75568 10.7742 8.7465C10.6764 8.73537 10.5862 8.70922 10.5092 8.68077C10.4322 8.65109 10.3684 8.62107 10.3241 8.59371C10.2799 8.56765 10.2548 8.54748 10.2548 8.54748L10.2566 8.51806C10.2566 8.51806 10.2837 8.5039 10.3305 8.48828C10.3774 8.47147 10.444 8.45636 10.5233 8.44467C10.6026 8.43429 10.6947 8.42903 10.7924 8.44008C10.89 8.45325 10.9926 8.49008 11.0963 8.51029C11.1999 8.53233 11.3036 8.55253 11.4005 8.57572C11.4975 8.59704 11.5879 8.61985 11.6652 8.63831C11.6845 8.64289 11.7029 8.64724 11.7205 8.65125C11.7291 8.6532 11.7376 8.65507 11.7456 8.65695L11.7487 8.65766C11.7487 8.65766 11.7436 8.65758 11.7394 8.65948C11.7289 8.66199 11.7181 8.6796 11.7202 8.69042C11.7233 8.69984 11.719 8.70766 11.7263 8.72037C11.7318 8.7319 11.7475 8.7353 11.745 8.73413C11.7143 8.72501 11.6873 8.71698 11.6653 8.71042C11.6204 8.69719 11.5947 8.68961 11.5947 8.68961L11.5971 8.65999Z" fill="#FF0084"/>
<path d="M7.55688 10.1551C7.51458 10.2965 7.4877 10.4449 7.4716 10.594C7.4558 10.7432 7.45241 10.8945 7.46508 11.045C7.47755 11.1952 7.50588 11.345 7.55479 11.4878C7.60252 11.6309 7.67271 11.7657 7.75979 11.887L7.76571 11.8953L7.76545 11.9066C7.75901 12.2965 7.80832 12.6929 7.89352 13.078C7.97929 13.4636 8.10852 13.8403 8.2824 14.1937C8.4553 14.5478 8.67809 14.8749 8.93865 15.1632C9.19996 15.4549 9.48638 15.7196 9.79561 15.9487C10.1047 16.1771 10.4381 16.3675 10.7883 16.5029C11.1382 16.6389 11.5048 16.7189 11.8713 16.7344C12.2378 16.7506 12.6031 16.7024 12.952 16.6003C12.9958 16.5879 13.0393 16.5749 13.0822 16.5597C13.1229 16.5452 13.175 16.5306 13.2013 16.5163C13.2161 16.5091 13.2265 16.4996 13.2272 16.4979C13.226 16.4953 13.2236 16.5134 13.2249 16.5103C13.2237 16.5019 13.1936 16.4655 13.1618 16.4406C13.0252 16.3318 12.8491 16.2461 12.6799 16.1646C12.3361 16.0036 11.9807 15.8638 11.6251 15.7258L10.553 15.3189C10.3741 15.2502 10.1952 15.1808 10.0163 15.1052C9.92667 15.067 9.83759 15.0282 9.74672 14.9808C9.72297 14.9683 9.7031 14.9577 9.6751 14.9404L9.61342 14.9002C9.56822 14.869 9.52664 14.8374 9.48662 14.8045C9.16679 14.5369 8.93044 14.1839 8.76091 13.8061C8.59261 13.4266 8.49692 13.0161 8.47036 12.6062C8.45686 12.4011 8.4598 12.1959 8.47745 11.9934C8.48089 11.9426 8.4876 11.8924 8.49339 11.842L8.49783 11.8042L8.50109 11.7805L8.50422 11.7624L8.51669 11.69C8.52288 11.644 8.53897 11.5879 8.55176 11.5357C8.56403 11.4818 8.58437 11.4347 8.6005 11.384C8.67402 11.1861 8.79356 11.005 8.94409 10.8617C9.09662 10.7198 9.27749 10.6176 9.46669 10.5518C9.65619 10.4862 9.85293 10.4535 10.0493 10.4426C10.2478 10.4326 10.4387 10.4411 10.6445 10.4768L10.4958 10.5496L10.6038 10.3472C10.6436 10.2819 10.6815 10.2154 10.7229 10.1512C10.7667 10.0887 10.8064 10.023 10.8545 9.96352C10.9011 9.90306 10.9474 9.84222 10.9991 9.78592C11.0481 9.72732 11.1022 9.67327 11.1562 9.61937C11.2106 9.56586 11.2682 9.51559 11.3267 9.4667C11.3865 9.41918 11.4465 9.3722 11.5105 9.33053C11.5727 9.2863 11.6398 9.24938 11.7062 9.21208L11.808 9.15992L11.9127 9.11411C11.9835 9.08588 12.055 9.05907 12.1284 9.03847C12.2013 9.01638 12.2757 8.99854 12.3508 8.98526C12.4256 8.97091 12.5015 8.96063 12.5778 8.95564C12.6539 8.94915 12.7306 8.94819 12.807 8.94992C12.8835 8.95149 12.9601 8.9576 13.0364 8.96666C13.1128 8.97596 13.1888 8.98944 13.2647 9.00622C13.3419 9.02419 13.4127 9.04269 13.496 9.07406L13.3817 9.08586C13.6411 8.91634 13.9182 8.76511 14.2269 8.68074C14.3805 8.63835 14.5429 8.61454 14.7088 8.62172C14.8744 8.62757 15.0438 8.66979 15.198 8.74804C15.3524 8.82605 15.4896 8.93898 15.6019 9.06968C15.7144 9.20072 15.8046 9.34727 15.8788 9.49887C15.953 9.65074 16.0112 9.8083 16.0581 9.96792C16.0815 10.0478 16.1018 10.1284 16.1195 10.2094C16.1371 10.2912 16.152 10.3706 16.163 10.457L16.0142 10.4156L16.1036 10.2691C16.1305 10.2186 16.1588 10.1687 16.1845 10.1174C16.2081 10.0651 16.2354 10.0144 16.256 9.96069C16.2777 9.90739 16.3 9.8542 16.3172 9.79901C16.3369 9.74469 16.3519 9.68886 16.367 9.63287C16.3819 9.57692 16.3937 9.51992 16.4045 9.46273C16.4139 9.40527 16.423 9.34755 16.4272 9.28901C16.4339 9.23085 16.434 9.17183 16.4348 9.11308C16.4347 9.05415 16.4317 8.99511 16.426 8.93613C16.4195 8.87731 16.412 8.81818 16.4 8.75981C16.3889 8.70135 16.3751 8.64299 16.3576 8.5858C16.3413 8.52822 16.3217 8.47143 16.2992 8.41569C16.255 8.30409 16.2012 8.19584 16.1386 8.09286C16.0757 7.9905 16.0047 7.89126 15.9231 7.80509L15.9411 7.78329C16.0312 7.86742 16.1084 7.96298 16.1794 8.06419C16.2504 8.16543 16.311 8.2746 16.3624 8.38827C16.3884 8.44495 16.4116 8.50315 16.4317 8.56251C16.4526 8.62152 16.47 8.68186 16.4847 8.74279C16.5003 8.80364 16.5111 8.86544 16.5209 8.92747C16.53 8.98966 16.5362 9.05198 16.5394 9.11458C16.5517 9.36477 16.5199 9.61602 16.4474 9.85044C16.431 9.90989 16.4096 9.9669 16.3886 10.0244C16.3686 10.0823 16.342 10.1366 16.3189 10.1931C16.2937 10.2482 16.2659 10.3017 16.2394 10.3562L16.1513 10.5137L16.0411 10.7105L16.0024 10.4723C15.9905 10.3992 15.9733 10.3203 15.9543 10.245C15.935 10.1689 15.9133 10.0935 15.8886 10.0192C15.8395 9.87056 15.7802 9.72564 15.7079 9.58973C15.5646 9.31892 15.364 9.08024 15.1115 8.95969C14.8597 8.8364 14.5691 8.8453 14.2994 8.92707C14.0275 9.0077 13.7711 9.15321 13.5294 9.31941L13.4795 9.35374L13.4151 9.33121C13.3599 9.31198 13.2885 9.29344 13.2231 9.28017C13.156 9.26683 13.0881 9.25626 13.02 9.24954C12.9519 9.24296 12.8837 9.239 12.8157 9.23914C12.7478 9.23913 12.6797 9.24139 12.6125 9.24878C12.5452 9.25518 12.4782 9.26408 12.4122 9.2773C12.346 9.28942 12.2806 9.30556 12.2164 9.32553C12.1518 9.34397 12.089 9.36812 12.0267 9.39338L11.9346 9.43421L11.8451 9.48085C11.7867 9.51446 11.7276 9.54704 11.6727 9.58696C11.6161 9.6241 11.5628 9.66651 11.5098 9.70911C11.4578 9.75329 11.4065 9.79842 11.3579 9.84695C11.3096 9.8959 11.261 9.9447 11.2169 9.9985C11.1704 10.0496 11.1285 10.1056 11.0862 10.1612C11.0428 10.2156 11.0059 10.2763 10.9649 10.3332C10.9261 10.3919 10.8905 10.4534 10.853 10.5134L10.7507 10.7013L10.7017 10.7914L10.6021 10.7741C10.2613 10.7151 9.88591 10.7231 9.56315 10.8308C9.40077 10.8846 9.25154 10.9672 9.12697 11.0792C9.00467 11.1931 8.9067 11.3348 8.84315 11.4982C8.82974 11.5396 8.81073 11.581 8.80127 11.6224C8.79062 11.6648 8.77742 11.7015 8.76955 11.7525L8.75611 11.8246L8.75273 11.8426L8.75192 11.8471C8.75336 11.8383 8.75197 11.8472 8.75214 11.8463L8.75096 11.8551L8.74634 11.8904C8.74027 11.9374 8.73322 11.9843 8.72942 12.0315C8.71028 12.2202 8.70497 12.4109 8.71483 12.6013C8.7342 12.9818 8.81767 13.3618 8.96788 13.7132C9.11793 14.0628 9.3353 14.3897 9.61504 14.6287C9.6502 14.6583 9.68612 14.686 9.72053 14.7106L9.78043 14.7505C9.79365 14.7588 9.81592 14.7717 9.83474 14.7818C9.91442 14.8244 10.0009 14.8634 10.0873 14.9014C10.2608 14.9769 10.4379 15.0479 10.6153 15.1183L11.684 15.5373C12.0403 15.68 12.3962 15.8245 12.7471 15.9935C12.9223 16.0815 13.0965 16.1642 13.2654 16.3003C13.3063 16.3389 13.3527 16.372 13.386 16.4586C13.4038 16.5029 13.3942 16.5748 13.3641 16.6104C13.3364 16.6469 13.307 16.6639 13.2806 16.6776C13.2235 16.7051 13.1847 16.7124 13.1379 16.7289C13.0932 16.7442 13.0476 16.7572 13.0018 16.7696C12.6367 16.8717 12.2537 16.9174 11.8707 16.8958C11.4876 16.8748 11.1059 16.7868 10.7441 16.6411C10.3824 16.495 10.0411 16.2927 9.72706 16.0533C9.41306 15.8135 9.12387 15.5378 8.86297 15.2379C8.59883 14.9371 8.37494 14.5976 8.20336 14.2332C8.03075 13.8693 7.90482 13.4839 7.82333 13.0914C7.74259 12.6986 7.69829 12.2999 7.71074 11.9006L7.71655 11.9202C7.62745 11.7924 7.55655 11.6509 7.50939 11.5023C7.4609 11.3541 7.43426 11.1999 7.42369 11.0462C7.41308 10.8924 7.41875 10.7387 7.43698 10.5878C7.45563 10.4368 7.48461 10.2881 7.53009 10.1441L7.55688 10.1551Z" fill="#FF0084"/>
<path d="M6.78951 17.8339C6.78951 17.8339 6.81844 17.8578 6.8769 17.8891C6.90558 17.9052 6.94213 17.9213 6.98326 17.9403C7.02592 17.9566 7.07292 17.9761 7.12659 17.9909C7.1789 18.009 7.23844 18.0196 7.29921 18.0346C7.36212 18.0428 7.42593 18.0598 7.49455 18.0643C7.56244 18.0726 7.63251 18.0784 7.70416 18.081C7.77534 18.0866 7.84802 18.0857 7.92047 18.0844C8.06558 18.0819 8.20901 18.0587 8.34376 18.046C8.4114 18.0415 8.47719 18.043 8.5401 18.0422C8.60294 18.0412 8.66281 18.0427 8.71872 18.0467C8.77494 18.0502 8.82653 18.0533 8.87218 18.0561C8.91836 18.06 8.95898 18.0646 8.99294 18.0699C9.06063 18.0799 9.10096 18.0907 9.10096 18.0907L9.10719 18.1199C9.10719 18.1199 9.07426 18.143 9.01391 18.1745C8.98373 18.1906 8.94672 18.2082 8.90364 18.2271C8.86035 18.2448 8.81173 18.2672 8.7565 18.2815C8.70164 18.2981 8.64154 18.3136 8.57746 18.3271C8.51388 18.3444 8.44425 18.3484 8.37269 18.3537C8.3009 18.3575 8.22626 18.3553 8.14987 18.3458C8.0737 18.3375 7.99699 18.334 7.91978 18.3208C7.84273 18.3118 7.76611 18.3026 7.69066 18.2865C7.61521 18.2746 7.54155 18.2551 7.47081 18.2351C7.39991 18.2179 7.33255 18.1905 7.26904 18.169C7.20645 18.141 7.14702 18.1183 7.09446 18.0889C7.04108 18.0629 6.99446 18.0331 6.95319 18.008C6.91288 17.9803 6.87801 17.9561 6.85149 17.9326C6.79775 17.8876 6.77123 17.855 6.77123 17.855L6.78951 17.8339Z" fill="#FF0084"/>
<path d="M13.4889 19.9537C13.8896 19.6657 14.287 19.3731 14.6729 19.0662L14.9608 18.8345C15.0561 18.7568 15.1502 18.6773 15.2426 18.5966C15.3354 18.5162 15.4251 18.4329 15.5132 18.3484L15.6402 18.2182C15.6812 18.174 15.718 18.1278 15.757 18.083L15.7785 18.0584L15.8102 18.0498C15.8782 18.0314 15.9489 18.0083 16.0183 17.9871C16.0881 17.9662 16.157 17.9399 16.2263 17.9164C16.3653 17.8703 16.5016 17.8144 16.638 17.7609C16.7753 17.7093 16.9079 17.6449 17.0439 17.5901L17.2473 17.5066C17.3145 17.4772 17.3816 17.4471 17.4495 17.4194C17.5173 17.3915 17.5847 17.3624 17.6533 17.336C17.7219 17.3094 17.7903 17.2825 17.8569 17.2512C17.9909 17.191 18.1269 17.1345 18.2629 17.0772C18.3313 17.0493 18.4005 17.0229 18.4668 16.9903L18.6694 16.9001C18.8055 16.8415 18.9422 16.7831 19.0833 16.7313L19.0981 16.7572C18.9808 16.8517 18.8591 16.9393 18.7369 17.027L18.5519 17.156C18.4903 17.1994 18.4255 17.2367 18.3615 17.2755C18.2323 17.3509 18.103 17.427 17.9719 17.4996C17.8412 17.5733 17.705 17.6352 17.5698 17.6998C17.5023 17.7323 17.4338 17.7623 17.3655 17.793C17.2972 17.8236 17.2261 17.8474 17.1565 17.8748L16.9455 17.9518C16.8753 17.9774 16.804 18.0004 16.7321 18.0219C16.5885 18.0649 16.4473 18.1138 16.3018 18.1518C16.1571 18.1929 16.0139 18.2312 15.8636 18.2647L15.9168 18.2315C15.8718 18.2784 15.8278 18.3275 15.7818 18.3722L15.6415 18.5012C15.5461 18.5834 15.4497 18.6636 15.3513 18.7399C15.2531 18.8168 15.1539 18.8917 15.0537 18.9648C14.9538 19.0382 14.8528 19.1101 14.7507 19.1798C14.3421 19.4589 13.9281 19.7272 13.5042 19.9791L13.4889 19.9537Z" fill="#FF0084"/>
<path d="M13.4569 17.9434C13.4569 17.9434 13.4639 17.951 13.4779 17.9634C13.4924 17.9727 13.5136 17.9862 13.5407 18.0036C13.5711 18.0163 13.6081 18.0316 13.6506 18.0493C13.6933 18.0649 13.7458 18.0731 13.7998 18.0871C13.8274 18.0925 13.8546 18.1023 13.885 18.1049C13.9153 18.1075 13.9468 18.1102 13.979 18.1131C14.0435 18.1179 14.1101 18.1274 14.1797 18.1316C14.25 18.1308 14.3226 18.1301 14.3965 18.1293C14.4702 18.1276 14.5441 18.133 14.619 18.1255C14.6938 18.1167 14.7684 18.1094 14.8416 18.0991C14.9146 18.0889 14.9864 18.0809 15.0563 18.0777C15.1262 18.0787 15.1942 18.0701 15.2593 18.0726C15.3242 18.0721 15.386 18.0741 15.4435 18.0784C15.6726 18.0921 15.8347 18.1424 15.8347 18.1424L15.8395 18.1717C15.8395 18.1717 15.6989 18.2534 15.4743 18.314C15.4183 18.3301 15.3572 18.3449 15.292 18.3579C15.2269 18.3717 15.1585 18.3855 15.085 18.3854C15.0119 18.3861 14.936 18.3822 14.8591 18.3761C14.7821 18.3699 14.7043 18.3669 14.6266 18.3621C14.5491 18.3596 14.4699 18.344 14.3932 18.3357C14.3167 18.325 14.2413 18.3145 14.1683 18.3042C14.0954 18.2875 14.025 18.2681 13.959 18.2501C13.9261 18.2409 13.8941 18.232 13.8631 18.2234C13.8323 18.2148 13.8032 18.1988 13.775 18.1878C13.7192 18.1622 13.6675 18.1442 13.6242 18.119C13.5821 18.0912 13.5455 18.067 13.5153 18.0472C13.4869 18.0209 13.4663 17.9992 13.4524 17.9853C13.4414 17.9698 13.4356 17.9615 13.4356 17.9615L13.4569 17.9434Z" fill="#FF0084"/>
<path d="M13.2084 16.6252C13.2084 16.6252 13.2043 16.6313 13.1995 16.6451C13.1949 16.6583 13.1921 16.68 13.2052 16.6897C13.2167 16.7016 13.25 16.7097 13.2871 16.7113C13.3249 16.713 13.3695 16.7097 13.4178 16.7022C13.6119 16.6725 13.868 16.5946 14.1222 16.515C14.2496 16.4754 14.3719 16.4172 14.492 16.3822C14.6127 16.3491 14.7296 16.3325 14.8317 16.3226C14.9342 16.3146 15.0212 16.312 15.0841 16.3162C15.1466 16.3192 15.184 16.3261 15.184 16.3261L15.193 16.3545C15.193 16.3545 15.0846 16.458 14.901 16.5517C14.8095 16.5993 14.7 16.647 14.5772 16.6807C14.4539 16.7124 14.3158 16.7225 14.1814 16.7459C14.0465 16.7674 13.9113 16.7883 13.7823 16.7988C13.6538 16.811 13.5319 16.8143 13.4258 16.8076C13.3729 16.8045 13.3237 16.7983 13.2792 16.7868C13.2359 16.7744 13.1925 16.7607 13.1663 16.72C13.1537 16.7002 13.1518 16.6767 13.1556 16.6618C13.1591 16.6464 13.1645 16.6356 13.1696 16.6278C13.1793 16.6124 13.1869 16.6056 13.1869 16.6056L13.2084 16.6252Z" fill="#FF0084"/>
<path d="M12.1281 15.8104C12.1281 15.8104 12.4222 15.6769 12.9231 15.4152C13.1734 15.2839 13.4752 15.1204 13.8141 14.92C14.1524 14.719 14.5297 14.4827 14.9166 14.1911C15.1094 14.0448 15.3048 13.8842 15.4879 13.699C15.5793 13.6065 15.6672 13.5073 15.7448 13.3988C15.8225 13.29 15.8888 13.1731 15.9258 13.0422L15.9427 12.9879C15.9497 12.9684 15.9533 12.9534 15.9681 12.925C15.9714 12.9202 15.9725 12.9165 15.9829 12.9055C15.9635 12.8742 16.1006 12.8917 16.0943 12.9313C16.1023 12.9514 16.101 12.9567 16.1021 12.9621L16.1028 12.9754C16.1029 12.9897 16.1023 13.0002 16.1015 13.0107C16.0998 13.0314 16.0975 13.0507 16.095 13.0698C16.0848 13.146 16.0719 13.22 16.0581 13.2945C16.0302 13.4432 15.9985 13.592 15.9648 13.742C15.8971 14.0419 15.8204 14.3458 15.7349 14.6525C15.5611 15.2645 15.3618 15.8925 15.0718 16.4954C14.9981 16.6455 14.9177 16.7935 14.8237 16.9354C14.7299 17.0758 14.621 17.2152 14.4805 17.3231C14.228 17.5222 13.9746 17.7312 13.7059 17.921C13.4377 18.1116 13.1546 18.2843 12.8555 18.4244C12.5557 18.5623 12.2411 18.6696 11.9176 18.7306C11.2699 18.8565 10.5999 18.7956 9.98947 18.6152C9.37773 18.4305 8.8207 18.1482 8.32545 17.827C8.07462 17.6604 7.84564 17.4769 7.64371 17.2697C7.44281 17.0626 7.27423 16.8304 7.1513 16.585C7.02715 16.3399 6.95613 16.0801 6.9318 15.8333C6.90657 15.586 6.9253 15.3525 6.96605 15.1425C7.04915 14.721 7.21307 14.3925 7.36387 14.1413C7.51641 13.8898 7.65812 13.7103 7.75976 13.5936C7.86166 13.477 7.92176 13.4205 7.92176 13.4205L7.94197 13.442C7.94197 13.442 7.88806 13.5032 7.79825 13.628C7.70934 13.7533 7.58056 13.9398 7.45017 14.1971C7.3848 14.3254 7.32034 14.4719 7.26244 14.6358C7.20428 14.7992 7.15306 14.9811 7.12485 15.1799C7.09637 15.3783 7.09039 15.5938 7.12398 15.8154C7.15748 16.0368 7.23115 16.2632 7.34769 16.4784C7.58111 16.9104 7.98489 17.2856 8.45766 17.5827C8.51428 17.6203 8.58082 17.6571 8.64257 17.6948C8.70481 17.7291 8.76735 17.7637 8.83027 17.7986C8.95628 17.8718 9.08887 17.9332 9.22098 17.9995C9.48781 18.1254 9.76744 18.2335 10.056 18.3192C10.6316 18.4966 11.2537 18.559 11.8619 18.4574C12.1659 18.4071 12.4639 18.3129 12.7513 18.1884C13.0381 18.0615 13.3134 17.9028 13.5774 17.7228C13.8418 17.5429 14.0941 17.342 14.3532 17.1448C14.4719 17.0573 14.5697 16.9377 14.6596 16.808C14.7489 16.678 14.8281 16.5381 14.9012 16.3948C15.1909 15.8174 15.399 15.1984 15.5799 14.5962C15.6693 14.2942 15.7501 13.9941 15.8216 13.6985C15.8573 13.5506 15.8909 13.4038 15.9204 13.2584C15.9353 13.1859 15.9495 13.1133 15.9604 13.0426L15.9671 12.9914L15.9685 12.9709C15.9685 12.97 15.9685 12.9687 15.9686 12.9702C15.9694 12.971 15.9673 12.9716 15.9738 12.9874C15.9663 13.0209 16.097 13.0393 16.0751 13.0118C16.0824 13.0041 16.0813 13.0043 16.0822 13.0032C16.08 13.0065 16.072 13.0262 16.067 13.0408L16.0505 13.09C16.0053 13.2382 15.9272 13.3679 15.8425 13.4806C15.7574 13.5943 15.6636 13.6951 15.5673 13.7883C15.3746 13.9747 15.1727 14.1328 14.9744 14.2763C14.5767 14.5621 14.1928 14.7903 13.8488 14.9843C13.5043 15.1776 13.1982 15.3344 12.9446 15.4602C12.437 15.7108 12.1394 15.8378 12.1394 15.8378L12.1281 15.8104Z" fill="#FF0084"/>
<path d="M16.0692 10.4678C16.0692 10.4678 16.0505 10.4093 16.0176 10.3071C16.0017 10.2556 15.9827 10.1931 15.9635 10.1202C15.9541 10.0835 15.9438 10.0448 15.9352 10.0021C15.9309 9.98067 15.9266 9.95904 15.9243 9.93256C15.9243 9.92422 15.9228 9.92074 15.9243 9.90821C15.9256 9.9011 15.9243 9.9 15.9284 9.88796C15.9383 9.87201 15.9423 9.85375 15.9821 9.85476C15.9899 9.85556 15.9989 9.85942 16.0023 9.86144L16.0078 9.86544C16.0114 9.8683 16.015 9.87143 16.0182 9.87468C16.0258 9.88247 16.0249 9.88289 16.0286 9.88756C16.0345 9.89543 16.0376 9.90122 16.0411 9.90722C16.0902 9.99883 16.1224 10.0909 16.1587 10.1929C16.1942 10.294 16.2253 10.402 16.256 10.5143C16.3166 10.7389 16.3699 10.9817 16.4085 11.2282C16.4289 11.3513 16.4442 11.4753 16.4579 11.5983C16.4715 11.7213 16.4785 11.8436 16.4755 11.9621C16.4712 12.0803 16.4591 12.195 16.4367 12.3016C16.4159 12.4085 16.3874 12.5079 16.3531 12.5964C16.2856 12.7743 16.1958 12.9061 16.1207 12.9829C16.0837 13.0219 16.0524 13.0493 16.0291 13.0657C16.0063 13.0822 15.9942 13.091 15.9942 13.091L15.9732 13.0704C15.9732 13.0704 16.0005 13.0158 16.0363 12.9213C16.0544 12.8742 16.0726 12.8157 16.0907 12.7492C16.1083 12.682 16.1234 12.6054 16.1373 12.5216C16.1503 12.4375 16.1608 12.3456 16.1684 12.2476C16.1741 12.1491 16.1803 12.0453 16.1838 11.9368C16.1889 11.8284 16.1934 11.7154 16.1957 11.5995C16.198 11.4835 16.193 11.3648 16.1859 11.2458C16.1694 11.008 16.138 10.7691 16.098 10.5468C16.0783 10.4355 16.0548 10.3288 16.0322 10.2278C16.0091 10.1286 15.9842 10.0291 15.9543 9.95497L15.9498 9.94512C15.9498 9.94512 15.9471 9.94026 15.9503 9.94443C15.9515 9.94581 15.9532 9.94703 15.9547 9.9479L15.9573 9.94904C15.9596 9.95056 15.9671 9.95459 15.9737 9.95517C16.0072 9.95352 16.0095 9.94203 16.0164 9.93028C16.0185 9.92324 16.0173 9.92786 16.0176 9.92605C16.0169 9.92421 16.0171 9.93197 16.0167 9.93447C16.0162 9.95155 16.0176 9.9724 16.0194 9.99204C16.023 10.0319 16.0288 10.0708 16.034 10.1071C16.0462 10.1802 16.0569 10.2439 16.0656 10.2963C16.0851 10.4014 16.0962 10.4614 16.0962 10.4614L16.0692 10.4678Z" fill="#FF0084"/>
<path d="M16.4757 9.16282C16.4757 9.16282 16.4933 9.1231 16.533 9.05385C16.573 8.98486 16.6345 8.8845 16.734 8.77407C16.7841 8.71938 16.8443 8.66234 16.9204 8.61355C16.9961 8.56594 17.0897 8.52407 17.1988 8.52198C17.3073 8.51919 17.4247 8.55809 17.527 8.62864C17.6301 8.69891 17.7203 8.79563 17.8013 8.90361C17.8822 9.01098 17.9565 9.13393 18.0251 9.25711C18.0951 9.38132 18.1676 9.50962 18.242 9.6416C18.388 9.90795 18.5359 10.1969 18.6459 10.5189C18.7564 10.8394 18.8148 11.1993 18.7861 11.5561C18.7599 11.9133 18.6575 12.2574 18.5275 12.5813L18.4244 12.8214C18.3877 12.8998 18.347 12.9755 18.3086 13.0525C18.2339 13.2085 18.1442 13.3519 18.0617 13.4995C17.8933 13.7889 17.7206 14.0635 17.5565 14.3343C17.3885 14.6018 17.2223 14.8604 17.0468 15.096C17.0031 15.155 16.96 15.2133 16.9136 15.2684C16.8683 15.3242 16.8245 15.3796 16.776 15.4303C16.7285 15.4816 16.6824 15.5324 16.6317 15.5773C16.5825 15.6235 16.5348 15.6694 16.4833 15.7085C16.283 15.872 16.0799 15.989 15.898 16.0782C15.7162 16.1695 15.5377 16.1921 15.4031 16.2451C15.2693 16.2998 15.1469 16.2943 15.0742 16.3208C15.0016 16.3472 14.9628 16.3613 14.9628 16.3613L14.9671 16.3798C14.9671 16.3798 15.0109 16.3815 15.0773 16.3418C15.1441 16.3029 15.246 16.2573 15.3705 16.1847C15.494 16.1107 15.6466 16.0281 15.8126 15.9198C15.9804 15.8139 16.1605 15.6852 16.334 15.5212C16.5071 15.3565 16.6687 15.152 16.8266 14.9166C16.9831 14.6802 17.1434 14.423 17.3108 14.1553C17.4806 13.8897 17.6596 13.615 17.84 13.3399C17.9261 13.2013 18.0199 13.0653 18.0964 12.9186C18.136 12.8462 18.178 12.7746 18.2158 12.7009L18.3222 12.4761C18.4553 12.1727 18.5602 11.8544 18.594 11.5281C18.63 11.2023 18.5873 10.8735 18.4922 10.5672C18.3983 10.2599 18.2603 9.97435 18.1271 9.70478C18.0582 9.57039 17.9911 9.43975 17.9262 9.31341C17.8613 9.18537 17.7973 9.07 17.7244 8.96416C17.6521 8.85924 17.5718 8.76673 17.4826 8.70041C17.3937 8.63394 17.2956 8.59727 17.202 8.59514C17.1082 8.59259 17.0226 8.62542 16.9505 8.66637C16.8781 8.70808 16.8183 8.75978 16.7679 8.81016C16.6675 8.91204 16.6028 9.00773 16.5608 9.07339C16.519 9.13966 16.5004 9.17712 16.5004 9.17712L16.4757 9.16282Z" fill="#FF0084"/>
<path d="M14.181 17.4226C14.181 17.4226 14.1916 17.4501 14.2301 17.492C14.2676 17.5328 14.3354 17.5829 14.4336 17.6053C14.5313 17.6284 14.6552 17.6226 14.7901 17.5863C14.9254 17.5512 15.0721 17.4865 15.2229 17.3986C15.3744 17.3135 15.5361 17.2061 15.7051 17.0956C15.8739 16.983 16.0515 16.8641 16.2318 16.7359C16.5927 16.4803 16.9686 16.1935 17.3207 15.8814C17.495 15.7238 17.6648 15.5609 17.8142 15.3876C17.9605 15.2143 18.1014 15.0342 18.1739 14.8514C18.1932 14.8069 18.2063 14.7627 18.2135 14.7217C18.2244 14.6647 18.2352 14.6083 18.2459 14.5525C18.2623 14.4931 18.2772 14.431 18.2952 14.3765C18.3142 14.3231 18.3317 14.2686 18.3525 14.2191C18.4315 14.0162 18.5171 13.8405 18.575 13.6761C18.633 13.5119 18.6614 13.3589 18.6528 13.2193C18.6543 13.149 18.6346 13.0848 18.6249 13.0231C18.6039 12.9645 18.5911 12.9068 18.5684 12.8586C18.546 12.8096 18.5259 12.7659 18.5086 12.7279C18.4872 12.6914 18.4691 12.6603 18.4543 12.6352C18.4248 12.5838 18.4091 12.5565 18.4091 12.5565L18.4299 12.5377C18.4299 12.5377 18.4517 12.5609 18.4923 12.6043C18.5127 12.6266 18.5377 12.6539 18.5673 12.6862C18.5931 12.7224 18.6226 12.764 18.6558 12.8105C18.6886 12.8579 18.7148 12.9176 18.7486 12.9805C18.7707 13.0481 18.8037 13.1207 18.8152 13.2044C18.8483 13.3697 18.8376 13.5652 18.7896 13.7549C18.7441 13.9461 18.67 14.1354 18.607 14.3301C18.5755 14.4284 18.5495 14.5274 18.528 14.6213C18.519 14.6748 18.5105 14.7347 18.5003 14.7864C18.4884 14.8582 18.4679 14.9245 18.4424 14.9853C18.335 15.2267 18.1755 15.4118 18.0062 15.5859C17.8354 15.758 17.6534 15.9177 17.466 16.0687C17.0916 16.3706 16.6991 16.6416 16.3237 16.882C16.1357 17.0019 15.9529 17.1153 15.7761 17.2172C15.5983 17.3186 15.4333 17.4146 15.2709 17.4936C15.1104 17.5745 14.9541 17.6327 14.8087 17.6613C14.6641 17.6913 14.5293 17.6897 14.4233 17.6563C14.3165 17.6242 14.2443 17.5632 14.2059 17.5156C14.1865 17.4914 14.1741 17.4711 14.1664 17.4567C14.1586 17.4413 14.1559 17.4341 14.1559 17.4341L14.181 17.4226Z" fill="#FF0084"/>
<path d="M13.0364 13.6617C12.8731 13.8184 12.701 13.9639 12.5231 14.1019C12.3417 14.2419 12.1538 14.3731 11.9573 14.4905C11.7611 14.6081 11.5567 14.7134 11.3408 14.7929C11.2336 14.8347 11.1221 14.8652 11.0092 14.8914C10.8955 14.9135 10.7797 14.9317 10.6613 14.93C10.5434 14.9325 10.4234 14.916 10.3065 14.8828C10.1883 14.8525 10.0778 14.792 9.97299 14.7245C9.92499 14.685 9.87136 14.6483 9.82821 14.6054C9.78406 14.5657 9.74008 14.5235 9.69616 14.4789C9.60981 14.3903 9.52668 14.2975 9.45691 14.1871C9.42139 14.1329 9.39202 14.0712 9.37077 14.0044C9.34909 13.9379 9.3433 13.8603 9.35801 13.7884C9.39012 13.6413 9.48683 13.5468 9.57046 13.466C9.65683 13.3853 9.74521 13.3149 9.81705 13.235C9.89039 13.1562 9.94261 13.067 9.96008 12.9694L9.97569 13.0373C9.91572 12.9525 9.86545 12.8694 9.81712 12.7812C9.76926 12.6937 9.72558 12.6034 9.68723 12.5104C9.6115 12.3243 9.55305 12.125 9.54607 11.9152C9.54262 11.8108 9.55267 11.7044 9.58069 11.6024C9.60775 11.5001 9.65537 11.4037 9.71714 11.3214C9.77834 11.2386 9.85196 11.1673 9.93295 11.1115C10.0126 11.0525 10.0997 11.0098 10.1871 10.9703L10.4389 10.8671C10.524 10.8342 10.6085 10.7998 10.695 10.7694C10.7805 10.7372 10.8687 10.7095 10.9571 10.6816L11.0927 10.645L11.2329 10.6164C11.329 10.6033 11.4279 10.5927 11.5317 10.6049C11.6349 10.6118 11.7398 10.6465 11.8349 10.6925C11.9311 10.7391 12.014 10.8017 12.0929 10.8645C12.1708 10.9284 12.2426 10.9955 12.3131 11.0628L12.1099 11.1518C12.1073 10.9602 12.1186 10.779 12.1443 10.5929C12.1716 10.4084 12.2106 10.2224 12.2975 10.0425C12.3417 9.95334 12.3998 9.86464 12.485 9.79275C12.5696 9.72056 12.6881 9.67795 12.8012 9.67974C12.9704 9.68311 13.1353 9.67517 13.31 9.67433C13.4832 9.67418 13.66 9.67662 13.8396 9.70328C14.0186 9.72952 14.2027 9.77435 14.3795 9.86479C14.4675 9.91034 14.5529 9.96739 14.6303 10.0376C14.7075 10.1084 14.7738 10.1934 14.8271 10.2847C14.9348 10.4693 14.9767 10.6755 14.9908 10.8695L14.9937 10.9062L14.9947 10.9435L14.9963 11.0109L14.9994 11.1457C14.9974 11.2386 14.9967 11.3329 14.9924 11.4251C14.9819 11.6085 14.9641 11.7909 14.9349 11.9708C14.9218 12.061 14.9057 12.1505 14.8864 12.2393C14.8699 12.3286 14.8463 12.4162 14.8245 12.5041C14.7762 12.6784 14.7208 12.8505 14.6508 13.0164C14.5836 13.1831 14.5013 13.3439 14.4017 13.4935C14.3016 13.6407 14.1831 13.786 14.0168 13.8707L13.9595 13.8987L13.8925 13.9214C13.8481 13.939 13.8029 13.9405 13.7584 13.9495C13.6676 13.9564 13.5768 13.9478 13.4891 13.9254C13.3192 13.8774 13.1658 13.7838 13.0364 13.6617ZM13.0448 13.6317C13.1817 13.7389 13.3417 13.8146 13.5024 13.8462C13.5834 13.8596 13.6641 13.8596 13.7418 13.847C13.7788 13.8355 13.8199 13.8308 13.8529 13.8132L13.9044 13.7915L13.9585 13.7587C14.088 13.6755 14.1905 13.5438 14.274 13.4003C14.3577 13.2563 14.4267 13.1001 14.4812 12.9376C14.5384 12.7763 14.5818 12.6086 14.6183 12.4393C14.6541 12.2699 14.6856 12.0988 14.7034 11.9251C14.725 11.7522 14.7332 11.5774 14.7389 11.4029C14.7405 11.316 14.739 11.2307 14.7387 11.1441L14.732 11.0093L14.7286 10.9419L14.7271 10.9118L14.7237 10.8811C14.7082 10.7175 14.667 10.5605 14.5899 10.4322C14.5148 10.3026 14.4014 10.2036 14.2652 10.136C14.1292 10.0679 13.9736 10.0293 13.8142 10.008C13.6545 9.98662 13.4898 9.97785 13.3228 9.97677C13.1574 9.97504 12.9825 9.98061 12.8111 9.97464C12.7541 9.9743 12.705 9.98958 12.6582 10.0256C12.6119 10.0625 12.5701 10.1186 12.5356 10.1845C12.4665 10.3175 12.4252 10.4819 12.3973 10.6481C12.3702 10.8143 12.3555 10.991 12.3542 11.1586L12.3518 11.4484L12.151 11.2477C12.085 11.1816 12.0185 11.117 11.9509 11.0587C11.8829 11.002 11.8142 10.9483 11.7425 10.9118C11.6706 10.8756 11.5973 10.848 11.5182 10.8411C11.4401 10.8296 11.3572 10.8367 11.2741 10.8461L11.1483 10.8693L11.0218 10.9007C10.9376 10.9256 10.8532 10.9501 10.7692 10.9799C10.6849 11.0075 10.6015 11.0395 10.5179 11.0699L10.267 11.167C10.1112 11.2311 9.96529 11.32 9.86765 11.4497C9.76587 11.5763 9.7223 11.7442 9.72502 11.919C9.72726 12.0944 9.77519 12.2751 9.8422 12.4476C9.87595 12.534 9.91527 12.619 9.95872 12.7017C10.0017 12.7838 10.0505 12.867 10.1005 12.9403L10.1229 12.9731L10.1161 13.0082C10.0892 13.147 10.013 13.263 9.92836 13.3501C9.84395 13.4398 9.75134 13.51 9.66899 13.5844C9.58761 13.6577 9.5139 13.7372 9.49381 13.8273C9.4713 13.916 9.50804 14.021 9.56586 14.1169C9.6235 14.2136 9.6999 14.3038 9.77938 14.3892C9.81874 14.4314 9.86046 14.4734 9.9046 14.515C9.94596 14.558 9.99093 14.5889 10.0339 14.6269C10.1267 14.6892 10.2242 14.7468 10.3312 14.7768C10.4368 14.8097 10.5471 14.8281 10.6578 14.8287C10.7687 14.8334 10.8794 14.819 10.9891 14.8007C11.0981 14.7783 11.2069 14.7519 11.3124 14.7139C11.5248 14.6422 11.7287 14.5442 11.9254 14.4331C12.1225 14.3224 12.3122 14.1973 12.4959 14.0631C12.6792 13.9286 12.8576 13.7859 13.026 13.6318L13.0345 13.624L13.0448 13.6317Z" fill="#FF0084"/>
<path d="M13.0434 13.6555C12.8041 13.8111 12.5418 13.9266 12.2666 14.0041C12.1978 14.0233 12.128 14.0394 12.0574 14.0527C11.9868 14.066 11.9153 14.0753 11.8434 14.0827C11.7712 14.0883 11.6987 14.0916 11.6257 14.0903C11.5529 14.0881 11.4795 14.0845 11.4065 14.0734C11.3332 14.0653 11.2604 14.0486 11.1881 14.0305C11.1523 14.02 11.116 14.0105 11.0802 13.9989L10.9742 13.9593C10.905 13.9287 10.8347 13.899 10.7695 13.8584C10.7019 13.8221 10.6397 13.7767 10.5765 13.7324C10.5169 13.6835 10.4539 13.6375 10.3994 13.5821L10.3156 13.5011L10.2379 13.414C10.1842 13.3574 10.1402 13.2928 10.0918 13.2317C10.0456 13.169 10.0047 13.1026 9.96083 13.038L9.93541 13.0005L9.95057 12.9545C9.97345 12.8854 9.99655 12.8255 10.0241 12.7646C10.0499 12.7034 10.0806 12.6455 10.1097 12.5865C10.1421 12.5298 10.1722 12.4714 10.2072 12.4165C10.243 12.3623 10.2752 12.3049 10.3146 12.2536C10.3537 12.202 10.3886 12.1465 10.4313 12.0981C10.4732 12.0489 10.5128 11.9973 10.5568 11.9502L10.6905 11.8101L10.8338 11.6806C10.8804 11.6356 10.9336 11.5999 10.9844 11.5603C11.0357 11.5217 11.0854 11.4802 11.1407 11.448L11.3034 11.3449C11.3587 11.3128 11.4165 11.2849 11.4737 11.2561C11.5312 11.2276 11.588 11.1974 11.6485 11.1767L11.8277 11.1078C11.8866 11.082 11.9499 11.0705 12.0112 11.0531L12.1967 11.005L12.2539 10.9902L12.3043 11.0261C12.3666 11.0706 12.4076 11.1091 12.4535 11.1538C12.4978 11.1975 12.5395 11.2427 12.5784 11.2901C12.6175 11.3375 12.6545 11.3864 12.6879 11.4375C12.7238 11.4869 12.7538 11.54 12.7845 11.5925C12.8169 11.6441 12.8414 11.6998 12.8686 11.7539C12.8973 11.8074 12.917 11.8648 12.939 11.9208L12.9714 12.0051L12.9972 12.0914C13.0129 12.1492 13.0344 12.2054 13.0448 12.2642L13.0798 12.4389C13.0901 12.4971 13.0945 12.556 13.1021 12.6143C13.1092 12.6727 13.1166 12.7309 13.1161 12.7893L13.1204 12.9637C13.1243 13.0218 13.1157 13.0793 13.1131 13.1367L13.1011 13.3083C13.0861 13.4216 13.0686 13.5339 13.0493 13.6451L13.0481 13.6523L13.0434 13.6555ZM13.0216 13.6334C13.0169 13.5217 13.0155 13.4112 13.0133 13.3015L12.9983 13.1333C12.9918 13.0774 12.9915 13.0216 12.9814 12.9664L12.9564 12.8011C12.9498 12.7459 12.936 12.6919 12.9244 12.6379C12.9117 12.584 12.9023 12.5295 12.8871 12.4766L12.839 12.319C12.8256 12.2658 12.8015 12.2164 12.7835 12.1652L12.7544 12.089L12.7194 12.0158C12.6963 11.9671 12.674 11.918 12.6466 11.872C12.6199 11.8256 12.5961 11.7773 12.5652 11.7341C12.536 11.6898 12.5076 11.6448 12.4743 11.6043C12.4433 11.5615 12.4092 11.5221 12.3745 11.4834C12.3406 11.4443 12.3043 11.4075 12.2673 11.3733C12.2322 11.3397 12.1881 11.3046 12.1594 11.2844L12.267 11.3056L12.096 11.3514C12.0397 11.3687 11.9804 11.3772 11.9259 11.3992L11.7592 11.4576C11.7026 11.4748 11.65 11.5011 11.5966 11.5256C11.5436 11.5511 11.4883 11.5721 11.436 11.599L11.2816 11.6853C11.2287 11.712 11.1814 11.7478 11.1321 11.7806C11.0838 11.8148 11.0329 11.8455 10.9883 11.885L10.8504 11.9983L10.7208 12.1223C10.6779 12.164 10.6397 12.2108 10.5989 12.2548C10.5571 12.2981 10.5231 12.3487 10.4847 12.3952C10.4459 12.4415 10.4145 12.4938 10.3789 12.5429C10.3443 12.5928 10.3144 12.6459 10.2821 12.6975C10.2532 12.7511 10.2225 12.804 10.1967 12.8593C10.1696 12.9131 10.1451 12.9717 10.1257 13.0233L10.1155 12.9399C10.1543 13.0014 10.1905 13.0653 10.2315 13.1251C10.2745 13.1833 10.3134 13.2455 10.3613 13.2993L10.4303 13.3828L10.5049 13.4601C10.5535 13.5134 10.6096 13.5572 10.6629 13.6045C10.7195 13.647 10.7753 13.6913 10.8361 13.7267C10.8947 13.7662 10.9583 13.7961 11.0207 13.8281L11.117 13.8698C11.1497 13.8822 11.1829 13.8925 11.2159 13.9042C11.2824 13.9246 11.3499 13.9439 11.4184 13.955C11.4866 13.9691 11.556 13.976 11.6252 13.9818C11.6946 13.9868 11.7641 13.9872 11.8337 13.9856C11.9032 13.982 11.9726 13.9769 12.0417 13.9677C12.1107 13.9583 12.1794 13.9465 12.2475 13.9313C12.5171 13.8711 12.7804 13.7717 13.0216 13.6334Z" fill="#FF0084"/>
<path d="M13.0224 13.6378C13.0224 13.6378 13.033 13.5896 13.0516 13.5055C13.0601 13.4632 13.0738 13.4125 13.0848 13.3539C13.096 13.2955 13.1087 13.2297 13.1226 13.1579C13.133 13.0851 13.1465 13.007 13.1568 12.9239C13.1648 12.8403 13.1778 12.7535 13.1813 12.6626C13.1887 12.5723 13.188 12.4787 13.1872 12.385C13.1846 12.2912 13.1773 12.1966 13.1616 12.1049C13.1447 12.0135 13.1214 11.9244 13.0865 11.8448C13.0504 11.7661 13.0123 11.6928 12.9663 11.6317C12.9227 11.5686 12.8744 11.5142 12.8238 11.4642C12.7714 11.4169 12.7154 11.377 12.66 11.3429C12.5483 11.2752 12.4387 11.2357 12.3607 11.2086C12.2821 11.1823 12.2342 11.1702 12.2342 11.1702L12.2302 11.1408C12.2302 11.1408 12.276 11.1179 12.3626 11.1028C12.4059 11.0948 12.4594 11.0894 12.5219 11.091C12.5842 11.0932 12.6565 11.0998 12.7341 11.1233C12.8118 11.1452 12.8955 11.181 12.9776 11.2361C13.0599 11.2906 13.1369 11.3676 13.2 11.4581C13.2637 11.5493 13.3046 11.6563 13.3338 11.7632C13.3618 11.8708 13.3783 11.9793 13.3843 12.0862C13.3923 12.1931 13.3903 12.2981 13.3834 12.3997C13.3755 12.5011 13.3634 12.5996 13.3449 12.6925C13.3132 12.88 13.2623 13.0466 13.2195 13.1885C13.1717 13.3294 13.1327 13.4456 13.099 13.5237C13.0673 13.6028 13.0492 13.648 13.0492 13.648L13.0224 13.6378Z" fill="#FF0084"/>
</g>
<g filter="url(#filter1_d_10_67)">
<path d="M137.922 15.4507C137.922 15.4507 137.958 15.4422 138.022 15.4388C138.053 15.4389 138.093 15.4369 138.136 15.444C138.181 15.4473 138.23 15.4606 138.284 15.4739C138.335 15.4938 138.393 15.5129 138.448 15.5479C138.507 15.5763 138.557 15.6252 138.613 15.671C138.659 15.7248 138.716 15.7772 138.752 15.8445C138.772 15.877 138.795 15.909 138.813 15.9432L138.861 16.0494C138.897 16.1198 138.917 16.1943 138.943 16.2672C138.972 16.3399 138.983 16.4142 138.994 16.4866C139.004 16.5594 139.009 16.6303 139.002 16.6973C138.998 16.7643 138.992 16.8273 138.984 16.8852C138.977 16.9431 138.96 16.9951 138.948 17.0413C138.935 17.0874 138.922 17.1272 138.91 17.1598C138.887 17.2249 138.869 17.2611 138.869 17.2611L138.841 17.2597C138.841 17.2597 138.827 17.2218 138.81 17.1573C138.802 17.1251 138.793 17.0863 138.784 17.042C138.775 16.998 138.771 16.9481 138.759 16.8952C138.748 16.8424 138.738 16.7854 138.731 16.7256C138.726 16.6958 138.724 16.6645 138.719 16.6338C138.713 16.6033 138.71 16.5718 138.705 16.5399C138.697 16.4762 138.699 16.4073 138.687 16.3418C138.678 16.2758 138.674 16.2047 138.651 16.1426L138.623 16.046C138.611 16.0152 138.596 15.9868 138.583 15.9569C138.559 15.895 138.521 15.8464 138.49 15.7929C138.451 15.7479 138.415 15.6988 138.371 15.6652C138.331 15.6255 138.285 15.5995 138.243 15.5721C138.199 15.5513 138.158 15.5298 138.119 15.5188C138.081 15.5043 138.045 15.4986 138.016 15.4911C137.958 15.4803 137.923 15.4802 137.923 15.4802L137.922 15.4507Z" fill="#FF0084"/>
<path d="M133.078 7.70623C133.078 7.70623 136.141 5.78645 136.384 8.90967C136.384 8.90967 138.096 9.07794 138.111 10.9339C138.111 10.9339 139.781 11.4889 139.388 12.2977C138.995 13.1065 138.224 13.6228 138.804 13.9115C139.385 14.2003 139.869 14.226 139.881 14.464C139.892 14.702 138.473 18.6031 137.762 19.2023C137.051 19.8015 135.856 20.1069 134.778 19.8202C134.778 19.8202 131.973 22.9238 128.661 18.7573C128.661 18.7573 121.948 17.1674 124.64 12.7499C124.64 12.7499 123.752 8.14956 127.768 7.67633C131.783 7.20292 131.27 6.4457 133.078 7.70623Z" fill="white"/>
<path d="M133.448 9.2289C133.448 9.2289 133.483 9.19127 133.551 9.13313C133.585 9.10545 133.626 9.06962 133.677 9.03542C133.727 8.99857 133.785 8.96172 133.85 8.92199C133.915 8.88419 133.987 8.84365 134.065 8.80692C134.144 8.76995 134.228 8.73382 134.317 8.70406C134.405 8.66911 134.499 8.64682 134.594 8.62143C134.69 8.59849 134.789 8.58437 134.887 8.56714C134.986 8.5575 135.086 8.54411 135.184 8.53774C135.281 8.53498 135.379 8.53022 135.471 8.5381C135.563 8.55077 135.651 8.56539 135.734 8.58493C135.815 8.60611 135.89 8.63432 135.959 8.6597C136.098 8.70669 136.219 8.78096 136.293 8.82495C136.366 8.87046 136.421 8.90701 136.421 8.90701L136.411 8.93506C136.411 8.93506 136.344 8.93124 136.259 8.92635C136.216 8.92427 136.158 8.91696 136.1 8.9107C136.071 8.90896 136.038 8.90026 136.005 8.89896C135.973 8.89733 135.937 8.89509 135.902 8.89141C135.868 8.88826 135.83 8.8846 135.793 8.88113C135.756 8.87701 135.718 8.8692 135.678 8.86752C135.598 8.86501 135.516 8.85645 135.431 8.84512C135.346 8.83544 135.258 8.82865 135.169 8.81495C135.079 8.80494 134.987 8.8075 134.895 8.80308C134.803 8.80975 134.71 8.81319 134.619 8.82525C134.529 8.84061 134.439 8.84906 134.353 8.87166C134.311 8.88187 134.268 8.88943 134.227 8.90149C134.186 8.91367 134.146 8.92566 134.107 8.93738C134.029 8.96122 133.956 8.9895 133.89 9.0164C133.824 9.04521 133.763 9.07222 133.711 9.10061C133.658 9.12674 133.615 9.15491 133.577 9.17563C133.504 9.22057 133.466 9.25088 133.466 9.25088L133.448 9.2289Z" fill="#FF0084"/>
<path d="M134.234 8.81043C134.234 8.81043 134.254 8.8269 134.29 8.85578C134.308 8.87039 134.33 8.88748 134.355 8.91035C134.356 8.91089 134.368 8.92689 134.367 8.94263C134.366 8.95933 134.364 8.96968 134.355 8.97355C134.346 8.98049 134.324 8.98443 134.311 8.97691C134.305 8.97435 134.299 8.96936 134.298 8.96824L134.295 8.96627C134.288 8.96101 134.281 8.95552 134.274 8.94999C134.259 8.93881 134.244 8.92721 134.229 8.91499C134.103 8.81831 133.942 8.68407 133.784 8.54541C133.706 8.47567 133.617 8.4177 133.548 8.34779C133.48 8.27638 133.428 8.19838 133.387 8.12705C133.347 8.05488 133.317 7.99086 133.301 7.94144C133.284 7.893 133.278 7.86144 133.278 7.86144L133.298 7.84005C133.298 7.84005 133.328 7.84663 133.374 7.86478C133.42 7.88204 133.481 7.91325 133.549 7.95528C133.617 7.99831 133.691 8.05347 133.758 8.12472C133.825 8.19754 133.88 8.29176 133.946 8.37386C134.011 8.45735 134.078 8.53946 134.137 8.61949C134.198 8.69819 134.252 8.77379 134.3 8.83763C134.311 8.85351 134.323 8.86871 134.334 8.88309C134.339 8.8901 134.344 8.89697 134.349 8.9036L134.351 8.9061C134.351 8.9061 134.347 8.90274 134.343 8.90153C134.333 8.89671 134.314 8.90325 134.308 8.9129C134.305 8.92209 134.296 8.92531 134.294 8.93973C134.291 8.95211 134.3 8.9648 134.299 8.9623C134.282 8.93555 134.266 8.91209 134.253 8.8929C134.228 8.85394 134.213 8.83162 134.213 8.83162L134.234 8.81043Z" fill="#FF0084"/>
<path d="M130.178 7.35877C130.054 7.43991 129.938 7.53634 129.83 7.64018C129.722 7.74433 129.622 7.85808 129.535 7.98146C129.448 8.10458 129.374 8.23755 129.319 8.37832C129.264 8.51866 129.231 8.66706 129.22 8.81594L129.219 8.82607L129.212 8.83455C128.956 9.1291 128.739 9.46447 128.557 9.81421C128.375 10.1648 128.231 10.5364 128.137 10.9189C128.042 11.3013 128.003 11.6951 128.017 12.0834C128.03 12.4748 128.079 12.8617 128.169 13.2359C128.259 13.6096 128.391 13.9698 128.573 14.2986C128.753 14.6277 128.983 14.9246 129.254 15.1721C129.524 15.4201 129.835 15.618 130.168 15.764C130.209 15.7826 130.251 15.8007 130.293 15.8166C130.334 15.8317 130.383 15.854 130.413 15.8599C130.429 15.8639 130.443 15.8633 130.444 15.8625C130.445 15.8597 130.432 15.872 130.435 15.8705C130.439 15.8633 130.439 15.816 130.431 15.7765C130.396 15.6053 130.316 15.4266 130.239 15.2554C130.079 14.9111 129.897 14.5755 129.713 14.2412L129.154 13.2404C129.061 13.0727 128.968 12.9046 128.88 12.7317C128.836 12.6448 128.792 12.5578 128.753 12.4631C128.743 12.4382 128.735 12.4173 128.724 12.3861L128.703 12.3157C128.688 12.2627 128.677 12.2118 128.667 12.1608C128.594 11.7503 128.64 11.3279 128.753 10.9295C128.868 10.5307 129.059 10.1547 129.302 9.82361C129.423 9.65784 129.557 9.50254 129.701 9.35877C129.736 9.32203 129.774 9.28787 129.811 9.25298L129.838 9.22687L129.856 9.21081L129.87 9.19898L129.926 9.15157C129.961 9.12031 130.009 9.08767 130.052 9.05593C130.096 9.0225 130.142 8.99948 130.187 8.97105C130.371 8.86666 130.579 8.80476 130.786 8.79174C130.994 8.78113 131.198 8.81904 131.386 8.8903C131.573 8.96186 131.745 9.06329 131.902 9.18115C132.061 9.30104 132.201 9.43025 132.336 9.58995L132.175 9.5501L132.388 9.46442C132.461 9.44001 132.532 9.41342 132.605 9.3909C132.679 9.37114 132.752 9.34628 132.827 9.33168C132.901 9.31535 132.976 9.29848 133.052 9.28857C133.127 9.2752 133.203 9.26856 133.279 9.26199C133.355 9.25596 133.432 9.2545 133.508 9.25465C133.584 9.25664 133.66 9.25925 133.736 9.2685C133.812 9.27456 133.887 9.28941 133.962 9.30349L134.074 9.32899L134.184 9.36123C134.256 9.38509 134.328 9.41052 134.397 9.44193C134.467 9.47184 134.536 9.506 134.602 9.54411C134.668 9.58122 134.733 9.62208 134.795 9.66731C134.857 9.71127 134.917 9.75982 134.974 9.81028C135.032 9.86067 135.086 9.91457 135.139 9.97057C135.192 10.0268 135.241 10.086 135.289 10.1476C135.336 10.211 135.378 10.2707 135.422 10.3483L135.327 10.2838C135.635 10.3207 135.944 10.383 136.235 10.5167C136.38 10.5831 136.519 10.6692 136.642 10.7813C136.765 10.8923 136.868 11.0335 136.935 11.1925C137.004 11.3516 137.036 11.5262 137.038 11.6986C137.04 11.8712 137.015 12.0415 136.974 12.2053C136.934 12.3694 136.877 12.5275 136.81 12.6798C136.777 12.7561 136.741 12.8309 136.702 12.9044C136.663 12.9783 136.623 13.0487 136.576 13.1219L136.489 12.9946L136.652 12.9399C136.705 12.9184 136.758 12.8984 136.811 12.8757C136.863 12.8507 136.916 12.8295 136.967 12.8016C137.017 12.7746 137.069 12.7483 137.117 12.717C137.167 12.6881 137.215 12.655 137.262 12.6218C137.31 12.5885 137.355 12.5524 137.4 12.5155C137.444 12.4776 137.489 12.4392 137.529 12.397C137.572 12.3568 137.61 12.3117 137.648 12.2672C137.686 12.222 137.722 12.1748 137.755 12.1259C137.788 12.0767 137.82 12.0266 137.849 11.9742C137.878 11.9223 137.905 11.8687 137.928 11.8137C137.953 11.759 137.974 11.703 137.993 11.6458C138.031 11.5319 138.059 11.4143 138.077 11.2952C138.095 11.1764 138.104 11.0547 138.097 10.9363L138.125 10.9312C138.14 11.0535 138.138 11.1763 138.127 11.2995C138.116 11.4227 138.092 11.5453 138.059 11.6654C138.042 11.7255 138.023 11.785 138 11.8434C137.978 11.9021 137.952 11.9595 137.924 12.0156C137.897 12.0722 137.866 12.1265 137.834 12.1804C137.801 12.2338 137.765 12.2855 137.727 12.3356C137.576 12.5351 137.39 12.7071 137.184 12.8401C137.133 12.8751 137.08 12.905 137.027 12.9356C136.975 12.9671 136.919 12.9916 136.865 13.02C136.811 13.0461 136.755 13.0691 136.7 13.0939L136.531 13.1579L136.32 13.2378L136.443 13.0305C136.481 12.9668 136.519 12.8953 136.553 12.8254C136.587 12.7547 136.619 12.683 136.647 12.6102C136.705 12.4648 136.753 12.3156 136.785 12.1651C136.849 11.8655 136.849 11.5537 136.733 11.2991C136.62 11.0428 136.391 10.8628 136.132 10.7521C135.872 10.639 135.582 10.5857 135.29 10.5577L135.23 10.5519L135.195 10.4932C135.165 10.443 135.122 10.383 135.081 10.3307C135.038 10.2774 134.993 10.2256 134.945 10.1767C134.897 10.1279 134.847 10.081 134.795 10.0374C134.743 9.99377 134.689 9.95173 134.633 9.91422C134.577 9.87586 134.52 9.83961 134.461 9.8073C134.403 9.77404 134.342 9.74433 134.28 9.71838C134.219 9.69097 134.155 9.66912 134.091 9.64846L133.995 9.62051L133.896 9.5987C133.83 9.58693 133.763 9.57389 133.696 9.56914C133.628 9.56121 133.56 9.55949 133.492 9.55804C133.424 9.55847 133.356 9.56001 133.287 9.56597C133.219 9.57243 133.15 9.57858 133.082 9.59145C133.014 9.60063 132.945 9.61673 132.877 9.63202C132.809 9.64585 132.742 9.66863 132.674 9.6858C132.606 9.7059 132.54 9.73014 132.472 9.752L132.273 9.83015L132.178 9.86768L132.112 9.79041C131.889 9.52617 131.597 9.291 131.28 9.16605C131.121 9.10286 130.954 9.07018 130.786 9.0759C130.619 9.08454 130.453 9.13016 130.3 9.21444C130.263 9.23758 130.222 9.25709 130.188 9.28267C130.152 9.30831 130.119 9.32794 130.08 9.36197L130.023 9.40854L130.009 9.42017L130.005 9.42307C130.012 9.41731 130.005 9.42319 130.006 9.42265L130 9.42861L129.973 9.45265C129.939 9.48475 129.903 9.51619 129.87 9.54991C129.734 9.68217 129.607 9.82484 129.492 9.97702C129.263 10.281 129.082 10.6257 128.971 10.9914C128.862 11.3557 128.818 11.7458 128.879 12.1087C128.887 12.154 128.896 12.1983 128.907 12.2393L128.927 12.3083C128.932 12.3232 128.941 12.3474 128.949 12.3672C128.982 12.4511 129.023 12.5366 129.065 12.6212C129.15 12.7905 129.24 12.9588 129.33 13.1267L129.88 14.1347C130.061 14.473 130.241 14.8125 130.401 15.1675C130.478 15.3475 130.559 15.5228 130.601 15.7357C130.607 15.7915 130.621 15.8467 130.591 15.9344C130.576 15.9798 130.523 16.0288 130.477 16.0367C130.432 16.0468 130.399 16.0409 130.37 16.0345C130.308 16.0188 130.274 15.9995 130.227 15.9821C130.183 15.965 130.14 15.9457 130.097 15.9257C129.752 15.7692 129.429 15.5581 129.149 15.2953C128.869 15.0331 128.634 14.7202 128.45 14.3761C128.267 14.0316 128.136 13.6573 128.049 13.272C127.962 12.8865 127.918 12.4894 127.911 12.092C127.902 11.6918 127.949 11.2878 128.052 10.8983C128.153 10.5086 128.304 10.1325 128.494 9.77939C128.685 9.42659 128.907 9.09274 129.174 8.7948L129.165 8.81356C129.179 8.65837 129.216 8.50441 129.275 8.3603C129.333 8.2156 129.412 8.08034 129.503 7.95583C129.593 7.8312 129.697 7.71708 129.808 7.61322C129.919 7.50951 130.037 7.41425 130.164 7.33317L130.178 7.35877Z" fill="#FF0084"/>
<path d="M124.654 12.7478C124.654 12.7478 124.661 12.7847 124.685 12.8463C124.697 12.8771 124.715 12.9129 124.734 12.9539C124.756 12.9938 124.78 13.0389 124.811 13.0847C124.84 13.1322 124.878 13.1786 124.915 13.2292C124.958 13.2759 124.996 13.3299 125.046 13.3775C125.093 13.4275 125.142 13.477 125.196 13.525C125.247 13.5751 125.303 13.6211 125.359 13.6667C125.472 13.758 125.597 13.8324 125.708 13.9093C125.763 13.9494 125.812 13.9928 125.861 14.0326C125.91 14.0723 125.955 14.1119 125.995 14.1509C126.036 14.1897 126.073 14.2252 126.106 14.2567C126.139 14.2894 126.168 14.319 126.19 14.345C126.236 14.3961 126.259 14.4303 126.259 14.4303L126.246 14.4566C126.246 14.4566 126.205 14.4532 126.139 14.4385C126.105 14.4315 126.066 14.4212 126.021 14.408C125.976 14.3937 125.924 14.3796 125.873 14.355C125.82 14.3325 125.764 14.3057 125.707 14.2749C125.647 14.2473 125.591 14.2056 125.533 14.1637C125.475 14.1204 125.419 14.0708 125.367 14.0144C125.314 13.959 125.257 13.9071 125.207 13.8473C125.154 13.7909 125.101 13.7346 125.053 13.6738C125.003 13.6161 124.959 13.5539 124.918 13.4931C124.875 13.4343 124.841 13.37 124.806 13.3127C124.776 13.251 124.745 13.1955 124.724 13.1392C124.699 13.0849 124.683 13.0322 124.667 12.9864C124.654 12.9392 124.643 12.8983 124.638 12.8633C124.626 12.7942 124.626 12.7523 124.626 12.7523L124.654 12.7478Z" fill="#FF0084"/>
<path d="M128.423 18.6781C128.915 18.715 129.408 18.7463 129.901 18.7593L130.27 18.7668C130.393 18.7685 130.516 18.7681 130.639 18.7657C130.762 18.7638 130.884 18.7576 131.006 18.7495L131.187 18.7314C131.247 18.7239 131.305 18.7121 131.363 18.7029L131.395 18.6978L131.425 18.7117C131.489 18.7413 131.558 18.769 131.625 18.7974C131.692 18.8263 131.762 18.8504 131.83 18.877C131.966 18.931 132.106 18.9758 132.245 19.0225C132.383 19.0712 132.526 19.1071 132.666 19.1525L132.875 19.2193C132.946 19.24 133.016 19.2601 133.086 19.2825C133.156 19.3047 133.227 19.3257 133.296 19.3496C133.366 19.3733 133.435 19.3967 133.506 19.4155C133.648 19.4555 133.788 19.4997 133.929 19.5432C134 19.5657 134.07 19.5901 134.141 19.6077L134.355 19.6688C134.496 19.7114 134.639 19.7545 134.78 19.8056L134.775 19.8349C134.624 19.8319 134.475 19.8208 134.325 19.8094L134.1 19.7894C134.025 19.783 133.951 19.7699 133.877 19.7585C133.73 19.7332 133.582 19.7084 133.435 19.6797C133.287 19.6522 133.143 19.6121 132.998 19.5746C132.926 19.5561 132.854 19.5351 132.782 19.5147C132.71 19.4943 132.64 19.4668 132.569 19.443L132.358 19.3663C132.288 19.3409 132.218 19.3126 132.149 19.2829C132.012 19.2235 131.872 19.1702 131.736 19.1058C131.599 19.0443 131.465 18.9816 131.328 18.9106L131.39 18.9194C131.326 18.9264 131.26 18.9357 131.196 18.9404L131.006 18.9491C130.88 18.9506 130.755 18.9502 130.63 18.9453C130.506 18.9411 130.381 18.9348 130.258 18.9263C130.134 18.9183 130.01 18.9085 129.887 18.8963C129.395 18.8474 128.905 18.7869 128.419 18.7074L128.423 18.6781Z" fill="#FF0084"/>
<path d="M129.691 17.1174C129.691 17.1174 129.691 17.1277 129.694 17.1461C129.699 17.1626 129.707 17.1866 129.716 17.2173C129.732 17.2466 129.75 17.2821 129.771 17.323C129.794 17.3624 129.829 17.4024 129.861 17.4478C129.879 17.4697 129.894 17.4947 129.915 17.5162C129.937 17.5377 129.959 17.56 129.982 17.5829C130.028 17.628 130.073 17.6781 130.124 17.7261C130.178 17.7707 130.234 17.8168 130.291 17.8637C130.349 17.9098 130.402 17.9614 130.464 18.0039C130.527 18.0451 130.589 18.0876 130.652 18.1267C130.714 18.1658 130.774 18.2058 130.83 18.2483C130.883 18.294 130.94 18.3311 130.989 18.3748C131.039 18.4162 131.085 18.4574 131.126 18.4977C131.293 18.6555 131.385 18.7982 131.385 18.7982L131.369 18.8238C131.369 18.8238 131.209 18.7959 130.998 18.698C130.945 18.6743 130.889 18.6464 130.83 18.6144C130.772 18.5831 130.71 18.5498 130.654 18.5025C130.598 18.456 130.542 18.4043 130.487 18.3501C130.432 18.2959 130.374 18.2435 130.318 18.1899C130.26 18.1382 130.209 18.0753 130.156 18.0197C130.104 17.9623 130.053 17.9058 130.004 17.851C129.959 17.7913 129.917 17.7312 129.878 17.675C129.859 17.6468 129.84 17.6194 129.822 17.5929C129.804 17.5665 129.792 17.5356 129.778 17.509C129.751 17.4536 129.723 17.4065 129.706 17.3593C129.692 17.311 129.679 17.269 129.669 17.2344C129.664 17.196 129.662 17.1662 129.661 17.1465C129.662 17.1276 129.663 17.1175 129.663 17.1175L129.691 17.1174Z" fill="#FF0084"/>
<path d="M130.348 15.9479C130.348 15.9479 130.341 15.9499 130.328 15.9575C130.316 15.9645 130.3 15.9794 130.304 15.9952C130.305 16.0118 130.325 16.0394 130.353 16.0644C130.381 16.0901 130.417 16.1161 130.459 16.1415C130.627 16.2435 130.873 16.3485 131.119 16.4509C131.242 16.5024 131.373 16.5365 131.487 16.5869C131.601 16.6391 131.701 16.7015 131.786 16.7596C131.87 16.8193 131.938 16.8732 131.983 16.9168C132.029 16.9593 132.054 16.9887 132.054 16.9887L132.042 17.0162C132.042 17.0162 131.893 17.0258 131.692 16.9795C131.591 16.9572 131.477 16.9233 131.361 16.8703C131.246 16.8153 131.134 16.7342 131.016 16.6658C130.899 16.5955 130.782 16.5247 130.676 16.4498C130.57 16.3765 130.474 16.3007 130.397 16.2274C130.359 16.191 130.325 16.1547 130.298 16.1172C130.273 16.0799 130.249 16.0415 130.255 15.9934C130.258 15.9702 130.272 15.951 130.284 15.942C130.297 15.9325 130.308 15.9277 130.317 15.9249C130.334 15.9194 130.344 15.919 130.344 15.919L130.348 15.9479Z" fill="#FF0084"/>
<path d="M130.044 14.6292C130.044 14.6292 130.355 14.716 130.907 14.8375C131.183 14.8978 131.52 14.9666 131.908 15.0309C132.296 15.0943 132.737 15.1559 133.221 15.1812C133.463 15.193 133.716 15.1957 133.975 15.1714C134.105 15.1593 134.236 15.1399 134.365 15.1066C134.494 15.0732 134.62 15.0262 134.733 14.9498L134.781 14.919C134.799 14.9086 134.811 14.8994 134.841 14.8872C134.846 14.8856 134.849 14.8835 134.864 14.8818C134.87 14.8453 134.963 14.9469 134.933 14.9731C134.926 14.9937 134.922 14.9969 134.919 15.0018L134.911 15.0124C134.902 15.0234 134.895 15.0311 134.888 15.0385C134.873 15.0534 134.859 15.0666 134.845 15.0797C134.788 15.1315 134.73 15.1799 134.672 15.2281C134.555 15.3241 134.435 15.4177 134.313 15.511C134.068 15.6972 133.814 15.8807 133.551 16.0606C133.025 16.4177 132.469 16.7708 131.859 17.0461C131.706 17.1138 131.549 17.1754 131.386 17.2237C131.224 17.2709 131.051 17.3078 130.874 17.3002C130.552 17.2903 130.224 17.2876 129.896 17.2603C129.568 17.2338 129.24 17.1842 128.921 17.0992C128.603 17.0122 128.293 16.8922 128.006 16.7309C127.429 16.411 126.955 15.9337 126.603 15.4032C126.253 14.8685 126.008 14.2941 125.835 13.7297C125.75 13.4409 125.692 13.1531 125.671 12.8646C125.65 12.5769 125.67 12.2906 125.734 12.0236C125.796 11.756 125.909 11.5114 126.049 11.3066C126.188 11.101 126.353 10.9342 126.519 10.7995C126.854 10.53 127.19 10.3837 127.467 10.2882C127.746 10.1937 127.97 10.1472 128.123 10.1232C128.276 10.0993 128.358 10.0947 128.358 10.0947L128.36 10.1242C128.36 10.1242 128.279 10.1363 128.13 10.1743C127.981 10.2131 127.763 10.2731 127.498 10.3865C127.365 10.4427 127.222 10.5135 127.072 10.6018C126.922 10.6897 126.766 10.7961 126.617 10.9302C126.467 11.0639 126.324 11.2251 126.208 11.4165C126.091 11.6076 126.002 11.8284 125.953 12.0681C125.854 12.5491 125.922 13.0961 126.093 13.6276C126.112 13.6928 126.14 13.7638 126.163 13.8323C126.188 13.8986 126.214 13.9653 126.24 14.0325C126.289 14.1696 126.351 14.3018 126.41 14.4375C126.534 14.7055 126.678 14.968 126.844 15.2192C127.171 15.7251 127.608 16.1728 128.139 16.4859C128.404 16.6427 128.693 16.7621 128.993 16.8515C129.294 16.9386 129.607 16.994 129.925 17.0258C130.243 17.0579 130.566 17.0663 130.891 17.0817C131.038 17.091 131.19 17.0623 131.342 17.0207C131.494 16.9785 131.645 16.9223 131.793 16.8594C132.386 16.6033 132.943 16.2629 133.469 15.9179C133.731 15.744 133.986 15.5661 134.231 15.3856C134.353 15.2952 134.474 15.2043 134.59 15.112C134.648 15.0659 134.705 15.0194 134.759 14.9723L134.797 14.9374L134.811 14.9226C134.812 14.9219 134.813 14.921 134.812 14.9222C134.812 14.9233 134.81 14.9224 134.805 14.9386C134.777 14.9595 134.866 15.0576 134.867 15.0225C134.877 15.0213 134.876 15.0207 134.878 15.0204C134.874 15.0215 134.855 15.0315 134.842 15.0394L134.798 15.0666C134.668 15.151 134.524 15.2002 134.387 15.2321C134.249 15.2644 134.112 15.2814 133.979 15.2909C133.711 15.3098 133.455 15.3012 133.211 15.2836C132.722 15.2469 132.281 15.175 131.893 15.1024C131.505 15.0291 131.17 14.9525 130.895 14.8858C130.345 14.7515 130.035 14.6575 130.035 14.6575L130.044 14.6292Z" fill="#FF0084"/>
<path d="M136.497 13.0699C136.497 13.0699 136.521 13.013 136.561 12.9136C136.582 12.8639 136.608 12.8038 136.64 12.7356C136.656 12.7014 136.673 12.6652 136.694 12.6269C136.705 12.6077 136.715 12.5884 136.73 12.5666C136.736 12.5602 136.737 12.5566 136.746 12.548C136.752 12.5434 136.751 12.5417 136.762 12.5351C136.78 12.5292 136.795 12.5178 136.825 12.5442C136.83 12.5498 136.835 12.5586 136.836 12.5623L136.838 12.5689C136.838 12.5734 136.839 12.5781 136.84 12.5827C136.84 12.5935 136.839 12.5933 136.839 12.5992C136.839 12.609 136.837 12.6154 136.836 12.6223C136.815 12.7241 136.78 12.8152 136.743 12.9167C136.705 13.017 136.659 13.1198 136.611 13.2255C136.513 13.4365 136.397 13.6568 136.269 13.8704C136.205 13.9778 136.137 14.0826 136.069 14.1856C136 14.2886 135.927 14.3868 135.848 14.4757C135.769 14.5635 135.686 14.6435 135.6 14.7108C135.516 14.7793 135.43 14.8372 135.347 14.8829C135.181 14.9758 135.027 15.019 134.92 15.0296C134.867 15.0357 134.825 15.0365 134.797 15.0341C134.769 15.0321 134.754 15.0311 134.754 15.0311L134.751 15.0018C134.751 15.0018 134.807 14.9775 134.895 14.9282C134.939 14.9037 134.991 14.8706 135.047 14.8313C135.104 14.7911 135.165 14.7422 135.229 14.6869C135.293 14.6308 135.361 14.5672 135.429 14.4969C135.497 14.4252 135.568 14.3497 135.641 14.2688C135.715 14.1891 135.791 14.1053 135.867 14.018C135.943 13.9307 136.016 13.8365 136.087 13.7408C136.227 13.548 136.356 13.3448 136.469 13.1488C136.525 13.0509 136.576 12.9541 136.623 12.8622C136.669 12.7713 136.714 12.6791 136.739 12.6031L136.742 12.5927C136.742 12.5927 136.743 12.5872 136.743 12.5925C136.743 12.5943 136.743 12.5963 136.744 12.598L136.745 12.6005C136.746 12.6031 136.749 12.611 136.754 12.6157C136.781 12.636 136.79 12.6287 136.802 12.6241C136.809 12.6201 136.805 12.6228 136.806 12.6216C136.807 12.6198 136.802 12.6258 136.8 12.6275C136.789 12.6403 136.776 12.6571 136.765 12.6734C136.742 12.7062 136.722 12.7397 136.702 12.7709C136.665 12.8347 136.632 12.8903 136.605 12.9361C136.552 13.0292 136.522 13.0823 136.522 13.0823L136.497 13.0699Z" fill="#FF0084"/>
<path d="M137.648 12.3315C137.648 12.3315 137.687 12.3124 137.761 12.2848C137.836 12.2577 137.948 12.2203 138.095 12.1997C138.169 12.19 138.252 12.185 138.341 12.1966C138.43 12.2088 138.528 12.2368 138.613 12.3054C138.698 12.373 138.763 12.4782 138.796 12.5981C138.83 12.7182 138.837 12.8502 138.83 12.985C138.823 13.1193 138.8 13.2612 138.774 13.3996C138.748 13.5398 138.721 13.6847 138.693 13.8336C138.633 14.1315 138.561 14.4479 138.438 14.7653C138.317 15.0818 138.13 15.3951 137.879 15.6499C137.629 15.9068 137.33 16.1045 137.022 16.2691L136.789 16.3867C136.71 16.4232 136.63 16.4551 136.551 16.4894C136.394 16.5608 136.233 16.613 136.075 16.673C135.76 16.7865 135.451 16.8859 135.151 16.9878C134.851 17.0847 134.557 17.176 134.271 17.2437C134.2 17.2608 134.129 17.2777 134.058 17.2901C133.988 17.3038 133.919 17.3181 133.849 17.3257C133.78 17.3345 133.712 17.3437 133.644 17.3455C133.577 17.3493 133.511 17.3538 133.446 17.3506C133.187 17.3471 132.957 17.3062 132.76 17.2576C132.562 17.2108 132.411 17.1132 132.274 17.0674C132.136 17.0233 132.046 16.9404 131.973 16.9139C131.9 16.8875 131.861 16.8734 131.861 16.8734L131.853 16.8903C131.853 16.8903 131.885 16.9197 131.962 16.932C132.038 16.9452 132.145 16.9758 132.287 17.0001C132.429 17.0228 132.599 17.0576 132.796 17.0814C132.993 17.1082 133.214 17.1253 133.452 17.1112C133.69 17.0963 133.946 17.0435 134.218 16.9647C134.49 16.8842 134.778 16.7902 135.078 16.6927C135.379 16.5985 135.693 16.5031 136.008 16.4083C136.163 16.3574 136.322 16.3136 136.475 16.2503C136.552 16.2203 136.63 16.1925 136.706 16.1603L136.932 16.0565C137.229 15.9097 137.514 15.7332 137.75 15.505C137.987 15.2786 138.166 14.9993 138.29 14.7034C138.415 14.4077 138.493 14.1003 138.564 13.8082C138.598 13.6609 138.63 13.5177 138.662 13.3792C138.694 13.2394 138.72 13.1099 138.732 12.9819C138.744 12.8551 138.742 12.7326 138.716 12.6245C138.691 12.5164 138.639 12.4253 138.569 12.3635C138.499 12.3012 138.412 12.2714 138.33 12.2564C138.248 12.2418 138.169 12.243 138.098 12.2492C137.956 12.2627 137.845 12.2944 137.77 12.3177C137.696 12.3415 137.657 12.3583 137.657 12.3583L137.648 12.3315Z" fill="#FF0084"/>
<path d="M130.581 17.1839C130.581 17.1839 130.571 17.2118 130.574 17.2686C130.576 17.3239 130.596 17.406 130.657 17.4862C130.717 17.5667 130.815 17.6419 130.942 17.7008C131.068 17.7609 131.222 17.8056 131.394 17.8352C131.565 17.8674 131.758 17.889 131.958 17.9131C132.16 17.9353 132.372 17.9584 132.593 17.9761C133.034 18.0122 133.506 18.0342 133.976 18.0214C134.211 18.0128 134.446 17.997 134.672 17.9604C134.895 17.9217 135.119 17.8742 135.292 17.7808C135.335 17.7592 135.374 17.7337 135.406 17.7069C135.451 17.6703 135.495 17.634 135.539 17.5981C135.59 17.5632 135.641 17.5251 135.69 17.495C135.739 17.4663 135.788 17.4358 135.835 17.4112C136.026 17.3066 136.205 17.227 136.355 17.1383C136.505 17.0498 136.625 16.9509 136.708 16.8384C136.754 16.7855 136.78 16.7237 136.813 16.6702C136.834 16.6118 136.862 16.5593 136.875 16.5078C136.889 16.4559 136.902 16.4095 136.913 16.3693C136.92 16.3276 136.927 16.292 136.931 16.2634C136.942 16.205 136.947 16.174 136.947 16.174L136.975 16.173C136.975 16.173 136.977 16.2047 136.98 16.2641C136.982 16.2943 136.983 16.3313 136.985 16.3751C136.982 16.4194 136.978 16.4702 136.973 16.5272C136.968 16.5846 136.949 16.6472 136.935 16.717C136.908 16.783 136.887 16.8598 136.842 16.9313C136.761 17.0793 136.627 17.2221 136.468 17.3366C136.311 17.4538 136.132 17.5512 135.959 17.6599C135.872 17.7149 135.788 17.7741 135.711 17.8321C135.67 17.8674 135.625 17.9077 135.584 17.9408C135.529 17.9882 135.47 18.0258 135.412 18.056C135.174 18.1719 134.933 18.2112 134.691 18.2357C134.45 18.2577 134.208 18.2631 133.967 18.2583C133.486 18.2488 133.011 18.2042 132.569 18.1471C132.348 18.1181 132.135 18.0874 131.934 18.0519C131.733 18.0152 131.545 17.9828 131.37 17.9388C131.195 17.8977 131.038 17.8418 130.908 17.7702C130.778 17.7002 130.676 17.6124 130.616 17.5186C130.555 17.4254 130.539 17.3323 130.54 17.2712C130.541 17.2402 130.544 17.2166 130.547 17.2006C130.551 17.1838 130.554 17.1766 130.554 17.1766L130.581 17.1839Z" fill="#FF0084"/>
<path d="M132.121 13.5671C131.895 13.5821 131.67 13.5829 131.445 13.5743C131.216 13.565 130.988 13.5447 130.762 13.5083C130.536 13.4723 130.312 13.4216 130.095 13.3437C129.986 13.3069 129.881 13.2585 129.778 13.206C129.676 13.1499 129.576 13.0894 129.486 13.012C129.395 12.9381 129.313 12.8483 129.245 12.7477C129.174 12.6486 129.128 12.5312 129.091 12.4121C129.08 12.351 129.062 12.2884 129.057 12.2278C129.049 12.169 129.042 12.1084 129.037 12.046C129.028 11.9226 129.024 11.7981 129.041 11.6687C129.049 11.6043 129.066 11.5382 129.093 11.4734C129.119 11.4085 129.164 11.3453 129.222 11.2997C129.341 11.2077 129.476 11.1974 129.592 11.1893C129.71 11.183 129.823 11.1858 129.929 11.1708C130.036 11.1576 130.133 11.1229 130.209 11.0593L130.178 11.1213C130.186 11.0178 130.201 10.9218 130.221 10.8233C130.241 10.7255 130.265 10.6282 130.296 10.5323C130.357 10.3411 130.44 10.1508 130.57 9.98565C130.634 9.90342 130.711 9.82839 130.798 9.76828C130.884 9.70733 130.983 9.66402 131.083 9.64073C131.183 9.61663 131.285 9.60932 131.383 9.61865C131.482 9.62461 131.576 9.64794 131.668 9.67386L131.928 9.75661C132.014 9.78612 132.101 9.81409 132.187 9.84646C132.273 9.87666 132.358 9.91218 132.444 9.94763L132.571 10.0068L132.697 10.0749C132.779 10.1267 132.862 10.1821 132.933 10.2582C133.008 10.3299 133.066 10.4239 133.109 10.5202C133.153 10.6178 133.176 10.719 133.196 10.8178C133.215 10.9168 133.227 11.0144 133.238 11.1112L133.025 11.0489C133.146 10.9004 133.271 10.7688 133.41 10.6428C133.55 10.519 133.699 10.4016 133.881 10.3196C133.973 10.2798 134.074 10.2491 134.186 10.2488C134.297 10.2479 134.415 10.2915 134.5 10.3655C134.628 10.4769 134.759 10.5768 134.894 10.6884C135.026 10.7996 135.16 10.9151 135.281 11.051C135.401 11.1862 135.513 11.3389 135.591 11.5218C135.629 11.6133 135.657 11.7119 135.672 11.8154C135.685 11.9192 135.681 12.027 135.664 12.1312C135.627 12.3418 135.527 12.5267 135.413 12.6844L135.392 12.7144L135.368 12.7436L135.326 12.7962L135.242 12.9014C135.181 12.9713 135.12 13.0432 135.057 13.111C134.931 13.2447 134.8 13.3731 134.662 13.4921C134.594 13.5527 134.524 13.611 134.453 13.6666C134.383 13.7244 134.308 13.7764 134.235 13.8297C134.086 13.9322 133.933 14.0284 133.773 14.1104C133.614 14.195 133.448 14.2652 133.275 14.3158C133.104 14.3643 132.92 14.3993 132.738 14.3573L132.676 14.342L132.61 14.3163C132.565 14.3012 132.529 14.2733 132.489 14.2516C132.415 14.1985 132.351 14.1336 132.298 14.0601C132.199 13.9141 132.142 13.7437 132.121 13.5671ZM132.147 13.5495C132.183 13.7196 132.257 13.8805 132.359 14.008C132.413 14.0702 132.475 14.1222 132.542 14.1624C132.578 14.1774 132.613 14.2002 132.649 14.2079L132.703 14.2244L132.765 14.2341C132.918 14.2536 133.081 14.2186 133.237 14.1624C133.394 14.1059 133.547 14.0305 133.693 13.9411C133.841 13.8543 133.982 13.7537 134.119 13.6475C134.255 13.5407 134.389 13.4299 134.514 13.3083C134.642 13.1897 134.761 13.061 134.877 12.9311C134.934 12.8656 134.988 12.7992 135.043 12.7327L135.125 12.6251L135.166 12.5713L135.184 12.5472L135.201 12.5216C135.294 12.3863 135.364 12.2396 135.387 12.0917C135.413 11.9441 135.39 11.7954 135.329 11.6561C135.268 11.5164 135.174 11.3869 135.065 11.2682C134.957 11.1491 134.836 11.0365 134.709 10.9284C134.583 10.8207 134.446 10.7126 134.319 10.5978C134.275 10.5609 134.228 10.541 134.169 10.5386C134.109 10.5371 134.041 10.5532 133.973 10.5815C133.834 10.6389 133.697 10.7383 133.569 10.8477C133.441 10.9576 133.316 11.0835 133.207 11.2111L133.019 11.4315L132.995 11.1487C132.986 11.0556 132.977 10.9634 132.963 10.8753C132.947 10.7881 132.929 10.7029 132.897 10.6288C132.866 10.5549 132.827 10.4866 132.771 10.4305C132.719 10.3715 132.651 10.3236 132.581 10.2774L132.47 10.2143L132.353 10.1571C132.272 10.122 132.192 10.0865 132.108 10.0554C132.026 10.0223 131.941 9.99324 131.858 9.9628L131.603 9.87585C131.443 9.82486 131.274 9.79916 131.116 9.83573C130.956 9.86729 130.815 9.96792 130.705 10.1035C130.594 10.2394 130.514 10.4086 130.455 10.5838C130.425 10.6717 130.4 10.7621 130.381 10.8534C130.361 10.9439 130.345 11.039 130.336 11.1273L130.332 11.1668L130.304 11.1893C130.194 11.2784 130.061 11.3182 129.94 11.3306C129.818 11.345 129.702 11.3393 129.591 11.3433C129.482 11.3472 129.374 11.3606 129.301 11.4168C129.227 11.4703 129.187 11.5743 129.17 11.6849C129.152 11.7961 129.152 11.9143 129.158 12.0308C129.161 12.0884 129.166 12.1474 129.174 12.2076C129.178 12.2672 129.192 12.3197 129.201 12.3764C129.232 12.4838 129.269 12.5906 129.332 12.6824C129.392 12.7755 129.464 12.8605 129.549 12.9321C129.631 13.007 129.725 13.0671 129.821 13.1236C129.919 13.1766 130.019 13.2262 130.124 13.2649C130.333 13.3465 130.552 13.4025 130.774 13.4439C130.996 13.4858 131.222 13.5118 131.449 13.5271C131.676 13.5419 131.904 13.5473 132.132 13.5375L132.144 13.537L132.147 13.5495Z" fill="#FF0084"/>
<path d="M132.131 13.567C131.847 13.5323 131.572 13.4522 131.311 13.3347C131.246 13.3052 131.182 13.2726 131.12 13.2374C131.057 13.2022 130.996 13.1633 130.937 13.1228C130.878 13.0807 130.82 13.0367 130.765 12.9888C130.711 12.9402 130.657 12.8904 130.608 12.8348C130.557 12.7815 130.512 12.7219 130.468 12.6616C130.448 12.6305 130.426 12.6 130.406 12.5681L130.35 12.4696C130.317 12.4017 130.282 12.3338 130.258 12.2607C130.23 12.1895 130.211 12.1147 130.191 12.0401C130.177 11.9644 130.158 11.8887 130.152 11.8112L130.14 11.6952L130.137 11.5786C130.132 11.5007 130.14 11.423 130.142 11.345C130.147 11.2673 130.158 11.1902 130.166 11.1125L130.171 11.0674L130.212 11.0419C130.274 11.0037 130.33 10.9727 130.39 10.9437C130.449 10.9134 130.51 10.8888 130.57 10.8623C130.632 10.8396 130.692 10.8143 130.754 10.7947C130.817 10.7763 130.878 10.753 130.941 10.739C131.004 10.7246 131.067 10.7045 131.131 10.6949C131.194 10.6841 131.258 10.67 131.322 10.6622L131.514 10.6409L131.707 10.6338C131.772 10.6293 131.836 10.6361 131.9 10.6384C131.964 10.6418 132.029 10.642 132.092 10.6528L132.283 10.6784C132.346 10.6894 132.408 10.7053 132.47 10.7199C132.533 10.735 132.596 10.7484 132.655 10.7714L132.837 10.8339C132.899 10.8519 132.954 10.8838 133.013 10.9099L133.186 10.9923L133.239 11.0177L133.254 11.0776C133.274 11.1518 133.28 11.2076 133.287 11.2714C133.292 11.3332 133.295 11.3947 133.295 11.456C133.294 11.5174 133.291 11.5787 133.284 11.6393C133.28 11.7002 133.268 11.7602 133.258 11.8202C133.25 11.8805 133.233 11.9389 133.219 11.9979C133.207 12.0573 133.185 12.1139 133.166 12.171L133.136 12.2564L133.1 12.3391C133.075 12.3934 133.056 12.4504 133.026 12.502L132.94 12.6583C132.911 12.7096 132.876 12.7575 132.845 12.8071C132.813 12.8563 132.781 12.9057 132.743 12.9501L132.634 13.0865C132.6 13.1335 132.556 13.172 132.517 13.2143L132.398 13.338C132.314 13.4152 132.228 13.49 132.142 13.5627L132.136 13.5675L132.131 13.567ZM132.128 13.536C132.196 13.4474 132.266 13.3619 132.335 13.2764L132.432 13.1379C132.463 13.0909 132.498 13.0479 132.526 12.9992L132.613 12.8564C132.643 12.81 132.668 12.7598 132.693 12.7109C132.718 12.6615 132.746 12.6137 132.769 12.5634L132.833 12.4117C132.857 12.3624 132.87 12.309 132.889 12.2582L132.916 12.1812L132.936 12.1026C132.95 12.0504 132.964 11.9984 132.973 11.9456C132.982 11.8929 132.995 11.8407 132.999 11.7877C133.005 11.735 133.012 11.6823 133.013 11.6298C133.017 11.5771 133.016 11.525 133.014 11.4731C133.013 11.4214 133.009 11.3697 133.003 11.3198C132.998 11.2715 132.986 11.2163 132.977 11.1824L133.046 11.2677L132.886 11.1929C132.832 11.17 132.781 11.1384 132.725 11.1202L132.56 11.0578C132.505 11.0346 132.448 11.0209 132.391 11.0053C132.334 10.9909 132.278 10.9713 132.221 10.9584L132.047 10.9252C131.99 10.9116 131.93 10.9087 131.872 10.9021C131.813 10.8973 131.754 10.888 131.694 10.8897L131.516 10.8878L131.337 10.8995C131.277 10.9038 131.218 10.9152 131.158 10.9226C131.098 10.929 131.04 10.9458 130.981 10.9568C130.921 10.9673 130.863 10.9872 130.805 11.0019C130.746 11.0179 130.689 11.0394 130.631 11.0581C130.574 11.0806 130.517 11.1014 130.462 11.1272C130.406 11.1509 130.35 11.1801 130.302 11.2072L130.348 11.1367C130.338 11.2088 130.324 11.281 130.317 11.3532C130.313 11.4254 130.303 11.4981 130.305 11.57L130.304 11.6784L130.311 11.7856C130.314 11.8576 130.329 11.9272 130.34 11.9977C130.356 12.0666 130.37 12.1364 130.394 12.2026C130.413 12.2706 130.443 12.3343 130.47 12.3989L130.517 12.4929C130.534 12.5234 130.553 12.5526 130.571 12.5828C130.609 12.6411 130.648 12.6993 130.693 12.7518C130.736 12.8065 130.785 12.8564 130.834 12.9053C130.884 12.9537 130.937 12.9987 130.992 13.0422C131.047 13.0841 131.104 13.1249 131.162 13.1622C131.221 13.1994 131.282 13.2344 131.344 13.2666C131.589 13.3938 131.854 13.4869 132.128 13.536Z" fill="#FF0084"/>
<path d="M132.126 13.5396C132.126 13.5396 132.165 13.5096 132.233 13.4571C132.267 13.4302 132.31 13.4002 132.356 13.3623C132.402 13.3248 132.454 13.2825 132.511 13.2364C132.566 13.1873 132.626 13.1362 132.688 13.0791C132.748 13.0203 132.813 12.9621 132.874 12.8948C132.938 12.8304 132.998 12.7582 133.057 12.6859C133.116 12.6124 133.171 12.5352 133.218 12.4549C133.264 12.3739 133.303 12.2908 133.327 12.2073C133.35 12.1238 133.368 12.0432 133.372 11.9669C133.38 11.8904 133.378 11.8177 133.371 11.747C133.361 11.677 133.344 11.6105 133.323 11.5487C133.281 11.4251 133.223 11.3244 133.18 11.2535C133.137 11.1828 133.108 11.1427 133.108 11.1427L133.124 11.1176C133.124 11.1176 133.174 11.1295 133.25 11.1736C133.288 11.1953 133.333 11.2256 133.38 11.267C133.426 11.3087 133.477 11.3602 133.521 11.4281C133.567 11.4949 133.608 11.5761 133.635 11.6711C133.663 11.7656 133.673 11.8742 133.663 11.9841C133.653 12.0948 133.616 12.2032 133.569 12.3037C133.522 12.4042 133.464 12.4979 133.4 12.5837C133.338 12.6707 133.269 12.7499 133.198 12.8232C133.127 12.8959 133.054 12.9635 132.98 13.0228C132.836 13.146 132.69 13.241 132.566 13.3221C132.438 13.3994 132.334 13.4633 132.258 13.5015C132.183 13.5417 132.14 13.5647 132.14 13.5647L132.126 13.5396Z" fill="#FF0084"/>
</g>
<defs>
<filter id="filter0_d_10_67" x="0.873337" y="6.59814" width="24.1188" height="22.1926" filterUnits="userSpaceOnUse" color-interpolation-filters="sRGB">
<feFlood flood-opacity="0" result="BackgroundImageFix"/>
<feColorMatrix in="SourceAlpha" type="matrix" values="0 0 0 0 0 0 0 0 0 0 0 0 0 0 0 0 0 0 127 0" result="hardAlpha"/>
<feOffset dy="4"/>
<feGaussianBlur stdDeviation="2"/>
<feComposite in2="hardAlpha" operator="out"/>
<feColorMatrix type="matrix" values="0 0 0 0 0 0 0 0 0 0 0 0 0 0 0 0 0 0 0.25 0"/>
<feBlend mode="normal" in2="BackgroundImageFix" result="effect1_dropShadow_10_67"/>
<feBlend mode="normal" in="SourceGraphic" in2="effect1_dropShadow_10_67" result="shape"/>
</filter>
<filter id="filter1_d_10_67" x="120.003" y="7.01465" width="23.8774" height="21.9167" filterUnits="userSpaceOnUse" color-interpolation-filters="sRGB">
<feFlood flood-opacity="0" result="BackgroundImageFix"/>
<feColorMatrix in="SourceAlpha" type="matrix" values="0 0 0 0 0 0 0 0 0 0 0 0 0 0 0 0 0 0 127 0" result="hardAlpha"/>
<feOffset dy="4"/>
<feGaussianBlur stdDeviation="2"/>
<feComposite in2="hardAlpha" operator="out"/>
<feColorMatrix type="matrix" values="0 0 0 0 0 0 0 0 0 0 0 0 0 0 0 0 0 0 0.25 0"/>
<feBlend mode="normal" in2="BackgroundImageFix" result="effect1_dropShadow_10_67"/>
<feBlend mode="normal" in="SourceGraphic" in2="effect1_dropShadow_10_67" result="shape"/>
</filter>
</defs>
</svg>
