<svg width="136" height="35" viewBox="0 0 136 35" fill="none" xmlns="http://www.w3.org/2000/svg">
<path d="M122.368 8.80005H127.732L131.836 34H127.876L127.156 28.9961V29.0681H122.656L121.936 34H118.264L122.368 8.80005ZM126.688 25.6481L124.924 13.1921H124.852L123.124 25.6481H126.688Z" fill="#1E1E1E"/>
<path d="M106.792 8.80005H110.752V30.4001H117.268V34H106.792V8.80005Z" fill="#1E1E1E"/>
<path d="M94.4174 8.80005H98.3774V30.4001H104.893V34H94.4174V8.80005Z" fill="#1E1E1E"/>
<path d="M81.3393 8.80005H92.1393V12.4001H85.2993V19.0601H90.7353V22.6601H85.2993V30.4001H92.1393V34H81.3393V8.80005Z" fill="#1E1E1E"/>
<path d="M66.7846 8.80005H72.7606C74.8006 8.80005 76.2886 9.28005 77.2246 10.2401C78.1606 11.176 78.6286 12.628 78.6286 14.5961V15.604C78.6286 16.9001 78.4126 17.9561 77.9806 18.7721C77.5726 19.5881 76.9366 20.1761 76.0726 20.5361V20.6081C78.0406 21.2801 79.0246 23.0321 79.0246 25.8641V28.0241C79.0246 29.9681 78.5086 31.4561 77.4766 32.4881C76.4686 33.4961 74.9806 34 73.0126 34H66.7846V8.80005ZM72.2926 19.0601C73.0846 19.0601 73.6726 18.8561 74.0566 18.4481C74.4646 18.0401 74.6686 17.3561 74.6686 16.3961V14.9921C74.6686 14.0801 74.5006 13.4201 74.1646 13.0121C73.8526 12.6041 73.3486 12.4001 72.6526 12.4001H70.7446V19.0601H72.2926ZM73.0126 30.4001C73.7086 30.4001 74.2246 30.2201 74.5606 29.8601C74.8966 29.4761 75.0646 28.8281 75.0646 27.9161V25.7201C75.0646 24.5681 74.8606 23.7761 74.4526 23.3441C74.0686 22.8881 73.4206 22.6601 72.5086 22.6601H70.7446V30.4001H73.0126Z" fill="#1E1E1E"/>
<path d="M46.4994 8.80005H52.3674C54.4074 8.80005 55.8954 9.28005 56.8314 10.2401C57.7674 11.176 58.2354 12.628 58.2354 14.5961V16.1441C58.2354 18.7601 57.3714 20.4161 55.6434 21.1121V21.1841C56.6034 21.4721 57.2754 22.0601 57.6594 22.9481C58.0674 23.8361 58.2714 25.0241 58.2714 26.5121V30.9401C58.2714 31.6601 58.2954 32.2481 58.3434 32.7041C58.3914 33.1361 58.5114 33.568 58.7034 34H54.6714C54.5274 33.592 54.4314 33.208 54.3834 32.848C54.3354 32.488 54.3114 31.8401 54.3114 30.9041V26.2961C54.3114 25.1441 54.1194 24.3401 53.7354 23.8841C53.3754 23.4281 52.7394 23.2001 51.8274 23.2001H50.4594V34H46.4994V8.80005ZM51.8994 19.6001C52.6914 19.6001 53.2794 19.3961 53.6634 18.9881C54.0714 18.5801 54.2754 17.8961 54.2754 16.9361V14.9921C54.2754 14.0801 54.1074 13.4201 53.7714 13.0121C53.4594 12.6041 52.9554 12.4001 52.2594 12.4001H50.4594V19.6001H51.8994Z" fill="#1E1E1E"/>
<path d="M37.8094 34.3599C35.8654 34.3599 34.3774 33.8079 33.3454 32.7039C32.3134 31.5999 31.7974 30.0399 31.7974 28.0239V14.7759C31.7974 12.7599 32.3134 11.1999 33.3454 10.0959C34.3774 8.99194 35.8654 8.43994 37.8094 8.43994C39.7534 8.43994 41.2414 8.99194 42.2734 10.0959C43.3054 11.1999 43.8214 12.7599 43.8214 14.7759V28.0239C43.8214 30.0399 43.3054 31.5999 42.2734 32.7039C41.2414 33.8079 39.7534 34.3599 37.8094 34.3599ZM37.8094 30.7599C39.1774 30.7599 39.8614 29.9319 39.8614 28.2759V14.5239C39.8614 12.8679 39.1774 12.0399 37.8094 12.0399C36.4414 12.0399 35.7574 12.8679 35.7574 14.5239V28.2759C35.7574 29.9319 36.4414 30.7599 37.8094 30.7599Z" fill="#1E1E1E"/>
<path d="M19.851 8.80005H23.811V30.4001H30.327V34H19.851V8.80005Z" fill="#1E1E1E"/>
<path d="M7.476 8.80005H17.952V12.4001H11.436V19.42H16.548V23.0201H11.436V34H7.476V8.80005Z" fill="#1E1E1E"/>
<path d="M15.0229 4.75064C15.0229 4.75064 15.0465 4.72289 15.0956 4.6815C15.121 4.66213 15.1514 4.63664 15.1909 4.61442C15.2289 4.58907 15.276 4.56813 15.3277 4.54368C15.3812 4.52522 15.4397 4.50209 15.5053 4.49149C15.5703 4.47394 15.6402 4.4758 15.713 4.47188C15.7838 4.47864 15.8612 4.47882 15.932 4.50078C15.968 4.51003 16.0057 4.51741 16.0414 4.52886L16.1453 4.56954C16.2176 4.59395 16.2792 4.63111 16.3452 4.66312C16.4131 4.69348 16.4678 4.73573 16.5211 4.77694C16.5739 4.81893 16.6214 4.86285 16.657 4.91148C16.6949 4.95829 16.7286 5.0039 16.758 5.04693C16.7877 5.0897 16.8059 5.13474 16.8249 5.17241C16.8426 5.21104 16.8569 5.24515 16.8673 5.2741C16.8887 5.33145 16.8962 5.36662 16.8962 5.36662L16.873 5.38281C16.873 5.38281 16.8382 5.36655 16.7853 5.33402C16.7587 5.31791 16.7279 5.29751 16.6939 5.27347C16.6595 5.2499 16.6251 5.21977 16.5833 5.19187C16.5419 5.16371 16.4991 5.13203 16.4561 5.09722C16.4339 5.0805 16.4137 5.06054 16.3906 5.04335C16.3665 5.02735 16.3447 5.00829 16.3213 4.99019C16.2761 4.95258 16.2348 4.90618 16.1855 4.86981C16.1375 4.83186 16.0904 4.78733 16.0339 4.76027L15.9516 4.71391C15.9235 4.70053 15.8938 4.69103 15.8651 4.67923C15.808 4.65275 15.7476 4.64396 15.6895 4.6279C15.6304 4.62217 15.5716 4.61153 15.5156 4.61637C15.4589 4.61489 15.4059 4.62596 15.3557 4.63341C15.3073 4.64689 15.2612 4.65779 15.2229 4.67459C15.1832 4.6886 15.1513 4.70653 15.1235 4.71932C15.0698 4.74819 15.0422 4.76919 15.0422 4.76919L15.0229 4.75064Z" fill="#1E1E1E"/>
<path d="M6.37064 2.60352C6.37064 2.60352 7.65183 -0.54999 9.76667 1.36747C9.76667 1.36747 11.2458 0.426228 12.3981 1.64551C12.3981 1.64551 14.0811 0.986177 14.2626 1.76285C14.4441 2.53953 14.1416 3.35556 14.7857 3.18948C15.4299 3.02346 15.834 2.74349 15.9898 2.89368C16.1457 3.04388 17.4029 6.49801 17.2002 7.3314C16.9975 8.16482 16.2252 9.10146 15.1829 9.57444C15.1829 9.57444 14.8373 13.3521 9.6155 12.6309C9.6155 12.6309 3.24509 15.7052 2.69227 11.1275C2.69227 11.1275 -0.848572 8.62894 2.08634 5.84768C5.021 3.06639 4.14364 2.88049 6.37064 2.60352Z" fill="#FF0084"/>
<path d="M7.60434 3.38337C7.60434 3.38337 7.60937 3.33693 7.62776 3.25704C7.63843 3.21754 7.64939 3.16859 7.66926 3.11468C7.68652 3.05975 7.711 2.99932 7.73854 2.93327C7.76777 2.86811 7.80051 2.79717 7.84081 2.72475C7.88103 2.65213 7.9262 2.57667 7.97956 2.50215C8.02891 2.42483 8.09072 2.3523 8.15182 2.27681C8.2147 2.20274 8.28518 2.13282 8.35379 2.06082C8.42718 1.99376 8.49888 1.92375 8.57371 1.85928C8.65039 1.79748 8.72575 1.73444 8.80488 1.68281C8.88634 1.63483 8.96638 1.59014 9.0445 1.55249C9.12324 1.51622 9.20084 1.48878 9.27188 1.46316C9.41254 1.40873 9.55517 1.38368 9.64136 1.36752C9.72814 1.35265 9.79478 1.34303 9.79478 1.34303L9.80382 1.36787C9.80382 1.36787 9.74763 1.40654 9.67638 1.45552C9.64092 1.4803 9.58925 1.51156 9.53939 1.54262C9.51495 1.55935 9.48291 1.57401 9.45599 1.59314C9.42895 1.61197 9.3988 1.63252 9.36858 1.65147C9.33872 1.67075 9.30655 1.69122 9.27434 1.71194C9.24202 1.732 9.20647 1.75036 9.17358 1.77363C9.10816 1.82084 9.0366 1.8659 8.96152 1.91052C8.88736 1.9563 8.81247 2.00592 8.73214 2.05187C8.65388 2.10041 8.58152 2.15868 8.50467 2.21247C8.435 2.27333 8.36253 2.33268 8.29713 2.39637C8.23416 2.46194 8.16662 2.52317 8.11202 2.59054C8.08393 2.62358 8.05411 2.65496 8.02867 2.68808C8.00326 2.7213 7.97847 2.75384 7.95438 2.78555C7.90642 2.84923 7.86554 2.91252 7.8285 2.9713C7.79316 3.03097 7.76103 3.08612 7.73685 3.13676C7.71029 3.18666 7.69266 3.23203 7.67527 3.2688C7.64434 3.34334 7.63189 3.38718 7.63189 3.38718L7.60434 3.38337Z" fill="#1E1E1E"/>
<path d="M7.97796 2.62389C7.97796 2.62389 8.00462 2.62214 8.05134 2.61908C8.07506 2.61748 8.10259 2.61576 8.13666 2.61558C8.1382 2.61502 8.15778 2.61815 8.16684 2.62903C8.17632 2.64068 8.18082 2.64896 8.17564 2.6573C8.1731 2.6671 8.15722 2.68371 8.14232 2.6866C8.13594 2.68858 8.12819 2.68886 8.12647 2.68891L8.1232 2.68918C8.11439 2.68996 8.10522 2.69077 8.09593 2.69161C8.07762 2.69298 8.05838 2.69456 8.03827 2.69612C7.87809 2.70923 7.66594 2.71959 7.45422 2.7246C7.34853 2.72653 7.24097 2.7432 7.14252 2.73938C7.04418 2.73379 6.95424 2.71431 6.87766 2.69216C6.80129 2.66889 6.73817 2.64472 6.69466 2.62205C6.65108 2.60056 6.62668 2.58351 6.62668 2.58351L6.62983 2.55689C6.62983 2.55689 6.65787 2.54288 6.70591 2.52666C6.75406 2.50937 6.822 2.49271 6.90269 2.47855C6.98331 2.46558 7.07661 2.45663 7.17481 2.46216C7.27283 2.4696 7.37491 2.49814 7.47875 2.51165C7.58245 2.52681 7.68628 2.54032 7.78312 2.55683C7.88021 2.57163 7.97054 2.58809 8.04783 2.60122C8.06708 2.60448 8.08552 2.60756 8.10312 2.61038C8.11171 2.61175 8.12016 2.61305 8.12825 2.61438L8.13129 2.61488C8.13129 2.61488 8.12612 2.61504 8.12183 2.61694C8.11112 2.61969 8.09939 2.63606 8.10103 2.64572C8.1037 2.65409 8.09899 2.66134 8.10578 2.67247C8.11084 2.68261 8.12653 2.68497 8.12407 2.68402C8.09342 2.67719 8.06657 2.67118 8.04459 2.66626C7.99988 2.65637 7.97427 2.65071 7.97427 2.65071L7.97796 2.62389Z" fill="#1E1E1E"/>
<path d="M3.82717 4.15632C3.778 4.2858 3.74407 4.42092 3.72101 4.55611C3.69825 4.69142 3.68794 4.82808 3.69389 4.9632C3.69965 5.09816 3.72146 5.23201 3.76439 5.35851C3.80611 5.48546 3.87089 5.60389 3.95337 5.70931L3.95897 5.7165L3.9582 5.72669C3.93394 6.07868 3.96572 6.43402 4.03429 6.77747C4.10341 7.12141 4.21684 7.45533 4.37647 7.76621C4.53507 8.0777 4.74531 8.36267 4.99549 8.61085C5.24626 8.86205 5.52365 9.08777 5.82571 9.2803C6.12769 9.47228 6.45592 9.62889 6.80366 9.73505C7.15101 9.84182 7.51779 9.89725 7.88746 9.89457C8.2571 9.89248 8.62843 9.83237 8.98568 9.72436C9.03046 9.71117 9.07507 9.69747 9.11907 9.6818C9.16088 9.66693 9.21425 9.65131 9.24141 9.63727C9.25673 9.63008 9.26764 9.62104 9.26845 9.61948C9.26737 9.61722 9.26412 9.63362 9.26558 9.63078C9.26471 9.62326 9.23594 9.59178 9.20499 9.57076C9.07185 9.47882 8.89778 9.40961 8.73055 9.3438C8.39048 9.21421 8.03773 9.10422 7.68462 8.99598L6.61979 8.67774C6.4421 8.62391 6.26444 8.5695 6.0871 8.50944C5.9983 8.47906 5.91004 8.44812 5.82037 8.40952C5.79695 8.39926 5.77735 8.3906 5.74984 8.37629L5.68933 8.34287C5.64508 8.31679 5.6045 8.29017 5.56556 8.26227C5.25454 8.03554 5.03178 7.72781 4.87766 7.39475C4.72486 7.06017 4.64686 6.69422 4.63868 6.32568C4.63437 6.14132 4.64669 5.95609 4.67374 5.77265C4.67954 5.72662 4.6886 5.68101 4.69675 5.63528L4.70295 5.60098L4.70733 5.57945L4.72722 5.49717C4.73556 5.4554 4.75437 5.40406 4.76968 5.35641C4.78453 5.3072 4.80723 5.26378 4.82584 5.21736C4.90914 5.03546 5.03819 4.86664 5.19683 4.73052C5.35742 4.59564 5.54485 4.49515 5.73904 4.42724C5.93352 4.35945 6.13382 4.32101 6.33279 4.30219C6.53378 4.28414 6.72628 4.28312 6.93269 4.30598L6.77913 4.37835L6.8974 4.19087C6.9406 4.13019 6.98192 4.06847 7.0267 4.00871C7.07384 3.95029 7.11689 3.8892 7.16822 3.8334C7.21811 3.77674 7.26764 3.71975 7.32243 3.66661C7.37464 3.61153 7.43175 3.56031 7.48878 3.50924C7.54618 3.45849 7.60672 3.41052 7.66806 3.36376C7.73059 3.31818 7.79341 3.27306 7.86002 3.23256C7.92483 3.18984 7.99433 3.15348 8.06308 3.11681L8.16836 3.06512L8.2763 3.01904C8.34908 2.99036 8.42257 2.96292 8.49769 2.94099C8.57233 2.91774 8.64834 2.89826 8.72484 2.88287C8.80112 2.86652 8.87821 2.85379 8.95555 2.84581C9.03277 2.8365 9.1103 2.83214 9.18746 2.83022C9.26471 2.82816 9.34181 2.83018 9.41852 2.83488C9.49531 2.83978 9.57149 2.84848 9.64738 2.86017C9.72463 2.87286 9.79532 2.88632 9.87812 2.91082L9.76204 2.92668C10.0319 2.76195 10.3188 2.61293 10.6345 2.52277C10.7918 2.47754 10.9569 2.44867 11.1242 2.4476C11.2913 2.44533 11.4606 2.4757 11.6128 2.53926C11.7653 2.6026 11.8988 2.69822 12.0064 2.81099C12.1141 2.92407 12.1986 3.05216 12.2667 3.18553C12.3347 3.31914 12.3864 3.45861 12.4264 3.60046C12.4465 3.67141 12.4633 3.74322 12.4775 3.81551C12.4916 3.88842 12.503 3.95943 12.5102 4.0368L12.3617 4.00625L12.4588 3.87006C12.4882 3.82326 12.5191 3.77699 12.5474 3.72956C12.5736 3.6813 12.6036 3.6343 12.6268 3.58492C12.6511 3.53586 12.6761 3.48687 12.6959 3.4363C12.7184 3.3864 12.7361 3.33536 12.7538 3.28417C12.7715 3.23303 12.7859 3.18107 12.7995 3.12899C12.8116 3.07674 12.8234 3.02426 12.8303 2.97127C12.8398 2.91849 12.8426 2.86526 12.8461 2.81223C12.8486 2.75907 12.8482 2.70596 12.8452 2.65302C12.8413 2.60025 12.8365 2.54726 12.827 2.49515C12.8184 2.44293 12.8071 2.39092 12.7921 2.34013C12.7782 2.28893 12.761 2.2386 12.7408 2.18934C12.7012 2.09069 12.6517 1.9955 12.5931 1.90546C12.5343 1.81599 12.467 1.7297 12.3885 1.65569L12.4077 1.63521C12.4949 1.707 12.5686 1.78968 12.6358 1.87773C12.7028 1.96582 12.7591 2.06154 12.8059 2.16173C12.8296 2.21168 12.8504 2.26311 12.8679 2.31575C12.8865 2.36802 12.9013 2.42166 12.9133 2.47595C12.9263 2.53013 12.9344 2.58537 12.9415 2.64088C12.9479 2.69656 12.9513 2.75249 12.9517 2.80881C12.9527 3.03394 12.9091 3.26201 12.8252 3.47676C12.806 3.53113 12.7817 3.58354 12.7579 3.63634C12.735 3.6895 12.7057 3.73971 12.6798 3.79169C12.6518 3.84255 12.6213 3.89207 12.592 3.94248L12.3755 4.27108L12.3472 4.05796C12.3385 3.99256 12.3247 3.92218 12.3089 3.85509C12.2929 3.78739 12.2744 3.72032 12.2528 3.65442C12.2099 3.52259 12.1566 3.39457 12.0898 3.27527C11.9573 3.03751 11.7655 2.83135 11.5158 2.73411C11.267 2.63437 10.9729 2.65562 10.6966 2.74166C10.4181 2.82678 10.1525 2.9697 9.90068 3.13062L9.84862 3.16386L9.7846 3.14647C9.72974 3.13163 9.65843 3.11816 9.59286 3.10917C9.52568 3.10019 9.45755 3.09375 9.38907 3.09078C9.32052 3.08795 9.25182 3.08748 9.1831 3.09071C9.11445 3.09379 9.04556 3.09893 8.97733 3.10866C8.90904 3.11749 8.84093 3.12856 8.77361 3.1435C8.70617 3.15744 8.63929 3.17498 8.57353 3.19592C8.5074 3.21549 8.44286 3.24013 8.3788 3.26575L8.28385 3.30677L8.19125 3.35292C8.13074 3.3859 8.06954 3.41797 8.01217 3.45649C7.95328 3.49256 7.89757 3.53324 7.84205 3.57408C7.78752 3.61629 7.73354 3.65934 7.68225 3.70533C7.63122 3.75168 7.5799 3.79791 7.53288 3.84845C7.48351 3.89662 7.43871 3.94912 7.39335 4.00114C7.34704 4.05223 7.30702 4.10864 7.26295 4.16179C7.22109 4.21657 7.18232 4.27367 7.14171 4.32949L6.9762 4.58708L6.87626 4.57608C6.53461 4.53835 6.15488 4.56268 5.82381 4.67453C5.65727 4.73042 5.50271 4.81169 5.37173 4.91838C5.24296 5.02669 5.1375 5.15902 5.06585 5.30925C5.05041 5.34726 5.02931 5.38548 5.01787 5.42319C5.00518 5.46193 4.99016 5.49564 4.97989 5.54203L4.96303 5.60764L4.95879 5.62406L4.95777 5.62811C4.95755 5.62889 4.95962 5.62018 4.95777 5.62811L4.95644 5.6354L4.95015 5.66743C4.94189 5.71009 4.93263 5.75277 4.92663 5.79553C4.8987 5.96661 4.88465 6.13887 4.88594 6.31015C4.8882 6.65249 4.95525 6.99142 5.09104 7.30153C5.22675 7.61005 5.43153 7.89504 5.70333 8.0979C5.73752 8.12303 5.77255 8.14636 5.80621 8.16696L5.86492 8.20023C5.8779 8.20715 5.89982 8.21773 5.91838 8.22596C5.99696 8.26076 6.08261 8.29206 6.16814 8.32237C6.34005 8.38256 6.51581 8.43859 6.69182 8.49395L7.75271 8.8233C8.10624 8.93577 8.45937 9.04989 8.80629 9.18632C8.97931 9.25776 9.15157 9.32439 9.31606 9.4395C9.3556 9.47248 9.40097 9.50024 9.4307 9.57679C9.44669 9.61593 9.43372 9.68128 9.40166 9.71474C9.372 9.74893 9.34154 9.76555 9.31424 9.77918C9.25529 9.80651 9.21574 9.81491 9.16773 9.83192C9.12178 9.84773 9.07512 9.8616 9.02825 9.87486C8.65466 9.98351 8.26563 10.0422 7.87953 10.0402C7.49339 10.0387 7.11161 9.97662 6.75271 9.86172C6.39378 9.74637 6.05817 9.57942 5.75168 9.37779C5.44529 9.17577 5.1656 8.94028 4.91561 8.68166C4.66238 8.42236 4.45159 8.1263 4.29479 7.80539C4.13694 7.48499 4.02722 7.14315 3.96274 6.79279C3.89903 6.44216 3.87242 6.08459 3.90319 5.72377L3.90816 5.74121C3.82394 5.62997 3.75874 5.50558 3.71785 5.37372C3.6756 5.24224 3.65569 5.10436 3.65201 4.96623C3.64829 4.82799 3.66102 4.68906 3.68631 4.55214C3.71204 4.41505 3.74809 4.27963 3.8006 4.14767L3.82717 4.15632Z" fill="#1E1E1E"/>
<path d="M2.7021 11.1177C2.7021 11.1177 2.73025 11.1379 2.78791 11.1635C2.81615 11.1767 2.85235 11.1896 2.89305 11.2048C2.93542 11.2175 2.98203 11.233 3.03559 11.2439C3.08763 11.2578 3.14731 11.2647 3.20804 11.2754C3.27124 11.28 3.33494 11.2924 3.40408 11.2934C3.47231 11.2977 3.54285 11.2999 3.61514 11.2989C3.68681 11.3007 3.7603 11.2966 3.83357 11.2921C3.98032 11.2832 4.12632 11.2558 4.26307 11.2382C4.33163 11.2311 4.39804 11.2294 4.46166 11.2258C4.5252 11.2221 4.58563 11.2207 4.64195 11.2218C4.6986 11.2224 4.75059 11.2228 4.7966 11.2232C4.84308 11.2246 4.88392 11.227 4.918 11.2302C4.98594 11.2362 5.02621 11.2441 5.02621 11.2441L5.03118 11.2701C5.03118 11.2701 4.99685 11.2925 4.93442 11.3236C4.90319 11.3395 4.865 11.3571 4.8206 11.3761C4.77605 11.394 4.72589 11.4165 4.66944 11.4318C4.61325 11.4493 4.5518 11.466 4.48643 11.4811C4.42139 11.4996 4.35085 11.5064 4.27829 11.5145C4.20558 11.5211 4.13024 11.5226 4.05349 11.5174C3.97689 11.5134 3.89953 11.5138 3.82211 11.5054C3.74466 11.5007 3.66766 11.4959 3.59213 11.4849C3.51644 11.4775 3.44289 11.4634 3.37231 11.4485C3.30145 11.4362 3.23463 11.4146 3.17143 11.398C3.10945 11.3756 3.05043 11.3579 2.99866 11.3338C2.9459 11.3127 2.90015 11.288 2.85958 11.2673C2.82011 11.2441 2.78598 11.2239 2.76025 11.2038C2.70799 11.1657 2.68267 11.1376 2.68267 11.1376L2.7021 11.1177Z" fill="#1E1E1E"/>
<path d="M9.37558 12.7248C9.79355 12.4468 10.2085 12.1647 10.6125 11.8704L10.9139 11.6483C11.0137 11.5738 11.1124 11.4978 11.2095 11.4208C11.307 11.344 11.4014 11.2648 11.4943 11.1846L11.6286 11.0613C11.6719 11.0196 11.7112 10.9763 11.7527 10.9341L11.7755 10.9109L11.8079 10.9018C11.8775 10.8821 11.95 10.858 12.0211 10.8357C12.0926 10.8137 12.1634 10.7868 12.2346 10.7625C12.3771 10.7146 12.5173 10.658 12.6577 10.6034C12.7987 10.5507 12.9357 10.4866 13.0756 10.4309L13.285 10.3463C13.3542 10.3167 13.4233 10.2866 13.4932 10.2585C13.563 10.2302 13.6325 10.2009 13.703 10.174C13.7735 10.1468 13.8439 10.1195 13.9126 10.0883C14.0508 10.0278 14.1908 9.97061 14.3308 9.91273C14.4012 9.88448 14.4723 9.85754 14.5408 9.82514L14.7496 9.73449C14.8898 9.67549 15.0306 9.61654 15.1756 9.56342L15.1893 9.58608C15.0666 9.67665 14.9395 9.76128 14.8121 9.84592L14.6193 9.97073C14.5551 10.0127 14.4879 10.0492 14.4215 10.0871C14.2874 10.161 14.1533 10.2356 14.0175 10.307C13.8821 10.3794 13.7416 10.4415 13.6021 10.5059C13.5324 10.5383 13.4618 10.5685 13.3914 10.5993C13.321 10.63 13.248 10.6547 13.1764 10.6826L12.9597 10.7616C12.8876 10.788 12.8145 10.812 12.7408 10.8346C12.5938 10.8799 12.4488 10.9305 12.3001 10.9714C12.152 11.015 12.0055 11.0561 11.8522 11.0931L11.9074 11.0608C11.8598 11.1051 11.8131 11.1514 11.7646 11.1938L11.617 11.3166C11.5168 11.395 11.4158 11.4718 11.3128 11.5451C11.2101 11.619 11.1065 11.691 11.0018 11.7615C10.8975 11.8323 10.7922 11.9018 10.6859 11.9693C10.2602 12.2396 9.82967 12.5005 9.3899 12.747L9.37558 12.7248Z" fill="#1E1E1E"/>
<path d="M9.43475 10.9129C9.43475 10.9129 9.4415 10.9194 9.45504 10.93C9.46931 10.9377 9.49009 10.9489 9.51665 10.9633C9.54686 10.9734 9.58354 10.9855 9.62566 10.9996C9.66807 11.0117 9.72074 11.0168 9.77474 11.0268C9.80236 11.0305 9.82941 11.0381 9.86003 11.039C9.89055 11.04 9.9222 11.0411 9.95462 11.0422C10.0195 11.0436 10.0864 11.0491 10.1566 11.0497C10.2277 11.0458 10.3011 11.0418 10.3758 11.0378C10.4504 11.0329 10.5248 11.0344 10.6008 11.0243C10.6768 11.0129 10.7525 11.0029 10.8269 10.9903C10.9012 10.9778 10.9741 10.9672 11.0448 10.9612C11.1155 10.9589 11.1846 10.9481 11.2502 10.9473C11.3159 10.9439 11.3782 10.9429 11.4361 10.9442C11.667 10.9462 11.8285 10.9841 11.8285 10.9841L11.8321 11.0104C11.8321 11.0104 11.6863 11.0904 11.4565 11.1554C11.3992 11.1724 11.3368 11.1886 11.2703 11.2032C11.2039 11.2186 11.1341 11.2342 11.0599 11.2375C10.986 11.2414 10.9095 11.2414 10.832 11.2394C10.7545 11.2373 10.676 11.238 10.5977 11.2373C10.5195 11.2385 10.4402 11.2281 10.3631 11.2241C10.2862 11.218 10.2105 11.2119 10.1372 11.2059C10.0643 11.1942 9.99402 11.1799 9.92815 11.1666C9.89531 11.1599 9.86338 11.1533 9.83252 11.1469C9.80169 11.1406 9.77301 11.1275 9.74505 11.1188C9.68987 11.0983 9.63846 11.0844 9.59576 11.0636C9.55457 11.0405 9.5186 11.0204 9.48902 11.0038C9.46156 10.9814 9.44171 10.9628 9.42827 10.9509C9.41787 10.9374 9.41238 10.9302 9.41238 10.9302L9.43475 10.9129Z" fill="#1E1E1E"/>
<path d="M9.24366 9.73512C9.24366 9.73512 9.23924 9.74076 9.23377 9.75347C9.22845 9.76555 9.22466 9.78526 9.23746 9.79339C9.24855 9.80365 9.28179 9.80942 9.3192 9.80917C9.35739 9.80899 9.40253 9.80397 9.45174 9.79506C9.64918 9.75939 9.91154 9.6775 10.1721 9.59408C10.3026 9.55256 10.4289 9.4945 10.5518 9.45748C10.6753 9.42212 10.7942 9.40177 10.8978 9.38827C11.0017 9.37638 11.0897 9.37005 11.1531 9.37096C11.2161 9.37085 11.2537 9.3754 11.2537 9.3754L11.2615 9.40057C11.2615 9.40057 11.1472 9.49886 10.9574 9.59171C10.8628 9.63882 10.7499 9.68681 10.6244 9.72283C10.4983 9.75708 10.3582 9.77243 10.2214 9.79965C10.084 9.8252 9.94651 9.85024 9.81567 9.86559C9.68524 9.8824 9.5619 9.89098 9.45506 9.88975C9.40171 9.88934 9.35228 9.88601 9.30786 9.87762C9.26466 9.86845 9.22137 9.85804 9.19673 9.82251C9.18496 9.80524 9.18412 9.78411 9.18863 9.77048C9.19288 9.75648 9.19883 9.74648 9.20428 9.73919C9.21477 9.72488 9.22275 9.7184 9.22275 9.7184L9.24366 9.73512Z" fill="#1E1E1E"/>
<path d="M8.18906 9.04945C8.18906 9.04945 8.49233 8.91567 9.01046 8.65677C9.26931 8.52694 9.58178 8.36572 9.93335 8.16952C10.2844 7.97283 10.6764 7.74255 11.0807 7.46191C11.2821 7.32116 11.4869 7.16742 11.6803 6.99201C11.7769 6.90441 11.8703 6.81093 11.9536 6.70948C12.0371 6.60786 12.1094 6.49937 12.1528 6.37961L12.1723 6.32985C12.1803 6.31194 12.1846 6.29828 12.2009 6.27194C12.2044 6.26745 12.2057 6.2641 12.2167 6.25374C12.1985 6.22635 12.3363 6.23591 12.3281 6.27187C12.3353 6.28965 12.3337 6.2945 12.3346 6.29936L12.3347 6.3113C12.3342 6.32418 12.333 6.3337 12.3317 6.34317C12.3291 6.36199 12.3259 6.37942 12.3225 6.3968C12.3087 6.46602 12.2923 6.53331 12.275 6.60116C12.2401 6.73652 12.2013 6.87226 12.1604 7.0091C12.0783 7.28266 11.987 7.56027 11.8865 7.84086C11.683 8.40079 11.4531 8.97634 11.1325 9.53335C11.0512 9.6721 10.9632 9.80926 10.8619 9.94148C10.7606 10.0724 10.6443 10.2032 10.4974 10.3069C10.2331 10.4979 9.96756 10.698 9.68736 10.8815C9.40764 11.0656 9.1137 11.2342 8.80509 11.3742C8.49589 11.5122 8.17305 11.6234 7.84336 11.6931C7.18314 11.8362 6.50882 11.8117 5.9002 11.6768C5.29042 11.5381 4.74038 11.3088 4.25454 11.0416C4.00864 10.9027 3.78561 10.7476 3.59099 10.5699C3.3974 10.3923 3.23762 10.1906 3.12456 9.97476C3.01026 9.75931 2.95033 9.52822 2.93697 9.30669C2.92274 9.08478 2.9523 8.87334 3.00304 8.68208C3.1062 8.29803 3.2868 7.99426 3.45064 7.7608C3.61623 7.52705 3.7676 7.35864 3.87563 7.24878C3.98391 7.13893 4.04722 7.08523 4.04722 7.08523L4.06666 7.10374C4.06666 7.10374 4.00939 7.16136 3.91295 7.27807C3.8174 7.39515 3.67878 7.56918 3.5353 7.80721C3.4634 7.92595 3.39159 8.06102 3.32562 8.21148C3.2594 8.36157 3.19937 8.52797 3.16181 8.70856C3.12399 8.88877 3.10814 9.08347 3.13199 9.28181C3.15577 9.47995 3.21991 9.68081 3.32788 9.86964C3.54408 10.2487 3.93504 10.5687 4.39926 10.8152C4.45477 10.8465 4.52033 10.8767 4.58101 10.9079C4.64234 10.9361 4.70397 10.9644 4.76597 10.993C4.88997 11.0533 5.02116 11.1026 5.15164 11.1565C5.41555 11.2579 5.69321 11.3426 5.98093 11.4068C6.55453 11.5406 7.18032 11.5686 7.79957 11.4493C8.10903 11.39 8.41443 11.2915 8.71053 11.1661C9.00611 11.0386 9.29158 10.8829 9.5666 10.7085C9.8419 10.5342 10.1061 10.3415 10.3769 10.1518C10.5008 10.0675 10.6051 9.95518 10.7018 9.8341C10.7979 9.71277 10.8844 9.58298 10.9648 9.45032C11.2837 8.91637 11.5222 8.34854 11.7325 7.79708C11.8366 7.52059 11.9319 7.24627 12.0176 6.97633C12.0604 6.84133 12.101 6.70737 12.1375 6.5749C12.1558 6.50876 12.1735 6.44262 12.1877 6.37841L12.1968 6.33187L12.1992 6.31338C12.1992 6.312 12.1993 6.31254 12.1992 6.31338C12.1999 6.31403 12.1979 6.31406 12.2037 6.32797C12.1947 6.35858 12.3259 6.36916 12.305 6.3454C12.3128 6.33807 12.3117 6.33836 12.3126 6.33735C12.3102 6.34041 12.3012 6.35854 12.2955 6.37192L12.2767 6.41705C12.2242 6.55281 12.1393 6.67336 12.0487 6.77887C11.9574 6.88527 11.8581 6.98043 11.7565 7.06893C11.5533 7.24584 11.3421 7.39765 11.1352 7.53612C10.7203 7.81196 10.3219 8.03534 9.96548 8.22595C9.60856 8.41602 9.29211 8.57143 9.03012 8.69642C8.50572 8.94561 8.19924 9.07364 8.19924 9.07364L8.18906 9.04945Z" fill="#1E1E1E"/>
<path d="M12.415 4.05086C12.415 4.05086 12.3987 3.99892 12.3701 3.90822C12.3564 3.86251 12.34 3.80701 12.3239 3.74212C12.3161 3.70944 12.3074 3.67502 12.3007 3.63691C12.2973 3.61773 12.294 3.59841 12.2928 3.57463C12.2932 3.56712 12.2918 3.56404 12.2939 3.55268C12.2956 3.5462 12.2944 3.54526 12.2991 3.53421C12.3097 3.51938 12.3146 3.50273 12.3548 3.50183C12.3626 3.50219 12.3716 3.50527 12.375 3.50693L12.3803 3.51029C12.3838 3.51271 12.3873 3.51537 12.3904 3.51815C12.3977 3.52483 12.3968 3.52525 12.4003 3.52929C12.4059 3.53613 12.4087 3.54121 12.412 3.54647C12.4575 3.62686 12.4858 3.70843 12.5179 3.79875C12.5492 3.88835 12.5757 3.98442 12.6015 4.08427C12.6526 4.28413 12.6954 4.5007 12.7231 4.72127C12.7382 4.83141 12.748 4.94254 12.7562 5.05285C12.7644 5.16319 12.7659 5.27318 12.7575 5.38021C12.7477 5.48707 12.7303 5.59102 12.7028 5.68819C12.6769 5.78555 12.6436 5.87652 12.6049 5.95794C12.5286 6.12149 12.4318 6.24444 12.3525 6.31712C12.3133 6.35396 12.2804 6.38014 12.2561 6.396C12.2324 6.4119 12.2197 6.42045 12.2197 6.42045L12.1994 6.4028C12.1994 6.4028 12.2295 6.35231 12.27 6.26541C12.2904 6.22214 12.3115 6.16848 12.3328 6.10768C12.3536 6.04629 12.3724 5.9765 12.3903 5.90026C12.4072 5.8238 12.4219 5.7405 12.4341 5.65169C12.4444 5.56264 12.4553 5.46875 12.4639 5.37066C12.4739 5.2727 12.4836 5.17052 12.4912 5.06584C12.4988 4.96117 12.4992 4.8543 12.4974 4.7473C12.4916 4.53351 12.4707 4.31943 12.4404 4.12079C12.4256 4.02128 12.4067 3.92615 12.3885 3.83607C12.3696 3.7476 12.349 3.65899 12.3221 3.59348L12.3181 3.58481C12.3193 3.58599 12.3214 3.58637 12.3229 3.58709L12.3255 3.588C12.3277 3.58927 12.3351 3.59256 12.3418 3.59278C12.3757 3.58977 12.3785 3.5793 12.386 3.56839C12.3885 3.56194 12.3871 3.56616 12.3875 3.56452C12.3869 3.56289 12.3867 3.56988 12.3861 3.57215C12.3849 3.58758 12.3853 3.60632 12.3863 3.62396C12.3881 3.65973 12.3922 3.69455 12.3958 3.72712C12.4048 3.79245 12.4126 3.8494 12.4191 3.89627C12.434 3.99022 12.4425 4.04382 12.4425 4.04382L12.415 4.05086Z" fill="#1E1E1E"/>
<path d="M12.8851 2.85508C12.8851 2.85508 12.9047 2.81846 12.9479 2.75418C12.9915 2.69013 13.0582 2.59681 13.1638 2.49266C13.2169 2.44106 13.2803 2.38687 13.3595 2.33938C13.4381 2.293 13.5346 2.25097 13.645 2.24411C13.7548 2.23666 13.8716 2.2664 13.9718 2.32537C14.0728 2.38407 14.1595 2.4672 14.2365 2.56092C14.3134 2.65408 14.3828 2.76161 14.4465 2.86959C14.5116 2.97844 14.579 3.09087 14.6482 3.20653C14.7836 3.44014 14.9199 3.69405 15.0164 3.97948C15.1135 4.26357 15.1561 4.58555 15.1109 4.90863C15.0682 5.23208 14.949 5.54715 14.8029 5.84515L14.6877 6.06644C14.6471 6.13887 14.6026 6.20901 14.5602 6.28022C14.4776 6.42429 14.3804 6.55776 14.2903 6.69464C14.107 6.96331 13.92 7.21893 13.7419 7.47062C13.5599 7.71956 13.3802 7.96041 13.1921 8.18092C13.1452 8.23611 13.0991 8.29062 13.0497 8.34249C13.0013 8.39489 12.9546 8.44683 12.9033 8.49479C12.8529 8.54322 12.804 8.59109 12.7507 8.63389C12.6989 8.67787 12.6486 8.72142 12.5948 8.759C12.3849 8.91561 12.1744 9.03039 11.9864 9.1192C11.7986 9.2098 11.6171 9.23828 11.4788 9.29221C11.3411 9.34763 11.2176 9.3483 11.1429 9.37549C11.0683 9.40264 11.0285 9.41713 11.0285 9.41713L11.032 9.43361C11.032 9.43361 11.0762 9.4331 11.1452 9.39428C11.2144 9.35617 11.3195 9.31043 11.4485 9.23924C11.5767 9.16689 11.7347 9.08542 11.9074 8.98013C12.0818 8.877 12.2697 8.75272 12.4524 8.59687C12.6348 8.44046 12.8074 8.24864 12.9777 8.02909C13.1467 7.80874 13.3203 7.56941 13.5017 7.32036C13.6854 7.07309 13.8788 6.81711 14.0736 6.56072C14.1669 6.4318 14.2679 6.30488 14.3518 6.1691C14.3951 6.10192 14.4409 6.03548 14.4824 5.96722L14.6002 5.75962C14.7485 5.47996 14.869 5.18804 14.918 4.89215C14.9692 4.59665 14.9411 4.302 14.8589 4.03001C14.778 3.7571 14.6515 3.50584 14.5292 3.26875C14.4657 3.15067 14.4039 3.03589 14.344 2.92487C14.2842 2.81234 14.2249 2.71118 14.156 2.61904C14.0877 2.52769 14.0108 2.44789 13.9236 2.39214C13.8369 2.33623 13.7394 2.30762 13.6449 2.30996C13.5502 2.31193 13.4622 2.34544 13.3875 2.38566C13.3125 2.42658 13.2497 2.47593 13.1964 2.52368C13.0904 2.62014 13.0206 2.70941 12.9752 2.77054C12.9299 2.83222 12.9094 2.86686 12.9094 2.86686L12.8851 2.85508Z" fill="#1E1E1E"/>
<path d="M10.1902 10.41C10.1902 10.41 10.1997 10.4343 10.2366 10.4703C10.2727 10.5054 10.339 10.5475 10.4371 10.5632C10.5348 10.5796 10.6603 10.5688 10.7982 10.5298C10.9366 10.4921 11.0877 10.427 11.2441 10.3408C11.4012 10.2571 11.5694 10.1529 11.7453 10.0456C11.9209 9.93633 12.1058 9.82097 12.2939 9.6972C12.6702 9.45015 13.0631 9.17433 13.4331 8.87678C13.6165 8.72671 13.7954 8.57202 13.9543 8.40894C14.1101 8.24598 14.2606 8.07706 14.3422 7.90892C14.3638 7.86788 14.3789 7.82742 14.3881 7.79007C14.4018 7.73819 14.4152 7.68684 14.4286 7.63598C14.4479 7.58171 14.4657 7.52496 14.4864 7.47501C14.508 7.42598 14.5282 7.37598 14.5515 7.33039C14.6405 7.14375 14.7351 6.9814 14.801 6.83049C14.8671 6.67974 14.9028 6.5404 14.9004 6.41494C14.9052 6.35142 14.8882 6.29444 14.8812 6.23924C14.8627 6.18731 14.8523 6.13587 14.8316 6.09337C14.8112 6.05021 14.7929 6.01167 14.7771 5.97823C14.7571 5.9463 14.7402 5.91903 14.7265 5.89705C14.699 5.85206 14.6843 5.82813 14.6843 5.82813L14.7062 5.81025C14.7062 5.81025 14.7272 5.83017 14.7663 5.86746C14.7859 5.88662 14.8099 5.91016 14.8383 5.93796C14.8627 5.96942 14.8907 6.00558 14.9221 6.04601C14.9531 6.0873 14.9769 6.13997 15.0082 6.1951C15.0274 6.25508 15.0574 6.31908 15.0652 6.39403C15.0912 6.54169 15.0714 6.71845 15.0143 6.89176C14.9596 7.06635 14.8761 7.24049 14.8036 7.41891C14.7673 7.50903 14.7365 7.59952 14.7105 7.68518C14.699 7.73388 14.6876 7.78827 14.675 7.8354C14.6598 7.90066 14.636 7.9614 14.6075 8.01745C14.4879 8.24009 14.3183 8.41431 14.1393 8.57906C13.9588 8.74204 13.7677 8.89437 13.5715 9.03911C13.1793 9.32847 12.7703 9.59086 12.3801 9.82479C12.1847 9.94143 11.9947 10.0521 11.8114 10.1521C11.6271 10.2516 11.4561 10.3457 11.2883 10.4243C11.1225 10.5046 10.9619 10.5642 10.8136 10.5967C10.6661 10.6303 10.53 10.635 10.4244 10.6097C10.3179 10.5856 10.2478 10.5339 10.2111 10.4927C10.1927 10.4718 10.181 10.454 10.1739 10.4414C10.1667 10.4278 10.1643 10.4215 10.1643 10.4215L10.1902 10.41Z" fill="#1E1E1E"/>
<path d="M9.20478 7.06998C9.03256 7.21878 8.85205 7.35779 8.66597 7.49041C8.47633 7.62491 8.28047 7.75187 8.07656 7.86667C7.87287 7.98172 7.66163 8.08593 7.43977 8.16749C7.32958 8.21013 7.21546 8.24267 7.10023 8.27147C6.9843 8.29661 6.86648 8.31828 6.74691 8.32215C6.62768 8.32969 6.50715 8.32031 6.39054 8.29566C6.27243 8.27375 6.16355 8.22416 6.06068 8.16812C6.01398 8.13463 5.96145 8.10395 5.9198 8.06724C5.87699 8.03348 5.83447 7.99744 5.79212 7.95913C5.7089 7.88314 5.62911 7.80325 5.56363 7.70686C5.53021 7.65954 5.50334 7.60523 5.4849 7.54601C5.46602 7.48694 5.4637 7.41724 5.48184 7.35174C5.52098 7.21761 5.62302 7.12791 5.71121 7.0512C5.80216 6.97452 5.89468 6.90696 5.97092 6.8316C6.04862 6.75721 6.10544 6.6744 6.12755 6.58555L6.14023 6.64606C6.08348 6.57231 6.03647 6.49963 5.99164 6.42234C5.94726 6.34559 5.90724 6.26609 5.87272 6.1839C5.80466 6.01952 5.75467 5.84244 5.75717 5.65353C5.75844 5.55946 5.77344 5.46306 5.8064 5.36979C5.8384 5.2763 5.8909 5.18711 5.95707 5.11012C6.02268 5.03263 6.10034 4.96495 6.18471 4.91095C6.26791 4.85404 6.35787 4.81162 6.44799 4.77202L6.70707 4.66746C6.79464 4.63386 6.88161 4.59898 6.9704 4.5677C7.05819 4.53471 7.14867 4.5057 7.23922 4.47654L7.37795 4.43734L7.52085 4.40516C7.6186 4.38894 7.71901 4.37488 7.82334 4.38117C7.92732 4.38275 8.03179 4.40927 8.12579 4.44641C8.22086 4.48409 8.3018 4.5367 8.37867 4.58975C8.45445 4.6439 8.52399 4.70112 8.59214 4.75862L8.38279 4.84819C8.38883 4.67551 8.40849 4.51147 8.44292 4.34251C8.47895 4.17482 8.52686 4.00523 8.62284 3.839C8.67158 3.75659 8.73432 3.67393 8.82368 3.60521C8.91245 3.53625 9.03416 3.49241 9.14837 3.48888C9.31923 3.48421 9.4862 3.46955 9.6628 3.46083C9.8378 3.45281 10.0163 3.44697 10.1966 3.46283C10.3763 3.47835 10.5603 3.5104 10.7348 3.58394C10.8217 3.62102 10.9054 3.66859 10.9804 3.72844C11.0552 3.78872 11.1184 3.86242 11.168 3.94234C11.2685 4.10393 11.3015 4.288 11.3069 4.4624L11.3082 4.49536L11.3074 4.52894L11.3029 4.71108C11.2967 4.79496 11.2917 4.88012 11.2832 4.96346C11.2642 5.12933 11.2379 5.29474 11.2003 5.45829C11.1829 5.54024 11.1626 5.62174 11.139 5.70272C11.1182 5.78405 11.0905 5.86413 11.0644 5.9444C11.0076 6.10383 10.9438 6.26158 10.8655 6.41435C10.79 6.56781 10.6995 6.71659 10.5921 6.8561C10.4842 6.99346 10.3578 7.12984 10.1859 7.21384L10.1268 7.2417L10.058 7.26524C10.0123 7.28314 9.96659 7.28653 9.92121 7.29671C9.82916 7.30704 9.73777 7.30342 9.65026 7.2872C9.4807 7.25163 9.32992 7.17418 9.20478 7.06998ZM9.21461 7.04255C9.34807 7.13299 9.50632 7.194 9.66728 7.21519C9.74845 7.22357 9.83009 7.2199 9.90912 7.20497C9.94708 7.19288 9.98885 7.18679 10.0229 7.16944L10.076 7.14748L10.1321 7.11552C10.2668 7.03455 10.3764 6.9111 10.4673 6.77784C10.5584 6.64415 10.6352 6.50013 10.6977 6.35105C10.7629 6.20294 10.8144 6.04968 10.859 5.89535C10.9028 5.74085 10.9424 5.5851 10.9684 5.42766C10.9981 5.27069 11.0143 5.11262 11.028 4.95499C11.0336 4.87654 11.0359 4.79963 11.0396 4.72151L11.0384 4.5125L11.0364 4.485C11.0282 4.33814 10.9937 4.19839 10.9216 4.0862C10.8517 3.97265 10.7416 3.88857 10.607 3.8338C10.4726 3.77851 10.3172 3.75083 10.1571 3.73889C9.99672 3.72684 9.83061 3.72643 9.66197 3.73306C9.49482 3.73902 9.3179 3.75201 9.14498 3.75443C9.08738 3.75672 9.03702 3.77274 8.98809 3.80738C8.93966 3.84276 8.89486 3.89526 8.85702 3.95629C8.78109 4.07937 8.73183 4.22952 8.69616 4.38071C8.66112 4.53191 8.63825 4.69193 8.62927 4.8432L8.61368 5.10466L8.41992 4.93277C8.35622 4.87619 8.29201 4.82095 8.22628 4.77144C8.16018 4.72334 8.09325 4.67808 8.0224 4.64842C7.95141 4.61904 7.87864 4.59746 7.79896 4.59488C7.72059 4.58802 7.63647 4.59823 7.5521 4.61049L7.42387 4.63711L7.29464 4.67124C7.2084 4.69755 7.12202 4.72346 7.03577 4.75416C6.94929 4.78287 6.86363 4.81554 6.77771 4.84682L6.51971 4.94579C6.35944 5.0107 6.2079 5.09755 6.10333 5.21895C5.99471 5.33779 5.94304 5.49124 5.93783 5.64875C5.9321 5.80691 5.97232 5.96772 6.03218 6.12022C6.06236 6.19661 6.09821 6.27151 6.13836 6.34416C6.17806 6.41628 6.22361 6.48903 6.27077 6.5529L6.29191 6.58152L6.28346 6.61341C6.24998 6.73983 6.16761 6.84796 6.07815 6.93044C5.98877 7.01519 5.89199 7.08269 5.80539 7.15352C5.71981 7.22339 5.64171 7.29839 5.61731 7.38059C5.59051 7.46169 5.62287 7.5547 5.67693 7.63853C5.73077 7.72314 5.80387 7.80108 5.88029 7.87448C5.91815 7.91072 5.9584 7.94668 6.00111 7.9822C6.04095 8.01911 6.08498 8.04493 6.12665 8.07725C6.21758 8.12923 6.31349 8.17674 6.42026 8.19897C6.52549 8.22384 6.63611 8.23545 6.74797 8.23093C6.8598 8.23011 6.97235 8.21208 7.084 8.19058C7.1952 8.16544 7.30632 8.13664 7.41468 8.09754C7.63256 8.0232 7.84306 7.92549 8.04691 7.81636C8.25113 7.70757 8.44849 7.58605 8.64023 7.45667C8.83161 7.32696 9.0184 7.19015 9.19563 7.04346L9.20452 7.03607L9.21461 7.04255Z" fill="#1E1E1E"/>
<path d="M9.21214 7.06379C8.96319 7.21503 8.69287 7.33117 8.41128 7.4136C8.34085 7.43405 8.26954 7.45171 8.19759 7.46694C8.12564 7.48218 8.05298 7.49376 7.97999 7.50372C7.90677 7.51205 7.83343 7.51833 7.75972 7.5205C7.68618 7.52179 7.61224 7.52196 7.53889 7.51522C7.46519 7.51127 7.39239 7.4995 7.32024 7.48645C7.28449 7.4786 7.24823 7.47174 7.21262 7.46291L7.10729 7.43197C7.03874 7.40759 6.96909 7.38395 6.90502 7.35032C6.8384 7.32063 6.77755 7.28249 6.71571 7.2454C6.65767 7.20405 6.59616 7.16546 6.54361 7.11796L6.46258 7.04866L6.38806 6.97366C6.33635 6.92504 6.29483 6.8688 6.24876 6.81583C6.20489 6.76137 6.16659 6.70338 6.12517 6.6471L6.1012 6.61444L6.11862 6.57226C6.14488 6.50887 6.17095 6.45385 6.20157 6.39763C6.23039 6.34126 6.26407 6.28762 6.29616 6.23306C6.33146 6.18044 6.36462 6.12642 6.40245 6.0753C6.44113 6.02479 6.4762 5.97157 6.51838 5.92348C6.56022 5.87517 6.59809 5.82346 6.64343 5.77791C6.688 5.7316 6.73032 5.68323 6.77692 5.63872L6.91846 5.50629L7.06918 5.38296C7.11831 5.34029 7.17371 5.30561 7.22678 5.26761C7.28041 5.23046 7.33249 5.19075 7.38989 5.15914L7.55893 5.05877C7.61636 5.02726 7.67604 4.99955 7.73513 4.97089C7.79448 4.94261 7.85327 4.91279 7.91536 4.89135L8.09959 4.82107C8.16026 4.79506 8.22473 4.78186 8.28753 4.76338L8.53568 4.69554L8.5849 4.72569C8.64583 4.763 8.68555 4.7958 8.72988 4.83407C8.77263 4.87142 8.8127 4.91032 8.84992 4.9513C8.88724 4.99224 8.92237 5.03467 8.9538 5.07925C8.98786 5.12218 9.01577 5.16874 9.04445 5.21467C9.07481 5.25975 9.09704 5.30884 9.12209 5.35643C9.14864 5.40337 9.16591 5.45426 9.18557 5.50381L9.21445 5.57837L9.23662 5.65503C9.24986 5.70646 9.26908 5.75618 9.27685 5.80868L9.30423 5.9647C9.31208 6.01672 9.31379 6.0697 9.31884 6.12192C9.32331 6.17424 9.32822 6.2264 9.32498 6.27911L9.32137 6.43626C9.32268 6.48847 9.31144 6.54074 9.30614 6.59258L9.28619 6.74797C9.26593 6.85078 9.24306 6.95294 9.21857 7.05407L9.21698 7.06064L9.21214 7.06379ZM9.19104 7.04484C9.19145 6.94429 9.19505 6.84465 9.19781 6.74578L9.19031 6.59474C9.18629 6.54468 9.18851 6.4943 9.18079 6.44501L9.16305 6.29701C9.15888 6.24757 9.14749 6.1995 9.13815 6.15126C9.12779 6.10327 9.12077 6.05453 9.10787 6.00747L9.06641 5.86752C9.05527 5.82017 9.03321 5.77667 9.01731 5.73128L8.99143 5.66393L8.95939 5.59951C8.93817 5.55663 8.91791 5.51328 8.8923 5.47304C8.86742 5.43241 8.84562 5.38997 8.81638 5.35243C8.78887 5.3138 8.76223 5.27451 8.73039 5.23941C8.70105 5.20225 8.66837 5.16827 8.63507 5.13497C8.60262 5.10125 8.56756 5.06963 8.53178 5.04047C8.4978 5.0118 8.45485 4.98213 8.42678 4.96526L8.53448 4.97943L8.35962 5.02855C8.30196 5.04677 8.24167 5.05707 8.18553 5.07946L8.01446 5.13965C7.95651 5.15775 7.90211 5.18389 7.847 5.20844C7.79234 5.23387 7.73547 5.25526 7.6814 5.28197L7.52142 5.36683C7.46676 5.39329 7.41738 5.42775 7.36605 5.45957C7.31567 5.49266 7.26279 5.52263 7.21596 5.56031L7.07143 5.66882L6.93487 5.78653C6.88958 5.82607 6.8489 5.87004 6.8056 5.91162C6.76146 5.95259 6.72478 5.99971 6.68388 6.04341C6.64253 6.08693 6.6084 6.13555 6.57018 6.18151C6.53292 6.22804 6.5003 6.27737 6.46532 6.32538C6.43368 6.37505 6.40021 6.42412 6.37171 6.47518C6.34183 6.5249 6.3144 6.57892 6.29242 6.62634L6.2859 6.5516C6.32238 6.60529 6.35598 6.66131 6.39473 6.71337C6.43554 6.76387 6.47203 6.81825 6.51793 6.8646L6.58392 6.93672L6.6558 7.00312C6.7024 7.04898 6.75719 7.08587 6.80883 7.12609C6.86409 7.16188 6.91844 7.19928 6.97827 7.22845C7.03577 7.26147 7.09859 7.28552 7.16025 7.31149L7.25571 7.34476C7.28816 7.3545 7.32126 7.36228 7.35408 7.37131C7.42033 7.38663 7.4876 7.40099 7.55639 7.40788C7.62467 7.41749 7.69444 7.42057 7.7641 7.42265C7.83397 7.42396 7.90423 7.42121 7.97467 7.41655C8.045 7.41021 8.11543 7.40244 8.18563 7.39095C8.25579 7.37936 8.32576 7.36554 8.39528 7.34877C8.67043 7.28216 8.94105 7.18055 9.19104 7.04484Z" fill="#1E1E1E"/>
<path d="M9.19168 7.04864C9.19168 7.04864 9.20461 7.00474 9.22727 6.92802C9.23779 6.8895 9.25394 6.84316 9.26765 6.78976C9.28168 6.73658 9.29749 6.67665 9.31479 6.61122C9.3286 6.5451 9.34585 6.47404 9.35999 6.39857C9.37194 6.32287 9.38904 6.24391 9.39667 6.16183C9.40826 6.08003 9.4118 5.99563 9.41531 5.91113C9.41694 5.82662 9.4138 5.74166 9.40215 5.65967C9.38922 5.57793 9.36972 5.49869 9.33807 5.42848C9.3052 5.35906 9.27007 5.29473 9.22636 5.24171C9.18517 5.18673 9.13882 5.13986 9.09 5.09711C9.0392 5.05681 8.98443 5.02338 8.92992 4.99515C8.82022 4.93917 8.71126 4.90851 8.63365 4.88766C8.55541 4.86749 8.50751 4.85875 8.50751 4.85875L8.50489 4.83239C8.50489 4.83239 8.55218 4.80964 8.64035 4.79208C8.68449 4.78293 8.73876 4.77562 8.80191 4.7742C8.86476 4.77334 8.9375 4.77602 9.01481 4.79365C9.09237 4.80991 9.17536 4.83838 9.25577 4.88438C9.33644 4.92972 9.41078 4.99569 9.47037 5.07451C9.53062 5.15379 9.56709 5.24853 9.59171 5.34354C9.61511 5.43934 9.62681 5.53652 9.62805 5.63267C9.63122 5.72869 9.62448 5.82347 9.61285 5.91543C9.6003 6.00725 9.58352 6.0967 9.56063 6.18134C9.52003 6.35185 9.46109 6.50448 9.41132 6.63441C9.3566 6.76372 9.31189 6.87025 9.27431 6.94225C9.23864 7.01506 9.21829 7.0567 9.21829 7.0567L9.19168 7.04864Z" fill="#1E1E1E"/>
<path d="M133.901 10.7164C133.901 10.7164 133.937 10.7104 134.001 10.7102C134.033 10.7117 134.073 10.7117 134.117 10.7201C134.163 10.7251 134.212 10.7393 134.268 10.7538C134.32 10.7741 134.38 10.794 134.437 10.828C134.498 10.8563 134.551 10.9027 134.609 10.9465C134.659 10.9972 134.718 11.0471 134.758 11.1094C134.78 11.1396 134.804 11.1695 134.824 11.2012L134.877 11.2992C134.917 11.3643 134.94 11.4324 134.97 11.4993C135.003 11.5663 135.017 11.6338 135.032 11.6996C135.045 11.7657 135.053 11.8299 135.049 11.89C135.048 11.9503 135.045 12.0068 135.04 12.0587C135.035 12.1106 135.02 12.1567 135.01 12.1978C134.999 12.2388 134.988 12.2741 134.977 12.303C134.957 12.3607 134.94 12.3925 134.94 12.3925L134.912 12.3899C134.912 12.3899 134.896 12.3551 134.876 12.2962C134.866 12.2667 134.856 12.2313 134.845 12.191C134.834 12.1509 134.827 12.1057 134.813 12.0575C134.799 12.0093 134.787 11.9575 134.776 11.9031C134.77 11.8761 134.767 11.8478 134.761 11.8198C134.752 11.792 134.748 11.7635 134.742 11.7345C134.731 11.6767 134.729 11.6146 134.715 11.5551C134.703 11.4951 134.695 11.4307 134.669 11.3737L134.636 11.2853C134.623 11.2569 134.607 11.2306 134.592 11.2031C134.565 11.1461 134.525 11.1006 134.491 11.0509C134.449 11.0085 134.411 10.9626 134.365 10.9303C134.322 10.8927 134.275 10.8671 134.231 10.8406C134.186 10.8198 134.143 10.7985 134.103 10.7868C134.064 10.7719 134.028 10.7652 133.998 10.7571C133.939 10.7447 133.904 10.743 133.904 10.743L133.901 10.7164Z" fill="#1E1E1E"/>
<path d="M128.653 3.51008C128.653 3.51008 131.662 1.91788 132.049 4.74613C132.049 4.74613 133.787 4.97588 133.886 6.6506C133.886 6.6506 135.599 7.22728 135.239 7.93893C134.879 8.65058 134.123 9.08124 134.723 9.36804C135.323 9.65498 135.813 9.70023 135.835 9.91545C135.858 10.1307 134.601 13.5848 133.91 14.093C133.219 14.6011 132.025 14.8222 130.923 14.5145C130.923 14.5145 128.23 17.1862 124.693 13.2772C124.693 13.2772 117.837 11.5375 120.356 7.67543C120.356 7.67543 119.25 3.4854 123.286 3.24135C127.322 2.99713 126.769 2.29076 128.653 3.51008Z" fill="#FF0084"/>
<path d="M129.097 4.90049C129.097 4.90049 129.131 4.86814 129.196 4.81876C129.23 4.79536 129.27 4.76491 129.319 4.73638C129.368 4.7054 129.425 4.67484 129.489 4.64195C129.553 4.61082 129.624 4.57753 129.701 4.54795C129.779 4.51818 129.862 4.48941 129.951 4.46662C130.038 4.43911 130.132 4.42328 130.228 4.40472C130.323 4.3884 130.422 4.38015 130.521 4.36909C130.62 4.3649 130.72 4.35735 130.819 4.35606C130.918 4.35801 131.016 4.35815 131.11 4.36947C131.203 4.38508 131.293 4.40229 131.377 4.42366C131.461 4.44649 131.538 4.47536 131.609 4.50139C131.751 4.55011 131.877 4.6226 131.953 4.66563C132.029 4.71002 132.086 4.74549 132.086 4.74549L132.077 4.77032C132.077 4.77032 132.009 4.76382 131.923 4.75555C131.88 4.75174 131.821 4.74247 131.762 4.73421C131.733 4.73132 131.699 4.72195 131.666 4.71931C131.633 4.71636 131.597 4.71271 131.562 4.7078C131.526 4.70338 131.489 4.69838 131.451 4.69355C131.413 4.68814 131.374 4.67935 131.334 4.67603C131.253 4.67015 131.17 4.65867 131.083 4.64459C130.997 4.63199 130.908 4.62187 130.817 4.60543C130.726 4.59231 130.633 4.59044 130.539 4.58224C130.447 4.58408 130.353 4.58296 130.262 4.58971C130.172 4.59946 130.081 4.60296 129.995 4.61947C129.953 4.62673 129.91 4.63159 129.869 4.64061C129.828 4.64973 129.788 4.65872 129.749 4.66753C129.672 4.68548 129.6 4.70769 129.534 4.72891C129.468 4.7519 129.408 4.77349 129.357 4.79675C129.305 4.8179 129.262 4.84133 129.225 4.85831C129.153 4.89553 129.116 4.92111 129.116 4.92111L129.097 4.90049Z" fill="#1E1E1E"/>
<path d="M129.871 4.55885C129.871 4.55885 129.893 4.57464 129.931 4.60233C129.95 4.61635 129.972 4.63273 129.998 4.65449C130 4.65505 130.013 4.67004 130.013 4.6842C130.012 4.69921 130.011 4.70845 130.001 4.7115C129.993 4.71738 129.97 4.7199 129.957 4.71254C129.951 4.70995 129.945 4.70519 129.943 4.70412L129.941 4.70222C129.933 4.69716 129.926 4.69188 129.918 4.68656C129.903 4.67583 129.888 4.66468 129.871 4.65294C129.74 4.56002 129.571 4.43159 129.405 4.29935C129.323 4.23288 129.23 4.17652 129.157 4.11031C129.085 4.04282 129.029 3.97008 128.985 3.90388C128.941 3.83697 128.908 3.77788 128.889 3.73255C128.87 3.68808 128.862 3.65933 128.862 3.65933L128.882 3.64096C128.882 3.64096 128.912 3.64825 128.959 3.66671C129.007 3.68441 129.07 3.71532 129.141 3.75635C129.211 3.79823 129.288 3.85135 129.36 3.9187C129.43 3.9874 129.49 4.07489 129.561 4.15198C129.631 4.23025 129.702 4.30734 129.765 4.38223C129.83 4.45598 129.889 4.52665 129.939 4.5864C129.952 4.60126 129.964 4.61548 129.976 4.62895C129.982 4.63552 129.987 4.64195 129.993 4.64816L129.995 4.65051C129.995 4.65051 129.991 4.6473 129.986 4.646C129.976 4.64122 129.957 4.64622 129.952 4.65468C129.948 4.66281 129.94 4.66533 129.938 4.67822C129.935 4.68925 129.946 4.70114 129.945 4.69883C129.926 4.6739 129.909 4.65203 129.895 4.63414C129.867 4.59782 129.851 4.57702 129.851 4.57702L129.871 4.55885Z" fill="#1E1E1E"/>
<path d="M125.707 3.06468C125.586 3.13226 125.473 3.21396 125.368 3.3027C125.264 3.39172 125.168 3.48978 125.086 3.59712C125.004 3.70421 124.934 3.82075 124.886 3.94526C124.836 4.06932 124.81 4.20169 124.805 4.33546L124.805 4.34456L124.798 4.35188C124.553 4.60592 124.349 4.89856 124.18 5.20573C124.012 5.51363 123.885 5.84235 123.807 6.1831C123.728 6.52366 123.706 6.8771 123.738 7.22803C123.769 7.58165 123.836 7.93286 123.944 8.27451C124.052 8.61569 124.203 8.94664 124.401 9.25149C124.598 9.55655 124.844 9.83477 125.128 10.0703C125.413 10.3063 125.736 10.499 126.079 10.6459C126.122 10.6646 126.165 10.6827 126.209 10.699C126.25 10.7145 126.301 10.7368 126.331 10.7435C126.347 10.7479 126.362 10.748 126.363 10.7473C126.364 10.7449 126.351 10.7553 126.354 10.7541C126.358 10.7478 126.356 10.7052 126.346 10.6692C126.303 10.5132 126.214 10.3483 126.128 10.1904C125.951 9.87249 125.752 9.56149 125.551 9.25159L124.94 8.32335C124.838 8.1679 124.737 8.01202 124.64 7.85202C124.591 7.77166 124.543 7.69124 124.5 7.60403C124.488 7.58111 124.479 7.56188 124.467 7.53323L124.442 7.46874C124.425 7.42031 124.411 7.37384 124.399 7.32744C124.307 6.95383 124.334 6.57491 124.43 6.22071C124.528 5.86619 124.703 5.53571 124.934 5.24814C125.049 5.10414 125.178 4.97016 125.316 4.84702C125.35 4.81549 125.386 4.78638 125.422 4.75659L125.449 4.7343L125.466 4.72061L125.534 4.67037C125.567 4.64373 125.615 4.6165 125.657 4.58983C125.7 4.56169 125.746 4.54301 125.79 4.51941C125.97 4.43361 126.178 4.38725 126.387 4.38494C126.596 4.38485 126.805 4.42834 126.997 4.50114C127.19 4.57422 127.368 4.67353 127.532 4.78701C127.698 4.90237 127.846 5.02533 127.989 5.17551L127.825 5.13225L128.036 5.06465C128.108 5.04594 128.18 5.02521 128.252 5.00822C128.326 4.99377 128.398 4.97465 128.474 4.96489C128.548 4.95356 128.623 4.94174 128.699 4.93625C128.774 4.92762 128.851 4.92509 128.928 4.92262C129.004 4.92065 129.081 4.92281 129.158 4.92642C129.236 4.93169 129.313 4.93751 129.39 4.94931C129.467 4.95824 129.543 4.97506 129.62 4.99116L129.734 5.01924L129.846 5.05332C129.92 5.07813 129.994 5.10435 130.066 5.13584C130.138 5.16601 130.209 5.19994 130.277 5.23732C130.346 5.27383 130.413 5.31363 130.478 5.35723C130.543 5.39973 130.605 5.44623 130.665 5.49436C130.726 5.54243 130.783 5.59354 130.839 5.64645C130.895 5.69957 130.948 5.7552 130.998 5.81293C131.049 5.87231 131.095 5.92806 131.142 6.00005L131.043 5.93758C131.356 5.98484 131.672 6.05508 131.971 6.189C132.121 6.25541 132.266 6.33945 132.395 6.44617C132.524 6.55186 132.634 6.68394 132.71 6.83047C132.786 6.97701 132.827 7.13606 132.837 7.2916C132.847 7.44744 132.829 7.59987 132.796 7.74581C132.762 7.89191 132.712 8.03195 132.651 8.16635C132.621 8.23362 132.588 8.29942 132.552 8.36394C132.516 8.42885 132.479 8.49057 132.435 8.55448L132.341 8.4356L132.503 8.39367C132.555 8.37674 132.609 8.36114 132.661 8.34302C132.712 8.32287 132.765 8.30615 132.815 8.28327C132.865 8.26128 132.916 8.23983 132.963 8.21386C133.013 8.19006 133.059 8.16232 133.105 8.13452C133.152 8.10668 133.196 8.07619 133.24 8.04501C133.283 8.01278 133.326 7.98016 133.365 7.94399C133.406 7.90963 133.443 7.87065 133.479 7.83228C133.516 7.79321 133.549 7.75227 133.581 7.70974C133.612 7.66683 133.642 7.62312 133.669 7.57711C133.696 7.53161 133.72 7.48448 133.742 7.43593C133.764 7.38778 133.783 7.33817 133.799 7.28747C133.832 7.18641 133.856 7.08169 133.869 6.97508C133.881 6.86871 133.885 6.75936 133.872 6.65219L133.9 6.64886C133.921 6.75988 133.924 6.87059 133.919 6.98123C133.914 7.09182 133.895 7.20131 133.867 7.30815C133.853 7.36162 133.836 7.41442 133.815 7.46601C133.796 7.51797 133.773 7.56856 133.747 7.61789C133.722 7.66774 133.693 7.71529 133.663 7.76239C133.632 7.80911 133.598 7.85415 133.563 7.89757C133.419 8.07064 133.239 8.21735 133.036 8.32791C132.987 8.35721 132.934 8.38175 132.882 8.40692C132.83 8.43294 132.776 8.45256 132.722 8.4757C132.668 8.4967 132.613 8.51498 132.558 8.5348L132.181 8.64734L132.297 8.46593C132.332 8.41021 132.367 8.34745 132.398 8.28588C132.429 8.2237 132.458 8.16048 132.484 8.0961C132.536 7.96756 132.577 7.83521 132.602 7.70085C132.654 7.43355 132.639 7.15235 132.511 6.91736C132.384 6.681 132.145 6.50829 131.878 6.3966C131.61 6.28278 131.315 6.22149 131.018 6.18292L130.957 6.17492L130.919 6.12045C130.887 6.07382 130.841 6.01766 130.796 5.96863C130.751 5.91857 130.703 5.86985 130.652 5.82355C130.601 5.77732 130.549 5.7328 130.494 5.6911C130.44 5.64934 130.384 5.60898 130.325 5.57258C130.267 5.53545 130.208 5.50016 130.147 5.46832C130.086 5.43565 130.024 5.4061 129.96 5.37987C129.897 5.35236 129.831 5.32975 129.766 5.3082L129.667 5.27858L129.566 5.25442C129.499 5.24079 129.431 5.22601 129.362 5.21864C129.294 5.20843 129.225 5.20378 129.156 5.19937C129.088 5.19666 129.019 5.19494 128.95 5.1972C128.881 5.19991 128.812 5.20233 128.743 5.21082C128.674 5.21599 128.606 5.22741 128.538 5.2381C128.47 5.24747 128.403 5.26496 128.335 5.27735C128.268 5.2924 128.201 5.31123 128.134 5.32788L127.842 5.41882L127.773 5.34615C127.535 5.09765 127.229 4.87219 126.903 4.74507C126.74 4.68083 126.569 4.64374 126.4 4.64128C126.232 4.64147 126.066 4.67506 125.914 4.74408C125.878 4.76327 125.837 4.77899 125.804 4.80053C125.77 4.82205 125.737 4.83821 125.699 4.86715L125.644 4.90657L125.63 4.91642L125.627 4.91888C125.626 4.91933 125.633 4.91399 125.627 4.91888L125.621 4.9236L125.596 4.9441C125.562 4.97146 125.527 4.9982 125.495 5.02711C125.364 5.14021 125.242 5.26313 125.133 5.39518C124.915 5.65887 124.748 5.96161 124.653 6.28645C124.559 6.61002 124.532 6.95997 124.61 7.29007C124.62 7.33131 124.632 7.37169 124.645 7.40911L124.668 7.47233C124.674 7.48598 124.684 7.50817 124.693 7.52641C124.73 7.60357 124.776 7.68261 124.822 7.76081C124.915 7.91742 125.014 8.07331 125.113 8.22885L125.714 9.16308C125.912 9.47649 126.11 9.79089 126.288 10.1184C126.374 10.2843 126.463 10.4461 126.515 10.64C126.524 10.6907 126.541 10.7411 126.515 10.8189C126.502 10.8591 126.45 10.9009 126.404 10.9059C126.359 10.913 126.325 10.9062 126.296 10.8991C126.233 10.8821 126.197 10.8631 126.15 10.8453C126.104 10.8279 126.059 10.8085 126.015 10.7885C125.659 10.6316 125.323 10.4265 125.029 10.1768C124.734 9.92744 124.481 9.63449 124.28 9.31577C124.08 8.99669 123.93 8.65308 123.825 8.30161C123.72 7.94991 123.657 7.58973 123.632 7.23092C123.604 6.86952 123.633 6.50723 123.719 6.16061C123.804 5.8137 123.94 5.48131 124.116 5.17148C124.292 4.86193 124.502 4.57091 124.757 4.31428L124.75 4.33084C124.757 4.19149 124.787 4.05428 124.84 3.92699C124.892 3.79912 124.966 3.6807 125.052 3.57251C125.138 3.46422 125.237 3.36598 125.344 3.27735C125.452 3.18887 125.567 3.10831 125.692 3.04097L125.707 3.06468Z" fill="#1E1E1E"/>
<path d="M120.37 7.67422C120.37 7.67422 120.379 7.70778 120.406 7.76443C120.42 7.79273 120.439 7.82586 120.46 7.86372C120.485 7.90069 120.51 7.94246 120.544 7.98527C120.575 8.02938 120.617 8.073 120.656 8.12027C120.702 8.16438 120.743 8.21485 120.795 8.26006C120.844 8.30723 120.897 8.35419 120.953 8.39992C121.007 8.44738 121.066 8.49144 121.125 8.53515C121.243 8.62265 121.372 8.69548 121.488 8.76988C121.545 8.80852 121.597 8.84991 121.648 8.88808C121.7 8.92604 121.747 8.96384 121.789 9.00086C121.832 9.03772 121.872 9.07148 121.907 9.10138C121.941 9.13234 121.971 9.16036 121.995 9.18478C122.043 9.23299 122.069 9.26496 122.069 9.26496L122.056 9.28804C122.056 9.28804 122.016 9.28315 121.948 9.26687C121.914 9.25895 121.873 9.24787 121.827 9.23392C121.781 9.21903 121.728 9.20395 121.675 9.17943C121.621 9.15668 121.563 9.12999 121.503 9.09958C121.442 9.07193 121.383 9.03177 121.322 8.99132C121.262 8.94967 121.204 8.90238 121.148 8.8491C121.092 8.79676 121.033 8.74733 120.979 8.69116C120.922 8.6378 120.867 8.58461 120.816 8.52763C120.763 8.47332 120.715 8.4152 120.671 8.35843C120.624 8.3035 120.587 8.24395 120.549 8.19066C120.516 8.13366 120.482 8.08216 120.458 8.03037C120.431 7.98036 120.412 7.932 120.395 7.89004C120.379 7.84689 120.366 7.80947 120.359 7.77759C120.344 7.71477 120.342 7.67695 120.342 7.67695L120.37 7.67422Z" fill="#1E1E1E"/>
<path d="M124.449 13.195C124.948 13.2507 125.447 13.3013 125.946 13.3355L126.32 13.3591C126.444 13.3662 126.568 13.3715 126.692 13.3748C126.816 13.3787 126.94 13.3787 127.062 13.3769L127.244 13.3689C127.304 13.3648 127.362 13.3568 127.421 13.3512L127.454 13.3481L127.484 13.3619C127.55 13.3916 127.621 13.4197 127.69 13.4484C127.759 13.4775 127.831 13.5023 127.901 13.5295C128.041 13.5844 128.184 13.6312 128.327 13.6796C128.469 13.7299 128.615 13.7688 128.758 13.8161L128.973 13.8858C129.045 13.9077 129.117 13.929 129.189 13.9525C129.26 13.9757 129.333 13.9978 129.404 14.0225C129.475 14.0471 129.547 14.0714 129.619 14.0916C129.764 14.1341 129.908 14.1803 130.053 14.226C130.125 14.2495 130.197 14.2746 130.27 14.2938L130.488 14.3586C130.633 14.4036 130.779 14.4489 130.924 14.5014L130.92 14.5276C130.768 14.518 130.616 14.5012 130.464 14.4841L130.236 14.4558C130.16 14.4467 130.085 14.4315 130.01 14.4178C129.86 14.3883 129.709 14.3591 129.559 14.3266C129.409 14.2951 129.261 14.2523 129.113 14.212C129.039 14.192 128.965 14.1697 128.892 14.1481C128.818 14.1263 128.746 14.0983 128.674 14.0737L128.457 13.9949C128.385 13.9688 128.313 13.9401 128.242 13.9101C128.1 13.8503 127.957 13.7959 127.817 13.7316C127.675 13.6699 127.536 13.6072 127.395 13.537L127.458 13.5477C127.393 13.551 127.328 13.5565 127.263 13.5578L127.071 13.557C126.944 13.5527 126.818 13.5465 126.691 13.5365C126.565 13.527 126.44 13.5156 126.314 13.5024C126.189 13.4896 126.063 13.4751 125.939 13.4584C125.439 13.3919 124.941 13.315 124.446 13.2212L124.449 13.195Z" fill="#1E1E1E"/>
<path d="M125.659 11.845C125.659 11.845 125.66 11.8543 125.664 11.8711C125.67 11.8862 125.678 11.9082 125.69 11.9363C125.706 11.9634 125.727 11.9963 125.75 12.0341C125.774 12.0707 125.812 12.1084 125.846 12.1508C125.865 12.1714 125.881 12.1946 125.904 12.215C125.927 12.2354 125.95 12.2565 125.974 12.2782C126.023 12.321 126.071 12.3682 126.124 12.4138C126.181 12.4565 126.24 12.5006 126.3 12.5456C126.36 12.5898 126.416 12.6388 126.481 12.6799C126.546 12.7199 126.611 12.761 126.676 12.7991C126.741 12.8373 126.804 12.8761 126.862 12.917C126.917 12.9606 126.977 12.9967 127.028 13.0383C127.08 13.078 127.129 13.1172 127.172 13.1554C127.348 13.3054 127.447 13.4382 127.447 13.4382L127.433 13.4606C127.433 13.4606 127.27 13.4282 127.052 13.3303C126.997 13.3065 126.939 13.2788 126.879 13.2472C126.818 13.2164 126.754 13.1834 126.696 13.1383C126.636 13.0938 126.578 13.0446 126.52 12.9932C126.462 12.9418 126.401 12.8919 126.342 12.841C126.281 12.7917 126.227 12.7327 126.17 12.6801C126.115 12.626 126.061 12.5727 126.009 12.521C125.961 12.4651 125.916 12.409 125.874 12.3565C125.853 12.3303 125.833 12.3047 125.814 12.2799C125.794 12.2553 125.78 12.2269 125.765 12.2022C125.735 12.151 125.705 12.1073 125.686 12.064C125.669 12.0197 125.654 11.9812 125.642 11.9495C125.636 11.9147 125.632 11.8877 125.63 11.8699C125.631 11.8529 125.631 11.8438 125.631 11.8438L125.659 11.845Z" fill="#1E1E1E"/>
<path d="M126.27 10.8199C126.27 10.8199 126.263 10.8214 126.251 10.8276C126.239 10.8335 126.223 10.8461 126.228 10.8606C126.23 10.8756 126.251 10.9014 126.28 10.9252C126.31 10.9496 126.347 10.9748 126.391 10.9996C126.565 11.0992 126.819 11.2051 127.072 11.3087C127.198 11.3608 127.332 11.3975 127.45 11.4481C127.568 11.5004 127.672 11.5612 127.76 11.6175C127.847 11.6752 127.919 11.7269 127.967 11.7684C128.015 11.8088 128.041 11.8364 128.041 11.8364L128.031 11.8607C128.031 11.8607 127.88 11.8625 127.675 11.8116C127.572 11.7869 127.455 11.7511 127.335 11.698C127.217 11.6432 127.1 11.565 126.977 11.4978C126.856 11.4291 126.734 11.3599 126.624 11.2876C126.513 11.2166 126.413 11.1439 126.332 11.0743C126.292 11.0397 126.256 11.0053 126.227 10.9704C126.2 10.9356 126.174 10.8998 126.178 10.8567C126.18 10.8359 126.193 10.8192 126.205 10.8117C126.217 10.8037 126.228 10.7998 126.237 10.7977C126.254 10.7935 126.265 10.7937 126.265 10.7937L126.27 10.8199Z" fill="#1E1E1E"/>
<path d="M125.903 9.61681C125.903 9.61681 126.221 9.70926 126.784 9.84398C127.066 9.91091 127.409 9.98826 127.805 10.0639C128.2 10.1389 128.648 10.2145 129.138 10.2594C129.383 10.281 129.639 10.2949 129.9 10.2849C130.03 10.2798 130.162 10.2683 130.291 10.2441C130.42 10.2199 130.545 10.1833 130.655 10.1194L130.702 10.0938C130.72 10.0853 130.732 10.0776 130.761 10.0679C130.767 10.0667 130.77 10.0649 130.785 10.0641C130.789 10.0314 130.888 10.1273 130.859 10.1496C130.853 10.1678 130.849 10.1705 130.846 10.1748L130.839 10.184C130.83 10.1936 130.823 10.2001 130.816 10.2065C130.802 10.2193 130.788 10.2305 130.774 10.2417C130.719 10.2858 130.663 10.3268 130.607 10.3677C130.493 10.4489 130.376 10.528 130.256 10.6065C130.018 10.7633 129.769 10.9173 129.512 11.0676C128.996 11.3658 128.45 11.6589 127.847 11.8795C127.695 11.9336 127.54 11.9821 127.377 12.0182C127.215 12.0534 127.042 12.0788 126.863 12.0638C126.538 12.0403 126.206 12.0228 125.873 11.9833C125.54 11.9445 125.207 11.8848 124.88 11.7937C124.555 11.7006 124.236 11.5783 123.939 11.4198C123.341 11.1049 122.84 10.6528 122.461 10.1582C122.083 9.66001 121.809 9.13079 121.608 8.61382C121.509 8.34939 121.438 8.08719 121.403 7.82598C121.369 7.56549 121.376 7.30821 121.428 7.07024C121.479 6.83172 121.582 6.61617 121.714 6.43788C121.846 6.25874 122.004 6.11577 122.166 6.00187C122.492 5.77398 122.826 5.65737 123.101 5.58384C123.378 5.51122 123.603 5.47951 123.756 5.46479C123.909 5.45025 123.993 5.4498 123.993 5.4498L123.995 5.47648C123.995 5.47648 123.915 5.4838 123.766 5.51122C123.617 5.53949 123.399 5.5837 123.136 5.67382C123.005 5.71856 122.863 5.77586 122.716 5.84872C122.569 5.92114 122.416 6.01002 122.271 6.12421C122.126 6.23795 121.989 6.37691 121.879 6.54419C121.77 6.71125 121.69 6.90635 121.652 7.1204C121.574 7.54974 121.667 8.04622 121.865 8.53342C121.887 8.5931 121.918 8.65837 121.944 8.72125C121.973 8.78225 122.002 8.84354 122.031 8.90531C122.087 9.03124 122.156 9.15334 122.222 9.27845C122.359 9.52577 122.517 9.76917 122.696 10.0033C123.049 10.4745 123.511 10.8982 124.062 11.2048C124.337 11.3583 124.634 11.4792 124.942 11.5735C125.25 11.6658 125.569 11.73 125.892 11.7732C126.215 11.8166 126.541 11.8388 126.87 11.8675C127.019 11.8826 127.171 11.8636 127.323 11.833C127.475 11.8019 127.625 11.758 127.771 11.7081C128.359 11.5041 128.907 11.2224 129.422 10.9351C129.68 10.7902 129.929 10.6413 130.168 10.4897C130.288 10.4138 130.405 10.3372 130.518 10.2592C130.575 10.2203 130.631 10.181 130.683 10.141L130.72 10.1112L130.733 10.0985C130.734 10.0974 130.734 10.0979 130.733 10.0985C130.734 10.0995 130.732 10.0982 130.728 10.1126C130.701 10.1303 130.795 10.2227 130.794 10.1911C130.805 10.1905 130.804 10.19 130.805 10.1898C130.801 10.1906 130.783 10.1987 130.77 10.2053L130.726 10.2277C130.599 10.298 130.456 10.3358 130.319 10.3583C130.181 10.3812 130.043 10.3903 129.909 10.3928C129.639 10.3977 129.38 10.3782 129.132 10.3513C128.637 10.2959 128.189 10.2109 127.793 10.1278C127.397 10.044 127.055 9.95965 126.774 9.88698C126.212 9.7408 125.895 9.64188 125.895 9.64188L125.903 9.61681Z" fill="#1E1E1E"/>
<path d="M132.353 8.50402C132.353 8.50402 132.374 8.45376 132.41 8.36594C132.429 8.32207 132.452 8.26906 132.482 8.20897C132.497 8.17894 132.512 8.147 132.532 8.11345C132.541 8.09659 132.551 8.07968 132.566 8.0607C132.571 8.05519 132.572 8.05196 132.581 8.04459C132.586 8.04068 132.586 8.03918 132.596 8.03374C132.614 8.02924 132.629 8.01963 132.66 8.04475C132.666 8.05009 132.671 8.05821 132.672 8.06163L132.674 8.06764C132.675 8.07174 132.676 8.076 132.677 8.08014C132.678 8.08995 132.677 8.08973 132.677 8.09505C132.677 8.10389 132.676 8.1096 132.675 8.11574C132.658 8.20655 132.627 8.28724 132.594 8.37708C132.56 8.4658 132.519 8.55642 132.474 8.64955C132.385 8.83547 132.279 9.02889 132.158 9.21567C132.099 9.30971 132.035 9.40114 131.97 9.49095C131.906 9.58071 131.836 9.66595 131.761 9.74255C131.685 9.81809 131.605 9.88657 131.521 9.9433C131.439 10.0013 131.355 10.0495 131.273 10.087C131.109 10.1633 130.956 10.1952 130.848 10.1999C130.795 10.203 130.753 10.2018 130.724 10.1984C130.696 10.1953 130.68 10.1937 130.68 10.1937L130.676 10.1672C130.676 10.1672 130.732 10.1478 130.818 10.1073C130.862 10.0872 130.913 10.0597 130.968 10.0268C131.023 9.99316 131.083 9.9518 131.145 9.90487C131.207 9.85716 131.272 9.80284 131.339 9.74263C131.404 9.68104 131.473 9.61614 131.542 9.54649C131.613 9.47792 131.686 9.40585 131.759 9.33056C131.832 9.25528 131.901 9.17364 131.969 9.0905C132.101 8.923 132.223 8.7456 132.328 8.57395C132.38 8.48821 132.427 8.40317 132.471 8.32246C132.513 8.24256 132.554 8.1614 132.576 8.09397L132.578 8.08473C132.579 8.0864 132.58 8.08806 132.581 8.08958L132.582 8.09193C132.583 8.09432 132.586 8.10161 132.591 8.10608C132.619 8.12557 132.628 8.11935 132.641 8.1158C132.647 8.11248 132.643 8.11478 132.645 8.11377C132.645 8.11215 132.641 8.11737 132.639 8.11876C132.628 8.12979 132.616 8.14444 132.605 8.15856C132.584 8.18712 132.565 8.21642 132.546 8.24371C132.511 8.2995 132.481 8.34821 132.456 8.38827C132.407 8.4698 132.379 8.51635 132.379 8.51635L132.353 8.50402Z" fill="#1E1E1E"/>
<path d="M133.482 7.8902C133.482 7.8902 133.52 7.87471 133.595 7.85328C133.669 7.83224 133.78 7.80362 133.928 7.79173C134.002 7.78634 134.086 7.78556 134.177 7.80007C134.267 7.8151 134.368 7.84491 134.457 7.91061C134.546 7.97547 134.616 8.07337 134.655 8.18295C134.694 8.29282 134.707 8.41224 134.706 8.5335C134.705 8.65429 134.689 8.78128 134.669 8.90496C134.649 9.03022 134.628 9.15963 134.607 9.29275C134.56 9.55871 134.501 9.84081 134.392 10.1215C134.283 10.4015 134.109 10.6756 133.867 10.894C133.626 11.1143 133.332 11.2791 133.029 11.4135L132.798 11.5089C132.721 11.5383 132.642 11.5634 132.563 11.5907C132.407 11.648 132.247 11.6878 132.09 11.7347C131.777 11.8227 131.47 11.8983 131.171 11.9766C130.872 12.0503 130.579 12.1193 130.294 12.1673C130.222 12.1795 130.152 12.1916 130.081 12.1996C130.01 12.2086 129.941 12.2184 129.871 12.2221C129.801 12.2268 129.733 12.2321 129.664 12.2306C129.596 12.231 129.53 12.2321 129.464 12.2262C129.203 12.2113 128.968 12.1639 128.767 12.1111C128.565 12.0598 128.407 11.965 128.267 11.9174C128.126 11.8713 128.031 11.7925 127.956 11.7653C127.881 11.7381 127.842 11.7236 127.842 11.7236L127.834 11.7385C127.834 11.7385 127.868 11.7665 127.946 11.7811C128.023 11.7964 128.133 11.8289 128.278 11.8573C128.422 11.8843 128.596 11.9234 128.796 11.9538C128.996 11.9869 129.219 12.0125 129.46 12.0105C129.7 12.008 129.955 11.972 130.227 11.9132C130.498 11.8531 130.785 11.7813 131.084 11.7071C131.384 11.6358 131.696 11.564 132.01 11.4929C132.165 11.454 132.324 11.4218 132.475 11.3717C132.552 11.3481 132.629 11.3265 132.705 11.301L132.929 11.2177C133.222 11.0987 133.502 10.9526 133.73 10.7574C133.959 10.5639 134.127 10.3201 134.239 10.059C134.352 9.79791 134.417 9.52415 134.475 9.26391C134.503 9.13262 134.529 9.00494 134.555 8.88144C134.581 8.75681 134.601 8.64116 134.607 8.52627C134.613 8.41242 134.606 8.30187 134.575 8.20311C134.544 8.10451 134.488 8.01993 134.414 7.961C134.34 7.90162 134.251 7.87075 134.168 7.85355C134.085 7.83665 134.005 7.83411 133.933 7.83645C133.79 7.84218 133.679 7.86569 133.605 7.88334C133.531 7.90146 133.493 7.91487 133.493 7.91487L133.482 7.8902Z" fill="#1E1E1E"/>
<path d="M126.561 11.9453C126.561 11.9453 126.553 11.9701 126.558 12.0214C126.563 12.0714 126.587 12.1463 126.652 12.2214C126.716 12.2968 126.819 12.3691 126.95 12.428C127.08 12.488 127.238 12.5353 127.413 12.5698C127.587 12.6067 127.783 12.635 127.987 12.6658C128.191 12.695 128.407 12.7255 128.631 12.7515C129.078 12.8042 129.556 12.8455 130.031 12.8554C130.268 12.8582 130.504 12.8548 130.731 12.832C130.955 12.8072 131.179 12.7746 131.349 12.6983C131.392 12.6807 131.43 12.6595 131.461 12.6368C131.505 12.6058 131.548 12.5751 131.591 12.5447C131.641 12.5155 131.691 12.4835 131.739 12.4586C131.787 12.4349 131.835 12.4096 131.882 12.3896C132.07 12.3039 132.247 12.2403 132.394 12.167C132.542 12.0941 132.659 12.0103 132.737 11.9126C132.782 11.867 132.806 11.8125 132.836 11.7657C132.855 11.714 132.88 11.6679 132.891 11.6221C132.903 11.5759 132.914 11.5346 132.924 11.4988C132.929 11.4615 132.933 11.4298 132.937 11.4041C132.945 11.352 132.949 11.3242 132.949 11.3242L132.977 11.3246C132.977 11.3246 132.981 11.3533 132.987 11.407C132.989 11.4343 132.993 11.4678 132.996 11.5073C132.995 11.5471 132.993 11.5928 132.991 11.644C132.988 11.6955 132.973 11.7511 132.961 11.8135C132.937 11.8718 132.919 11.9401 132.877 12.0026C132.802 12.1324 132.673 12.2551 132.518 12.3511C132.364 12.4497 132.188 12.5294 132.018 12.6195C131.932 12.6652 131.85 12.7147 131.775 12.7636C131.735 12.7935 131.692 12.8279 131.652 12.8559C131.598 12.8961 131.541 12.9273 131.483 12.9519C131.248 13.0456 131.006 13.0701 130.763 13.0812C130.52 13.0901 130.276 13.0839 130.033 13.0686C129.546 13.0382 129.064 12.9763 128.615 12.9047C128.39 12.8684 128.174 12.8311 127.969 12.7899C127.764 12.7476 127.572 12.7098 127.393 12.6622C127.215 12.6171 127.053 12.5595 126.919 12.489C126.784 12.42 126.677 12.3361 126.612 12.2488C126.546 12.162 126.526 12.0773 126.524 12.0222C126.523 11.9943 126.526 11.9731 126.529 11.9589C126.532 11.9439 126.534 11.9375 126.534 11.9375L126.561 11.9453Z" fill="#1E1E1E"/>
<path d="M127.953 8.75334C127.726 8.75662 127.498 8.74708 127.27 8.72906C127.039 8.7102 126.807 8.68156 126.577 8.63843C126.347 8.59564 126.118 8.53968 125.896 8.45955C125.784 8.42138 125.676 8.37296 125.569 8.32095C125.464 8.26569 125.36 8.20656 125.266 8.13266C125.169 8.0618 125.083 7.97714 125.01 7.8833C124.933 7.7906 124.882 7.68263 124.839 7.57357C124.825 7.51789 124.804 7.46063 124.796 7.40574C124.785 7.35236 124.775 7.29741 124.767 7.24085C124.753 7.12914 124.743 7.01666 124.755 6.90072C124.759 6.843 124.774 6.78412 124.798 6.7269C124.821 6.66952 124.864 6.61463 124.92 6.57611C125.036 6.49853 125.172 6.4954 125.289 6.49332C125.408 6.49305 125.522 6.50076 125.629 6.49204C125.737 6.485 125.833 6.45809 125.907 6.40423L125.878 6.45874C125.882 6.36577 125.893 6.27987 125.908 6.19185C125.923 6.10452 125.944 6.0179 125.97 5.93275C126.024 5.76308 126.099 5.5953 126.223 5.45219C126.284 5.38095 126.358 5.31673 126.443 5.26648C126.527 5.21543 126.625 5.18085 126.725 5.1644C126.825 5.14723 126.928 5.14529 127.028 5.15816C127.128 5.16804 127.224 5.19337 127.319 5.22096L127.584 5.3074C127.673 5.33795 127.762 5.36713 127.85 5.40024C127.938 5.4314 128.026 5.46733 128.115 5.50321L128.246 5.56235L128.376 5.62955C128.461 5.67997 128.547 5.73373 128.623 5.80561C128.702 5.87366 128.765 5.96113 128.813 6.05C128.862 6.13997 128.89 6.2323 128.915 6.32236C128.938 6.41255 128.954 6.50108 128.97 6.58893L128.752 6.52298C128.867 6.39458 128.988 6.28155 129.123 6.17426C129.258 6.06896 129.404 5.96984 129.584 5.90419C129.675 5.8724 129.776 5.8494 129.888 5.8542C130.001 5.85843 130.122 5.90308 130.212 5.97379C130.346 6.08004 130.483 6.17613 130.624 6.28298C130.763 6.38932 130.904 6.4996 131.032 6.62766C131.159 6.75505 131.28 6.89786 131.366 7.06638C131.409 7.15063 131.442 7.24088 131.461 7.33493C131.48 7.42916 131.481 7.52625 131.468 7.61938C131.441 7.80773 131.348 7.96993 131.24 8.10701L131.219 8.13308L131.197 8.15833L131.077 8.29499C131.018 8.35524 130.96 8.41726 130.899 8.47561C130.778 8.59047 130.652 8.70029 130.518 8.80138C130.452 8.85298 130.384 8.90237 130.314 8.94924C130.246 8.9982 130.173 9.04169 130.101 9.08641C129.955 9.17208 129.805 9.2519 129.647 9.31859C129.49 9.38763 129.325 9.44344 129.153 9.48124C128.983 9.51713 128.798 9.54035 128.612 9.49422L128.549 9.47755L128.481 9.45136C128.435 9.4357 128.398 9.4089 128.356 9.38753C128.279 9.33628 128.211 9.27476 128.155 9.20608C128.048 9.06984 127.982 8.91359 127.953 8.75334ZM127.978 8.73864C128.022 8.8937 128.105 9.04217 128.214 9.16186C128.271 9.22045 128.336 9.27012 128.406 9.30949C128.443 9.32463 128.479 9.3468 128.516 9.3554L128.571 9.37268L128.634 9.38428C128.79 9.40886 128.953 9.38472 129.108 9.34107C129.264 9.29724 129.415 9.23627 129.559 9.16223C129.704 9.09068 129.842 9.00637 129.975 8.91683C130.108 8.82663 130.239 8.73279 130.36 8.62885C130.484 8.52769 130.598 8.41704 130.709 8.30514C130.764 8.24862 130.815 8.19117 130.868 8.13371L131.002 7.97283L131.018 7.95046C131.106 7.83267 131.169 7.7035 131.186 7.5712C131.206 7.43923 131.175 7.30406 131.108 7.17562C131.04 7.04688 130.939 6.92575 130.824 6.81371C130.709 6.70138 130.582 6.5943 130.448 6.49098C130.317 6.38811 130.173 6.28433 130.039 6.17504C129.993 6.13977 129.944 6.11967 129.884 6.11475C129.825 6.11073 129.756 6.12215 129.688 6.14458C129.551 6.19006 129.417 6.27341 129.292 6.3663C129.168 6.4596 129.048 6.56748 128.944 6.6776L128.764 6.86786L128.726 6.61164C128.713 6.52735 128.7 6.44376 128.681 6.36358C128.661 6.28425 128.639 6.20655 128.604 6.13829C128.569 6.07016 128.527 6.00685 128.467 5.95365C128.412 5.89802 128.341 5.85177 128.268 5.80694L128.153 5.7449L128.032 5.68797C127.949 5.6527 127.866 5.61702 127.78 5.5851C127.696 5.5515 127.609 5.52147 127.523 5.4902L127.262 5.40018C127.097 5.34688 126.925 5.31601 126.767 5.34179C126.608 5.36301 126.469 5.44734 126.364 5.56465C126.258 5.68213 126.186 5.83116 126.133 5.98647C126.107 6.06438 126.087 6.14481 126.071 6.22627C126.055 6.30703 126.043 6.39204 126.038 6.47129L126.036 6.50679L126.009 6.52579C125.902 6.60112 125.769 6.63101 125.648 6.63668C125.525 6.64415 125.407 6.63365 125.295 6.63224C125.185 6.63076 125.077 6.63801 125.005 6.68529C124.933 6.7302 124.898 6.82224 124.885 6.92121C124.872 7.02063 124.878 7.12733 124.889 7.23268C124.895 7.28478 124.903 7.33819 124.913 7.39285C124.92 7.44674 124.937 7.49482 124.948 7.54637C124.984 7.64463 125.027 7.74267 125.094 7.82833C125.159 7.91502 125.236 7.99502 125.325 8.06346C125.411 8.13472 125.509 8.19326 125.608 8.24855C125.71 8.30077 125.813 8.35013 125.921 8.38984C126.136 8.47294 126.36 8.53339 126.586 8.58083C126.813 8.62876 127.042 8.66253 127.272 8.68667C127.502 8.71032 127.733 8.72559 127.963 8.72714L127.975 8.7272L127.978 8.73864Z" fill="#1E1E1E"/>
<path d="M127.963 8.75332C127.675 8.70916 127.393 8.62437 127.124 8.50651C127.057 8.47691 126.991 8.44459 126.927 8.41002C126.862 8.37544 126.799 8.3376 126.736 8.29832C126.675 8.25763 126.615 8.21531 126.557 8.16958C126.5 8.1233 126.443 8.0759 126.391 8.0236C126.337 7.9732 126.289 7.91738 126.242 7.86101C126.22 7.83202 126.196 7.80345 126.175 7.77381L126.114 7.6824C126.077 7.61965 126.039 7.55677 126.011 7.48983C125.979 7.42426 125.957 7.35593 125.934 7.28777C125.916 7.21879 125.894 7.14968 125.884 7.07952L125.866 6.97435L125.857 6.86899C125.849 6.79851 125.853 6.72874 125.852 6.65855C125.854 6.58863 125.861 6.51959 125.866 6.44986L125.869 6.40943L125.909 6.38831C125.97 6.35663 126.025 6.33124 126.085 6.30786C126.143 6.2832 126.203 6.26376 126.263 6.24259C126.324 6.22498 126.384 6.2049 126.446 6.19006C126.508 6.17624 126.569 6.15801 126.632 6.14828C126.695 6.13817 126.758 6.1229 126.822 6.11715C126.886 6.11032 126.949 6.10047 127.013 6.09633L127.207 6.08586L127.402 6.08826C127.467 6.08716 127.531 6.0962 127.597 6.10121C127.662 6.10722 127.727 6.11028 127.791 6.12296L127.985 6.15473C128.049 6.1675 128.113 6.18463 128.177 6.20067C128.24 6.21715 128.305 6.2321 128.366 6.25558L128.552 6.32016C128.615 6.33924 128.673 6.37057 128.733 6.39678L128.967 6.50432L128.985 6.55906C129.008 6.62679 129.017 6.67746 129.027 6.73527C129.035 6.79136 129.041 6.84692 129.043 6.90223C129.046 6.95758 129.045 7.01267 129.041 7.06702C129.039 7.1218 129.031 7.17541 129.023 7.22902C129.017 7.28308 129.003 7.33497 128.991 7.38753C128.982 7.44055 128.962 7.49063 128.945 7.54123L128.919 7.61691L128.887 7.68988C128.864 7.73779 128.847 7.78823 128.819 7.83345L128.74 7.97057C128.712 8.01546 128.68 8.05714 128.65 8.1004C128.62 8.14335 128.59 8.18646 128.554 8.22475L128.45 8.34282C128.417 8.38366 128.375 8.41647 128.338 8.45278L128.223 8.55899C128.141 8.62473 128.058 8.68828 127.974 8.75001L127.969 8.75402L127.963 8.75332ZM127.959 8.72524C128.024 8.64848 128.091 8.57447 128.156 8.50051L128.248 8.37998C128.277 8.33904 128.311 8.30188 128.337 8.25916L128.418 8.13438C128.447 8.09383 128.469 8.04968 128.493 8.00673C128.516 7.96331 128.542 7.92146 128.562 7.87711L128.62 7.74325C128.642 7.69982 128.653 7.65232 128.67 7.60733L128.694 7.5391L128.71 7.46915C128.722 7.42267 128.734 7.37644 128.74 7.32915C128.747 7.28203 128.758 7.23551 128.76 7.18796C128.763 7.14068 128.768 7.09346 128.767 7.04611C128.768 6.99878 128.765 6.95174 128.761 6.90483C128.757 6.85814 128.751 6.81138 128.742 6.76604C128.735 6.72224 128.721 6.6719 128.71 6.64094L128.784 6.72102L128.618 6.64625C128.562 6.62314 128.509 6.59228 128.452 6.57335L128.282 6.50949C128.226 6.4861 128.168 6.47116 128.11 6.45455C128.051 6.43889 127.994 6.41872 127.936 6.40443L127.758 6.3666C127.7 6.35174 127.64 6.34639 127.58 6.33777C127.52 6.33074 127.46 6.31971 127.4 6.31847L127.22 6.30869L127.039 6.31109C126.979 6.31226 126.92 6.3198 126.86 6.32382C126.8 6.32682 126.741 6.33935 126.682 6.34653C126.622 6.3533 126.565 6.3686 126.506 6.37924C126.448 6.39093 126.391 6.40775 126.333 6.42204C126.277 6.43976 126.22 6.45583 126.165 6.47663C126.11 6.49551 126.055 6.51926 126.007 6.54146L126.05 6.48001C126.044 6.54459 126.034 6.6091 126.03 6.67389C126.029 6.73881 126.022 6.80392 126.027 6.86893L126.031 6.96659L126.044 7.06366C126.05 7.12875 126.068 7.19222 126.082 7.25623C126.101 7.31917 126.119 7.38275 126.146 7.44356C126.169 7.50581 126.201 7.56462 126.232 7.62414L126.284 7.71099C126.302 7.73931 126.322 7.76655 126.342 7.79456C126.383 7.84887 126.425 7.90312 126.473 7.95261C126.519 8.00387 126.571 8.05107 126.623 8.09744C126.676 8.14336 126.731 8.18642 126.788 8.22813C126.846 8.26847 126.905 8.30779 126.966 8.34412C127.027 8.38034 127.09 8.41472 127.154 8.44656C127.408 8.5724 127.68 8.66852 127.959 8.72524Z" fill="#1E1E1E"/>
<path d="M127.957 8.72857C127.957 8.72857 127.995 8.70325 128.062 8.65904C128.095 8.6363 128.137 8.61118 128.182 8.57908C128.226 8.54737 128.277 8.51162 128.332 8.47262C128.385 8.43084 128.444 8.38749 128.504 8.33878C128.562 8.28846 128.625 8.23897 128.684 8.181C128.745 8.12579 128.802 8.06341 128.859 8.00093C128.915 7.93724 128.967 7.87014 129.011 7.79985C129.054 7.72891 129.09 7.65568 129.11 7.58155C129.13 7.50724 129.144 7.43538 129.145 7.36667C129.149 7.29808 129.143 7.23238 129.133 7.16825C129.12 7.10473 129.1 7.0439 129.076 6.98724C129.028 6.87385 128.965 6.78032 128.918 6.71446C128.872 6.64872 128.84 6.61124 128.84 6.61124L128.855 6.58936C128.855 6.58936 128.906 6.60233 128.985 6.64555C129.025 6.66691 129.071 6.69621 129.12 6.7357C129.169 6.77544 129.223 6.82426 129.271 6.88745C129.32 6.94977 129.365 7.02492 129.397 7.11185C129.43 7.19843 129.444 7.29675 129.439 7.39543C129.435 7.49489 129.402 7.59091 129.359 7.67952C129.316 7.76795 129.262 7.84992 129.201 7.92436C129.142 7.99996 129.076 8.06823 129.008 8.1312C128.939 8.19348 128.869 8.25121 128.797 8.30133C128.656 8.40585 128.513 8.48489 128.391 8.55243C128.266 8.61631 128.164 8.66918 128.089 8.70018C128.014 8.73303 127.972 8.75185 127.972 8.75185L127.957 8.72857Z" fill="#1E1E1E"/>
</svg>
