<svg width="150" height="150" viewBox="0 0 150 150" fill="none" xmlns="http://www.w3.org/2000/svg">
<path d="M105.75 13H43.25C25.9911 13 12 26.9911 12 44.25V106.75C12 124.009 25.9911 138 43.25 138H105.75C123.009 138 137 124.009 137 106.75V44.25C137 26.9911 123.009 13 105.75 13Z" stroke="white" stroke-width="12.5" stroke-linecap="round" stroke-linejoin="round"/>
<path d="M98.9083 36.375C94.8354 31.4976 92.5908 25.234 92.5925 18.75H74.1812V96.25C74.0392 100.444 72.3513 104.416 69.4728 107.331C66.5943 110.245 62.7499 111.874 58.7492 111.875C50.2883 111.875 43.2575 104.625 43.2575 95.625C43.2575 84.875 53.1483 76.8125 63.3371 80.125V60.375C42.7808 57.5 24.7867 74.25 24.7867 95.625C24.7867 116.438 41.2317 131.25 58.6896 131.25C77.3988 131.25 92.5925 115.312 92.5925 95.625V56.3125C100.058 61.9366 109.022 64.954 118.213 64.9375V45.625C118.213 45.625 107.012 46.1875 98.9083 36.375Z" fill="white"/>
</svg>
